<mxfile host="65bd71144e">
    <diagram id="eSDknKZ8OmmkBMXRT5O3" name="Page-1">
        <mxGraphModel dx="1378" dy="682" grid="1" gridSize="10" guides="1" tooltips="1" connect="1" arrows="1" fold="1" page="1" pageScale="1" pageWidth="1100" pageHeight="850" math="0" shadow="0">
            <root>
                <mxCell id="0"/>
                <mxCell id="1" parent="0"/>
                <mxCell id="2" value="" style="shape=image;verticalLabelPosition=bottom;labelBackgroundColor=#ffffff;verticalAlign=top;aspect=fixed;imageAspect=0;image=data:image/png,iVBORw0KGgoAAAANSUhEUgAAAY8AAAH+CAYAAABk5IKDAAAKoGlDQ1BJQ0MgUHJvZmlsZQAASImVlwdYE9kWgO9MekhooUsJvUkXCCAl9NClg42QBAglhkBodmRxBVYUERFQFiw0BdcCyFoQUSwsAjZUdEFEQXkuFmyovAEeYXff99773vm+O+efM+eec8+duflOACDjmXx+IiwJQBIvVRDo4UwNj4ik4p4DPCAgQxOYMlkpfHpAgA9AZEH/VT7cA9Csvm00G+vfn/9XkWJzUlgAQAEIR7NTWEkIn0bGMxZfkAoAqhSxa6an8mf5HMIyAmSBCPfOcuw8P5vl6Hn+NOcTHOgCAJoEAJ7EZApiASApIHZqGisWiUOiIWzKY3N5CMch7JCUtI6NcC3CeogPH+HZ+LToP8WJ/UvMaFFMJjNWxPO1zAnelZvCT2Rm/p/b8b8lKVG4kEMHzBYg8Ayc1cieDSSs8xYxL9rPf4G57Dn/OY4TeoYsMCvFJXKB2UxXb9HcRD+fBY7hujNEcVIZwQvMSXELWmDBukBRrhiBC32BmYLFvMKEEJE9jsMQxc+KCw5b4DRuqN8CpyQEeS/6uIjsAmGgaP0cnofzYl53Ue1JKX+ql8sQzU2NC/YU1c5cXD+HR1+MmRIuWhub4+q26BMi8uenOoty8RMDRP6cRA+RPSUtSDQ3FfkgF+cGiPYwnukVsMDAB3gAKnAHnsA1lZOROluAyzp+poAbG5dKpSMni0Nl8FjGS6nmpubmAMye0/nP4N3A3PmD5PCLtmTkvdoi7w1OWrRFIblaJwGQZC3atJci6bsAaF/NEgrS5m3o2QsGEIEEkAGKQBX5FdADRsAcWAE74ATcgBfwB8EgAqwBLBAHkoAApIMNYCvIBflgF9gLykAlOARqwXFwErSAc+ASuApugl5wFzwCQ2AUvAKT4AOYhiAIB5EhCqQIqUHakCFkDtEgB8gN8oECoQgoCoqFeJAQ2gBtg/KhIqgMqoLqoF+gs9Al6DrUBz2AhqFx6C30BUbBJFgGVoF1YBOYBtNhbzgYXg3HwslwFpwD74RL4Wr4GNwMX4JvwnfhIfgVPIUCKDGUHEodZYSioVxQ/qhIVAxKgNqEykOVoKpRjag2VBfqNmoINYH6jMaiKWgq2ghth/ZEh6BZ6GT0JnQBugxdi25Gd6Jvo4fRk+jvGDJGGWOIscUwMOGYWEw6JhdTgjmKOYO5grmLGcV8wGKxclhdrDXWExuBjceuxxZgD2CbsO3YPuwIdgqHwyniDHH2OH8cE5eKy8Xtxx3DXcT140Zxn/BieDW8Od4dH4nn4bPxJfh6/AV8P/4FfpogSdAm2BL8CWxCJqGQcJjQRrhFGCVME6WIukR7YjAxnriVWEpsJF4hDhLfiYmJaYjZiK0Q44ptESsVOyF2TWxY7DNJmmRAciGtIglJO0k1pHbSA9I7MpmsQ3YiR5JTyTvJdeTL5CfkT+IUcWNxhjhbfLN4uXizeL/4awmChLYEXWKNRJZEicQpiVsSE5IESR1JF0mm5CbJcsmzkvclp6QoUmZS/lJJUgVS9VLXpcakcdI60m7SbOkc6UPSl6VHKCiKJsWFwqJsoxymXKGMymBldGUYMvEy+TLHZXpkJmWlZZfJhspmyJbLnpcdkkPJ6cgx5BLlCuVOyt2T+yKvIk+X58jvkG+U75f/qLBEwUmBo5Cn0KRwV+GLIlXRTTFBcbdii+JjJbSSgdIKpXSlg0pXlCaWyCyxW8Jakrfk5JKHyrCygXKg8nrlQ8rdylMqqioeKnyV/SqXVSZU5VSdVONVi1UvqI6rUdQc1LhqxWoX1V5SZal0aiK1lNpJnVRXVvdUF6pXqfeoT2voaoRoZGs0aTzWJGrSNGM0izU7NCe11LR8tTZoNWg91CZo07TjtPdpd2l/1NHVCdPZrtOiM6aroMvQzdJt0B3UI+s56iXrVevd0cfq0/QT9A/o9xrABpYGcQblBrcMYUMrQ67hAcO+pZilNkt5S6uX3jciGdGN0owajIaN5Yx9jLONW4xfm2iZRJrsNuky+W5qaZpoetj0kZm0mZdZtlmb2VtzA3OWebn5HQuyhbvFZotWizfLDJdxlh1cNmBJsfS13G7ZYfnNytpKYNVoNW6tZR1lXWF9nyZDC6AV0K7ZYGycbTbbnLP5bGtlm2p70vYPOyO7BLt6u7Hluss5yw8vH7HXsGfaV9kPOVAdohx+dhhyVHdkOlY7PnXSdGI7HXV6Qdenx9OP0V87mzoLnM84f3Sxddno0u6KcvVwzXPtcZN2C3Erc3viruEe697gPulh6bHeo90T4+ntudvzPkOFwWLUMSa9rL02enV6k7yDvMu8n/oY+Ah82nxhXy/fPb6Dftp+PL8Wf+DP8N/j/zhANyA54NcV2BUBK8pXPA80C9wQ2BVECVobVB/0Idg5uDD4UYheiDCkI1QidFVoXejHMNeworChcJPwjeE3I5QiuBGtkbjI0MijkVMr3VbuXTm6ynJV7qp7q3VXZ6y+vkZpTeKa82sl1jLXnorCRIVF1Ud9Zfozq5lT0YzoiuhJlgtrH+sV24ldzB7n2HOKOC9i7GOKYsZi7WP3xI7HOcaVxE1wXbhl3DfxnvGV8R8T/BNqEmYSwxKbkvBJUUlnedK8BF7nOtV1Gev6+Ib8XP5Qsm3y3uRJgbfgaAqUsjqlNVUGaYi6hXrCH4TDaQ5p5Wmf0kPTT2VIZfAyujMNMndkvshyzzqyHr2etb5jg/qGrRuGN9I3Vm2CNkVv6tisuTln8+gWjy21W4lbE7b+lm2aXZT9flvYtrYclZwtOSM/ePzQkCueK8i9v91ue+WP6B+5P/bssNixf8f3PHbejXzT/JL8rwWsghs/mf1U+tPMzpidPYVWhQd3YXfxdt3b7bi7tkiqKKtoZI/vnuZianFe8fu9a/deL1lWUrmPuE+4b6jUp7R1v9b+Xfu/lsWV3S13Lm+qUK7YUfHxAPtA/0Gng42VKpX5lV9+5v48UOVR1VytU11yCHso7dDzw6GHu47QjtQdVTqaf/RbDa9mqDawtrPOuq6uXrm+sAFuEDaMH1t1rPe46/HWRqPGqia5pvwT4ITwxMtfon65d9L7ZMcp2qnG09qnK85QzuQ1Q82ZzZMtcS1DrRGtfWe9zna02bWd+dX415pz6ufKz8ueL7xAvJBzYeZi1sWpdn77xKXYSyMdazseXQ6/fKdzRWfPFe8r1666X73cRe+6eM3+2rnrttfP3qDdaLlpdbO527L7zG+Wv53pseppvmV9q7XXpretb3nfhX7H/ku3XW9fvcO4c/Ou392+eyH3Bu6vuj80wB4Ye5D44M3DtIfTj7YMYgbzHks+Lnmi/KT6d/3fm4ashs4Puw53Pw16+miENfLqWcqzr6M5z8nPS16ovagbMx87N+4+3vty5cvRV/xX0xO5/5D6R8Vrvden/3D6o3syfHL0jeDNzNuCd4rvat4ve98xFTD15EPSh+mPeZ8UP9V+pn3u+hL25cV0+lfc19Jv+t/avnt/H5xJmpnhMwXMuVYAhQw4JgaAtzUAkCMAoCB9MXHlfB89J9B87z9H4D/xfK89J1YAHEFUSDsAs21ZldO/2ljkPgDhYCcAW1iIxkLPO9efz4oq8v9g5VWAx4DBzDLwd5nv3f+07r9rIIr6F/1PgPkAli9Zdp4AAABWZVhJZk1NACoAAAAIAAGHaQAEAAAAAQAAABoAAAAAAAOShgAHAAAAEgAAAESgAgAEAAAAAQAAAY+gAwAEAAAAAQAAAf4AAAAAQVNDSUkAAABTY3JlZW5zaG90ViNXqQAAAdZpVFh0WE1MOmNvbS5hZG9iZS54bXAAAAAAADx4OnhtcG1ldGEgeG1sbnM6eD0iYWRvYmU6bnM6bWV0YS8iIHg6eG1wdGs9IlhNUCBDb3JlIDYuMC4wIj4KICAgPHJkZjpSREYgeG1sbnM6cmRmPSJodHRwOi8vd3d3LnczLm9yZy8xOTk5LzAyLzIyLXJkZi1zeW50YXgtbnMjIj4KICAgICAgPHJkZjpEZXNjcmlwdGlvbiByZGY6YWJvdXQ9IiIKICAgICAgICAgICAgeG1sbnM6ZXhpZj0iaHR0cDovL25zLmFkb2JlLmNvbS9leGlmLzEuMC8iPgogICAgICAgICA8ZXhpZjpQaXhlbFlEaW1lbnNpb24+NTEwPC9leGlmOlBpeGVsWURpbWVuc2lvbj4KICAgICAgICAgPGV4aWY6UGl4ZWxYRGltZW5zaW9uPjM5OTwvZXhpZjpQaXhlbFhEaW1lbnNpb24+CiAgICAgICAgIDxleGlmOlVzZXJDb21tZW50PlNjcmVlbnNob3Q8L2V4aWY6VXNlckNvbW1lbnQ+CiAgICAgIDwvcmRmOkRlc2NyaXB0aW9uPgogICA8L3JkZjpSREY+CjwveDp4bXBtZXRhPgoACtvlAABAAElEQVR4Aey9B5wfx3EmWrv/zTki50gABEGCOWeRFCVREmVJlqxo2ed0tt/zs3U+351s3/vZ8jvHs0/W6SxbtpIVKFKJYhIzQQIMyIkIRA4LLDbn9L6vqmtm/osFCZCgKJLdwM50qK7q/qa6Os78CwYGh8dE8D+4ggJ4xgpkFHH0uisAyWhhAeKMfAw0SoswKQsLkANx6sgOtDIKDzIyPcuLcQWgJRkI8Gc+DWkwyo/4R/3LtpnY/qL9+Xmzv4VuuGni6XgdU+MeGq/1EGrjC8aQ6nYenUUB6UDPbiDpOMhE89udqUaj0bggNAqx6lRa8BljjYnyAWHEX41n1D9rKgAjtj9YBzMTACPanzfa/hb6wyiUYND5fPiA0Gg5kRgbxUNCUP3qQxKTg9+fpWYxNbe8NH7e8EE7Gngoc3QONI1qHgODKD/ir+oDfYj6xwYW21+0Pz/f9rdgcHAIkwbtHrzVasdgM5HQJWiy+a3TCPOUkJz0GdohsJtgn8TOAwSjyAG7OEqLAG2wWQr8XNbCTVmfQj6jmc3u8GjJNAezan5lQD+clo0yx8nnTMhyoyBjXF5DSJfgTADrb0UAHZJCKcHHcqkMJsBTaAHtDJNkZCZPyzdx/Zn75eqvddSOmvVTlJhB/SbS/FpHxHtI00BFx7TRsRH4UE+yYSkD/mqMECRnOjZMevVmlUfYuZp8o8VViSytEA9zjBgqE1xUDgP0Mscr1z8QW/UQOB39MzGUABmQb/WxCnCQksW/oCAHHMLIdIxYGF4viz9rhPrbU2Q9qL8JJImH8hHAP729Yv0LIJ/tgPS61Mu8xPll9F8xthwsEtoPygPdoLDx+GuaPjeyLEyev5UfmcPzp3yvvzIlT/LWaNSKdQ0yFOMgXymUiByYcur6W9lM/3TZlW1xAvle/4Rb0D8dqNJYIJuVH3cTq56CkKYEfOa6LM6KmbNy5+tfgdsfkgT7E7zGRqOtTi7M+FBwED5B/RWwIJ9UdBPJ9/obwIEzKsU2xRBluv1x/P35q56TKvP8NY+iA4GOjUpnqwcmxHyc/UthS+W/nP4FqlTABPVX0QND6DwAQiEfBivDxs8bL6hhjr4ihnJWVkRrMuKt7NkaZP3kERyiqQwKIKKYn5TuqEwmnzGeYjBpUBsfy2cuKz90U5pgFJ4aiHlDRlPGlIK8vBwu30jzpfBZ2ANJ8yb5kMGmbp5mXLMc1O8XbSSpXMqjy8q3kjLW6jFevqd4GVwy45mX+eyqEeYP8s1IO2ej1lyvgP/4+htnyz8R/ipOSxJkBPl8/lYr52DpXn/Ll82NsjJoF60LczoPNxOMUbJMzS0c5CBwOvpHaqXTbKn+ZevPJJdPGa9Uf2VFQnJ+hedvZVZi0AcpGqnam6mdctULa27tNh8FJpJDEG2+jHymu6RXwv906m+l1cKStfJ+OfkpJWihf+kqhT+BfPwZYh7P57xfqf5eGOWaqT/5uDvT+qN7U2dlOT38tfRBvsvlXes0rv0ZllZf138+Yy+zpVveifQvy1/9mhGXCeRrGQL+uMGN6kCfg/0xdry8FyIBgyDFEBTKhux0w5y5lIAFtAzs5XNFHOl4Ucn41E7lIlmp8wIn5zkpmREZA6FeZjs90Sogj2deQJPzLiclR/kR/6h/2uCSpsAWE9tfnt14uUCeTckLnJzrpOQE9EyHwWxvIP7sEkZGR7QjYTl4wIndlRZVfegbNKiF9P50RKdJRdpxsAahqvk3JqizaBv75Bn9bMVB5L0WM1kXRV+IVVrLoPDRq0FyzxccQsyszsJRvkLm4CT4pSBF/B2cqH+x/Zm9iPbn1PaXS125HNab2C1gZYqzM7Ygnz0TO8w8BhHHtXIE4CvE+loul9N7MD2aSW25R5zhnUKT/AzQ5UVketwk3sh4zcufRp+2Ly9/lG+4JTgbOnrNAyqF9xTRKcEr+PLyM0AX5RsOQbsVozygQjJup4hOCV7Bl5efAbqIv+EQ8VdlUB3JUxSDh1HDw9jBwiyEOsMZiS8xFjLAGJ01oJdhAjuQrNMjgowALcnPxJHeuGV6uTz2FgirBhOyjvID6hH/qH8TtpBTR8b2F+3Pa7G/zJujcUa/wHMq1CedhTCqb2BQzyAwmlOV4sIc7vBoF0OlzLP0jFCXKqXHZO5MdDdh9pAbNzt14MSZe5QfoJ8QQH2IE6cAw4h/qkgTghT1T5Urtr9of9A+Jm4iUA5NQKcBWzwyMoo9EB5RsaMLelhFj9MGa6OnPH2DXO+2nJS2xGCVnG8IpunBpz2VdQyMOYlMN1+QoAXPpGa8tqUf5WchSZBEpD7X/MQAPnE1Aof5JDJPiPgDxww6GW/UP2pYHjoIB4Bwi/qXwgFfvnuLtT9fpuLz53P3cT2WrbgjggieWeaylamFxvGiSjIuZLbHNShJTDwmIs07XgVtjczInVb1UkuWsFFPlJ/Fw9CI+BOTqH/jGmeiKN6mvO3E9gddyToa9+Acq2h/AMhp2F9uPrj94esnyT8D0IHlPePPeE0px6tkSuBK6w8o7UacIyiUPHl0KUnyYEmQ8sx6o3wiG/F37TA981BGpyxBsXKvUUX9i+2PGpHRFTda0f6EpsKWkrYpenWvA+tVXJTiJKOQMw4zQ7hyPoKQOd5Tv690JFGammGeJHgeE2a8wma5c2RBlAwXZeF8SO35eU/9UT6xgXNI1Ou48e4Jfo/4mz4TtKh/rimqHQjE9ke9ABoKjKMT4njT9uRtCbYx9WqqUXg+3k8meCvp36h3qrizz7CFKtSZHkWRd8cj9TAxgUYDycUA8/5b+x6k+T1ZKwPyDq1mRSAJw+P5NS3KD+gmQDhkIT57MxQdP8fd7xH/oGVR/9L2RvUBLAEZ9bj+qGYlapd4NDqh15BfLNbzu975PepfQO0ton/+nO3p46sg7B11/xy6wt6VfzTnGfUK3UhQJtcM46DXAJHtMTKnR2gq8oWwcsAlcEo4ZMmjfMJChFJUDK+AWsQ/0Rv3OFKud363dOAW9U+hUA3CJWiSw+fwGI1iRQpH1elDrqh/CW7ucaRc7/xu6cDtraB/fO48baXPHxXCf90iH9WpBzoRJFo9cQ26Qk8SBzTSNwwDH8YRpYSegaxjbktUPrgYvyyN+zOyEn6ZOHLKPBnX4yg/gdiBzNwj/lH/Yvtjg4j2x0B4tfaXx3PxuSs46BP+84UOoGprwkwwNTMh5s8XlYZg1AO9xqUJ5D7O+eZuwt3kpMFA73QIBt7ju5pUTJQf8Td9jfpn7WVco8sEvV2lDU59aTDQOp3xs+S0xZEoDcX293ZqfzqtQD9RwIkG/2PkHt4wN6XRL10HNUoVxTcbM5qmXqoRmGXoU2+GNkQaneVhlErMZPYcmajAO8o3bBwhgKdewzKLV4DaCdIgfEZneZgQ8QeIGfAc3UxU1D/VoNj+TDdcQwCKeq0tZfVF4QqYpX7zGZ3lYcybrv3xJUDUW7c2eOIK/zDz4Jf3iUb4U2BYPff4ZncGpuDN7zpcyZgXBJ6dQQZCOP3FQednCR5yuiSDFpM8EorEG+VnMAFwKeSITwMRf4IR8Ij65zrjdwPGQ45TAlhsf8HyJAi9Te0PD1bBxrAp4Vcc6cfMA32gxjABKQGj0NbU8KR+GvHU+ekti/FOJqhdBms18giTj73RnqpmItC1NspXOFPMs51Cij19Ef8sHlH/vMmp7ngAEMX2BzDwP9qfV29/ddCF/kH/BeOkex7WgfCnYlOTZd9vVxMVWqil6dXJVEERYKdDF26p3jIt7R4sPnsN2TQfJ3KBAaKjfEfR74aNXh0mTUIg4h8UyW6OmCof4PGw3bPXqH9EwNQntr9of9ywnGx/C8SWrfTzViTDyBWdBx27jVFMQyw0/uqNj/HqR0Yl1Qti/ASUJmYeARfIQlzCM82YRKXZlTiJd082Vv1RfsSfyhH1DyCgRaQNSEFRWBQfpqmHF3Ox/QGHBCHFJIVPwQpApbdsrPrfhvaHAwz+LK7t1aC/QBidR5juYxd9FCgmsAKlxK+eLIRBJxmlaUbJK6fICSVANpfytfc4EoqQzlvKQyNB4rnNk59HQ7woUZo3yo/4J5oS9U+bElurt6XY/ghJoiEBH95SG6KRIHHMzJOfR0O8KFGa961qf9Sq4LPrWmWdqurMA5/a1QD6kRFdHVXseEl+RwM5TgmkowgCejXIzJohCYX1eecfuOXdQBt4MDtdlB8AMmgMFI1KcTXAU+ySlHF0Zkcj/oZPwDXvlmJoQEf9i+0vKIipxtu6/WHRCp8lwUa5vhNogBRxv4PjEv2lKP6OR9aFmYg1uJCQF7A4Qsyp3/DwkAwMDklRrlhKS4oYGzJBMLxj6Jx6enuluDgnZWVlbJ1Ko1TswHz+6LlOQ/7GLdtl34HDcuM1l4NnifLr7e2XzVu3y/adL0lFRblce9Wl0tvbJy+s3SRXXXGxNDbUmYSzIJ+MvP7BF3iLHG9tkw2btsmsWVNl3pzZWBZETbWyejkr9X85+VYQu6roKD/iH/UPDSK2P7UKZ2j/aD7sdwLRY8Be5/7wD//wj2n9zK4USFkpDLDZdOPP6wR2XRMDYXgUMNg75R//+evy9Jq1snDBXKmprjIyXElz8PBR+c9/8j/kaMtxuWjlcsR5ThJk/BPIHxjolxPt7Vro4uJikJN+TP4Q/J5+5nmZO2eWzJwxTfr6B+SBnz6u5Xhu/Ubp7OyWlSvOlR/85CH57j336k/snr98KeqbN8F8RfnZ4kFwcFZQlqTlWKt09/RIZWWl1mp4eFiefm6t/P0XvyKj+CGVJYsXoHMrtXzIdrblG2NbnsggGcoZmosnRPkR/7Os/6ejf2wtx48NyeiwSEkZW78rJBLQwAb6x6T1+KiUFOOnsIssTa/I+Ertj/JHRwrk2PFhKS2d4NdQSeDiXkH/+3pH0ZZHUI5C/AjSmBw9PCw1NTlyGOdYo2wtfj7bX3f3qPT1jEpZeZgcvEL9J7L/I7BnwyMjobawnVjCUm7c4tbTTZiSEI4UZA2l4XHQaY8T4kjZ1d0j+/YdlIcee1IefPgJ6e3ps1RlMyaDQwOyY/ceOXykRQsRuKdcEaFxyUMOFAiveW69fPa//oXcj44Bv7se+BbIbTdeIxcsP1cWzp+LuDE5BiP+9LMvoBMslf/nNz4j//Wz/1FmTJ0il65cIRecv0wuuWiF5uUjPxP5aSEzPva4wf2X//ev5Lc/+ycJdPwd+NnTp8s1V14qy85ZJJUVmGlBoss82/KNry9LhUK5ML3zEuU7JBH/s6v/huvL61//wIj85V+2yle+gkEgP5MU1NRvjzzcLX/y34/Kvv1DFqXL6fCmzcxJQ3qaQF5t7cPyD39/HAM59E50LkDvvJye/m9Y3y93fbtTOsGv5eiIfO5Pjiq7ky6Z9m+iXr7+pys/qe8Z1p/8U0RC/VGwVU/0yN3faz/t+idMMvIdQg566ag9XFtCl41junjxg6N5F06S5KuY+hRCiiZorryHytRC5GfyEJauvvqte2TFuUvl/OVL8LO2TMUffnhKuegFMc7L74gPSSYxGW6MST86jOOYefT29OvsQ0sA4ve/5zaER6WoyKoyODQkPei0pk+dLIsWzpNJTY1KerF2HsuxpIb+8lXITzJ5WcnVCwtvW1u7tLd3qixNQtk5+/rdX/+U1r8wLAlqltdBvrHMFEgLEYqTEZrxnhH+SWVPUf8oPwt4Fnf4M6BnvG87/MdGC6XtxDCWrkdl145BWbgIM3ECAp0aHBqT1Wt65dChISx/m5E/U/tDPu0dWJfnAj2dKeUZ449f5sbMg3vB2AbG5QQ6kcS92fQf5e0fGIXdtIK/Wv1jbn6+KkdsMQljv1mkVppndPnVKw3YPe1GGAalyU4fCKPpNN4SeWV4+vRp0tXRLn/3j/8if/P5/yJ1dbVBR5SCVJYNbPnbuGs3bpHvYUlp49YXlW7pkoXy6Y9+QBZgNjEwMCj3PfS4fPUbd0HxOuTb9/xIHnj4cfltGGUuR/3NP/yzbN+xQ/7bf/pd7DGckD//6y/KsdZWdBIF8tnPfV6uvuIS+eD73qlLaXf98H75D5/8sFx+yUqV39nVJT999Cksaf1Ujh9vlcbGBrn9HdfLO268Supqa7Wc7Iw4i7r7+/fLISy3VWAGcdWlF8p7332zzJ45QzZs3C7/+s3vyOGjx7CZNCof/9X/G/WfIn/+ud+XdRu3yv/EstWtN10rH3r/7SqTHesD4HcPltEO7D8k1VWVci1mJx9EenNTg3bYL6zfJN+660dy0QXnydDQsNz308cwAjou8+fNkd/4lY9iJrMQzwEdPuRt275b7vrBvcBwq3bac2bNkI8Du4tWsNO2qbY9nfQRZvHXSuI55DuOYLKRp/f8lYcLsyecF5UkIVb9LsLvSSGi/Lcm/mNSXFIo5ViyWvNcryxA56GPHpeN6/uwpFwgxbpcZSNoGu7t2wfkkYd7pKN9RObPL5Vrrq2QqVOL5eDBIVnzTK80NhXJqlXdaBulcv1NWCbHaFlz475z56Bs2tAv511QJnPnWkflqjYE3utf6JMnn+jFUjeWlZeUytVXVyo/amd291dXZVx5nQF0dWBgTF54rk+eXdONDnFMFqE+t72zRioqC9GBQf6uQXnowW6UfViWLi2TK8G/CeWly+r/17/WhrqVyLp1/brkdsf7qkFQgHr1ypbNA1gKL5R33Fwl8xaWAiMOzsfkmWd6ZPUzfbCfBbJiRbFccVWVLq1xRrd375D89MEO2KRRWX5uKTpjk+dVGC8/r6mH0o3XPw70Mb/g+F/J+Zse6DbwD5E6yAcwFGDJ6tGLxiVpFm90Wsd8etBduGKZ3HLzDVieOipf/fe7hetldIVhykM/nwGN3yOPr5LP//U/ypbtO+XCC5bL+egQuMn8e3/0Z/LCuk2SgwFswAb35KnNWAfNYbO7XubNnW17C2ByqKVFdu07IEPDg3hoFTDo06SivAxGnv4ZMmVyEzboizGl7ZCX9u6R7u5eipcu7IWwbH//pa+gLAVyCWYmxcVF8r/++WvytW99HyMPo/vWd34kf/F3/1swaJIbrr1cFmBv5ScPPSr//LXv6vJbeWWZzEFcSUmxcHbB2casGdMhoUD6sHG/e89eyOaUER0lyvjlf/u2digDfb1yPTb5Z86YLPfc+6D86ef/Tg4eOqr4c3N/34FDcg86uwcfeVJmTJsqs+fOQOe6Tf7bn/2NHMHSHPHftmO3/C06p+fWb0ZHukzL13L8uHzuz/5K9h06rDL5RIk1XXahwuOY7rNT0thzTVOTOET5M0/iSK+kGfrE654o35F4u+PP9l9ZUSjnLS+TXbsHscRMuzCmM40X1varAa/UvQVD7PChYfny/2lD+y+U62+olENHBuVHP+7C7GIEs/wReRLG9ZFHe+SSSyvl/JXlVEsoOVCG4d6Bmc19P+mW0vICDOa4R5qv/9s298u/fbVdFiwsliuvqJQXtw/KT0CPLVMyUV1nKWgbVO8RyOo/Dx3RgD/40y60zXK5/vpqWbtuQO76bgcZYAA7Iv/4DyfQWRTKdddVqUF//AnwR0dFZzWkb0zWrMEy2V1dMmVKkVxwUQUGjAXyvbs7UaYBufyySmmenJP/9cVW2bVLCwf6Xk1fDhwvuqRcnn9hUB5EJ8XOds+eQfnSl1olh/2aW95RLa2Y6T2OZSu616J/7DT8B6FYd7bqIm58FOi3StiDwE+E7KICjcyQ0w5GIUz7pRSEQA6m/PeB99yCmUArRsU/QYewTK6+7GIYqfShkA2N4P2YRYyic/mj3/9NGMDl6CwKZc0L6+Q//+lfyte+c4/82dKFGJlfIoN4qgcPflVuvPYK+YX3vtNOaykgLC5HCjlZvGC2/IdPf1T+9gtflip0JL/5q78kMzELUkcrF+TzyNnO3Xvl+/c+JJddvFJ+99c+JZPRybSeaJcvfOmrshYjf8qorCyX/qF+ue3ma+XXP/lLUldfA5oT8k//+m15du162Y9TXpdefL4smj9HnnhqNTqJTvmvf/AfHQiIUzD51NStwyzlkaeekbmzZ8h//6Pfk+ZJjTKMmcU3vn2PfOO735cf3/+w/MonPgxa5kO2okL5/d/9DDbbF8roENZe/+zvsAn/vDz77Fp59+03y2EcQNi5e7d8+P3vko/94gcwosPoZeM2eeSJVWhcUOoZykV52SUff0KiT0vLZ2V97c8/I069ofLBHxDRKkb5by/89WQnjNAMGPPurhHZgFnBTZgt7N+LJenjQ3LFlRXyU8wyXP8bmnLy679RL1OmlaD9Yympe0y2be2TE8dHwqkfkU9/ul5mzipW7TqOzXLs6aqR3bJlAEa9GJ1OFUbzEKou1f85c0rkd36nEe0evLGs0945LHteGpJ2GFuXbyaDy/kWlbV/XIlftqwMe62lOtPgDOASHAZ4epXt83aig0OUXHwxZhuTimTxYnRuGKoXl4T2gIbg+o8xq1x7bbm86z1Y7UD8s8/2YL9lRG4ANrPnFMu5Uioth0dk1ZO9snBhiZwLuTNmFEt9Q05xOQa5LS3D0tU1Kk8/3YcVm2J5/511mIkUyoUXl8vnP9+CClBuWn/KcfnZep2y/bN70Px8UTCnmOCoLsvLf0hiQOuWEWIREKz1IpX5SZrigFhEWIoSVlZVYOnpg/LSnv26fDULo2c6ZlGjCs+ePfvk0OEWuQQGmEdZc9yPgFt53nI5d8lidBZHQHNAlnKZBo69H4VSkhZV5fPdeJSKS2/qcKeXadrJW92sQ7TowZEhzG624DhxsVx20UooULPm5KzmUx//oC6PVeOkGOv6mY9/WFqxn9F6ok32HT4iHR0dULROKHI/9mFsJKDiFHVlc7L8ULRNOD7cDl4f/9AdmEHZUh5nO9ejQ7z7xw/gaPFu6e5l4ynUKlywfJlMnTRZy5HDns4VV14sTz37nLRiFsX68xhyTXW1bN6+S1atXiPTpkyRyc0N8luf+RiUFA1KCxaebSiaQsYE4Gj+kOAhjXy1zz9wVLngG+UD54i/2paM/tVhJjF3XonseHEAxrUCS799GHUXox0WYfbONmr6PwI7fhynr7Zu6cZpoRF5af8IBltjMoKh7ygW4DmLKcPMwtSNV6wooFPiUlEZlnre8+4aDDI93Qrg+k/ehzCz2bRhACsEHEwO4pANl4LJB/J50z/kN9ZBjnHA+FPL8NKeAcygRnBSbASznSHMLECM/6zPwrklcvfd7TJjZolMn4YwlrW4L6wE2fYHf2OjdYBshjAvOJk6LBuwlLcDsw+KZwfXFewf92R27x6Sjhf6pa9vWLZi1jSpOadLZS0tQ7J4UYmUloEYGfktwUXocI6AH53X/8zbP/UYTxJlZXnGgD/6PJUAgGhpWTpz1pGYKI2BNxNCgCwsJns1WqShW1uImcDHPvx++au//z/yla9/V+54582WhTsvcNxz6MESzZTmZowOAnhMwLre9CmTZe++/dissmkgRWmZ/Ekm8mkEUS12o+6Ypt2qlZEp+heKzKOCx/AOBkfq3Geg8yY+Y9oULBNNQQR5YBPvuXXyxNPPQdGO6DIbj+AePoqeXA8YaFblfZJ8KzAIUiPd0dYpA9hDmT5lmh4ZplSmlxazHI1QvAF0Tl3GG7LLcbS3EEt16lCBMg5RMvVfOH+OvBczkMeeXC3/+OVvYP8EIxUs261Yfo7cdO3VUl1dkSc/iAMPMCMgSQR92SaOZMpRRVfpSq9ZQvAVn/8E9U/ERflvS/y9yZbiPa9583LyIjqPZ9fghCZOVy3D2nxdXU5VRI+xQ//WPt8r997XLZdeWiEzZpdIrmQY+4ThpOW49hcA1T2BWbOLYFSxr4IRfF1DDdpB0NzQ/qn/Dz3UJes39MmlWBZiRzaGwecx7BGoQ0FpUzSXG3kEsvrPk2OPP9aNWc6gnHNOKWYIaKvYs3kGI3+2jeqqQvnYJ2pl27YB2YM9iMewvHZw35Dc8q4aqa2GnVVmXiBrf0nTQln4ylpDXZFUcRkPWDRjr4QzDQL0wx92YtA9KBdfVCnTZ5ThsEEBBrPcyYbpBAkPHOjAOdjBQezN5Il7te2PxcWfraiMSBE3PuxhcflK5esD9JMOfBkk8SPZAUxNYprHfCQCFY0PqN9xw1WyZdtO3ScowTskfOfBmRQVlUgR9jT68A6H9l2BAcvU29cnBZiJlGC/go71NQhM8unI93IzP9VCK41isXilKMsQysJ9CTrnxw3qYQxLSktK5fiJVvnrf/gyyjYit9x0nUzDkd/a6kp5YtWz8tiq1ZrPL6xt6rSwCW7kzvQSdJBcluvBfgdhoLLx+eJ8CEYug1JeW4oZA84w6MNFHrLhECe4MZ16IcA64F8TNvjvfM+tct6yc2T33gNyBHtML2zYLKvWPI8RTpHccftNnjU80xAEXzriSfm4KT+N1HiEgzKcyfMPbI2h8k1j8oJRvkL9dsOf+qyKCOM4ZWoJlnOK5YH7u/ESbTFWHspwYtIIzHQUYNViEG0uJ+99T40MDI9iXb8HAyxV11RfqViBLe/V1Tm55VYsL2M/5dHHeuR5bMxffkUV2h51mhRwuHMjftm55XI7Nrh7MfPgXgFPfNG5fG9/nk11WCmwWY4+ogXLRdxov+22aj2ZtWMHZgnKokC4X7N1e79ccXmFXAgjf999nbIbexZdnSNSi+UklcNahPKHtyY0vgGdxOTJxTJtZrEsX16qo/zVq3vRkRRpHbZvHZQbb65EPauxkoHlv439ak+YeQ46Wc6iVqJs05GfS3lbtgzK5CnoVbwi4X4m+sdijgIQcAk2Q/c8ABZQ5TfadbTJRPyZA/sEcRXlCZ6cEDOPfQkXYiBEFQWaUlxULJ/4yPtk50t7cLJpFXpFDPsNYSyzTMJ0rU42bdkhJ3A6y0fKHdg72Lxth1Rh03sWXvxThzw0wex82LlYnN149YcA5vYfBdJPzJMUfquTHRXmcd1FC+fKD3HiaduOnXLllRehp8faJ44D3/vAYxgp7JePf+T9GBEdkgOHDsm7br1RPvnRO/U4cFtbhzy1+nkVnO3wCNMIFlxH0dEUokNUxWM98Z9TR8qfM2uW1OAlwtXPr8PhgHOlPFeGBzKKjfwDcrT1uCzCTK2+tg7zv33Knzjl4a98rDJ8YWffvkPIux/55srK889F+Xky7HHdRKeMO26/EfKNnvITx3KhwBqXnwCSEK/E4+RbjoQN6+ZRKRuLNLHwR/mKUYoPMHvb4h90C/WvggHlvgPX8SdNKcEfzZLpjrVSkaUwzD/8Ybf8G04j5dDhHDzApZcUybz2xxTqGngUYa9wybllGPwNo/Pok6bmIlmKfYLUlI3pXsAz2J/42tfbdKnqAGY/5eElOpfv7U/Zgm+2ZfAE1GwsR23GaShu3rPoR7EvoTYHpRhEZ7fqyW7ZiY378ooCOXp0GMtJZVKP2dX4589a22je6j8PJ8P2Y5bCmc1G7AuxU2s5MoR9DJ4ALcYBgXLdNOdyGU91HQBtE5atWP8LLymT/ajLd77XIU3ohPpwCqyqCiVPYTtJPpgGZ/JT0kz7py3CILdgDOUPBEUKDEa3ZnzZI5IBHSnwp/yMaTaFFMxLg55wYwek+SiITgnwrkWTfOoX75Q//R9/j1F3T2IQ58yejs30JfLj+x6Vr//7PXLFZRdpxR55chX2GdrkI3feIZMwumYhykvLdZN8NTbTSzCnu/m6K6WhsR4SQqlUYHjAJhZpwUMSNljQssx8J2Tp4kWyYN4ceRQb3Xzze+G8ubJn/wEc231QpqJTo1FvbmzSmdFu7M2sfna9lOGY7oZNW+W5dRvBC9yCTNazGXU8jD2Rr6Iei3DE+PJLVwb5KKFOe8Zg4JfJ/AXcXF8j1ZVVsmLZYjmGDXi+/V6NjvLqKy7V5Tt25Cw6lxHtuRjGvOpn80NntPfAQfm3b35Xzlm0AC8jXoKOOicbt7yIk2dY90SH4vgbRMjtGuR3ioBLZxcUSil09ONPReslL4UUJz1/I2aSFZ/XhGWU/3bHH+Mz+eBH6nSzVzec0Tl85lcbZNKkHE5I2mj8E5+ok6nT2ZGILD+vUjWpBZvpFRVFOlPgW9KTcVSXRvP9H6rVTWElxqW6pkA+/vEG2IVC5ceTSlOnlmJ/Efw44MRMXx30/8orq9AGc9KGje1qLCOtPL8CdqVQ6usLZfGSYpxwqkZ8sVSUjcpv/zbfFUssjap0CfZHLsMprcbGHGzVCA7oFGF5rRCnNNlW+LpCsdyJTev9B4dxIMj2HRYuLJNKLGeNdx/5SI3MxozBG0tNbYFcdU0lZmfFcoIn0orG9NTV/AVYXgPVje+okknYH+rEUlVjXaGeNCtD2SuxPFcPkN99Rw32XwYwOxqVxkXFuh8yMJiuYCR6GApyeu0/7EOhBBzQEkmskdATXhJEydT8Wv2tLoq3gR6gDyIt2a/Mwq5Ds9KqOA9SI8gTVzwV9L+/8g3QWXJFeTn2QW6RYVTs4Sef0iUXPmOerPrQe9+l71L4mv+ScxbgxNaFeOfhcdm393sytXmSXIUZA89ZsfwUx7KrWO6pwONHyyg/AQzxnGlNwSb5pz/2Qfn6t3+AI7EP4khfMabEg5gdzJRPfPhOqauuxRJVjfwS9my+ixNj//OL/6KfbpmG/ZCZ0ybjaDE7QfBV5oL3ON6lR3e/8Z3vy/w5c+TC85cH+RBIfQHxpOZG+dRHf0GPCN/z4/vlp3gTf3BwWE+GffKX7pSLV56nddC3cfRZW2fnMpQNWYEl32A/Z9E8vDV/np70eh7LVdyM477JLdddJ7dhmS1xmXIyDtnVaTR8pgqMJX4IZQkyeZ3ecnupLNayGKcJBChvz5dlz7gonxi+9fHne7wXnF+mNWVta+tzcj7+TF+s/txAV/1DsAwHlC66pEJH3kXobXLIn3XncxQfHHMXlxbKRRchEwP4q6nNyXnnpTRZ2ip0GFdcWQnebEucrTDV7Ed5eQ5tVYNY3y6Ua662zyyN1392HPXooDBWw94kvvXEZWiygWy+Z7aEp7EWY7UEYb6/YvYiVDewJ/mFF2JvMjQ6b3/1KDvrMoRZBxYyMIgF51AAzl6uwjsjQ+iUKIf7HKyyu5k4iTUNHc8wBPNTLy7X053W63M67Y+0yR8ZgGlBW0enjslZQf6geX0dXlDxUiZFQjbNkNy8HCHaEvlmN1/U40i+CSeX+F6GOiTzDfa+7j45iM3mapzEmjp5MpIM2M7OLjmKY7s8eso4vtcweVITen6OPOjwUFFAnnI6iE+b9OEdjPnzsMSDlw8P4rRWf38vlrdm6P4IP11yDC/88Z2LJpw8KsGyGQvZ2t6mp6gmQyt8eYwfcmw53iZHUKYOvPfBF/amTmnWmRJPQTFjVxc29PDOBU+FlWPmMXv2TCnBshffAyGvShwJpspxyejQ4WNyBO+dVGNpii86ct+G+erxwmFjUx3o8JMqmOW1AqMjLcfkGF46LK+owtHFyVDWJvuuGHh1K46t2qnU19VpR8E6dOHbWYeRpxn1rse7L3xPpqOrW/c6jqEeXNLjkWOWqwE0EGcOeXVfKxuh/vHb5CQHcR4d407v+edlZTZ3UX7EH8bRjBSVwnUs6l8WFWsujo3jxPsb3/5o2/mVD/ZUugvNzgOnmWw1C1csK0oD3mUY77LVGZ92OuG8/AzQuWELiqS/jwvjx16ykF1pxmXzc4rFP//cR4bslN5sfhVHyox87kmPYG0Jq4aQffK0kh3rGD8Kht7/leTSoOu0LtPdTySfzYYdCQcUukfCIuURptU5RXRCoJiAF+lYvnSfxEjy8jNAl6k/A0qTR2hkvJ4iOiV4BV9efgboonzDIaCrGOUBFZJxO0V0SvAKvrz8DNBF/A2HiL8qg+pInqIEeHBjNF9cZudB26JrPbxzNKCmgxbyFM430snl1FQTZya96SnNZQgkiusRMHqg4kxlfMehFOgs1CmzVzbgRpzJEjKfSn4hUCjG3HCijoNZudqnZcNLlKEkxnyC63jjrUVWuvz68yEUoZNkx0F3qo7D0oJU3CaSrw8UvLiUdeqOI1++CtWLPYzXIj/ldbLvVPVPKaN8YhHxJwipVmR9Pwv7E/F/efzZjvnmftpNwA5rJJ8aH1z24anBDqbKR9GBjA82pNB7sjOmSpSyTCetSW7QJXxSQuMX5QOHgE7E33Qi6l/SRJN2c3LrM7UhAf7SZhXbX4pFQA+34MsCZYhG+2MKRDRgf7xzpRYRRw5FscdK+AKEmQ15ZiCiCbgIJXSI1AeRn6gUeiFPENhppCRXmu4JoMmTkOUX5QOvPHQQDgAZvEkwBTb4Iv5R/2L7i/ZHjfQEZuJV2F9aHnYYZMl+lXfskYc1fqZyHsJ7xgX5IcZCJjtwyNC610SYAMaNN4HWjRm106pcLZlzsXuUn8Uj4k80ov4pCmkDy6oI8dGmnSbH9jfeqKVhxyraHyjOadhf7qx6+8Nqf+gEmJEzD52J4K5oOsi4Z7xmwsarZEpg6eThLo0xKoTVkzy6jKanfPKEZqKjfOIa8XeVMC3zUEanXP2CMWXQqKL+xfZn2pBYJvdE+xdaDVtK2qboJUR8EZGLQly80h1gM0OM0eSQOd9vvQ1zh2T1ZpgnCSkBTwGZC5u1mgcXRBs/0CqJ05Ha8/Oe+qN8YgPnkKjXcePdE/wOaCP+RAwu6p9rimoHArH9US+AhgLj6IQ43rQ9eVuChUy9mmoUno/3kwneiu1PtzlQXQ7ReMgJO+isuMYEMAmNA0N/Co2F/GqA+VjPbZXfk5M/4O/Qak4EkjA8nl/TErGJx7O40MzduHh+l+v3KD+gHPFP9Y3aA1gCMupx/VHFStQu8Wh0Qq8hv1is53e983vUv4Ba1L9U36g6gCXRJ3hcf1SrErVLPBqd0GvILxbr+V3v/H7W9S+vEPZqR1oRbH9oP6IdR0pp1QiV8ZJ5+XF3Sp24MOwRSoN8IawccAmcEg5Z8iifsBChFBXDK6AW8U/0xj2OlOud3y0duEX9UyhUg3AJmuTwOTxGo1iRwlF1+pAr6l+Cm3scKdc7v1s6cHuL6B9X9Gw2hQrhP99RS1wBXpSzMK5BV+hJ4kDJT3u4cz1S0oTeU/1OekvUnLikHJzG7xlZCb9MHDlF+Q6WnnpgIOLvICTQZDxR/2L7i/aHDeK12F+uHRFFs79mk+2oVbDmPHmV2GzEZSBPGmMgJRudYZDGC5UQneTxzd2Eu/FOgyGH0xnTKJ+wpIjnhyL+HEdE/YvtL9qfk8wETUXGuV1NDa760mCgdToEQ9ty+5M/hEe7w8zBOg+sFSkfZNAHkbCixzcbM5KcGGlZ+pBN86R+8xkdr8ZHJWYyO/dMVOAd5Rs2jpBDaFhm8Uoxz9CGSKOzPIyK+AOjDHiOWCYq6p/qTmx/phuuIQBFvdaWsvqicAXMUr/5jM7yMObN1/5wFNch0D0s/QUSxngnAL8TJB7f7M7AFLyey+BxJTNokuyamPJNf3HP+ZlAD6X5vCBRvmGTIJQYvYh/BhMojmuMApQGVL89MeqfY+b32P6CxVJL5XqSGsJof6gpigI8qi3Y/OA/zDzylciDadvLNkrD16/JkWiNcJBdgFMxDBlBsL3Rnj6aKD/ib5oSNC7AEfXP209sf6kuOCZ2j/Yni8fra399oJrZcrZlKxuNcb8jfUz2q1wsXL5xUwon0yQE8nbO0xzaRSDZOdg9e7XKW3ZO5Jwx8tixqyg/Qc+w0avDFPGHfgCMqH+hIdnN21tsf9SNaH9cH7KW1+OoMadjf/krgkaLnLTN+K97Hv59K772MZHLClK/TltAqUaMjAKF3jJdQBASCI215tFLIirNHvgkKebJxqo/yjfoI/5QEGhEqkAIR/1LWldsf6oe0f4kGhGgyITZgoKBTecuZnf9ymTm4J/t1eAjJQgky1Y67gdVwjbr18ggIXDUEC+aZrl45fQmoUzmlSpSc9qEIqEI3HhLeWgkSCzGk/LzaIgXJUrzRvkR/0RTov5pUwpNXv2x/RGGREMCPrylNkQjQRLtT4AHQKhVASaOHDscvGFuIzVufyQ/nR3yJN/RfzkglZsR0KtB5lfkk1D4ZJavnIXHkndLeQTxyBMILMmix/E1gWneROI4OrMjUb7hkwd8aCQphhF/QyDqX2x/qgnWNN7W9sc/e0iTrFYUd2x0hJEqXhBMLX8wH+hegvqECNwS65xGKY3GZ6jH0emIx4Y9KZMwMrSsyDsuD+dTGY4mcDwNYqN8hzSD1jicIv5UFAcl3KP+aZtSNGgVHB6NpU7F9pdpUYbKeIwQ+3ayP5xxuKJg2SrAo++aB38GMVMsJzf80qsRpnhOoGyBOCNTRdp8J82ZLLyRPspPII74mz5kNCXBxhUlTYv6l2k6GZxC+3WgQBTbH5FyQOjN+DMgaizCmdQMrkaYpr119c82x6E3igXrndkh19NNiFM4HI3MslEGsdSbjOS8GfuyUCBRZvDrnZd0M5PzHU9OGCJC46J8gyTibzi4PiSKEjxR/xJErC3F9penKm5g9M5LtD8OyZnaX82na1emcrTedrwKjXCMU3gg7+ArcdIbu0jFP1HYhBgxls9zBxIP6p2XsEQW4sOqQegxjIlnifKJRx4aBmrmUUT8DRJeDSnHK8R7UO+8RP1LoCAarkt+R6KmIy22PwKUhwYi4Bwr+j058WYisukazcubW//0dwND/Tlu085DO44sKEAoHwaEPD0/IcR7IvBJvIkniUpjApnz8jsBVxfl50OCkIOXnxDxV1wcHChP4k08SVQaE/VPsXBd8ntofUQnPwohBy8/IcR7YsQ/wSn1JL4MShbnWPr95xh/nVuwx7D/+tyL9IpaeflZwdA/ZqqCOBBYmkW73/gVyIm2Dlm7foscaTmmBEznj4WM4eWS66+5XKZNmaQhl+TyyJUvKXonv/r5DTIyPCxXXLryjOQnxAlj97AhmN8WytzvOfLlv9r6O7cgCsEo3zCJ+Ef98zbnViNtHePbf2x/xMZth7cgxCEqRS/1u/19ve0PZx1c9GPZWA66woICfOBKC2ZRNpX1ZJKEUQiirEqBjklwXs3i4mJpaqqX6dOmSGdnl7S0tEpjU52Gy8pKjDgjmCVwTtZxWGjPnv2y66W9gZ6305OfyTDO6yVkdFrxU8l/tfUfJzQTjPJTMCL+puVA5BT6H/WP2pKgpH5tQYiylmRp3qr8zlwTuyxF1L8EWXgcyaz9PZX+6Wsc7KmQi1f2GUXck3UmCr5ibSCrNzwyppHOe0XddTcCja+uKpcV556jLHq7e6Wtq0uuuGilVNdUqDjOTJ5es1Z6entl4fzZcu45i6S4pFiGhkdkw6at6DD2yazp0xAeltFRk9/f1y8bN2+X3XsPSFNdrSxfsVSKigplw4btsnzZEmlqrFF5jzyxWmZMbZaFC+ZpOBQ0FNj7S0uyIqMmQCwU3xI8pJFnXv9sjigfkBJHVZiIv43Xov4Rgdj+iMKb1P5g9sFfJ2SzHoON1smIVYeNPHXJC1IehaduDz5EWBelAYvPpDKNzJSmQLq7uuWL//R1OY7ZSHVVpTz+xHPy8ONPy+DQoDz+1Bp55LFnhLOTXXv3y45de5FvVIYGBmX1s+tk1bNrZVJTg+w7eFge/OkT0t/bL1tf3Cmbtm6VYXQ0nR1d8pMHHpXiYp/duFy/ZzoJr6D2oCy6R9CX+pnymutvTMgpxc1FRPlEB84BifhH/Ut1gZoR218+HjQiGQtLgAiTOovPpHpasL9Jimd5tfaH7wI6D9joIg2AO7/Obn2Kpfvv3/JHPxI/iuoFyZhErQB5epot0KX5nsdeSGFRTj7y4TsklyvEjKFB1m3YIjt27pNdu/fJpRevkMsvXik5zCr+9gv/qnsgnJWcj5nGnNkzpKKsDHFjsnvPQZ2pLJo3W/btOyRDF54nazduxXJZg8ycOV3LYReURAuUlCg/GKJ1RBgKnq2PZTWiV1V/IhHlQyEi/q6UeeoQ9U9hie0PVudNYn/Y3/DHAr1F014WqZ3jVAQ9iff2TkAL6B2H+pOsoUmEijOUzUPDqcLUI9Le3iGN9XWYHWB/Hq6qolwKCwulDfHDw0NSW1cjueIceIzpLGNkZFSGR0bQWeyXrdt2yfDosLS2tklJSYmCvXjRfHQa26StrUvWohO6ZOV5kkt+UNcKRfnaGZonUz4UIKy5aZnTgjMBf/ndyKuqPyVH+RF/bwiqC1Atd1H/dGAR2x8U4s1if3QSwXc7sFgVnHUlo+w4GMMEejSAO2qmXl7UFCcpiFADmdJqjNIxGzHRFw/haW5ohKHvkK6uHt3TaGvvRKeEGUhDvZSWFsvRo8dlsH8A+yED0nL8mHZk/QivWr1O6mur5Y7bb5JLLzwftKU4uzUm06ZNljp0OGvWbsDG/LFkr8XKQskmX68MapW8Tkw0GtLRcXZhLiFOw5rEyxnUX6nJAvwSli6D0VE+0XEX8XfdSJQlQINw1D9gEdvfG29/7CfKR/gsgvnCshVH2vhau848+JgQyuqyEhp1yONtPvCwWMsSRu3YTKEMjr7pli5bIOs2b5EHHn5S9zwOHWmR2bOnYklquhxrPSFbtu5ApzIoOUyE+vqHBIXBbn5O6mqrpBWzkw2btusy1cjQsMrMYdayHBvu9z70qMybM0fq62tVvVgrFZktPwugkaEwCJ6czDTGsoM4C/U/WYAXAvco/2R4Iv5R/2L7+3m2P2yhyZ8+Kixb6Uadtl2bdej4OhkZZ5q5PdtgYtUG6iXzyF3/ZfHiuTKAmUNpqW1i19fUyG3vuFZ27dqDTfJhWXbOfFm0aJ5ukq84b4nejx47IdXV5XL7rddqx8EN9CsvWynbd+yWQWyez587WyoqyqSuoU7lTp8+WYaGhuTSS1YgrCY/kW+dRVpGFpovQoauBfdQGdw1lvUPmc5G/aP8DPb0Rvyj/sX296a2P746MJbpGwpOtHfoos3I6JjkMFVoaLDjr9nm76Y2G3cmfs8/guWxMRzNzRUVC1atgoMBB8EgTk6V5LAFk+xdIBnxw6MjOLorUoI9EXcvYS9kHTbK9+w7IL/2yx+Rcmyov5xz+UrDAJ12GPRYql7zCJlm7hTRnvyK97z8DNBF+YZDxF+VQXUkT1ECPLidIjoleAVfXn4G6KL+GQ5R/1QZVEfyFCXAgxuje3v6pH9wAHpTKDl0INwLhqm28bguVSXrVWlG+nwjnVzI6ExcWh5stmC5qQinqNKOg5ysIKXaoSQabSIQLMrlpASnsNQF+cexec5877zleinDPsjLuax8LTtF5ImxgNV/Yk5nq/5RfsA+4p9RtKh/BCO2v9A2Mprh3p8H+0PblT2pq3b7RHunzjxGMbznoL8BL+OpY6zqdV5L9/qE/joJ5nvUSoaoCbOTAAm42amk/Owaehn5PT29MoTTWHxnhPsfJ7nXWT7lhRqcJFojovwUl9fh+ZN5xD80zxTp1Bf1L8Ui6l+KReILrQe307W/PZh59A0MYOCPnWmabp15aJcftI2f3HWna1u2O+BR1mQRArk+k5AtTQ8+8lQBFj6JzHfSQZMnIUv4MvIrKyqkrqYa06cJOg6KfJ3lv9H1j/LfWP2L+Ef830j790boH02z7RDjbuZdCvnihzqm0ps14AgqSErAi4XM9gcOSVrq4SY0nefN6yA0IRXitCqXGdIkUiY8NBDlKwwRf8IQ9W9c47AmosjE9kcwov0xlTib9pevSrj9wUpVaIREWn/sw6037xl/xuuq6VFWRA8l3YFF69Ufo3NEWMkztE6iMyFmIkHKM+uN8onPeJVIsXIoSWUujTEqhNUT8U+QcU/Uv6AzVJBUp7Jegyrqn6NjgHko06YCkmk35oi+Odsfnzvf3eOiEHfK9c0PUwONYXKospImfuttMsnqTQHLz2fZ/HgXIXNK5Y6A8UNIEzyV+aJ8Qy/in9WFqH+mFUnz0Jbi7Yb3bLsx2tj+UnzcpyghEO0PdQRoKDCOTohT9TmV/SF4/M/OAzSjiqRFGjPmzjJMVVP5Jhd9FMpIc4QsugOPiOTTHuBvlCEjAkkYnry+OhGbeDRTQh9Y2M1iPb/L9XuUH1CL+Kf6RsUBLIk+weP6ozqVqF3i0eiEXkN+sVjP73rn96h/AbWof6m+UXUAS6JP8Lj+qFYlapd4NDqh15BfLNbzu975/azrX14hcHqWRUziuIilgbxYVI4uVMZLpnF28fy6x40ov1sq8gUC5YBL4JRw8PyMiPIVBVxSVAyvgFrEnwDlOUfK9c7vRgTcov4pFKpBuARNSjB0/BgR25+igEuKiuEVUHsbtz9d0dX6Axv85+ncxPE8sYVxTTQsEwfK9A1D+B1PckjoE3bBQ46WqLxx0ft4Mg1nZCX8MnHklLEMUb6BqFAleI0HNuIf9S+2P7aKaH8MhFdjf7l2RC0y+2s22Y5aBW78OdjEBiEuo3LEXl0qGAwCjcalCU6auTvfhLvxToOB1ukQDLzHdzWpmCg/4m86GvXP2kumwY3zertKG5z60mCgdzrjZ8lpiyNRGort7+3U/qy7SJ8/99Os8/BOA5qRKof7fbM7o2nqJaWzpFplXYY2RBtfy8MoVdOMMM+RiQplifING0cI4KnXsMziFaB2gjQIn9FZHiZE/AFiBjxHNxMV9U81KLY/0w3XEICiXmtLWX1RuAJmqd98Rmd5GPPma3+ZH4JCf8HtcnQeRMI7AfgTjNzjm90ZmILXcxk8rmQGTcqH4ZQvZzfm/G5yPJTmi/IdJ8MmQSgxehH/DCZQHNcYBSgNRP2L7S+xa9H+eJvx++nZX+0FkEWpsfnBf+g88pl4MG172UYZ7H64JUfiNeydjAtIadXIBcEFIVPKP8o3pAIiAY4Un4h/ikWqU/RF/cviEdtfniXxACCK9gdg4D/b0au1vz5QzWw527KV9cZ85SNtpvpDTqqb/hQsTa9OpkkI5O1cp92RFhfJzsHu2aspv2XnRM4ZI88pZihK4WRRvjaNiH9QiHBzfYv6B0Dw3/HItjyPYwuM7Y8oRPvzcvYXv/hEkKAr0Bz+4b/ueVhvxL4lq1JKq5dsrPp12kJOTEaMd0eamClCEBIIlZflCa3cYjLZs5JCoklIAlE+AQkYR/xNO6L+WfuI7Q84RPuTWNezaH/Jk3+2V4OPlCCQLFtpv4tGmAiGIiZ+9eQbdjPigWOgJFleF5SsK6R8WR/tcHjLcyYtkRnlR/xdP6L+AYnY/lwdeE/MiOpGajui/clMAc6i/VWuAN21kOM1vGFuPTW3Pwrwg1CeqA/Il6MQmRj18Q1ZMxgBvRpk5nF0Vg/nH7jl3VIezE6XfMfekixyHN9EixAf5Uf8o/5ZM4ntTy1IAIO2hN5of6x95BneYNvNyCbtB2hl7a9/9pBdgqKIOzY6Qk/FX/rI5iTW2ZkIw3TjaRClRdH4UKgJ6HTGYdOOlEnoGS0r8o7nHeWHB0tAgxuPEaIj/gAh6p9rginKOD2J7Y/wOCjhHu2P6oo1ndOzv5xxuKEOR3URzr5rPr4PmICvSg2mzR8JmWayGkm4ZmSqtbP5Tpoz2fggfYaJUkT5J/WrBqsBlaIY8c+oTtA8u0X9Aw6uKAAptj9qigNCb8afUSKNRTiTagqlVyNM09667c82x6E3igXrzTc9gtPTTYhTOByNzLKV0+Xdk57c7b1PCwOVMoNf77ykm1mc73hywhMRGhflGyQRf8PB9SFRlOCJ+pcgYm0ptr88VXEDo3deov1xSM7U/mo+XbsylaP1ts4DjXCMUzgg7+ArcdIbu0jFP1HYhBgxls9zBxIP6p2XsEQW4sOsMfQYxsSzRPnEIw8NAzXzKCL+BgmvhpTjFeI9qHdeov4lUBAN1yW/I1HTkRbbHwHKQwMRcI4V/Z6ceDMR2XSN5uXNrX/6BaRi7AAAQABJREFUu4Gh/hy3aeehHUcWFCCUDwNCnp6fEOI9Efgk3sSTRKUxgcx5+Z2Aq4vy8yFByMHLT4j4Ky4ODpQn8SaeJCqNifqnWLgu+T20PqKTH4WQg5efEOI9MeKf4JR6El8GJYtzLP3+c4y/zi3YY9h/fe7oPFAl/PfyWwU9ZLXROERZWiaOuqKkGfrE655UEbMLVZ5Krr46Q85RPlFI0UkwQVTEn2iYcyyi/hGPjL4kXvfE9udIRPvjrSarMadnfznr8EU/cuFfYUEBPnAFdD3BprKpEKYo+Iiyh2Bp6QOh8r6cc0rSZB4f2Dgnmx2GkN7Mb1yj/Ig/NAEqEfWPLSK0E2scAZMQmPAW218KS7Q/iWWFxzXpdOxvAQ/j6kjN7DH7jCKO+p2Jgqy6ZiCb2qXKR7qwame77iHJ4u2qPNyrd3ZLnitjAFDilDNzQeboiIwOHJfRvhMyPNCNnzjsx98wktDBFZbIWGm1FJXWSK6sSSRXkSxJni35WnYt1BtT/yhf1cB0wb0ZLbHnbFpDvfUl6fj8tfUkiGmDJkwKzOm3P+QgI70YpkkEPYFtxF+xeDvqH2Yf/HVC6sbYaIEUeddBFQtjfGJjL4h469SIoFeaqgS8aCh7tYigejqNyXQSrpFh7czVcWxkQIa69shg+z50Fn2QPShjw6PgjtfgyQP0o+hApKdQRgpzUpArlcKKZimtWygFJXV5pXg18pknv4n9bOsf5Uf8o/5lh5ix/ekLej8j+3va9ofvAo7lzOxjKlLQ1taJTgSqq+8IjklDfa32LNYhgBZDPP8tXLf9FDbenZQ2LmJcULOPQehI10EZbNuKGUeXtLYNSGVhn4w8fVhat+2W4+2dUjGrQebcsELK5jSgLOiIUFaWbYyzkVyxFNUskOKGZViAQ6eSLdQ4geOCJh/X0L9lc/7s6h/lR/wnUMxs1Ova/qL+Rf3LKluwgtko17/u3j7p6xuEmS2QHDo19glFtLj8acEx9iTMBZca4bTjABXi0xQlzEhJUyzSJhfwh1lGmo6c6JDGxoZk6MR2GerYIyNjI9LR2yGdHZh43LdL9j2+Wo51tUnnEGYkT41Kz9p9svhT10jVBXNERhB+fpuMVZVJ2cxpMjq0SUa6D0np9KuloLiSzPHH+uj1lPJRe6tNfsE0bxr1+tU/yo/4q56lypbobhoV9c8HrmzXZ9P+nEn7+/bd98rVl18kU6dMwjPKuNOwf4MDwzI8MiwVFeVpxrDm+qZ6/jqJ4DPAClBw2nnIqHccTCAidKwa/hSgYJA13lLoTQy00moMLqb6yZUeZYkLDLY6LFMNotMgsAXNl6HTKpHSzi0yctfX5OiabdLV2ypVxdVSgX2N+spmGTzUJh2P7JTRPS0yfHiXDB1tlaE9XVI4qUYm/+a7RWaOSP/+R6Rs2uVSWNagIl5WvpfDSpOZXSWFRQqWyjAb6+nulm07d0p7e5dMmtQk8+bOksqKCp40EOzQyOjgsBQVF6NqnjeRrDwUjvH1P4X8NshoOXZMpk+fIlUV7AjBS6HXS96TYdFPF//BgSFZt2GzHDh8VG664Uqpqapi9sT56MKenRYWaaxHgZw40S6Hjh6RwcERyLc0Fr+poUFmzpgGCiubMUv9CQr0aDZcvN5+t0ynxF/LoCyNr7LRUgVp4B3lGzYBkQSdiD8RUQV5zfq366W9ctH5y2UUBnQERqEoh+8A4h/bf8EIDGohwtDpkeEhpFu4uKhIRjHQ3bRth2zbvks++L7bJFeE1RHqftD/4eERHckPwYbQnuSQp7DQtJzX4SEYIMgrLEZaIfhB/vDIiJSAjm4Yg+5CkBTmcmqrsNaP/LasdPafP3+yA8XBlWWlK6IF4r9RnXmElVcrv2KPJLikKAwkLhtrWcLYIJuf1BkeYyODMtCJpapBCK+aBxxzqDOmQ49uk5rjOWlHLz2GzqS+qEx6ZUhKqyukG5voPTtOSNW0BgVw7GiPlFWXSK6rV/p/+JCUf/AWGW0ek77Dq6V8KjqQ0noroxUwTz4TTi4eCRlLU4Q6BIKt23fIn//1F6S3r1+Ki4plCMpxzsL58ssf+wWZP2+O7Nt/UJ548jm59aZrpHlSo+ZXkScL0DRc1J2cbPJfWLdRvnnXj+S3f/UTct6551i5laFewlNwLqFaIdZ4Toz/AGZwW3fskt0v7ZOVK5ZJdeg8jCv5mPzx9Wf0mhfWy5f+9Zs4wDAsJaUlKpzU77jxWvmVT34IPuPycvKNxOjI4FT1n0h+Nm/KgVxccpRPLCL+phGqDScrWKItKVauP7wzFzPlt3+NRpIulyPQj6Wb9ZtflGXnzJeammo5hMFYZ0ePzJ09QwZgG9Zt2ConWtuksrxCLrlouYzApq7fuFWOtbbK+k3b5JzF8zHwLE/0f9XqF6S5qVHb5SBs4OIF82TxovnYQhiVgwePyPadu9X2TJs6GTIXygCM5tPIc/st10n/4BB4bpXS4hI5/7wlcujIEWnFQG/e7Jlo3xx4anUyd2snjDgZnpevvyNEKv1TqLBspaNJzWuzDh3JhZ4lT4xhGyC2MnlBAuSOv0lISTSeG98F2OMY7sEotrNFpGI2wui7AdQYTlSNFhdJcW2llNTUyEh/t/QXDkl9rkpG+rpkuGBY+rvG5MSWIxjp90jFMCRWlKAD6pcijKoHN22W0uuaZbT3uAwcWy+lUy+RwqKKtAQou8rXqpuKWCFDZ8n6Z9NC/f/mC1+WYswq/vZzfyCTm5pkLUbv/37PvbLm+Q2YhTTL5i075O4f348R+GQ5r2gJ9ovqgc+YdHV1y4m2DvXXQsnqUScsFEpPV49w7bCquhwj+g6MLIaltrZWGhvqUvlQuJ6+Xtl/8JAMDw9LPfagaqprrLdHOTu6e6T9RJuOgKoqK6UO6SUY0fT09GGW1IvpcZm0dXQa77oaaayvk6rySrn15mulG/I5q+HzGoTsE+DT09svJagjZ1WlJZhBIc1HRvZAx6QeZfzIne+R81csBY6YuGIEVFpaqvgOoownWk8kHWwD6sIGQtfa1q6jrzIoeEvbCYyeCqWpsUGqKpkOSThddwKzrc6uLsW5rrYGM7x20DRKWRn5U+noUPGzoX/ko9wCMzDVwcIpnn+UH/E3fYEmQOf7BgZlJ2Yh82ZN186jtbVdjrQcx3JWkzyx6jkZwyzkwvOXyc7de2XDpu1yycXnyXQY/uGhIZk6bRIMvc0YtI1BF7dv3ym7XtovV156gRyH4X/4sadlUnOD9KJNPvPcOpmMAekMtNc1z22Qgf5BufCCZfLM8+vlmisuliEMsp96+nnQN8mSxfPkpT37ZQC2cOG82W7KVNf1gsf4auxfVv9Zfzq2f3NjmdNWTNR0TySJ+RntebKpKUWIHZ9IAjhbXsHsZrAL+xw7AWaZDPS0oUMYljIcvy0dw6geS1kDMEL1RZWyH7OTvv4eGMVhGRgBg2LMSEY7pGXTfmkuHpCK6pyMDA7o/oeMYjoFw1kAcMdKEN8Do9u+W0oal6LQtj7n8q0wvKKgWlaOObR2ds1WFFStx9tk+fKlUgvjX1pWIiuhGLW11QrGXsw6nl+3SbqwrHXfQ49jM2lADfTho8fkx/c9LPsOHAJmBTJ1crPccN2Vsmj+HHl27SZZ8+xamTFzhuzdtx+Gs12mTZ0k73/3rTJ71gzFv7cHivPsOvDrl2PHW2XhwnnyC+99pzQ31iN8XO7+4YNy4OBhrQPLcv21l8mKZUtkI0YhVOCp4Lf/wGEo9TGZAyX/2Ifeh86qStau3wxF3Scfft/t6GAqZfULa+WZNevQefSgnIVyAWYk77zpOq0nETJHnDglL5Tqmip0cmFGF1LZua1es1Yef2q19PcPSC5XJOcuXSjXXXW5NDXVy4M/fUKOonHVoQPbuesl6e7pkcsuPF/edetNUl5RKrug8Pc9+KgcPNQiNajLwjmz5elnX5Bf+dSHZcmiBZBiCpV9LBYTCpBQhNjxiYHs1T7/KD/iTxWyAQaugIOnoKiP7swuYhTO5SL87x8YgDFfoAPCEgzGpk5pltb2Dpk2OeyXaGYyol0skItXLpNFC+fKFAwK9+49KMdhczow+CwrK5PLL7lAB2klGKg9+eRquRC052B2suXFXehYmrAaksPgskb27j+sA0MOzMrLy7xoyf1s6b/WlfWHh5qBdz3Mo0s1hkQi1D16bIwBVDwLnKe/3J30FDSG9bjB7v2YSRyUgb4D8uzWx+S7j39Ldu3bLEP9XdJePSitI/3SUVgsDZW10olRadtQj/RhjW9y1QwsmVRLxyBOZ/GoGE5ZDfeNIm1MhtoHsNaI9UaMCvhYR5FnuHsfTm+1a7FcPkuuZWdh+Jc4C1j9k0j13HzD1bJ164vytW/eJff/9HF5ccdLMM6TYdjma48/Gxv25SWlsmzpYpk7Z5by/cZ3fiCr166XSy8+Xy7D317MIH70k4d176AF09c1azfIjl270RGdK1dddpG8sG6zfONb98gw1j1ZLs5Yevr6dNlq4YI5cv8Dj6BjwH4Q1k937z6ginPRyvPkqssvxv7IcfnRvY+gE+rEyKVDXtiwCYp0EB3BUrn4whXo1B6TBx59Smd3R460yM49e2UAo6CNW7fL3T+4X2cp119zhXZsX/7KtzR/PgIoEpRlEA1i4+bt8viTa+Sxp9ags1ijoyN2kP/81W/hmYzKNVdeKtOnTZYHHn5CnlrzHEZBg9qJPfHMc9KPjpCjJWL3nR/8RLZgObAdsyN2slu27ZKV5y2V5ecskrUbN8tzL2zATKQnrxhnQ/9ezfP3QkT5odXjFnwOzSveSW8t7MzbnzP/WePPUbaPtFkGrpiwA8FN6+8YKB32OBi++KIVMEs52fbibgzMNsjmbTu1+MiCnERggvojIzsJOm515IoLdU+Ds/miokIpKbFl4pqqCsx6hjCLH9Mlqk1YOjt06Kh2UnVYldi4ZTuEYFaPAZvtvSpLvbBsZwN/8mH9U6fLVqwW2NN6mhRLB4AWZlpIoDfkTguVskt8TAwuyYo1vZH2XfjBqRHpw9LVpu3Pyqq9u6WprFbKsH639fh62TnYIq0trXJH1RQs2WDKUVElA1IsFeW1chxLWc21U6SiuE9ai4eleHhASnOjWIccke7uAplRhWWOULsRLF8Ndx8G+A0++UBp7BFasULpcbNeWZNDicMN9f/wB96FB9IoW7ftkJ0PPIalsEIY2rlyCzqV2XNmykLMJiqwBHPxyuXaodAgPvjIE3LztVfJ9ClT9GHPnjYVm2a7dLbgHdQdt98oK85dpktRXT298v0fPSAtmFUQ3Pq6Wrn+qksxlb0Qyz5tWCJbL7v3HIDxHZF582bZTKKyDPQndHmo9cQJ6cDIhk8Ru1nyrltuAO8lqtAPP7JKdu58SStEpaJ8dkIvbNyoHdR8jPS5rMY9kAoo6EOPPYXRzkoDIDx/ZMH66iA6uY2yZ+9+44Xr4kXz5Pm1G3UZ7hO/eKfMnjldO4TjmD2uW79FLlm5QsGtwEjolz70XqkETlzPfRbT8b37D+gIadfufXLFZRfKHe++RZfMSstLtL6qY2dZ/17N8z+b+h/ln3n7e6Pw37v/kPSiXc6fPwuaXoBVEKx2QI8L7VMc0tnZKY1YCWjDoI1p6Gmw3NohV1xyIbzYJN/0og60Vi5HG0faCAbANE2w78GxVUHLkUafOio9/rgZXVVeLscwY++AnNqaWp2Z16Gd5rBRP3/ubPnBjx/Sjuod11+lS89Pr3kBA9iFWO4NKwMJU7DUxkQJrw1/ZYMLudDPkhfxvQm2U3XoRRMXpDImka9VRQiRmpyfmGRVK4Vcnsz7SD/eHB+AkQOKFXgIzYUYaWOU/fy6VfLsE89ISa5F1vcflb293TJUOCgVGInfgGWS4a4B2X90D0ayfVKBDVumdWJppxidxgh66Kkw6GOYiWDOEcoJaaO9kHcMI+5ePPCKpBxJAb3HUDC8lEjNeFlB7mF84L23YYR/MTakjuHUxA554qnn9AF/FAYxOzoh71ZslvVA6Vqxvv/IE08ru15MR5s5IsB6P5GkoW6sbzRFRMxCdAjciOeMg8a/HEa2ihtekF+JPQ2e0BjC/gQfzUsw3vc9+BiUKCdlUGZOcVkVnsKgKysvRR68eQ9RfMTV2EMapeLqP1IUQNawdLR1Y7mqT/dwyney00Xni1lBRWnmOGHm+VdAma/CzGIp1lZ5VI/1rsFSGEc/5dibmDFtCplrR8Sp89YXd2ij4jprA/YxOCKjKystQydRgmVLzBoxm+HJkabGWu04mD5r2jStr9YmI/9s6F/KA4JO8/mzTFmVSEKI1OLlJ5LcXBgleLLfPTnK14ZHdcT/DDoZrwGcIB6gCwS4vZ74U7/XbtwuO3bvwTLUkMzCCgP38kawzzAFe52PwwZs37lHVxPqMNij43L1xi0vahs4joHgwvmzZQzTiSq0Ry7XrsLyLg/BVGOQlj5/tFLVlVA9tH9WjPuS3Et55PFnpBgrG22wDRcsX4LBcJEuDU+bMlln/pOaG7HvO6gDMR4FZttX9zroH5GnHaGjuSH++DwJjRpKzXh6ec+0tIw3SbC2FzggdrzTNUJEel7sdmAmcAhieJJqDEauWGY3NUst9iu2bHwRvWy/1FUXy3GcXBjEJsfmklZZOalWTkweEWyPyL7DBzHDGJLmwQKZW4rpHHrgPsxWOtDBlHTmZAbB0q4dEsF/FAUcHYRhHexEDWFMT6pUWkkva0ISklowA/reD++TG67BfsXCOao0NJIclew7hDVG7hX4oh/zwPEERhEM+6KFCzCCP1/jhodGdAo6Y/o02b5jNzqXHunFfg5x4Gzg6LF2dCSFOJpbIS3An9NX69uRXfkmIfnK17+rivKRX7gDhrhEHn96jWzdskvlZC9eJ/K16oQC4jlwbbasrFg30q++4iJpbm5WfLjh3tSMkYtlSNhReklRsczHTGvFudhHglNuwLsWG/LDOMLLNdoGNCKeBunt7cU6bRmUHqfA+ThwMfyZM+gZDgXo5jzS29uwzIhZJnE73NICFRkBfeqyfteoM9e/8ZVKw45VUu80SQsR5afP4u2C/0wYb25it/HAB7RxJja7uX8xNlYkK1eei5OVDTj8UaCj/aqyCj3ddN6yxXoUfgjLwjx8MnvWVB1kcqn2+qtxgAftrjgMonxwffMNV6DNNSvAHFhdcdlKPUZfhQ7mIixrc79wAIO9JQvmyowZU7XjIPHNN12lS8lFGFhOwV7K7bfdgHx4fUAHqGyfZjNcd1+N/fOn7jwsTEtudos8i3hhY9QWi++VeMWCiQgJaFHWYjWaRoEZ8tuZh7zopHEHob3HEGAeGAoAvxDLHOfMnia7jmKUCpvS19EvBegcljZWyyUz6mXF/MnS0NiMUwYiJYeL5PhLLdLX0oH1fexvALTjvYNyDo7E4Qi0rGrdLzf2dUhlGTazaaA4OsYb69z/sDGvFlgLY6VEWD2ZsjpJ6LXLK7FJ9cyzGEXvko//4vv0xBHXFrdiLfNCKFBNZRUMHk4n4YFxD4Fv5jdi1M3RxYaNW+Rq7GdwNPDw46swq2iXO99zq9a/H3sB38em94fvLEcn0iff//F9uuQzbfpk2b13HwwuC0Zn8wV7PojD/2NYElo8f54ulx3GMcEdu/amz04rZPm8KkmUPlymYd6Amdo5WD7aiKn1ccyUlmKv4ShGSv+KfZ133ny9zMFzIZ0BxDwsRzD6FtROgdObC7H3cs+PH5C7sI9x+83XYS9jl2wARtdiltKEWZs+CubJyDc1wugKy3rzcMTx4ceflFIMJqrRed6PDfYBPnB1jkMoy2vUv8BUIdGmRfbA2poZ/YEiPP+0/lG+YvE2wr8I71HMgW3iKUr9cCzsFRWHg71GDJIasElNNfGNY2pOSUmN1GEwxdkJD46Qlo6nBhfOn6t6xyUpVTsqGzxzMSBzxStCx2IzeKNoxkCuEbNyHhPmXnyBDvJBjuRp4WVFUpbhIM8czIw0AVfeE53WMC9WFvqMu8k/M/03Lvw4oq9s4D0PRHqD8TulZATS77qTjXYovEiaLUPgo2umjwx1AghbWuLLM5VYt6+Bwe3H7ANv2sjgSIFMmVopy6oapKSqVrqLqmRSPTqQ2jqpxVG4+oY9UogN2rYDJzDEL5Tu9px8/3C71GCppaMLb6u/sFrOmz1fFk6ZpfxGhnrReaSGyCFVGFFnq08KYlpfA5ov6f3Or/2yfOGf/k3++M//TpeKuObJ9yTec+uNOJVUJosxI1m2ZKF8/Vt3y759h+T/+q1flt/59U/JF770VfmDP/5zdGEFUKha+QDW9JswxSQO9agPl6A++yf/H5Z2+qS5vkF+7dO/qMs5xI8KaWXhnVNBOBSW5f0k9ha++C/fkF/+rc/i9BWOvGK0McQHyHmk4o4HG5RWs2k8UzhAIA044slfeclFOLnVLvfc+5B887s/xPLekMybM087xfE4aCZyMFjSZCRwye0TH/mAfPvuH8lPHnhUG80VmHHddO0VuoTGbodO5auPfgwkEM0jxu+741bs9zyEvI9IHXA5Hxvn6zZvQS7HIGQiB0RpEbwcga/Fev1JnxJk9e9Mn3+WD/1RfkAkhZeoBLz9/tbCn52Au+zzV+MMHMbXn02vCLN0d65/1iQNOL0CLuOHkEI3EX7oNNhrBJeV73Hj5Vu8yaHf5VPI2dB/5W+9JsoPFLDpg7ctwBwtmksmHEFb+8tWyIp1qqtT0lYRKL8n9Ijv2vxlJGATnBMfbJpvx+mfH2zaIS9sPyQ71x6UXEefvOPcSXJB82SZOnehVOLO9z2aZ8yWDryPsGP7i3Lk0EE5gRNGXVXY82gqkodXt+AIabEsWVqDqWWdzJneIFfOO1caKqbotLJs5nVSMuk8YhfqlJQoz5OXnAQw3gYmfEGQL/50490LjizYmZViyUiNNCrKUxAn2vFiUFk5jvHifQ4I68YSUBuO4XI9shEjcO5zcGTxnbt+LPc+9Kj80e//llRgRNID3jzKV44ZFKfB3NsYxMykHHsXhViaI47cm+CRPL5XwT0CvvHN/ZEGHH+trirXJToeI+bexsAAPoPAvJgN8TnwHQ7eKzAlHhjCgQXQcCTEdE6vO7HcxNlHJfZYGlC3cuxtpOMHA4J0Q1gi5HFBTpPHuyEsM3XgPY12lKsM9WhqwHsn2NdgR8vNRL7HUwm+1CnqWA+WtYqxBMC9Dx5HHgR/lod/L2JZ7z997i/k83/8WbngfC6RIdNpOH9krnd+T7I6QRKR78lLTgKJJ594gpBTuly/J6ROkETke/KSk0DiySeeIOSULtfvCakTJBH5nrzkJJB48oknCDmly/V7QuoESUS+Jy85CSSefOIJQk7pcv2ekDpBEpHvyUtOAoknn3iCkFO6XL8npE6QROR78pKTQOLJJ54g5JQu1+8JqRMkEfmevOQkkHiUmDatH69HcCaWfNvKSXjHsDT0iB5rQiwU4k4qWdrEaajo/G4h5KPhQD7t/2BMRjED6cd+Rc8QNlSxtNOApZQpdTC+I4Xytw/wmGuJ3LBkWBrLYVC7sXcx0CsLz1ksy1eskK0b18tqvKSXw1fZ5y2rk9XPtsn8c0SmTC/HctiIbNizR65bhhcG0VXbaJvyrWBaA1ySXtwKmGeiLE0p1QByw0s3ob0HytYffMthuKdjAyt13BTnOmjYvPJ8IOAki8K5HzAtbDKn+fA6C14iKsKfjyhYbMpnaZBR9wUmNTXgmDBnMeMcjC9f9su6SrwwyHx07PC0Vrjwzpcf+d7G+Hc3svVnPtLp51cCn/EjA3ZsTejI+DfecTPd5Wsa9IsvNlIGT6Z95WvfkW3oMN73rlt0hvbv3/shlrDKZNGiuSC3Z8Z8Wu5wHS+f6U7peud3pmnuEJHUHxk8Dymy/vH1DxxAY6WI8oFDPsAJfh7td2IX8U/xejPrH5+jLV6wPlwtwiyLDYeVouN5ZmtIuGpNGZs34UHD10kbE5J25KAkWqSpfiFHrJljClg4gkUWdB5YpZKlWIqaUoORLjbR1+CI5tF9x2Xu1Ea5YP5MKW6chvc2BqT7WKvkhvuwF3BYWoaKMQIvlDq8ODi5ugynmQ7IwTK8gzCK78WUVWKzFkxz/VLbUCZHOg/J5JqZKCCttdcwlBtBxkzsMnU9q/U3Zo2Y1c2bMwNvmtKoTuReX/la7zew/ln5fJv8ve+5Re76/n3y5a99W2dpi/B27Oc/9/uYPWGm8jrgn5U/Efp5uh7lh4aS0UmA9urav4EZ8QeAPyft70z1n9aTT9EGDqYTtqinTxWKAWObtBnEZR55IiuQIgwG6Eiy9AnRSR4so2BDaYwnlJCD39FCLyKNGA3zpb8mHE/N1fMjiFVSVlOHpSJ8xqPrKJbRCqTj6EEpxYh11uR6OXiiUzbvOSJV6H3K0C/04+XA0hK8e7GgTjbtapepleA30Cb1xR0ypX6eFBTZSzZ8YlbOpLQWToOhxE6H4Fmtv/G9CW+a33TdVSpLRf+M5Wdq94bUf7z8OTNmyO/91mfytCULiflTjSNhGjoT/XPJKXf1pcFQBqczQVE+8U4Rj/i/ffWP3UX2+XMliUNzGHJrNEzPqor5udikRHpNvUx1lmmS+SxHGjsmxWU8khaOenGGYzst6DzwljhON5BXeXW9lDVMxadH+KXaUmmaNkOXTaowM2kqG5UlTaVy8aIpUovN9l68JlKIPYJJzeX4xssRzDxGZQa+BZPDp076sIFeUFKFT7SnX4+1uliZWS6tsUUyGOr4etXf+Ub5jnTEH20k6p+2vdj+vFXkqURQj7Nhf53va7E/2ROXHFJgn9KKnekEErvvHh97ZDQ9eDO51Px6Di1qGlAFyVXhCCjyod/AJqqrCzmg06gvl0FsvB45eFAObl0vbS1HpBv7IX3D+OVAvGHOgtY1TpbJk6fqkdlRrLNXlxVJHY4W9/Rhn2NzOz4KiPPYNc1ywewFMqMJG+Yl9ZLDT9aaQ2FCeXj0zZzfLcFDTpdkgHRLSyj8SYA0E4dQWmXEpwGIQyCEo3zHzO8GjIccpwSwiH/UP22wiYbE9heg+FnaH7WCkKutFZsf/IchP0vCKP7BnxTMvSRzA6pPMbmkJ3MYldIop8CHKcxfVDkJy0j4OuwgPh2CZatR7h7je1fk0VhbIfvRQRzrxJvhOBHUgE+NVNXi65J4E7kXswt2IQNYyuLR167OLjnR0S0XzMA7FSUFcqCxFCe2WmTR9KlyzpSpumlcWIJlsIrJ+A6+fZpYy4/yWLmsnna1cvP6etefm4hRPrQkKE3E39uXN5SASAim+Jyd9hf1L7a/12J/vKOiHrnTPQ8bDXO/Q6cEmsaXQWCr4Zza1FmvrtmahICGEQjxnkMjwEcVN1cmJfWL8ab4CZDxLWKeuoJETEVK8cZzMd6bqKyrk57BYmlasgyfA2jE736c0CWs1sP7Zd9LL2HKMiaHWvHhwO4BmTwdb2FeM1968Wn2KXVl8t6VC+3LlihxMY7qFtfOoKXSIniFrVzZq1Y1bPxzDpR2k2e7/imSUX6KRcSfCNgBvqh/sf39/Nof2mvTVdov/GHsr50HR4P6QknSUShdcjFzZ0H1kx60NohEjBPoPaMCSQcEavwSVlHdXCls3SGFvQe142BnxRcHK/CTsoWlmJ3gExV1OIhUhQ8hVjfMkKLyBqnEN6zw4VwZ7DqGT3tg1oHfrJg0uUJmLGjEZwJqMaMplXr8PsZkzFbIj7/jUdwwHx0IPoGckZ8UUju40MuFGqadi1ckqbp6+Olx/vYF+i7hB8r4HsaZ1v+1yM+WSv2vAv+zLX8A+1JDeCelqprf4XIgeZ/4+SdEZ4A/f3NkAO+K8GVIl8F3TgZw3rwM79X8/+y9B5Dfx3Xn2ZMwGKQBMMg5gwABggFgFoPEIEu2ZMtp17Xr3aote6/OdXV1W1e166vaOteFurta19Zuec/r29XJZ0lWsEQlipQo5gSSAAgCIHLGYIDBIA0mYfLgvp/3un+/339mIBIkCIDEv4H5//rX/bpfv9fd73X6va5Re7EBgvBjGr9WdoCw/5N1wWH1j7nswQH/QDXLUCX+oPrn+5QmmaTBtP0UvuX5GPzHMmqX7LcN6InjexhupuQbmnzublHZT2IvAR9U/y0tp9UHNADT0Wn7FskSFNr7FfA/FYAsMD3T09Nn3z5RxzW6o2WCjtkn/htsxHU5/hvMMPz0rSZdfNSik5WLF8yVIdKp9s1Pws3Tso0B5v8Y/FfRrf6KuX5Q/ZfxU+P+Z0eq4L8OV2XLVjbu0fld4y0VJY5lfvMUWRhZT5DFOSS/xGSQQuKQ5K6OMmZyqJl5WxhoPKcVq2h2Wx2cax3rp4wN50/rUiBd8NR2aIdsN/FRnC56OtOs+z76Qr+Ob7bKkmzdJN2rsX5+mLdwuvY0tJCljj1dp7Xo4EP61qGqfmEYN/1WIUMvluK34uqnUELBJOewKUWi/5gs2r4qW/oXZSa9QsJqrD5wW6ebu25dtcK/q7AEedqS3IfR/1HwGy8te/OlwjqPLUMFRTyAfRj8XEJ1/ESL7FrpA0Z9d+Eup8Ew6cdDFDsK/qONMg+/54C+0XjiivF/WP6fl6XSV159S2ZTHrb7Pign5mG4R+Wxzz8YFsjeD2Ub0uGLp378y/DYFz5nZuEzTg3j/w4Zu7sgS6VPKO1Id3n6McD5/EtvhpW6Ce6Be+40Q3V8NDVzZoPsfulE3xXwv1uK75nnXlU5Os3sxNDAJbWjKpmJWR7uvGOthLLfDJ3an9EyCv9THXnd5GV/U3e0cLvc41+4P373A6T3P3yuTy31MBbkeaS8PYREIRw61GjXCfARK25AH/o2TJ4S7ll/u5nySDh4ZrkP4/9o+A8o382yHM3HrdhvQhlxbSvmevi41vKygmS5Gn57swz1egX8/6j0ZyMMww6V4NWflc05xS+BFmdeDycs+T6t+I0qEZZoQ+FK+jJShAcuiFOk0+7sIEX0RU8ByrwOgDeLsQTZm9VvhT63H1O/JNROXyvASn0VramQjt1qAUvfaFSFdn2pXaclrOqa/nDm8NZwcsfr4Vzzfs042kKjrNoeadZVtJqaTJ81SSNM7u1l74TbCIVMm+e12leZtOABKRV9JT8KfgK9RJGakodi9J6XOIQW4fzuU0/baOjJJx4JT0o4LZg3Tzd7vR/2qIEzW/MEedosveWdvXn7vkL82T0Gnj1VMoKuj4K/u6cnYMb5zOnzeZZklMixUJEGfbhR8HdI+DFi/Cj4IxHDHiPxy+SzfU1/QtYIKAn1ffjocbMlxhXAfJEP/uaWs7pYqslmBXp1Nwr/z8vEPcbmhiG2vBORWXpBJfqxbPzoI/eb2X2AUbxbdblWZ2f3FdOPJYBG3fGyTob0nnz0c+GLT3wu3KKByDZdV/riy373SqQgwz8a/xPMcP7fq3sl1sv2WrUNnnJqTL6q8B4S67XkoRi95yly+gm8IGsE9Nd7N9wZnnjs4fD4I5+zD1h/LNtmXBmQ0mbpLe/s7bLt/5SMYWK94F5dBTBjqmYdqnPuoGlRnSb+gz8WNXryfL3ADkBoFvMh8cNHzzvPI/G2jD9yXaxh0Yo2hEiwVqRnvMOcaQiCPGO980/vJC8JLXlxMIOx8AL0MDjTuPqprKkLY2fcKVtXPWGgWVc3SgDwcaLuVQ3NZzt0EdT4ME2N6ZJmEf3VQ6FPo8qjpy+EIydbwwUzETJXoz1XPHb/uTbfzdjiuKlh8oovhjETMRImdxn8WWMzGC+vF13+YfQ/r0aMNdwvPHq/mQcBbo5uBmTZ5IBMMi9ZMM9u2GuRyZR3t+4yMyXcHEhH4CpWzG8cOdZkU35MinD17Lq1t5gJGK6yxWrnLSuW6WKo1Xbl7FFZ7L3Q2m6XK+HHdtTixQtkxHCv7ktv1q2D08PD999tZsspfqtgt8kI4ynh55rcO9atsvtAiHvh5Tdk9XOFXYfZ2tYmK5/zw50y64w5kK3bdutmP8zc99q9x7crHUtAx6UMtuiOjj4tSS3VB3trdUcA95ZDd7uUxXu6uKpZgnyOrI7y9Xhi8Wj1z/3O7+lOZ0yXcJXmvXffIWvI1TIG2RMO6ZpOGiE3I57VHtYyma9erVH98FvQMDs/XV/TN508Zfc/81U65q1nz56ttOdlyqXfRup7Zbxyrkaq43Q7IYpx955DhoMredeJZuIwq5COpBOPAUe+wL997WoZwGMG41fzMurdpztQGOjcqUu1Fi2cq/Z1KZzSQAKzDD3Kf6MUL2aywf/AfXfZ7Y0s6zCCPiYbZ9gz26ArQ2eqLSSX2r+/V9hNcAvmz7ZyYSRyqpZDX9Qsi9vkliyebwOig4ePysz3ATO2x10oa29dYcKVwRL1wEVimHtZorpas2qZ3TlxVsurWDXm5kncGZntf1u3V2JmZ6kuLIPHXIe6TBeNcfkWM8+TzWc0EDipW+mm6BbIu3XLI5YJ5Ir9X/XFxUXzZGF2qiwTMHDCjD/7li/rSgVurTyrOuHqAtrP8eNNqtfFYZXu+6YNvLN5h0zYtKk+p9r9NxO1BHjg8BG725uZ8KYtVeLl+rBT9cL93a+9udkuE3v04fuyduZlst+Sn9HaX2kiq3rJGbVYa7Sx5cYZi72JjuH9v4T+hDEmTa88byb8LiKdCfGorjigtdfMwY3onLGR5ykwezpgntKVTRZd8BhM/KnUB4PjFjwYJsy5T1N3bXKo4pg81ElQPf/ukfDixvfsruB9R5vD5n3NYfvBU6FNd3hM1ub4eH3zQXX5rMPMAobaifPCzDv+aajVrCZ9ulJAbd4cvyUXnFV5DlZUHIpCyO7SssznJBzGai090Vgrofn4Fx4MX/3y41oDH6eO1xK+/b2f2bLWyqVLw1EJj7/91g9NcWALZreWWV5+9W2NkvuYbOka2V+Fb33nJ7ZvMlvmlH8q44TMYgY0qj7aeCI8p9Fny6mzZt7kuRffCH/37ad0yKBX68FzwutvbQmvaAkNd/rMeaV9PhyTsch5s2UqXstIz/yCWwV1L4jcm7o/4Ps/etYMOmJfa6Nu9ONWv2rtCUzWtbpjZFZlukZ6XGPJaO+IRvJf/7t/sOVC7lHe/O42KaCN2iMYNMXx1E9/EQ43HpcSmqtR4Rndt/x25GGxbXj9o1h/qC/H+3QB2GJZzt0uJfKNb/5AdTxkexgor5de3yibWYMyYz9eS0JvhF37DpjtLiu8Nyvbw5gj218nNNJXhZsdLiwZr121VP4Lsiumkb/cvn2HpYSXSBn2h1de3yRryFvMLDZ3hmB48agEcqr/41LCr7z+ju5omG34f/T0czab4cvpje9s1d97UsQNUsITwje/8+NwRmvx7JPs1o2SKGmWUzE/P077FAho9r8GZXb/e//wM1tuWb58kd0z87d//yNTelZA/ST85hF9fqe0GoQcS1XccY3ZmSNqA4ylNuvGyV+p/lnOoZ5+rguANr79rsEzg/reD58x/s8XHdu0jMeVwtyTsl+8py0MaDCG7bK//vq3ZSa/W3dpz9Atd4es/TEwof3v2380PKX22K79osVSQNwW+b2nnnVpaJhiuVVeEw8iAhmLYz+Fq4Q33LXWFNQZ2Uhrbe2wNsMlYRO05NSge2y45/tvvv4dHXK5aBeIMQD4rsrO8l29bsGrlxIBdpbqGQux3Mldo0HG1IbJugdnmvNNOFP/c+zp1wuTx30Y+aO0SvZB/T9hsLzL+Nkft0owHQsDVSNsDJgzrawYC061YZB6Se8JOD0zTe7tjaorrPilwPgkZ7wOUSWrueMXPxKq6qaH9iMvqAMeCLOn6+tyLaluOnAivLLruO1jcPHRpLrqML++zi5N2ry1KXTIiOKSxdPCzDnTQ8PKR3Q666vaj4CUlLuh+rX4KYWzIMLyUICRJHq5CpWL62dht2oY/Wzsm613wb+hS+iXaXbwxGOfMztX69aulLmNH6rzvx/WyNz5oJbVVt+yTOvsD2jqdyn89X/9Trht1UpdI3uXZhDVdiPgEU37GRVy9wejYOz1M7Lv0mgfuh64/y6byTCi26crbB/53D2aiTTZMsIffI07yevCbZrRfOu7Pwqnmk/LQu1E4R2yC2QeFmy/0tExDx1tNO4vWjhfAnByWK7LnZZJaOB++vQL4fFHHwj36U4ByJ0ts8+bdZc6S1PN2oRlg/RJ7RXM0IeYOBRNtwwvJue8lFKXoN28/f2wXHcQPPKAj2LvWrcm/O9/+de6UXG/hJjfc7BquXginoGL+zxOnjit+5mXykij7l+J/MYczWzxf4eE2hmNqM9IYY6VwFor/u3bfyR0dFy0y3cOiq7f/uqTplz2HTwcvib/PKVD6P/0Fy9olnVMd8nLGJpGmij0P/nn/0j2xarsNkUU+7vv7VK5ZtqS1jIJ/3tkGZj7G1Zq5Fxf75f9wE/m7lwKxMyAI+VrtPTEzY/vbd9j9y78kW6exBZZ31rMcleGt9/ZFn7vd74Y2yEcktcean1qaEMqjxaLLXyMlCJ3urDxz2Vih1Tme++6LdyhfRD4MUvmfL77D8+E+7XnAh8uaUbOTXIMAm5VO2MwpcmS9RlbTlWuL7y0UQZDZ4U/VBuB9sWL5oYf//wlpcUMUUUY0KnH5UsX6c6ae60NLdCtl3/19W/Z7JCb86ywINd/K7boj8W1MtNZUKZ1+kNRsfeEyfL777tTFqeXWCIOKfzj3/0t8YzTjyEs1EzuB1JQZ1rO2oyJuzMudvfZDBCca26dqEFRrfGe2ag5pRvVfQz580H93/B9gvLv04Y/q3+1MRzS05WHKuGSln+oo1RPANtpDSCt6cQYi7DAHFivHptSD4u34AJEBKuQaZK6WbeFMTqFtbBzdqjd8U6YPK1N2KrsNApr2tjHn90wPtTXVoejZ9q1VFAp5TE29FStCbPu/yehYZ4aaVbqK8UfkyaalDzlUKVlMx37MAUShDuLESwqln8Ie66DfUiXKnG5ETCsjyOQGS2vkZDDGi4CEfPKylGHA3S6RjMWTKMza0aoczUsI9FK4jTSRHFQpCqNSDHKWKVwXK0EJ5cvcT/4KY2Isbj7tq51TQ4lwcwDoYmbqZkNDou+kzS6G1A4VnJBTI5YicExYj3S2BgWy+4Wt5fhEAbcd96hmxC5DrdBQnO8rPhawZQYU/Rbtr5vsPx4CSu0EdyhKzy7w7pVt2TLH2NqZflYyy7Hjp3SLGm2mWvn1BL0kxCh2d7VKVnl5SI/i5LgmqDDEPVSho2NzeGcLBVP0jLLLCk2RqhNJ5ptOYbTWDN1Soe7ndvbOsL+fUfCASkX8mjTVaE42x/RCREutUJx4LA2jPBiD4sbFufpWyFoIs1SLRkunDfHNrMH1AZxZiqNTPHz40SHE82nxPPB8JZmLZWqf+y3ca88VpXNGVziEOkK/KdRKDP2/bgLvkrt5IJo6JRiPqQlzwviP/D9sph8UUu9XR3aqNdlQ5UawPz9D35m91gv1KwUE/2ZCW/lBzbumL9nw22xnBW6/bFeSlJLabHc1D+zJ2ZzuPrJE61OONF2SYK8tP+X0m8JlI8dVBG9HHoZ7K+wa5nNNhkAih+jNjxJ9bdNCvaclvo4VUVdo+ys/gEy+eOFjkWL/C2+RT+MT8HpmQUVAiJ+Hg7vcfYbwVL7M2SE6S9GeVAaxWQAgrlp8Xv9J56ht015mPXZKEjgNRxCM+ZO/sS0YrCDiuMp0pLGGsjDki89s2Qxrypd4rTu8X8c1jz8tdB2XDOQ7VtC19nm0Hb2jL7z6LWrSitrxoZFFdoPWbwirLzz7jBBF0X5OrZy+5j4S0ilcCKW6fREmSo/qPX523W6KtGP0mApgyURRu/wqbjiB5yTxTwDisnOn/4bY/XI0qn8RoJAPXYY/6kp8uXpAJp1aKdHHXBQgr+yEly6SEsndhhBI0R8XpXjxZeVR37u/cry0ogRZYaAvaQRNXAcw0SwsEZ9TEtayDg6eZZGuM2RcYH/KADyQhyaMlAHtFLYM29kZmE40kKeif6UaWp/CKIpGv2zF8EeyEJ9HMqxVkbRR4+d1PJda1gruhF0rL8jzLjWlwvH4AkneGZp7wEz8U6/I3V+xKqJ/L9nwzrdGDlNln4PaYloa3iu8/XwT/7gq8YDypf4n4qd0a/ZJeby+YsX5CifqZqlTM1ASGN8cAJL+A/9zOLYR7HrS1m3Up4MKthgx1WJp48/9IApvokafPzxH/22lOWBsF9K8u1N72qTfJ0UxbrU1JRC1CpfBhLgBT/Lhna4xGJj4DDmA0daf9qLfvRWoD+FUr9nxP8hGTelL5zkYIPgnE7Huk/LaD/R0uHC+XM0mJmmvZE5dt93sf1R+cPr39pbQhTxW6FKC+bILHGMcLRKmXkyXx4SY1Ne6Znhg/5ioPwpcTEYeAtPkek9i8CTJS1AeVjKKz0N2lPcaPiz9q+KseKKGCkP/ep/Kr8TmN6cGgtTkMcVwuR1eVKAz7zJk1eEixEPT7HkykeKKPkq7S1MWbom3KO/okt405M4/Lirid/y0w8Vxyzg3rvWhdc3brb12AatwYKM7z3YzGOp6NHP3avbvqZov6A5LNayE7OETs0GjjedCosXz41LEqIf4izfVGrhyLzQb9H2M2SwCd7LAgf578LPzaRP03ryBW2E36PrMuu1b9CjDVHuPZ6pdXNmKr4wQT6W2vKujEjNHr+Q9nHHh4QUZtdROghZlmyqNeNi9Ms69VQJ7in6ZuDoseOhVcdc2YRm5nPgcKPlOZz/KFw2ZU9o43TJooW2Lt7e1mmjYI6PJnc5+mFFseOwlMEGLXsAK7SMxAwIx9Lb25u3250ov/ObjxuPWVKaIsvFa1atsE16BCeneagrlqGgnz2qC5oVcDdLpzab+X6De1jYd+CEzyTtAf3G44/YDO1vvv73th/FRV7MOhL/KSGKgtkK6nCWNrxbNAO9Wyedpqk9sAx34pQMeNZxDHp4+6f0EuSCAY4lpHYtv7E31q1bFBdpCZRTPpSJ7x7uvH2tzWbO6RZJllK5hKxNddPW3qWlz/W2ycxR8uOaha3SMk9saob1FvFrz/6DYbVmiVxb3NLSYhvt9RMX05yiu3z7yyHkE/0oH8rMtxl8g8PdMm9KcS1fvtRmhygP8Hve/ssdLRyp/sPf+7JmVUEHSE6GzZrd/br6r6yossEZAwGuerY2oey8bXipkn94+8sJc/wj+V8sHXlBv1pcBB/e/hxCNN3k+FP7Z5kVHuF0GhIDV0yZvZFbpfqPQwjUOrNSOINL2ZuqKAKP8ihCFNSHskkVX5KvZe84PLPrh5+9huYzp8NzL7wWFurUFSdwmmV3SwN1O4mEIOWk1BtSJm9pgxrBdUqb3az9si7v94mI/owFOeOpAaMS/is+CSa+W4kxxh9bTqQ+9N9GvvIg6JZo7fiYljVef/MdW8Zo1XLVyZMt4Ukdo0R4gzLHb5isk+BDkHCj4a69hwRXqSWlJeEx7Xew7GIXRulQAstuLI1w//LypQsM1+Z33w8ntc90UUdUOzs7rHoy0uzN7w1Zq1NeW7fvDm9u3qoZnJacmk7Y3sBK7WlwQZQ5J8naVgn9VlQvL3Ao8YapLHExw6u0DX7CZ86QktQMpFPLa0ulSFDQKBaU+Bs6WMAVn1yAdeTIcZ1Cu1VLNrLqTIOTYnxT+1TcM31eyvesTiPdu+F2U6JcM9whobxQV5Cyv1QhaTd3rszqiP8s8ST+T9KslBkBp53u0QBj5fJFUjIHw5va0J6nfYOLPRd1Gu+Y8K7W4KJ4z0le/zt27rM7r9m7aLvQGTgRd7dmDzMbGlSWflN++48cs41lLuk6oKU4jrQu0YzrtAYJL7y2UW1wpa4pqNHs65wtW/lpNWoE/gUNLNaFxh+ftEMWkyZMtP0UrkE2l/gvvsH/lCZvfw5GuPV/0Y/S5TQey4zw9rSOenOp14P33pWA9czxEzhX/EDxb3l3p+qSpbRTcQnRMVJvw+t/oQ4BbNfRZRwn3m5W+WMMSPxXfZXISY80bkfvZR5WuRl01rOof0XB25J8DSCDUjqv/9T+kVMpTdW//jf/018QwOgXNKkB5slz5AkZJTH4GOWweQpll7chdbzY/EhmOKzZqMR5znmMBxaUTAHqWuOnYyyWYOrWaSfuD2/Xh4KMLNffsUadQspEBEzRCHasOlPL6RY7AVSjTfD771lvsxVWHyTvbOQMHI5jiXN1sqZeRzPpOIzkGnT73nSd8GEZADjW82Eh6+gNWvpAKLIHw5r4eO0BLNBaPF9YA3tOM6HTEoCMqtet8WOp1eqlfVq6WaLjucAjNBnhcovgvDkztQ+jO8M1Q2jTTILR3VyFsUHO3c0ntTne1tZl+zS3Kz/KxSYwSoA9B/CxLLbhjnWB45YLtBwxvP45jcQRX76T4egoJ5O+oCOXbOTj4MkMrdGzl4FDYU0SP6Zr38JvKyytfw5NsIy2UBvV3LzoLadC6+m6iEuniDh2SgpmUNRPp2ZMpzQT6Onutb0LNm99b2lQo/l52kuqDCd0/Je9jLWrb7HLp6hr6OQoMMdbmZWsXrksrJGA5itwlpBmiU9mYUB8lGbRbZHtqqspdsXwLH0weEYjcU6isefDgQFmQNXa9C+2f5hFXXDMt0eKlBE8d2Kv18b4CugQLvg7VSfkBGib+OwVsBH9wIMb7DjuBNUdX/gy0+SkFHy7/baV4m+9yjmg2xyn6tukKXa7Jfzp1pfhqmiVVYcdhL9Wg4OlmuEwg5ih+mUWxk2O1CMDn+VLFpti9v7pv5dEvxY1bdbpA4AKnbybZwc/qDv4T/vl0rGZar+0NTKcKsWPNQJmYpz64ig7yoH7ujnODl9pB+zZUM9092nyn9Mxdo6Ss6Gf3LXu/0X6KcPNjJ/91H61Ddon/2h/dg0tq6KsnzMl4cIic0Xt4CElv6UqoSRKLzRDWJ+eMT69pmchfkR+Nxh+hD7TdgQUQn94eVECLANx+gRhc63oZwSMAELoIvzdJQan5+jBCG3KycmgRE+/hA+01CovZh5FB3yfNlM5BIACGK7+c1jHy+Y8eSFI4FlW3VmxMk+GP8vjY9Q/m7EcZmBtJNWX5ZvQ6cm3OnQEFBAu0W/HiUUjHyjWSKFczgGH4rWDD1bfykNlRrCyecweS05wzKWA37pHxpAcf4Yv0k/dUsfMFm20EgHAz+ACWjkJ520upXZEZzXg2bZjb7hL35zwPUejjui+/s6WsELK4T4tdxbLl+hPOYiYEnxZePSMgC8BKCWUrHp6uu0wAIOKnOwEN5J+aIafnEgczV0J/ix9QpeeeUGy+s9hBUSbvYy72fB3aUDEsiqrLyx7035tfw8Pi1eJVcbbyDgq0Dq+mJjxXP7hgqMYZzl7JhnrS14jIhuRxYTF/BzWgW4U/FwPG4tqNBXLSwBLKOOqdRopuRKCI+8Sg68i/Qj4sfoDXe6E4EPgJ63kq7lED2fsq/WXilrkP/B1daUKJeE0dOmF1ApAcPOHKynOh6CfNMwC+NDS1lnJUkM/s8obkdFEJUPz5kYi4qTY2IxAwSG4APDOHhMSJGdvMYgiGWiEtCJa/n6cllHn9cTfIV5cHr/iVH4rM55If4eW9PjojkMffJ90UXkwC2Skz0za0sSEpMXLbzZT+iTo19UJyX0QfuQOx4DZS8TFopo/tVd7GRaXN4hhuNJrfH6a5A90Xk/6vf3nOgL+m5TgAylbW/ee5o3QaiVXHBR9eIUVqUn1kkj0KZ7IdU8hT7igcOG0NHnCjD15UBl/Utw3G/+ZCe/VJvIh7VlYQ7G2SZtxRRCbpz08HjC+neCoQJpJefsrKhFScyor52vkLFp0BA6FkTkNckQcYY7e4288/GhWZkatWm6k+BwDZvnzve27fIkoFt969g1IPwc/Vq9cIUsJy43ZUS0BXgMAAEAASURBVGLEUluQ1428RZnBW1n+GBfURr395vyBb2oMVyp/lcb2/mxk4lVQ0drWruVMDdPIT/+mTvF1aN7M0UFseEq3c5cKYlEWWhoSwfKHJdSPCjyaK45uS3ukoA1Jjon0KZc8tDRkBA4AjcAEVwpRxl8UpsYsMSjyypiccxrOJS7moaUhpdzVm2Wpnyuof5LwEWC31sl1H7FmEi4QyNtnH94ek5qwcCFCECaHz95N8Ef8HqgYeZi28FAUX9mD0woLjEWkyDL+68F/BgETdPhjHN8XqT68fqxmqCB791CrsCzEIos/llA/V9D+MiykLcs/rQL0xmUrWdON+x7RtlUcsYlRdDbjFcynTlJHSl7Co/Mq81+rH9IS5y8Z/4t5jB5NKqulMn54WOSfMdR57L9w0F0x9LPGf2ibJHPv/H0YV2TZiPY3LIMSWOIIKAiIEv4PS3u515I8S15GphgRXcb/ofh/M7V/azUQbEQ75deT/lQUe1p7lWpnrOYFZKEUb3y3kgLF34iHh2XBPt4r6XRFSpWF4YmpwOHRMdRePKSMv8x/axzWHMrtr9z/yvLHxGYpG665/GV1BscWhzv2AqNysEiLT5GA4PeJYZT26eHpI0TUPtkji4weX3aL+YKDAHPMVGKheC/jFxMSb2BImf/woNgsitxJHMp4NjwSALly+4NDkTnl/leWPx9B/qIz7E9KxCU2S72xWcVZu/e2Yb+ZXXulSgmHgVz2FXhvtoVZRkkn95cy/oxRI3hZ5n9sdeX2V+5/I3rHrw8oy5+rI3/hI1uEsSfqzZatCECt2HteE2mTkZA0VYlgBOWZ8DbMGSaF6emqgfhs7OMRBCk+yycHJEYRKRP5y/iNJamajD0eMvpvYp2eOVvL/M95EVudHtFXZJTztNz+xIfInXL/8zahBpTaUNZuRuuBRMa/BE/K3B9T6xF9ecYpvxus/VnZ9ZMmG0wFdMgkUkmhpVkyZw0mLSql0JxoyyyjPMXHJ3kKIM2ORoClCCtMIbbgdYVRxl9kSdbUFFjmv9paKXPyRlhuf+X+V5Y/V1X+0tVQGMgd9BrPSj4zN0csX8oO65AA5c7fXPbHHPLIzJe2w1Pa4SogP04EuggFXrxl/Bkf8SQeeqC/lfkPN8rtb1jj8CZinPF2ktpOuf8NFyr5e1n+xFYCS/DmrLH2lNqQvQgAayRJ/lTTsOwFKGYe2eZDyiXmCFD0+izWmyRB7nLsxQmaxw2H0ruBU3UxLoHcQPg5RDAo0+fctWA2tCkjfNAZNYpp7KL8vNg00wAE5JM7NHWpM267ji7yOiWzlJl+j0lj/tiwNjj9lPGX+X+TtD9sbvGxYAWDXGv/evDUC73LvNZT0ltBplg4P8Oh9G7gBdgEcgPJHy8+BVNhr7v8dS5iHDSZJorXD0TGZ4wrZbhVlGgw/iYmW5XkFZZXUA6Qf3znApEYi814oTfLIuVTxJvncz3wowt6dfES9pygo1hCSumUuPqIRCgIpSFI/kMaJqVjGKbWjb1wgPx4h0RgODBtM0AlJIzEGUYw52/2Yj+WWL4CbMRVxu8sLPP/09/+Kit1R4rZbeOTQbV1mnt0ufqgj6SI9FQbUD9zSwKfPvmT0wOxojSRnpNHaKQ7PR2WX9zVpt8ytYEy5Yn1MZSEFWXgz1zmsbdCmWM8Dw9VFVkYAheXnpkJCOVfkl4v2bs8Kb0ntl9ySR57ZvCjhKb0CW96fhz83NWA1VGrAOE0/CbtUwHASqgzklA7jaBiSx+YorDLqixCzZ4w/NAlj9kwpaDyZ/wnWvrIG4XiIg8ci17L+OFQdGX+3wztj8urMHI5JOu7I13qUfFJl5G7Gv0/9T3P0bpp8haeNxl+JzfSrw1z+J2Fac/D9IgJrSw0irBhNTOChblsK5FxUVgCbjnoJ+aU5ZBjUpy9AJGHOnxMlVpGljqHTHjT00GULmZlOegn5pTlkGPK8Q9oucoSKhJrSaSyI7OGX+8E8Wfh7k+XLWVbRzbVYJbhGK35R/wxdzJIxZPH+c84yeaGxOh/GT+MLvP/Zm1/dEW3AE0zoOeUOuuGCkr9Pj0dir6U+WhG/C9xKT2BN4r8yQpNmay0sdTXkX4XZ5RDHNN/5FzmKjR09nf9ZhxmhIfz3/wLQ4EkeojO4HkpOtJ5pOWgH8+pCJP8BVxZfoUwciq0jE8UP/a+VG46LDMBRnngvmQc8zIZiEPZjMEbXqLWIvTDgYRIP7Qb/c6EBC8AcyX8Z/pSxl/mf7n9Wf+LXeTa9f/rLX9uMPwm/5BIJn9d/vlRqyjN7dKgVEsKiyIvhdgzgpKNCUJgLCyPKIH3F8QvLuOI+/JXBys2kxsBv5VBbENpGJU+VYNUX090imwJKtcRkZb0IKVBkCgGsschvqWZeOQdkAbBO7j5k6eMv8z/cvvzTuK/dCNxxPrHZ1j+mLTIKeY1f7u29Hv7y/Ej/1x5SEq50EK/5M79toiiwCT4kpfYlGWexn0F2BjleXkaggyjBxpESlEIimW5jvitUJjwpoiS9HqaQNcPCoEAX6JSqRMBVmq9GCFODctWzlmo9ko3n2lxson8T1AxL1/tKuMv87/c/qz/wQac9Q/61mdc/kRiXRxEoXDd6Hf550Vy+ScJSKFSJciflTF5kkJxQWiJozelsjAlTClMcuYvln+KZHbjLj0dML0luLwg1wl/3KeAFuYNqRRWPsX5Pwl9Kz4/CsmIkMdmFZE2gGyqAbxyM0DBGA5P63oEuKhIyvizdlLmf7n9Zf2PVhH72Wda/pigcWKd3Ej0daLf+K8imESL8k/KIxXKgrPX+KaiFpUCJc9dJt8sKK9eR5DDWSVHxP5FeyxETOeQNxj+jAiN/K3skU+JXSq0nTbIaJCSsTSRXxk4H9aIN+TBVK9SWsWYTwCJI6BrIYsjzF+JK+Mv859WENtJfNBybsr2B+HRfablTyLyBpG/qf2lxRKKZ8tWPhJmfBcFuCL4GMRdenpclI+FKIUkwReTpxQmHRWW3v1Z/PVskqC80fD7HEDlFS+iCvBZA7zxYBEA/TbNyNhQVKO+N+I52UIXaY0nkVnkYLzO+W83dhlOYMr4y/wvtz/6H856Teo66hoW8hmVP1CXS08n+nrRn/Hf5JcYr/92uzzCyoQcIaO4Yqj548jZND+qKAHYExUQxSeIYlgGBPWeMMOUtFkudLMo86TseTH/NcAPnuyIrChKVZfwt17oCNz33TfQH2prx4R23Rfd29On8vE9uu+IVOraz8m6L5o0g2rgE3Wxkd0VH8sPPYePNIaGhil2r3Sl+AUelAk+1/b8Ov7u3t7Q0d4RZkyfajCMPO30lxWK3OCPZip6ZoqKOCk38uQe7MGBwTBl8sSYNymUhvoQ3Afhp6MaKsqv/K4EPyWyI8tMvAr0J/wD+hizWl8Tg4C8T55sDg3TGsTbGqMJvgwODoQLbR1hXF1tGFtXl+G/0N5O0cTrSQY7Gv0fhB+8v45+vvs5d/6CeD8tK+PVpP+D8EP/J8l/8KuR6v+Qvuiu1ncVA6FDtzhWVek2P90hXsTf3tkRTp0+F1YuWfSh29/H5X9seVbMNHOn2dqU3holfv2ppMC6V78xLHqsnXwa5A+UJGckxBfzx/5zLemH1fwxxDX+a/nde6sCTUBJigNgTqXM/OYpkhCrgiCLc0h+s4ojE6POPFlekgtE8DPM5XlYhEA8RG/mKU2TZWNxedqrhZ8PvtNGN2RYcxR/wNvT0xv27j8UTkjAbd26K5w7dz40NZ4M+w4cDtt3HQi//NWrYd/BI1IMx4Ku+Q1HG5vC/oNHQ1+fPjo0ushFf/q/e++hcOFCm1ilRh/5b3UxCv7W1tbw1jtbnT1kIRjTFEpLGeGCLZHpCR5TCvJzWguVduTY8bDnwCHBkRgAPfRjbx8CPx3Vklie+rkC/KY4KKMyGA3/nj37Q5uUGzRA/69efSOcv9BqpUv8v9jTE3a8vye0nD5rMiPh37P3QNiz54ClvRz9H4T/g/jfdbEnvP7WFinfAZVQZYQRV5H+D8JfbH+fFP6TLWfC4WMnjP/dfX1h/6Ej4fjxZmtbRfxt7Z1h9+79155+CI/O2iE/NBj/sd+r1f9p6JZ1lr1h5M3czYbf6z+KDHGA9l9Ny5DcEKOkSXSspcgiGrRBKRBGWpx5ClDmdQDrUM7bmCCHQwCAy8VPzK3kMTKP64pfZasQP0zZedFUfOdVe0dXuNjVHcaNHRsutLdpdDw2rLplhX3IdP7ChXDo8LFwz523hwqN2sZq5NzSctbu42Y03aevZadOmRSmNTTopFZFWLp0QZg8ZbJ9Zd6pWUXLmXNieUWYMaMhTGTEBwsj/n4pn9YLGmUrgC9uL0gxnT3XGsbU1NiIePy4OtUT9riGQtOJ5nCxuzfUT5oQZs3UaFkZdXd3q9wXlf5S6JYCbNVIumH6FKUfE05rJHn+fFuo06h+zuwZYcyYMU5vxM9o/vzZ81KUrRr1jw1TNKPq6x8IkydPCm0q04BmNB3Ke+qUiZoBTA5nz55TWTvC2LFjwtw5s0K1RrMqmWZoXRL+Z7T3UxWmN0xV+ok2in397a3hDvF05YolymOyytamL4ulbPUv0Q/N7RJcPX391r5oPsR1dfUEvkTGfMXA0KCUcXs4d7Y11I6tFR+nhjrVU/PJ02Hq1Ekqz9jQ09sTTqlOFsydYwLwQlunnZqbPEkzl8hr0HJ/+onmFvWPS+JLnehpEx5H2ik6TquuBhUwU7ORiRMmiCZT+1ao/t7+cLb1gtV1rXjJV9IXpAzHCw4en1VaZjLMWueIP8D0SEExO5wypV78qjK+0haYsWKtILW/QdF6+swZ48WECeNtJlpTPUYTzKFw+uyZ0NbWZXyfJ/qUjfHm4sVe8Vm0qPzTpk1WuxCtahOYxlF2ap9dGgjt1F3VSjumxuq1W/XZq3ZyRIOffs0MZ6sdja8bp1nypLB82WKTG0PKED60tXaGCbprfNp0zRZFC5lewggSNUgV0pB1Nj3v/4pSWRJ+m6srTZH/Rm+h/cF56sWA7AU/Hq800mZuGNynTv5A1Q0kf2n28BC2MsjFH+8wp4KpySL3gaYz6KG/zJW8eKjBWHgBehictR37IU2M9Br1t8SoDBFg1xO/ypjwU9xIGt5xEuq3SMiNVcefOHGC3bONgAJoQMtYVeqxCEWSmFOi5jOnFe7C5f2de8KjD98nBTIlHD5yPNQrj0vqnO9t3y2UFSaQTp85G25dtSJMlPBXUI5ffjp786kz4f2d+yTIayUM+8LJU6fD2tUrJJzGh7c2bQ1dnRfVmcdpttEY5rXODqtXLqPWrTg9Wl7bvmO3bAZVSqDWhxOnm8OWd3dI0E5Tvr2hueV0uHfDnVYWI1vJjmtmtWfvQVsyYgiwra0tTJ86Nay7bVXY+v5uE3woxXHjajXLOhKamk5IMNaGTgTwqZZw3913hgutHeH1t7eEepVxQIKuWYJ5zeqVobOzK/RrSe6ClCcK7tLkyRIqVaFSfEz4EzONF7H9IIhQLsZntaXBoQET9u/v3C/FW2cKsuV0fVi9ennYvf9gWDRvjpT1wnBUo+s33343/M5vPh5qJOgOHjoaJovPvuzlrEa5vvrmplAjxYwCvCBFOKQ2Cv5zUgq7dh8IA1JiDBAOHNJgYf1tUhT1KrcEpgrU198X9ml2unDBnLB40fxw5ty5cOjgsbBy5RIr44EDR9R2xkk4D1gbeOiB9ZqltinN4bD+rtu0VDQ+HDt+wjrqKrU1lLmRrTI0Hj8Zdu7eFxpUd41NJ5VuZli1cqlmwwetHYwV31GyzZpJ3LvhdtXBxfDO5u2mXMmj6cTJsHrVcimdBvV7VO4llaMndHZfFP97bFBSr0FBr+g723rG2kxra3s4pXq8a90aG4AcEM9uvWV5OHHiVHhPs0FobzzRHWaKN7euWinl53WT2j+15AoEMoiTU50l/KbVxFwVz+Pw6X9W/5YRaZInf+Yw5vOIYXCfPvkDrc6nElJKXpzUa0l/sf9pzwPUcv7BgvuH14HePZFH578OmNMzCrER2GASoJKlJaEsryKCGwJ/ok1P6dXEHkInaIQ/Ydw4+Ya0Lj/VO4XxkRVBiEwCzbzG4jp16EWL5tkI9cWX3wzHGk9o5N0Qzmspik7KiLmp+VR4+MF7Q60EVq+ET02NJobKIuHHC/6enu5wSHslY2qrw21rVmqE3Bve3vKejeTrtPdy+HCjKad6zQ5OnGwJ26Qo5s+eZR0PRbN9xx4JlK6w7tbVEkq14aBmSjL/GNbcujJc1Oi3i9mJDRq9mw9q1Lxz594wtWFyWLlsiYT0YPjFr14LNdU1tkbOLGyqRqMou37NDo427tNovCEgNMnrp8+8ENYojlH24oXzwpyZM7We3hn27D6kmdbZsHD+3DB+0viwSHEN4gk0M4pHkZbQrxfKv1m0HtQyIAOeCsE1amllmWZwKMX9B46Kx+NcKXV1hi1b37c9JdbtjxxvCosWzw979x0KVVKcpJup0fRZzajmzJkBe73+JKAPHjlqZX/ogbvDGNG598BBCeoTgb2ZRo3EGanfdcdqKZ+a8M6m7eGAFOaGO9dZO6EXVFdXa+YjxaS6WLxwvvZwWsSbAdFVGba+935YsXxxWLJwoRRcd3j5tbdVNilbKQhmQUMDDOQuhS4pXhzvldId1D2zjqONx1X+aimAFaFDirdGSrZde0GNjc1h7rxZYcG82TbD+8nPf2UC/rhmoZ1qFw/ct97ye/e9naaYpkn5V1aRawj1Ev6zZk7XbKfTymvLfOI+9bpqxbLQpn0l2tjypYtDv9rruXMXpEwHwzEpL2Z9DAIYsNBumHBYrlQeHv1l3VthjFMvacZTybF1h8w6mPUfBpK2oeTtz9q/ZlAjHZnHNmKRnyX549Ra+y/yr4QJ145+xAGd0arGBv2VvmFu4ahmxVhxrMQKBZJaT+8AFl02kxCowqm6YlXGwBgJBF6HiM2iNGuBWJYJ3/XED+lq5Tb1ZoTkhXdeEKcQNnZTMPHsLBASg03oW6dR5BSN5KZPm6Ili3G2ZHVRI7whqwTLOUwcN0EKaXx4beOmME+CfqWEC0rEEA7D36slkXZ15tUrl9sSz6XJUmiavdDBz59vtaUolp6qNHqvmFsRdu85qNHyeZV4KOzedzBM07LQ/ffeFaZq+YKlM4T3AY2Kf/XC62H+/DlhxbJFyK6M/m6NSinvWpULBQIzFkpAsSyGn2WvaVpmYwnreFOzlk7O2VIGsyoYwvIM5Zo9Z6b2ffrD25u3Wfk7JTjnzp0hnowNY6pqTCGjYHBVkkDVxjxlkOiX0KmShdW5DbPCPC310DzIv7PjIsWQYtHsRUtL995zh42EJ0+aGHbWHrBR+CLNAJ59/pXAxvfxplPh8S88EHZpr2ScZih9/f1hxtQGo8UGNcqzSTAL5s7WEg/LiyEsXrwwbNdMD9hOlKVmWTOnTzfltWjB/LDv0GE7PDFO5aP+x0ipzJo2LWw9ucuWLS9oVgHvGCRgp2nR/Hlh0mTNWofGh3lzZ4YTTS1hiRSbtTSlhyBftkEa26v9VGpEP2f2zPDmxi3hlVffVrnmh6WLFoTT2ndr0eyWwQh7FaRnGZL3JtUJA5PXNr5jbfZ0yzlTzj0aoIyrYsYcQq2Wveq0/Npd22szVpRSbU1VGDehXsp3smaUYy0tG+o47+uVYfasGbbX9+KrG8OiBXPDMm2io/itQtCBeKkcIwg/PV//FEb754ljVsLyYOK/0z+s/zlo/guj9R9HNp8p+WNEiSoYGGkkqMRdQ/qtmqj6qMThtZ22orVfsvXIvJxWGdZ5Ka5XjRW84C0S5fQNozK92rMAEcOt4eBPecofozzoOuNPdlyshaeKgoEqJK+5s/GSgj0QuvDl6cVzBLk4T7i89nTzJApRZvUSJF949H519gu2rPKG9gDulxCcK0ExAr/yYOnKZgd6GJvU8cBvrFR+VhJFWDmQPwpjiWCeRtjjxo6TAD0Z5s6aKaUzXiPVueFrv/2kjSaPHmsKv3rx9fBVLemw/EHlVEhgMduw0WikfwAhYkjAr1GkhL3hVwEQ2swiWJYD5O7168K0qVO0yXpISuqw3m83pbV7zyFKb/Rb3vLGLMMqLTVxogr8iX4OMVSLeQjPZcsXWZQAbOkGoYsitNlKpL9CI3LW5IkDf8WlqrBPypO9jzkSem+Jx6e0+d6guDFjpahBRYbmnJcpEOrsXhfB6L/VP7MenNGvJ/iJ4wc/ynSSlPr2XXutqmY0TDeFiDC1soqFDs8IXBvx0C9e+j8/oQdW4w35Eq+PXpYsXqDBSL2UcquWzI5am2HWwF7RUgnvKVJslOwe8R24qprGsFzha9fcYoVjpsDsuVZK3xxtg5E++XuIl0uzJCNRZYKvFjmYJTHFuVCDja986bFwVmU5qNnXeQ0UmOGM14Cg2P69bdiv8vH+ItI8z4Q/voLB+AJOfILPHN5UyPTMggoBJEiv9vSXgtezJSDlKb9DxSDDT0YJoNSbASvY06XUpJFLr/YsQMRwIwt/yl7+GOVBNxR+FdPkiNOlKnPxY40TAjIXKzd7F2SKT9SlOAtPkQrMvJknC8pDIljKKz1TnkpRGqS3lLg0IoanyKuHX3zKHcIIFHDM/+flIS4WzkAYPVnp7c1ibERF8ghHxnz4lhOpTUetT+/ctS/M14h6ldbFwc/6s7lh+Os0OmeN/pCWRAYHLtlprzZtnk/SMhWj18NSAO0dHVIWcTNTm/ozZ2mULJzTGqZpaezucFYj9L06HdavTelN724LnVouWbZkgZaXltlyDSfKkhs3tk77MpO0zn8wtCnfMxK427Q/k5Ut0gXFrH2bRWLtaUzXyLu+vl7LNLtUlmCHC1iWWrRgXqjQCJ0jn+YQJqKRmYMBKr/JEydKycZaiPSnNXNGtigrloAqK7Q3Ai/l2BeYpHQI1CEpuxbxlOPT9VJm1ZrFwZsXXtmoTfmloVoHGSbVT9Ay12Eb+Sf55FldsqUfZml9muXBY04XDQ1esqUoDjKcPXNeG9MdthGOQkR4c8TVWUEuEtBSHBzD3rZ9j+2DTdPhhCkcjhBvjmrfAcUGnzkBx9IWS10cEjijDWiWmZp0wIJ46E7tjw3697TsxExwhTat582eo2XLi6akWP6kDpgRocDf2bJdS4vV2uieqT2X87anwyGFs/KflrA3hQDjjP+u0Ho0y6TskaXE6lVv1pz19P961zxWZdm+Y5+Oj7eHFUsXa39nnpXX244l8GRkYX/8uitp/xE/MY6Xww8Fl+jPAfJIyzLP1xBZbB6WfOlJtPkdWUKa56nYFOWBekuJSyNieIpMGZMqD0u+9MxiU17pSYS5Gw8/7S/1Pyuu3r21E2GFdjGIOCw6iEbw2DNGJD/tqgQ+S5o8MML9KXeySLHkalPZGOD55rHAXg/8iT5KygCJNVj/FsbLk+Kh3xd5CZFXjIJOpxqflrLiCCI7Ogsc0tSc58TmMpufb6nDa6BvS1KzZ0jgF/FbrsFOO63SevcLL70R/v3//Q0JiKqwXuvv87XMMlYnjB66f334m7/9npbCxtu69Fe+9LidFsJkPCNeRqOfu2d9+OULr9qSBN8ufO+pp03YcZLpfm2yps1j6GcE+fDDd4dXXt8U/qvybZg6OdyqNW5O9zDwuCQhnhynf9bfcWt4XrOXV17fErq6OzUCvsOWPVavWBy++8NntYx2wE4cpUMGsGKNNvt/8vPnbd/gPuFnialOtKzWpmzGf9Fv5TEO41Nd6MeWFrX+Pk6j6dvW3hJ++fyr4S//aoeNrO/ZsNb4QvluWbkovPTaxnDLcm1Aa5mM5TqW+ubM0n5QdOnSrlW3LNNmcHP4j3/9jVAnPs6dPd34jtJiv4JTcd/41g+0DDYYlmhv51YpXS4tcuf1P0aCe6pmH5z4miqe1Ulh0da/+NhD4amf/jK89to7UgIXNVLfYHnwHc80HVr43lM/D5Mk/CeJl/DIaBSLaX8ozknK84dKT/4oxYfu32AntjbceVt47sXXwktSkB3a73novru1zySlqb22ppMnw3/6L3+njewaKZep4fMP3+fLS+Jp6n8o1Vc3bg5f/7t/CL/3279h/OWUl4kyqtgkiPMc7tOuJ0oB/+jp521/joMiD9x3ly3RlrR/ywnlFHHBpNT8C/gJTvz3mibE+x+j3jws98ObJF+AjqgKnk+n/DFa4o/RTTsvocpJvVb0O/+dl5QDV6GPrnTh2pCWJbQpp380dmskWS3EImclzzyewxX+ZqnlccJTBjHGHhmUIovhwBbjUtoP/8xSy/Pr8LOez+mahI8lJp+Gx+OGVCbRcvKqVP6b3goRMcjjSUI/JC34Eea88I/lhB7hZV0bZeLLIqRQ9xgFP0dygWcfAHhKkfCzrs4pm4k6tWMjeJAZltHxsxbfqQ1Pjh/XjGE1U/AkiXl2tnfpvVIjb053VwTWuNks/vxD90XKPf+En1Fpl05OsW8zhn2MiL9Pew49GjWzvl4tPEX6+Q6mSoqIzewB0ebC+PL0X47/0M4shvR2bNSK5uUjt8vx38pu6CIfleSiaKB+xmupr1j/kGMzQ9ULCttOWRX4D+foU0eOHtfm+7Gw/ra1OsY6xSDAz8Y3x3Lh9xgdjKD+wc/thwPaWEdoV2vPIfF/eP2z+d6tugc3SiS1P9pQlw4j1I5RvlIcMVvbpO7t67UN//HCaUpBNBT5D37aFCcGrT3BspjBcPxUeuI/CpQ65Wg0x8Y9jR6kj6xM9c/rlfA/ZVCj5UoOIKR3eT6SS8WhXNShkWg5xRh7ZFCKKYYDWIyzhFf0k6WW59OEv6uzO3TrsIom+lp61SKuBjEVOosv1aF/anSs67IRiMuITKwZRiwNB7mHc9hCiuS1J92iZGyQpbDEl/lJWWTRCigy+5PG36XOQEdOjkHXEAyDWv6rME6/01ep3kWYOZIJVtpHTBqFfoUhgAHLe5i9eJ6KY6U+b9iWzXXFv1VLJYd12mie9hv4UG7b+/vC73/1i/Y9CiX9rNN/pfXPUeRGLR/u2rtfS1VTtH91ZxzpU+Wfvvq/UvqvdvvnRNkYKY/UJz7p/k/fTLisZyqA7p3Cbjb8KI+LOmDBzDfu3KI82qU8OCPPzKMiNGjN2pmF4Eus8qDi7ygisRCdWJ+eMSq9pqeJT8cxIr9i7RRyTt4R8CnCnglBesbI9Jqevwb/RR2TpAg22pSHUpIsOfD7qK003ONNnAqCBRenz37Jz5QKrCWHrCDmNxXr4KZ4WBa4UfCjSDnyeVJn/dn8Z/+ADXFIKPLls0r/ldb/gI7XnmhuDpyMY3mMb4KMV5/S+r9S+vno72q2f5Zm00k82tgn3f+t89/E8m84/V06Yditj2v5/qoKvvBfH/9c4sicNIjeL9mGZy7SVEkIzsjEYrgLifx3RNywgGGvltDCRokoBl0v/CxJsGyF0ERJMOqw2YZ4lDoSbEHB4HjYdJwXAOCnAjwezno6ot3FsEisz2k8sxhk+ZTxl/lfbn8a7WoJjyVIutZoLuszKXJYwLBXg7KwUSKKQddL/iQ6bxT8fOzb3a2Zh5bUUR7oBCYbNrrNjgOKrangiMSkOMyfKiY94XJ0xTQEIWxJw39cHq+XKHEtrDRiGOx1xq9y+ujfy4y4t9mBlVJkMLGIzsngF5qjson0M8tA0cAFe0A/YYTEH+e/M8sqBfAy/jL/1UCsL9EWbvr2R6couChbCLF+ZVEe+JmQP9S3Cw5R5vLCSEw/15J+k0W+tZHQu5zSkpVkmVwaO6dSqUrMyw9NN74CKpdVkL8Soj+vxuwXjyXkJ7qMIf6OdnWXAefvFsXPNcZvBIg9GX6m4UwoNIdw4vzcs4VSXALTZnpUDADS+VEytn/iaa1BxEx4cGqpyH++uXE2lvGX+U/bouWV2x9csO4IS+S8C5WEKNQ7Z/aLxxIW4D4N8gcCocWKzc81ln8j8OftL7KYFsloWAWzXhq3aU2iWepYF1lVpHQpayOKF6ufFOsvBmM/JC9U2MjoVMPkA8P4i8mJivnitddiVAy56vjtIHpSFD5jQLVaGaxsHua6mIq1Q7lebNIKJmvcljCWXOHoEuAJOX36fDh27ITMdXSF93bs0nHdFgEo5irix2z88ZOn7KMyylXEX1r/lEqFvQr4+b6CTWNjxK+h/2ri79I3EXy70tejD+6G8Z9wzLJwmmi3bE61tl3wllPS/nP6L5yXOY7NW8MLOlW2U1/oo+CL9d+jKfxRnaRq1fcx1n+EkKGD0Mrm1WBmQblXp774uht7WOYK/D+pOnnhpY2e3vpfjj/V/3l9j8OX+gM6pFDET0uk/Xzc9nc1+Z/ot7IX+N+oY8Kn9V3MKdlj48v9j9r+oJe/5Nzvv/A9G5v7SwKLnTZPOTKaOEJjHjeC/PHiRIJzSnMqEi88xGmKsSMJFHCecmQ0cY7wcvIXiJSDD+i0bEVz9VCaJt74bpAFNJ53RGGg9uPBXm2eqWWSYwJKQIbHUjgOL0gMtRcPuXHwJ9qt8FpB8rL6cc2MKKPLxYbocmaYp1BX8Zht1rRVj/JH/jbLoOEBHeXkYze+6B4zRvVAnGUWy0ARPgZ+BPmRxuPWgSl5Ef+I+k+zno+Jf+M7W8wYoOGTtGBw4jX8yeHvkXXdnfqYr7dfH9YlZNAr/Bw/5qgnwbt279NX2W3yQb2Ya7Cx/Qu4t68vvPzGRjOlMktmV/guBYOFVhsx4+7ebn1geMSUwvD6xzzILpmYx6E8Go82mcmWVKTEf446Y9hyOH57j/w/h7kR4cGsSxE/Zff/UIDYVjYA4OB1QsbrNeL/5fDv3Xs4nDl/3mxyceAi0X85/ufEGMVOZ1ydSCQanfrxd29bOX6IThAOZPUcg5AxHh1D7cVDbhz5Q2Ej/ckbQ3hN7lrRn1aHivIvfRJrwolRSCnXE4sV6t6SOoGAxHIjJsKYv/BDtj5OUqBRawF68TEbT4Kt8hMiS+8ZWlzMOz4slh9/v0xkhPpo+CmbyqXy0G75wMmQRSHOdwSY8uDLXUxfrFi6yIzVceSZC56wcsvHeHy1jQnzvp5+dR4JkZazZpabj8oQZv2D/RIMOj8tPGwI8hEXtqCw6srFT5j1nqEvtVfI8B9fVHOZE0b0GLVO1WknPsobq3QYIrTqizRz+dRuWX7F1hNfOvf3Dvj3AyKj66KUiaztIpj4QHD5koX2ncJ723aFO25bZV0Ls+l9Ote9UB/AcXigRfTwlTp2ofhIkK+49cl1WCZDidMxDim8Cf8R8WWnBO5F0bBOJjEwOT6gbzgQwnwvMkOmQfhwje8Y/GNJeHwpnDzBSa4Ks8LLV8or9TFfr764Pny0UTzG9MYCs6OFccLDGvWfUpmgnw8M+b6A75U4JXdC+ewQbXxZzgd8dZjikAFIMxGjQvaoLuAjdYvZdeoL8/GYgpkvw4L92LoSX8yqsb5YP68vyflWY9WqpSLSBQ71jJLhS3YaRqIfQ48YosR4IPU7V7T2aOZ3RiPvzR07zJT+ipXLVLbx+rBujH08yTcxp/TRISbZ21Tn5Eu5Z4ivfK3foxNbpiCEBEu90ExZrdXr59Sps5bvTH3lzoVZe3RHzHLZJ+OjyXblxz0dfBjZpq/WD8kCMN8wYe13tj585Lsayg//aeIc0MAMPXe/YNl3idoGJlZo/wj+I5ols4HPR5R8xZ4IT/QrM3PKyvo6bZt0mKj5udrX4488oHbDAEl8VD7F+vcuprJYDomn3v8EGkP9mX49+DKREeij9X8Se76Up4w/8oD2T72JJ+qq7qHirPXoMdx5BStUMF6xwyEu/27ZWnRBy8e69lT+4vhHz+f64PfygtsMJKpo7F1AD519i+4+wBQ39xts03KILW0o9t1t74eNm961r6Mxqf2KDB1idfYthe2SuYtxsvh67HhTeOOtzZZZ4j/3JhyXyQrujGiW4H75tbe03NGij+yqw0u6GAmBjHmMPRIer72xyazhYjGXL7mPyyy2jaUSX/XEcu/7GmGPlUE7lgqwxEonuqjjdswK+HhtXG1deFdWZzHHDv8xW36i+bR93Ld1+66waesOCfsO3YVxyqz48kHiexKMz+vLdhTdRc1onnnuJRkKxDChMo/4sQbMh4m1GllX6oM/sTD85GfP2dJZrUy279q9V6Yz3jNBRSKSgf+wFNqz+jqcDwQ54vq9Hz8btqscnO5gRrFb5lFUBSr/1vD+rv1SynXhpMr7/R89Yx/dkRH3neyWBVzKcECWdzeJNhRKs+AaddTY7FNZY5MS1dn1dzZtC0e0LMSHdlve22FGJPmocb2+1kb5DEqRHBOvUJip/lUEuUgsDUIu0Y+CYpZjH25KObAQzDFH2kK/FM0JCfLXZaAQ8yII9l2ig48aD+w/YkYxMULJ4OHtTe/ZwCS1P/C9t2132KzvbRiU8G6o9XNW8LRF7uKAHy+9+XYwo5SCwvQJyvSCZlpcZtUio5UIwjfkh27qJvGfdbFDovVXL71uyhi7Xxv1xXm72uQ+zX7eePNdO4GIccnv/OBps9zrhcjphxeJNXj5Av63fuMLpiyffOKhMF0zuUzOGAF5/YPfgkgoH/5Ev4XrJ483oA/8sTwM6tMmf3LS4EEk4brRTwmGt/9qC6S26VCxP3hB0ztxMQKvk+EVG/0jHmQaXUpKypTWm4DeBOejAgHnkZ4ytWoiUiZ4Y76gSP4YlD+uFn4V0IWClz2NYLCsyiVQs2RKYq3MmGMBl3sfGLW9+vo74Z/90e/akecOfbHdqsuhIBRz3XyVOVYjYMxVPCeT5ka/xSIILpnFVy48GpIw4Uv/225doW8pppqZdEaCGBtE2D8oExCLNDJtlUDokvVTrgzNMpOvS1Zm3922M/x3f/rHZrH29JxzpnCoYhQJ6+d33r7GZiuYKP/Wd38U7tIdEvNlKfeQRtjc04CJ7wm6b+KMBFOzhMh42XPC+m2/RpLcG7JmzSrNSLrNWi6XAWHyHHpwc2RwcZIuPVqyaGGYLTtLTVJyXFr1L37rSZkPrxRNk3Uj4D6z4TRdPLSaVOEo11xZ7r1z3a02Gztw+IjMoKzQZVIzw6Yt2zQLa9WFVK2yrXUu3HknZkdm2cetmEw5Kv4wQqYct9+6St9WzJGdsDlh89bthpsZwqBmMdZmovLAHtgJ3V3yO1+WEUh9HT1e9GJjDNPiWEHm5sK//eYPzRzJBvHHmqJ+vLZQY0Un4vUfJYMtqW7NIpbIXlVbZ7sp2lXLl4Y7br/V7sp4+hcvSDlq1qK6xsS8fVyqgs2VdV1G6BfEc5QeAwljqdr/++/vDe/v2Rf+6Pe/YkYH4+6k0UNb4V4NZi2NsqA7T/gZHGAG/7DM7d+xbq0tm/EV+G9+8fMS6LIloSOXp0TrLM1g7HoB8YTZx2ZZPL7v7jtsJs3X9ee4lEuDpT0aWCxbttDM0jA7ZMCA7azHZczTq93pN45E1sApoRFPMJB5ye5/gf+2v0pnIgkBUBHrxF6Bif2/2P8MDHA5cCZYCyj+eIEsJIkOoHP4mDrit/A80nO6EeRPKlgiQu+pmNea/qwokY/IK1m9ptFEzhf7QyxwaSHjmx4WXRqZV581BB8ZgXQEWNIYxoxCbMGbFEYxKMtJgZ88fg6iSZCDK9IAfpogSyBLFy8KL7/6Vti6faeWBJaGDboMCKNylHfGDJmhEI31uhCK+8JhK3aStmqGgjXbXm22cm6djOG/06WHANPbeC0ZIKy5EInlh3NRCbHxOkcClpvmEJSTbRSqtAWHYsNAIbMcDebMPhK2lUDYjqltma7grg9Gx9MaZHVVSxcdujxoxeJF4ReyKYXhQu75wNw2y29s2i6VSXLW56F/wvgJwi/zGXz1qxlIupo1FUHBpiiRHJjtaG5pkQKYbUIUCieMmxjqVHbKMmOmm0K3tKK/TjMTzIoMDtWYUT9MXmAwkPsrhi51m4BkGQraGeWDiyUYlosmyVgkSmCGzIBA2xRdloQQYokRvkK/PbVswjc8FzraNUI/KhtVP7RYlpqmyWw+drtUcFtm42a8xz//oMWn+vf+orw80xjnD5YfKZOZJYd+/WN5jqVLDCdyI+HQoDV8ipPVP0uSzAThabVmbMrAFCMtrlGKYbNmRb/zW4+L7vFGU2r/dKVpWt4alG0vbpZkD+3eu9fZfSuYXOceka98+QnNjnfZYQJmllg36NG+0OKFc6Ww+1RwrBeLOs1sT+nSqnmykVZVLcORk6o1gJhoPKcf0GYwNwNPMeS4WQY1R2GBWIdMcSsJtD8EjTv4Lz/LVkTIb+0/RdP+RY85TGCobwzvf8Y0wSf64eEI95mQP04YrMlJjG/XgX4wU3dWnxF/NWa6M6llMSWlLRRc4fGNCrZuaDVIeKlzEZugI2wxp1i5pEqw8niC9IxZ5owjIDL0muBXQWCS/XPGOSWsPl8KS7Vmv2TR74fWc23htbc2SZG8HT7/yP3qjP0asQ5IYOuiJM0gerXW3yFLtJu27JDQnxYee+i+0Crh/vSzLxmFl+hIOOiWF9ZEKkvwe1iFCR9unKurG6P9gP7QrU3i8VqaMgeQ0tdI8LMsAn7MkrMO7hZ6h2x5ZnDI91m4tra3d9BmPCxD1Y0fK0UwZEtU87T2j/2pI0cPS2DVmRVfeEED8g6ummPRUy8U3VzEP2S2mwkRrAQNeLh8itE/QrJfAmtAZWefIr9JTuCp/clrU3XjRaoB8quQsqqxvRv4DDwCj6tt53OlrByzl07xhH0erpulvNUqp7tYUu0gEwJ9i3Qh0+9+5QlTRAO6iRB6UNqUnVlEPbcaRrrBn+jHx0egxGUuo9/h6B5gzDmkNBaAlPSyeP8zdH5XgoLJJtGPlJwqoc1ewTMvvKLZ7kztIbHfIcDIf/g4RdaLuWGQL7EnygIyV9dyedNCCflaLaOhdNbo9sDHH33QZh1YU65iaVE2u8xRHOVXp4EFNztO1L4KbaFPe0PVqjPKzbXD7CtRJu6TmaDZJfS7LS75UHhqczAGBcqgAqOVpkiNKpDI+Q6+eUfUv7I3UOjTf/LPOey+m0P+GHsKtPN+/em3Ga/qn/an5mI15OXiiKa1bgpKRfOH07PgdRLyLpHBRFiP91D/zUM8G72bB9URXfLcQPgRFBTUvrvI6GfDtcf2OfZqHZg1/ZlaeqGDsMa/fMmisElHPLlwZ6eWZl7TVabtWkZCII3V/ghXfbJpyZ3W5G0jL2jnDxwF+jP8ROg/o9o12qjcpOUCBAVr+k2nTnnaCAMgZkPG66bDbTKFzpLSMd2YxxIFgCyZcRf64cPH7S7xd7WsM0/LP3VSQIzkURr7Dh6WMJ5p90Jc7O5SjkMyya7NUZyVg5xU/14sZIlH6B0AWgYG/86IB+3apF0kAca94tyqxxW3rP8jg7gcq6T9Wd6WiRCYmLb8Ev9Bw+Y8rrHxpN1DflCb3Wd1kodLkXBcYsQ1uBxM2LfvsOqkVuvtbq+NUpM7fORfvSzCTtBM4JDW/innXt0vcvDwUTvZBB2ccOpj1mLCzrJXsFKqIKRP9Msrp5yt6LrvXHsmFyRcz2tg4WEGAGYlp871HmE/iH7iuU6YJcUnHr4//PzZl+3u+eH45+gwA7NElEadNupXylw7e2OrtDlfrVkEsxP2kTiyzRW177+/39rQkAS8ld9owprz4rBVG9untO/GUtUbGzeZhV7a1HG1uSYdJT+pNscFY6u1pIgZeEzXN2lmzSGHvdqTOyFT8uzPbdu+V21Mm/lGKzwyaj8c/aI7a/8l/PfiprzI1V1CUpApKcoryN4cqsj/CJRVUZ5PrCQBKKwQ7KBOS4aiAJCyyuPykE8zfqhgcJXaf9W/+dd//hfWUS1QDd9GXZBtoJF+MUqvxgL78eDYFPQCS1JEeipUvcs6iuKpUmIslrqQx0Is6WjpM2hLda3xYynU1qKFnZIW8bOMwsj+oITsER3D5CrRezbcoY47wS5Y2qPOdEibv23qpCt1//SSRXNDtyyaHpbSOKqrQlEytRJat+jeadbXudt85vQZyqcnTJZhSjo7I3T2OxhVsr7Mkgdr/9NlTpu9jgOHGm09meO9LOHM1YkmapWKZcFtjhTCFm3es1l6URupixbritfJU2z5iBHnAa2Fc8oIy6yPPnSPlsbGW12xZMRsaZ32NLjfm7V5lq9ma22cUzbsXXCR0kQpk0uaSXBvCIKFezQSfmqOTWf4QP0vkCJq0PIP+zVs8g+It3dpz2IKdtRU9b50V2kbyHWa5XDSCcF8Vuvt2IXCLDkWaNlXQohiLh5FxJJTk4ThI7qfZNbMGWYenXsw4O9OHZXlGlf2ZxCsHfKz5DJLZu7Pat8EerglcJyWufbs2y9l2mR7HFy0xKVKlHufvg1hH2HxwgUl9U+LoH10ayDAVa6TJLBpI4n+cSgk8fe8lhoXzJsjHup2PimqKSo3beqsrnDl7guScJhi2dL5NluiLGwoYxeLTf6pMqjITIsZJLcwUsddmsHRrlhaysWX7hmpqTUeLdVeGHd2MBg4qQMXDz1wj2abMu2hfs1S405t0B85osMXKvEy3efO3lTiP20Hk/Dsm3Cqi3vbFy6Ya8uYKB8UAXeXsJ+ybOlitRFdOyzls2ffAbWNKmsDHHpg6Y070LlnnbqbRj0LN+0i9Xk7sQPCQv0r2nhojLEXpqI4pVJ6ZlWWiQfKm+RGejpsjP5Uyx8nFI7hSuWPh1moxRkTM8akNAq9ivKXU4+2kqFBstWkZpRmGFFi0jZ7K9Wwzaqu4S9WSCru6M8ESYe39hCfGXQCyAJKPSXR2UvmKQUe5S1BXk38bBZqn9Ac7ABHRpyF+rScaT2mr7k2FcFg67QaamH+uqZaR281M7GlHY04+d4CJWSnkMQoyzPmnVW5Ar1PJapoJDn+ZgkE1rZnaCOaS3h26VjmwkVzNCNZkeGHD6pjO4GE4GJ5hiWeLB/lx1FVzKObvSABf1j8QhKpT/nRsDU0UHCiP+HvlxCUDhRvuJpV8xdbxuszc9/ss6SceF4pfvYs+jTSZYmuslrlL+A3s+JaqmMmhTJM/C/SX/T3q1xspnNCizSJ/2m93WxLQXVq3JEDnsfo9FNjnBpD4H0Q/o9CvxVHPwzKLsd/4gxCjc5g9EadU/e0QTcjD0Qp/wmh/VaKFyjsjFein0137u2AV4n+QakiLiK0RsairvxsqmN2nhn51aCfPSwzLgmaYS6VH7ypinhmLgFkAaWekujsJfOUAo/yliA/y/i5erlHbQJT/sm2VcV5WdVlXmAm2RXBBq+amliUc9/fYlji0ChMHD0oz8t8+kGA5rmXpnLoPA2xJWHXCD/HUJl6I5VMKKpTIGLR5r7YHbsmhcNBk/y8QpsFmyeFxDhggC3CyW9OLd5GC6RWXXhmOX4Ssqyy98BRLbmMt1lBnWYenEjiytNPGv/1pr+M//q2v+vJ/xoNEOxa5GvU/72Herf0Hhz78U2Kv0urH6xCoJ1tgCXxpCqJgk7PCp3Y4N0YF3lFLI0mMTN9IAJU4qOBZvDEFF3C4LmQleMowiR/AVeWXyFMYNcMvy3UCjdEylnHQbhTfoVBAzMTRjhWQsHb2QOBewoBmEdctkUC5UBavdkvSglvBky+THWA0F8c9pbg1yhusT6UYw2fK1xZ3pquJaM67W8A/4njv970l/Ff3/Z3XflPP1J3URm8D8mvvqNX60IMnLIIg0w/QHukpdOPPVN0ybMga7L8CmHkdJPiN/kHr2C4+Mk7V8Zl3GSEnfFMMAWWG1gBVF5loIyK8BnQCE+Cy6A9Xf4aUyQ4vd4g+OmtRidlVal9ei4fCiTSzwJMEtyRkMIDRusUimBcETjzafjkhTKCVhgCJGisfgiy8FL83OI1Q/se03UclYTAX0v815v+Mn5VuNz1an/Xjf/WSbyrRA5k/Y9uEqM9asRvkivWuyzWfPlrTJHg9KpMPdpyz3LM3/L+fzPgRzbhEv20v6TOjVFIrRSZA8YRskNYBhFY/pSlB+e/sL3U5ag9zqqpgCylKATFslxH/FYoLenZU7MCPRHovowF68RA3ilpIsBKrRcjxH6UBgj8UC2/vOYraAlPHqFiXjaaEnwZP22pzH/a2E3d/mgGOOsf9KfPuPyJxLo4iELhutHv/c+LhJzi0nKriVQJtE6L1k/yJIXigtBiozel8hRJyPMmgJTcIvN8Ebzu0tMB01ueLmVwnfC75DZaGNmnUlj5FOf/pAKsmPwoJCNCHlagDFjcAIg/KQvOtTsPBGM4PK3rEeBQK3Jl/HBBjmZa5n+5/WWdiyZh7jMtf6LsgFgn9/rSb6VQEZJsQv5JeaRCWXD2Gt9USYCN7jL5ZtGJyIQgT2OVHBH7scAIE9M55A2G34oDbzTyt7JHPsUHZU5TeGeahJylifzKwPnSVrwhD6Z6ldIqpnwIIJcI6FrI4gjzV+LK+Mv8pxXEdhIftJybsv1BeHSfafmTiFTNR8mYhSTPtaQ/tb+0WEIZbNnKR8K2cp7KJfmWWml6OglRPjqcRSkkCb5IZUph0lFh6d2fxV/PJgnKIptuBPw+B1B5xYuoAnzWAG88WARAv00zMjYU1Wjp2rRASWs8icwiB+N1zn8ULPSX8cOjMv/L7c/7H9LCek3qOmoaFvIZlT9Ql0tPJ/p60Y/8w7n8EuP135SHzwbQLVYbBlT8KYaa30bO5ASUQpI6ssiCCohCNgJ6liXUe1CevIjJ4/gthpr/GuD37xAcM0KcYvNrAl1fvNJeTfNTeDY+ALUHUFFPJ/rjKSrTEaRTfNEZ/5WZf0blFUR2MReDL+Mv8/9mbX/WvfhgSI5+4TN3Pa0b0eksNEbCpehS/8tDYpoMwgDz5DGflD4+i6Hmvwbyp1iEGwG/yx9YLF+Uf9mylQlIcTFjq0qc+c1TJCHWE0EW55D8lqggk66wIc/XBKg3ASIKLs/DAq8z/hrZptK3bSqp/qlopljFn8QFa3C0ZxSyNAkwUOBfg8gvwLREZ6eyIgDhrhQAgFLPk30RjgGSh9WF8k4b7WX8kUtl/t907Y8PNPkAt0ZWHYoudh3vdNZr3PtZkT9UNLLAnHmM4hTi7YAgi3NIfj8p+l3+RZElPMi/ita2dtmWk+CSEKzUc6oskWZO70mrUzArfubJoNwzPHzU9xQYn6UPZ0SRR9cZP/d2YH6BjwVTyXPPcPrFXpU9g8zKTko50yZoGgjMCedbQP+kg8QK/8j0l/GX+f8Za3/qJ3xZjjkgBmDWNbKOSKcquOHho76nwPgsfWTdMss168OFqJRFBhQ9w8NHfU+B8Vn6KCBJeQqARi2XUuaeCJMeGUAMGPU9BcZn6aOAJOUhgIi/Q1+YY62CL8yxGoBSr0ao2UgX7REBU3l4T+jysMyXeQxmeM0WhaAgTXbaD8liJENq+T1pXlAgzF1n/NiXwuQ45RvBh1hEHnlc7itEm9diRkQXAgoNtZg2QaRnMS7587jcl+LS02JGRBcCyvhHtn8xL3EoPRM/i888LvcV4/FbzIjoQkCZ/x/If+PpMLmS8daFiF4jwDC4T6P8uRHlL0uIiccsjvDm6/buy4J4TXUyrC4ipKfN41zZpGyKzwJOyz8boSegouKKRSKqjF9MED9yHieG8SzzHy7kvCm3v0LXgTWZK/c/sSI1FDGpLH9oKYkheAv+QiOyUL2zQg+4r5J4WguzcFSzwixdyofRkEX6Y8QvaaJzSF/NT2FRtsVMgfAqI97nOxmkewRi+aRsy/idL4kfw9hl07kYVuY/jCi3v5Km4o2i3P+MD/yU5U9qElcqfy1dWnUXJxmmufKQEmBzFs2SGp8BZ9oooTT+6ye6BKxX9xYCAEmv9uQnLlHFcFu1Ai5lr/AY5UFl/HBHLjGo1JsxS8HOt8Q90silV3vyU+Z/xgq4kdianop2o/VZAABAAElEQVS0eMVZULn9iRO4xKBSb8YsBTvfEvdII5de7clPuf1lrIAbia3pqUiLV9yN2P6KJpiYN5jyMMXhpVWxccNGcJBUINBh4q+Fp0hLWowwf4pNTwLNnziVnjFlGX+Z/6VNotz+yv0vCofShhEFSUGyZN7Mk7EuDynLH+NF4mV6/hr5a3MLNIb/NwZKeSgb/ff0aVpXmltCZM+IIPl95aoAn3mTJxeExRXpFAvytDpF1p5vHpuFKSjhzMKAN9ACfOZNnjL+xIky//MWlHhSbn/l/leWP0hUd5eTv8w6knYAhj+duNLRK/WkFOFTqbyTEWMdTUHe4Twudb70jLhHeRQhCuJL2aScfHUgvtnD/Z5ZGb9xUCxxTkY+RU4XuTsK8xVUhCjzP2tZ8iROltsfLSdywx7u9/ZU7n/l/icpwmFcG6l7e0Bn8GlHajbeVoxTBSFTED6xeRncSG1daHDJa8+klgrZg1F4DJUH6ze+lfEbLxILM74o1MOcT2X+Zw0n8iXnWAyIDCu3vwJnYi9TiJpR7HGRkfHNHuX+n/Ms55KH+ftN2f/Y5NBICz4MyeCcL1vphS6WM0wwRe7QvMSznI2859AeXohNcfaMm2TkkZL4WlMhwPEDklwZf2JW5EiZ/+X2lzoHz9TH8Fp4uf8ZG/hJvCnLH5iR95skUj6q/OVbwJSHpiJY4zOHdfbU/CwonjTBsF9yua+kSBZdjLPm7JmkpI4mIYhPmwDFhAUSI6wDlfHnnM19Zf4X2wuNrMibcvtT3zGGpA437LXc/6LMSnwq7U/OOmdSWf54z0LfcJ1EcvQ/0xhmU8m0tAPGtmVdErMA7uLaZ0rN08EtJEGlQFduAogweTzpCnhKI0bkVcafGFTmf+KENRJ+yu0vY0XOG2dKuf/FBlKWP9ZG8vZBv/kI8ldpzNp3NsXgqC65yoaTz/TQLGQcOU6kefnxta4Uo4B40qkkxOCI88LqFw8ghRlMydeMFpXyyIAVitO7RfFTxm9sNL74TyYgsjDnE69w0n4zlhojLbTMf+eOM4OmmXiTMStG6d2inK/8JkgAyvw3LvATnfOJF+ewfjOWFjiXDUg9WZn/iTcZsyI/9W5Rzld+EyQA17b9+SIV12nHyk22rWStXWtYKBDGt65IVDpo4S9Cm5fX6Pzdf52ouJiQKEwJ7JlecgakEE9FIhREGX+Z/4UGVmg7qb2U259zwPnhv+X+B0/K8sdawycgf8k3+zNRbZffyWcYbStd3vielSKWpPThrVe/HuxLKiOFXgQTUHE73lUEcTHUcNlPGX+Z/3krtdZV2vDiW2xY5fZX7n8uR5AeZfkTu4UxI+si1kk+rvxNs0O2ONxd0szDOqh+mbrbPChFAuJ+GmhKU4zNIWLo8EgA5Mg2jgkiOgtQDKGWu/0O9A2Fw8fOh6NNnaGldSC0d/aGbpkBrg6DoX58bWhoGBvmzZoQli6aGuon1apMKderg98aXyLUSu75Xiv6y/hpErEuy/y3/gEbyu0vbxbF1gFv/D2GDo8EQO7Dyp9y/xOzfk3/syjpCRQIrK72h2YO1kL5Gens2CwpFe0VMRLmciGWrUWi+4RtRAVXhM6ugbBp2/nwxtYTYdu2g6H59GA43VUROrr6Qm93Rxgz2BHq64bClIkhzJw1PixdMi+sXzc/PPrgsjBvzpTLoY5YUwO7PH4Anf7Rs/qk6S/jL/O/3P7ohOX+NxoHbgT5gxy3C1F1QZ47yfLzF9ptu5CLj/hqcOrkeBkUoVaZo9dorhRSZoUnkcmNmtxTDw5cCu/uags//OVJPc+Gg8daQmvLsVBbMyn0VdWEysHzoaKnKYSLh8KYS61hYKA79A8OhTG1E8LcedPDyhWrw9d+97fD137z9lBTk1FlSi6hH71BxtLrcVlleA3o/7XKuIz/E29/Zf6X23+5/19GZw+TP126DIpVoIpKXc4lmc7so5rjV8CZw+RucnGKEMVsDM2FrkWXRqaUKo1HpOj0zABUY129g+HnL54O3/xpU9h5oE124gfCwKWqUCnFoJ9Q2dcU+pt/Fgb7WsKlgfbQX61yDvaH/v7B0CON0Ns5LhzZvy0cOHI+bNv9G+Ff/ctHw/Rp4x3Fh8BvSkVMSMtmlrBY0E+Y/jJ+cbzM/3L7Q4NbZ9Cj4E1LFMWgDECBH1f+FPsf8u/osaawY+e+rChzZs8O69YsDzXxMjiTD6mAH4D/Vy+9Furr68Pd69cZmlIaoNMa/qeq/UMDazd2HjfSX+0ffsQvB9NJXdGWXMGrIH9z2hMHE2T+tOWpDJpUpezr6OoP33umOfzN94+HE2f7NaMYDJMnVIXHH1wQxlbPDD94aksYank2DHbuDFWVl8KsCbVh9sQJUjh94XRHV2jr6Qt93e2hqqY3HHjv6dBfWR8OH28P/+7ffiksmDtZ2HwxLpV9OP6k3Chxgs2KWChqc3NL6JWy4pBaZVVVmFw/MUyYMD7W/UenP+HftWd/ONbUHH7jsYe8xBS4gJ/yJRqaW07rHueaMK1hSgn+vt7+cO7CBbvjefKUSaFaI4NEE2l7xbOWM2fCxPETwpQpcVZZWCNJsBle4aeRdHR2haamk/JVhvlzZ4WJE8erw3ppPm79Qz+DgAttbZoxjtH+1YQPpB9eJG5cDfxZXrGtFOnPmJ5hNOTZWxl/7NOxPSTupGdqU6ntftT+R34pD8/76rW/lDNl7e/vD8ebToWevt6wasUyi5o8caJkT/7h9JXgnz9/fhg/TnuynkjP4Z06f0+8ykDyKEud8rgS/CnPlPZq4ueoru81a8OcjOkMRikzj0ywQAWOSPm9x5jX28zwIiWqU9EtcfxJZARNfYbCM6+eC//x746Hcx19AZSDWi/rGRjSclWFlMTZEJq+ERZPaA8b1qwJi6dPDWuXzA8NUh7coXv2QkdoOnM2vLXvcHjlYGNo72sNtZXt4YU394c//98qwn/4X39LMxDNXkpcjt9LqXfzFMqaQAr0/8X/+R/C0cYTysnpHze+Ljxwz4bwh1/7Upg/b45nkeH5cPQX8f/oZ78M23fuDQ8/sEGNbZznVMAfAwz///Hv/nNYtGhe+Fd/9i/ioMz5v+/QkfD1b343jJFi+W//5I/D4oVzVWNOzOCgZne/fDF883s/Dl9+8vPhT//5P4plvjz9fepAL73+dvjmd54KZ86fF+4KW8r8o9/7anj88w+GcXV1JfgT2yJDrawJv5ef34pw4uSpsHXb7vC5BzeEyZMmhlMtZ8I3vv39sHzp4vAHX/tyqK7S2Q0DzfkYA/Rw/htZ8n6c9lfkP209K2si5DL8v1rtv4yf1nD59vdJy5/R+N83oBUN/c2bPSusWbVMrU0lVDvgGmp3SiX513nxYti2fXdgkNbYeDIsX77Y+t2eAwclu2rCPevvCOOkNIYGBwRfGy5e7A6HjhwPVVWV4YhmNpPrJ4U1q1fYYMk7orc/BmvHjp/QzGd/GDumOqxetSLMmzvTUJ89d0Hhe0L3xb5w5x2rw979h8OjD91rXeKU5OD2HXu0ajMUVt+yVDJprm09ZG06lh6OJzca/RaXQC7b/j0XjCPKlq7Voe4wlyclSM+S3HiRoFLmln9C4qH2a5RkBcwBOMHlo1XYo3Dh2rG3K/z7bxwPZ9s1okcKAKNcejX7+MWz20P73r8ME0Jr+G++9Fj4/K3LQt3UaWHMpCmhsk5LUlRyZ1sY7OkKT547G159e3v4v37+Ujiw6w1t1jwRXn7rcPj3f/16+F/+/AnbAxmOHzz8UQ6nB/wE2g8xcgZhz86unrD21lvCn/3JPw29ff1WiU/99Jfh7Llz4c/+9J9pRE4FAz9aeoUOox9Iyz3i/x//+38ZujovSnHUKSa5HH8KIVVH98XQ3d2TF0+RqI9BNdQuzRLeO3QsfOmJprBowZzI86AR1UB45rmXQ0dHR+juU1pLo5+Iv9iJyY19ry3bdoa//Kv/Nzx4713hf/7d/0Ezrorw46efC//lm9+zTvPAvesl6H1/KR8+fDD9B48eC//P//dtdYzlgVHdoO6zvNjdG3o1i3T+UTrc6PRfjfY3nP/D6S/jvzn5369BaUfHxXDocGM4cPiYDuHMliK4zWbbqU3Q/jq06vHs86+EezfcEWpra8PTz74Qpk2dGpYvWyghvpdvrcMjD90d9knAz5o9PYwdWxte0UBsyuRJYdmyxeF9DRS7ui6Gh+7fEGrrmJkoU3WdY43Hw7f/4efhsYfvC13d3eHFV98Ojz1yn3CMCT995oUwY3pDmDljWvjJz18Ix0+cMOVx6vT58P2nng63rl4ZaiqqwvMvbgz333dXWL1yqRdZvx8kfxL+y8m/LCOVE/rNISv1YnselH/IYghUNH8GmHk8jf0O//EcXX9SWCVVUHqmZQ6QEd7c0hu+/v0T4VTrYJBMUlhlGCM5NKBN8EuXekPniY2hs7UxLFo0KzSMYyQ6FKpqa0L1uPGhcsIUaTxt0tRPDYO93aGmviF8aeKkUDVuQvi3T72ukUNnuNhVF3756oFwx7o54Q++clsmRBP+rPTgTi/ypPJbUEY2nkthgmYEixfOt6iVy5dIYcwO//kbfx82vbstzJ/zZOju6Q0vvPZm2Lx5u0YmPWHlsv+fvfeA0uu4zgRv5xzQ3WjkDCJHEiQYBWaKkmhpZMu2bNke25JnbI/t9fjsWh7PmfXsORt8PGvv2mOfteyxFW2JoiSKlJgJkohEzqmR0QA6oTM6p/2+e+u+9/5ugARJUCKl97r/V7lu1a1b91bdqlc1W372Zz4mNTWTpO7UORDPdmwvnirHT5+WFjQ4G/ihDXdLSUmxvLZpG0YSZ+UP/8NvYCfDKIjokrz46maMUi5IbU21PPbIBlkCmLm5uVZeIjHjoTsL6jvgCAx9x+4DsnLFIqmeVKX4PnL8FMpwBsQL3IXWp4DgKOjV17bIqbMXZBJGQ0984hFZtmiB9KMT/etTP5A1KxbL//wHX4hmQ7/7hc9hR1yPbN+1H3rgpeq/9c098jrK3wu12MIFc+SjD23QTnfsRJ28iXjVVZVy8Egd8loiszEi+vZ3n5Or6Hz//LVvyYb77pTFmHGQ1tqhuvrmU8/J4SPHMTKrkF/6zM/IbAjAr3zjKa3br/7Sp7UdmzBTeem1zcD5NLkbgq0AumhvRW8/pzs3x9NfhDqgLcIkLJ5ewzPaP4oVx48yocXCPb3DdTOFH/AX+n+EOnhHmIXF8afhPwb850B1WltbjRl2uUyqqsAM+TAYeLc88sC92k+jlkZZa6qr4H8PVO3D0o+ZxUxoIG5du1yKCovk5OkLmHWM6sCItM3252zjrttvlQULZksxBE49ZuCcwRRCeOiDPGfOnCm/+/nPqV/rlTYdUF5pbUOf68UMZKrcfcdaCLJS9KkK+R9fe0phH687jU8W5kDI3K3am+zsnVJf3yhzZ02XoqAduOn0FzUaS46ZWdRWdIM5G4/J8CUe8NhbJYO645fn6bzNTYuBdIgwNDQmm/d1ysadnciJqjITKNkQIAVgfFRbDI/2CtbMsTA+LFg6R3noNypDOJBrjD5Z2IHFxfR8CJOiYskpKZRbF06VlTNrcd78VQgkMOCLbfLsS0fkUmNXKKDBp0NrgJeaIZSGl5/2zPojBP8WnyQuMgfEMm/2TDl/6TK+Q7kqz730mnzne8/pSOPO21bJq5u2y1/97T9CII/JFah9nn3hFXnu1ddVAIyiSn/7D1+TvQePYMYwKnUnz8rWN3cBwJiqx/77P3xFjtadFAqpto5O+cv//k9yAsyfl87r3I1cib+MZ0ynzreuWSFnz52T5uZWlHNM4T/9wxdlEfJaOH+2pmDKkxBof/OlL8sBMOtFC+ZK59Vu+dP/+hdy8XKTCsLTmCHccdvqSHAwYXFJifwvf/Bb8ju/8Vkpx5rPzr0HMMP7BylHZ1uJkc+evYfkS1/+BoRDtzS3tMqmrTvkO1DJFRbm4ducCikpLYIqsVqycnMwgpqsQoJlIT4p8C43Nsn06VNk14GD8ud//SUMJobRAYrl6edexrbtFq1/HdRzW7fvAd5GguBgyexhPnyc7tw0X0AKEQiTjammBerb02uwOhgj9rX4IdUE/McxHa6bBgLpUviKCsUgXgGThp4MTCPsx4D/Mgzk1t++Wu677w5ZsXyxPP7oBqwTgnljMMjHyov+Dwu1JflcRIcqKhcqJs7MWeQsmNmqwYDdSQcmVVZ5GADzyclDfASOKrtXL311dnaBD+yWb333h/LdH7ysKiyq83t7B6AGK8KiPQXNmA4o2f/JD672XJXJtVWaHmwFC/RcN8RmIgzmIvgaisihPFoPvNTUMHt5cel6K/xr9ZT+kQL/WPOIM8uC7swywpsQ1OHjAgvxD0QUEOKwoBo1is+Q5MN0Y9KFbzmefL4RCbLB5FHdXMKiXjFLaicVygCYacv5QYiIMZldVSaToVe8dKVd+jqHJLe0H5K3FVJ4hpSU26Lv8EgOFrPRcIBbWoJZSke/HrHCwuw9fFE2Q4X1C/9mDcpn8FkZrQFeaiaLGNkTdWV9kBn3WFt8exeiMTkK6IO6qa9vUNasXCpzIExmTpuCphtRobJ95x6E9XHiJIUFRfJRLIh/4qMPSQvUXf/pz/5Cjh0/owzaGsrUS0exeH4Fo47P/9pnweznwN6uTJ6Mef6c2TpzYEnG4z+UUtauXC679u3HD/HnzpbWtnYw5v3y7379l0GYO7WGo6MjsvfAYdWf/s4XfllnEVwY/9KXvymXGxplxtTJOgOqmoRvZ6L2NJyUlto6Er0pQP/odz6vU2ZOwzkK275jj1xublY4FIyf+8VPYVR0jwpNZnY/Zhu79u7H2ssDMn/ebO0grP9tEHq/+Ss/rzOVSiycf+1bT+sGinvW3yZPfvdZ2Y06PIpZzVnojsvKS2Qu0vpDOr5R+ntX7a9NbvV3qhmP/xR+IJWIXrx13CQSLVDRiZeaHpxhJnAd5ZfwY05AuKe/We1PdXATBl2TwIArJ2HDDekKxGnq/Bg+izQGfsX68E01FR/6s697f6ZTPTWcrF1jKK2SXrISp9My6rY390KF249PDh5WVS5n7pQQJRgcd0Gw9GKmkp9bigFxi9afRSjB7KKtvVtVzdQc9UDtRgGWBwGV+Vh5iXXa+FIzM1JwxXXVImtE82NqrQUrABvdBinkNoZCMII68TJ7CAzZxy5kgIyS8UOUaxhZcvpCP77l6MYMoxANANmLYTg157n5Y/LYhgq52JolL+8fkiKMTj95z22cd8iuQ8eg4roqg5i1TMIX5o9s+IgsWrVGuto7ZNfRo5jedUl51hB2SQzLSCgYjYamLgiQS1ClLMEol+sJXs6otFbu2Ik4fDyeWjUO0ZR8hocADw2dD30kvy0hwZzBaH3P/oO6s+kYVEXUNXIHGZOWlRVDjQRmDFxNwjc01GMODmGjAIiDt3PxofsCdjZdxV7qnXsPYhH9WEB+tvRCLTZCKtViJEsT45/zMo5C1kCA7AThPfbQffJ91cdOgpBaCeLcpXVhuTkdnoopOqff9CzDTOKP/sNvajkaQZxZWCSk3pXwDD0KGLraPhkZG5EyLuwjoBmC8NjTz2GkM4QZz3kIboyIIDQYVlJarPlT3WaP4TU5a9IOiujcAVaK+HyqoD8eQcAIhFx1TaUsw6xm9/4jWHdaKpwR3TJ/rsyaynUmPnH9tYRWTAua8PZ2tRpZalQxdoYUHg/OcfX3LGMwKfx30v8N1THC1RY7f6z453rmiZOY4aOfzZw5DTuvLsOcKkW6Fhm3OAtJmqGPrScouVvXBMMiTUcPI2lS9tlx9I9MkvWnCntgcBAz8CvSjAFkG/jbnNkzZC7U5TsxeDp46LiUQ/114eJFzYkqam6e2bRlt+xHGME0XrmCj6fnjFs/9dI4XccIT8L3WCxwFAOZml0rwd6m0ext9SePhi1UDgzOA+ntyZiJZaWWYGWoZxn8I8NSuJOubXu6wRjA5pCMsw39voQzEPg1N41IT+uAZOMjwAogctH0Wt3Vs2xGrSyYXClLofe7dVatVOVhi+fVNjm6d4fs2LJFR9QbsfuhoWsQ08dylJf5oi5gzHVnmqHC6vAihLpYmempNbYKahwvccIrpLGGZl1JXBexffdyQwtmGtM0/JtPPSNbtu+WUqhZli+5RZZwqx/RrhkZPpm35cs3mY7B5yiKD0/Gz8W6RWFhIXT6U2XhvDmyACPsJz76IPSd+ABS9fvIxQuppuXFUYi2Avy4mN2FmQSnwK+8sUU+/uiDSkzEOUuSjW28ObnZOlPgQjsLxU5wof4y1GRdUooZ1dTJNXL0aB1UWPyahs8YhMmAvLTxDdm6bTcW3gcxO/i+PP3My4hfrLs8li6+JS6b05Al1hz4MkwQ61YJtXlcpz+PhSh5EDz3oT7n6+tlz4Ej0tnVJUsWLpACLEJaFgRwY/Rn8P0dww8VZEAolaJE3Xx5/S2FvTVQrSn8nxT8c11iJdb5ONg5jY0n+eiLt9+6En2aA0+nWMwEIExWYw0PHAwzgXzdnDKlxlRHNVhXXIg+yz62ALtDp2IWz3WQRQvn6uCI1DIJs5pZs6aBtxWCtkBERmBYo12ug9FTWDPpR79btnihTMbgbtqUGlm9comq7ltampUvUM3PhFzUX7t6iVyE+pwq53mzZ2EdcS7gMzxBq3DxMVBGs+aO4dPtKUKR6BXSeP1tYKgB6K/KszyZJUIWzEUdbrFu71lp4gCBXTcGRiDuhq8nZwIw8wPHeqD04xiZe6cJB29I4CF8Zb5z1xXZUHtefm7tNMxQGqUCI9FSjEjzyqtk0qx+NEKhFOMjwSIIFsnOwxpJtiyaMlmu9HTLFejseweQV36pCiYbTWYBqZ3YDtopq5dPQwEMHgvL2ZXxbC+5FdRdcbnpjx0WUMucxcIyVTOXm1rkNeyeKCzKl1Vo1H6MWOrxncaalcvkiY8/pPrGl17bilTIDbh2JFh96Q0bBSjKoHG0sGOYjeSBMGZBzbRXZye3Y+2EKq6duw/qdxB5OlVGGi9kMIlvG+2wrGNQ6czSBfZvYw2mDzvFHsbCnrYJI+FHxjtz+gzZj50h3CLM7cH1lxrkKcwgfuFnn0DaBfLYgx/BWsNL8szzL0MVtkKF8YFDR+F+VZ54/CFtvUNHj8tsLMx9+onHpaurWw4dwcdVgKTVgi2uvzrwAmxMp4cgfC9gUW9Kba0FhPoz3KrEcuq/6oqXYudIfl6BPI91JS5oLl40P6QzI6Y3ut+C/jRTw987a3+WKkHTBjZqhxS+4+bDjX8OOGdA7TwNPGUEnwxwgMUBrje00WaWlEOtqttkEZKPEzC408nCRGZgoDsduy/pXrtquRExHOsghJyomf9UrPkZ/4G3PtCqVJZBnXu/DGJgVgB65zoK03R19UgL1l5mI1+qjetOnYVqGTNvBFM9tQIz8qUYsHIAyMFWnDEikCUwG33YqeCgN8wb53/MwNpY30zP/NBvaRIiDFr5g51OPMGltsxOosH6Mkbt7piQNG3Ih6Fc3TjfMIBMITpyEErGiu1lPCyFo+9FVWPy6SVXpbpksTz1RhM+/EADFpfL9DlQU+QV6nbU4Z42GYV6J6egTBbcskiqaqfI2Qvnpb2jTXa34uPBvgLJBWIIm7/Wjl7s5IH6Rd2GMCuXvhP184Kaf7L+RMbxulPyV3/3T5YPyl+Nj/R+7pOPqwqFQnEVdh/tPXgUzL5NPyoagZBR1Hq2SKkrSXCzkbOpq1Lk04PZQneIhl8BQqTa6ftYJN60bSeE1lWo+PJ0pDOaIGQtSHgp/tVOYNB3YtTzEHZfbNq+Uz5y1x26vY9TYMLnTI+d5HbsDDmHrYHPv7xJ3ty5T6fI5TrjqMbsJ1ceeuBuaevskJew62vz1j1IM4pvc4ag/loj992FLYaF+brb5Icvvi5/+df/gPbMBp67Fb7uvrDaszjRQ/rh9ydTJ0+WJ7/3fdStW1YtXxbV3yIqMkI6a0d+pbsc++6fQ1nvuWsdFt1tlOcZ3yj9Kf0GdPu29NDayMoLGnyCMw5PCiWHbGYKP4E+0lhAj+LOHfD7sOCfo/bsfI7cWWaWOrYlqqO+fN3M9s9BH+cg2R/iMAfqKZbjzAWqq6AxgMr80Yfv8yjwwViaQmPc837g37GRFHxZ7TjbagTQVIcHNlONqZU+WoKk1Tz0nQhTDqBuoDfDn2nhAYZOWXHbpw5IO3YvcLoHHoqR/BBMY6QPzR+W37v7khQO1cuTr2ySj92+SqpnzJSK6fNVWPSDmXU1nMXaAHTuk6fKQPsVKUc4F6gbT52Q//yNY7KtGWqkLOyCQO2gYALjzZI//88fl9/47PqYP1h1JrxZHiIlg03Abzd2FXX39sAf22ERXoRvTaZgKjkdI+c87LTgwy+/uc7R1t6puyGmTa3FLqt2HXF0QdVy7twloX6yuoqL0GPQUR7TBfe5c2bqjIZx+XER8c/ZBveIt3a0SxF2WHDhew7icXfHvv2HMFMokUUYfSeJll9pnzt/SaZNq5UpNTWqbtoHYcaPjGZjYXtwYBjbhM9IMQiTC/GE09iMc8Swe6kFi/Jcb1iItYT5c2dp/fHCl99duiuL37MQN9Vg2ouwY4tbfiH9pKOtS/YfOSqtEJjV1ZUqFLhlmfkM4CPDi5eaoK+dqSMqH/FQ5XcE6jDiawa2O3PH2plzF7DZoRgfN81ER8nCzK5J1QbcipuDwQVHYs9gt9r3sAPlP/7Or8tta1exeBn1Nxqj5/XpL+JqbLBrPKzjtdrf0ylMg5zCB/6S9JfiH9ShBPL+0B+3z3d0XpXR4UHlPxXY4ajiDeDseX/hEwar1wsNTB92cmG0iBkHBgoY+6vw4CfnXMBloar8CAtFCJP6k/QIbDbp5dGQl4406A7hZBxrP3lYuqDPK8jFF5hYeB3BgjK3rDH2nNIe+S+Ptsn8ig750lPfk49hX/OM6dVSUFItvdjVNIAZR2NDg7S1tkP/3i9VhdmyZsNDUjZ1hrSdr5NvPb1dvn6iRhr7sYUX+Y3gh0O75P/604/L538FwgNuVJUlCtaE23wnvidESXpk1n8EQnAYH+RRV2pMKIzCoiSR5W3hE1f87oXlz8bmgfhJ5IH6KI6TXlHEifi/Vv3Z3lzUzwEMHsMw4WE4fkzL7YasV4RD+DFoGDOSnIJc2z0XZfDW8NnuBMcD1t7qGcA6yxbsWvvBCxt1r/2f/OG/gxnOLrsJ9Y/rcp1STMBt0uO94z+FH3G/azdAEt0aI+mR4v+99v93Sn/85oTCg7Mz1aph7SVSW3G8PgaPqInQtpFdLZmNHfESDbOYfLNQUcwwROHHgCXFWRAeCAPwMezVJwchyyIZtEM9UwfGP392jvRhdlGPkfGk6jK50n1Jtu3YJ1UYcddUVILRFWJU3ixd2KE1r/G8FOVBPXWpWWZVFer+acKhQOL22nx8fViQ7yUxNQhdpvpzf5bXn7gOGoqX+SBcLZlpPA7DcsBZczA7YLQoDbONhmg3Dp/4ycePT5SXWq4P3+Ew2rXwTz/Py+tPnW5+mKJrshDD43GGwam0QrWMLVp46353qLA0WSLt28GnQMysiWdrkB3+8TNn5O/+x9dlPs4J+qVPfyIhOCx+Ev/vpv4ONTYz4bOQXhazZJY6hQ/MEQmKpBh3b9f+Tn8x3t0W5+G4TfFvKP4g0J9yAjSMtg2bHhbMQMC+0Uqcd2RjOOmBbNLoHHl4XrchNYFFsNFpIAZNYLkx/2lVBdLY1geZAQf1ZMiRvBVaLPmVT8+Tylmj8tdf+gtp6L4qLbjHo+FKty4uLYJ6YxgHKc5csEIKistkWnGVHD15UDbvPCgPYETc3HQBX50vlKZeHN+OArAMrEsFPkwrxc8f4+MqrxW2ooHFsKLDmFiHm1V/liGFb0gwcZSB+EBbmfhfvniRfPlv/xwDBuxCw/bmkCIQIuL6o9bMtBqkCeJ4Kf6BFSDhRvFPHKb0DyIiQzHyovFTS39cemAfYrfSb21gwdlWJCcKEK4/jFNfAHGMHHfB8Q648WicGLPmmUjEbBfOK8D5SyE/Z/LQXAwB7JMvNEl/d71skF4sig9LXRN2XBUXylR8lbz67vUygq24w1j7zsMWt07o/IZQIkw6pA+L02ea8YEPdkoMZXdLDo51V0kIhdy0KeX41sDVHKwwK88XixcKZxzFXK74ttLb+ybVn5ml8N8Z/nMxQynDGVhOfzT1CU3nTppvR38ah02ftn9K/2n/R3d49/yPstTTQ20VuiVUFG6NeqxHQxRLxITJR7utFwUB1xA2jI5ot68ule9sbMXMw+KMYBcPF0WLc/plDFvS8jsb5fbbamT3UIW8sf+Y7jTKx1kwawtLdPtaU8tF6T/XI6VjQ/Lg3atkEKPR53cfkZOdw3Locj0+UINuHh8f8uES/dzZVTiHKiz+q5+/YKI83CZsozC4+SQraNUyb77hTgZrgL4sYmgK+Fyn/hriL5gp/BT/Kf2l/Q8YiJ4kg/kA8h+dVlBEoGx2DIuueVjxdVRGpgZnVA8fjSfqGFWWlmgkF9IhdQZDDkhg8vWrS/Dpf4509mJBmwIEk4R8HFHy0IpCWTF5UM4evoJjSQqk7LZlchhfEx/EGUy8q0Lyi2Qxdg0NQRXV3IVLoyoKZAC7tvYcOiVPbTkv9aM45bUYW9owc+I3FPyIpqgIxxovrsWeaL8VEQXQWQbLaSW0+RbZfeJh/eFxs+tvSCUyUvgp/lP6Y59L+981BpofYP6j3Itj87DPhaW3/abgmGOYCVijksUFYRBzUfgENstcgjUyIy8PgAcfd8KsqciXJz5SI998oQ2w+LWzyKLabLl3ealMryiUio4C3NmRha2pU+S3nviofP3lzbL/9Dnc1zEsrdieOrOyCh8CFsnxhk7ZV39Ydtd1yMWR1TKE7z7KkR8XrbkXmsVbPL9G1t86W48PicthhdF3KFfQWoXKWnlDkPH7m1h/R0YKP6aLFP8BF96nQBwp/WmPTfsfSeMDxX/AJsGzvc9ykK3CgyocaHoSj48P3QsxEwTuvmqqvwfCJ7JGFvUqKMiWJx6olO37u+Xq1VGpLc+RB1eUyILpRdiWOiLzl94mRYNnsT03Fx+yrcR3DjjLHl9zHzp3Ft9QtOOI9hKcn5QtF/CZfgOO0ujJvV2Gi/B9AGqUhbOQtNsB2WXF+XLf+gWydsX0qJheEjcZoHbvqW4mUtj40DxGoBLrw1a1UcQrwg6jPGzJjR7NKJFzZI0sEUpin3cGX+vmiceXVf09EM2ITQ88J4fl1HR4e6ibLLvakRe/nOfdGgX5iTohNFn/dwI/AhZbItu14LMsEcdUB18Gn7cg9uBQOJ4JptXm623qHwGLLZHtWvBtyzJOccbmC36UZc8YZr3clpijX/J6/XnCMz8C5flk0aOZJnKGlXc981If347soW4yrdq9LjQxy2c6wuWtjYQdP4jgiT2NB6q/BzIf/DSOWfhdD7e3s9z8XqgQqmDyJA31vNz0PBH6QWj/qDiskNdrfFnV3wMn1p95eKibkZ/n5SYD9EnrP779KSJUO0UBQhzBnfPFL37xz1Q7BTcT8Jz5zIQxoU1APvNAThnxo4ZwizUECba8JFuqsIa9pEbkkVXFsmIOdkTh3o4h3C6YU1yJrzsL0VnxjUNejpSC+U3FbqlBXBZUf6VVmvAleTM+XhvBNx9VldOlO3+NDOfhkij0MW73HWLnwNeWd942W377396FD8/8a+SYEJITRS+dpkYlXMhbHeNQnm67Gx/oHTlxUu/B4A14ZDT85oDfR9xo/YnvG4HfibOp+nBPQAE+EvSRh5YJRboR/PMAQ561NQ8f6fk5N94+Y6PD0oGbGEexVZqMhM/Z8/X4XcLxDDgyBEgYX3/GeSfwUcnwuOXd4Z9M/RzKtnvvYRyFwg8l9d6yKHvHxY3gn+pPfmlfhGNl7GwgtoU9PP34eN05PVOIhzQy30EcO7MVJ5124ct5fvRJGDwU8sy5ej2OZhrOLSKumMe14G98Y7seQc/LgIg9x79jl5AdPsN5ZAQPlTyJc5UO44PT6TiCgm3Xjg9Pc0Dg/BaH9Ol1Znq3Xws+wwmhD+pdHv9/CHdzs+yXLjfo90g8Vj8+tNLgX4/+mZPCehfwmZapb6T+KXzHFlsupg7DoJJb1OaRH7GLqBnxo6RuuTn4HwR/JY/lFn3lSzBh5zoBm5gkgoKoYXb10MaHDV5WnBDPAsdVM3hmGF4JHiOcK49/pFqeeGiyLJpbgoP1ciEocN59HroVCjNaOkNGCmfh47hiHL1eJrNxQOLj61fKL+B2ro/i8LD1C2bL7fjNrF0o2YVT5I47FsnP/9xq2PFxHgo4d1al/PovrseRFvGsw0ttRbLuq3ZUw2tihBtcapi9A1+IP/MCz9e/jDvWy3ADXrkeQ7Jl62673xvR4tplVDrhSMZ4a/gcJZ45dV7PiuKMwB42Pp4IlpXNc3UzRNajnbft2Gsn8apnHKOvf0gOHD2BY10uaX7M6SLOtjp2/CSyD/mqYXbL853B93LEZgyf2IpyhsXsJEbGDi41ABN+vG1tcq0NEBhsOXkqg5DMPYaZtGVJK2auFAa8H8FSGzjaWbtLOFzuCHDAu0JI/834zmgLDpfcuGUHhMawwh3C8ftHjp6SBtw9olvCA4hrwd8K4c2PquxJxniL+gMwD8yrrsQgCh2SMy6esNyEGzM1B5TLcrIaeK5uBmCRwY7+Ii782nfgmJ5pxgvC+nHawDacunz42EkVIp7TtfAfZaQYgusdwo/TJ0v4FvUPLfN+8p93Qn9x+X889P9Bg2+nKrEtDR+UGbmcdTgRxRRijWzNHjc+47mU09lKCDJ/e2ul3aom2ZKnAkMoyJGKKYWCs8ekj1twB7HWgpJQiOFMMqxh1GjnycYUnh/L1WKUVA5B04njuk+hk/djJtJRNEdOjpRBXYUZBz4qHMVFUrNnVsjvf+Fe3CGxUNc/4nJkwrcio2DoMXHNGDu41LD6b92+V+/s+NlPPqjbhnnGVDuOE9m46U10wNM4rG8yjujAER4oexcW81ta2nEK5lK9ne8KGNZpnJLJi42m46Tc2TiSg4eZMft2HLdy+lS9XiZVgRM9Fy+ch1Fxod7rzePYezBiLCwolCWL5wvPneJZ/ydwZ3sbDiGswiFqixbM00ti2OnJJOovNUoDRpW8NIY3+PFUYeW+CfxTHXIGBzwexii0orJUyzJn1gxqS7T9L9Q36B0bVMnxGJMaHEnCsjIrXtZ08fxlGcSmhNk4qpp1YXsZ07H0nNVcutyiQouweL8yTxpesmQ+6obvbSgYMfrlbK2to4PHmuH6zrl6kvAF3N98uaEZo+Echc1rN1n0spJS/dmtgbgAB3g4j9kIZ4M8qmXJonl6vIpWE3rXpmbg/Ox5HOUwKjNQTp5QzDPCDh09qcKB6qAluHeat7N5+/M8oWqcYHoaR6XwbhOesMrDG+lXj0EDryel3yDOFWrCDPiuO1ajKmO49KodZ4RdhJqpH0fDTMFxLNN1hyCKrTMJHmu/a88h0GsfLgpDOA6SJG61/VH/06fr9UY53p2yFO3MupeC1vW4fpT/BG6YPIzjXPpx7Auv6p2PU1OzMSNvwZHdpzDAGIYqdcb0ycI21JmJYoy5swCCI8aR/tAJ+ezPf0KPuOEx3j2Y0W7HeWYncFzNTOCGR+3wSH07qqZNz1ZajPaaVF6u7djUdAW016ezn0ugsQLcL7EYbVaGWfeV1k4deKxdvTRAJv7bFIezZ0zHKbFQg2rDvPv+Z7UJdbJqAX/mfrf8J6SO2l/xpa8AR433j/99qOGDZ3OQz2Ydgw4faqs/+TM6ePMdG4ajHz7RB0Lqoof+u4sRND49DCH21gg6fGACpZ4QjhBzQjhAl1xIfRN0yBAewwMjem4Vz9XHkVdQXxXjikeM3LqbZLgf93mAmfKu7yyuPeACqLyKWVKD02EPHGuSg8ca5BZsyf3T33tQPv7IMpQf6pi3gR/menGB1BbXh3UYAbN4Ejd7PYaLnHg8epLZkLlNnjxJeHkR1So79xzEOk6vTulmgUm0QkXy4iub0QFH9B5xnlfFpxYMiYzz2edeA+PoQ1kL9Dj0M+cu4irX2XqcOlUXA0MDMgUweBUt77d49rlXcblTB86nyoPapFEZJM/LIkMgg9mBK3BZJ54vxXuYL+Iol4c+cjfUa2wT6248gr25qVXO1l+E4M7T454n8cItHOd8Cmk40uXxKnTXgbnMAQMgY63DpoXtmMkM4vsbHsHCy6R4dHwt7g/xjkwoA9jYsBdHp/P+gSGoFnnhzemz58DsL+FY6nlKA6+9DqGLEf5A35De+VFZUaYqlYNgcjmYgXbhmlpeZkUVGm93u4QrO7fgkqm1OLW4h9fgwn727EU9QbT+8mUIw3pZgPO/KJQp/H7w4msKZxDnAJ04eQ7kNoqzs0ows2iUy6jXVOCUB1tW8kIxJVe0OToDhfNlHLVPwUvV1dadu1VAdnddVfdU3B/dBKZ9AGeGbbhnvd6WuBmHV/aiDSkED+FWRn4jxZN/qW56aeNmCBWuJQ3rHS96VwTUUjzuvgv1eOHFzbq+wdOU/Vy0uXNn4F6Ui7i69wSY/QyFcR4zRN7jUINz0XiGWGNjs3zvmZe0vkOo40nsSOTNccQXhXn0gP5feGWLTJ9Wgyt716nAZlg+PrismVwFOqzRK1d5FM4rOAWaZ6MVgRabIZT3o46zZ03VuEdwQdkmzKK49kThf+GC4Zx3TTDtN3FZFw/0LIJ6jjjci7tXqGqbP48qU/Tv6/T/G+l/7yf/SeGTN5MiAkNWWyb/G4//IfZ/MGfTVDE9d1s5Q8dOJc3PswzDSo6yMnTvhInHGYe5ksWwUMvXcwzhwUk6z8WZSCW1WDcAw0K/AvOB1AAsMqheFOvgmQGZUzxbinIGsCjeLFnoLMXQ02cVFstoXonct3IWDiislKa+XvlVHH64+JbJWCfwRUYA0npdG75XVNEV6p+sD726wRi6oHqYiy/c/bEsszJOd+3FeV1k4nfdeStGbGV6Lv/rm3fIZMyU7rv3NiTNlgO4sOU0Rt0zoIYj4122ZCFGqrgVEUei87yuf3nqWaxFdClDn4URcwd07cuXLoJarwQn3+7Hus+APILTNMtwLHMHrqd95dUtYDqnMeqcJnUYoc7ifSdrV2AXXRYY3z7wMazFAJeBQrT4vBNkxswpEEo1QuG3ELOXvHwbHVKw8O4MwruC0fULG7eqqi4b08Ojx04p01u7ZjmEUS4Y5TF57fVtuH52kaNFTcLjXQQkruW4ypP178Y1vV//1jM645iPgxV7+nv1nKr7N6zX2QgPSaQA4FHrPH6dwvZV5P0i6vdvcXf5IMrVCQZOujiLUX5LSwe+BVqJNYHJOop+Evein8RMg2V5Y9suFbb3g7ln4X7MEyfO6gVWnLXwUh0KwZUrF6PuWHALZOHtz5lFAe6xpoDmyb1t7V2ybs1KpUnimXc4UJBNwhE5PPq6DoOBEsyq7r3rVr2H5diJ03pr43LUIRd3PnAmXQ5c3nf3Om2Dg4fr5CQE9Axctct7Uzgbuvfu23D5VaXeEtkNgUJhy7UW3szI2ydJd1xnuwX3w/OeCM4unntps97CePfta1EHnPiMC4zY/lzfqoWAi6k9C7PYZpx+fDejWfuwJLBzvYM/PgcgqBow43tww10yFceF8xC+F3Aw6Zbt++Rjj2zQu1t4FtlSzNam4aDN7q4+XC/8vMJcvWqJHmpJ+rgHeCDNNuEKYs6KcyGk3mv/i3gO2j6ysw5acppuM49MakeYddYQe5wzJPX2Z1bJ/LyfM/H7wf+86B8m+Fxb4acQAXWKL9Wj6FSEW3WV4cQNRJR7w6k9ShraJNFininjMQdbyIHdLJkpCQeUrAvjNVgkL82X/NJcabnQLv04mmQAU+mdOH22DeqRBSWTZBKERyE6ZCdUAIXlC2Tq3AUyqTZffvEBXAyPr8grynG5iveSdwBfyxwXnKSiZacXVT9jGF3F1zpqUyMk8TA6Hk7/OavgAukAOiCvmeVR4mQ8rH8nVFrUu3df7VPmvRTMsqG5BSPH85jqX8GMAXXGDikyJjI7zgCoxuLZUqfPnFcU8k4RjuZ4mOEwdPMXcY9IBVRaXBuZi5HgJDBAPksXz8N5YHs0jdYn4J8LXQXYkJCPUTqFRqHuxkICVJa3CtaiDgCHOk+SKozMORNpBzNth7Ci4qHuJOoCQTiAdROqyajOKMZlN96wikbAooCcNR0qHG56KCtS9chplH0BZlY5OMNsBhagq3n4JsrThvyp3pg9e7ruMGJ5b791lfzN339V1x8oNNiuQ5w1AU+8EIr3GzAdZxVcZObonJdwnYSa5vO4zrZyUplWas3qZRgdcxMFdxjlgaFlY6ZXorhlvoSvZcarEqcWFJfi3DTcOV9/EdcMQ6hXYCBAddJX/xXX4kKo8cKseZgdcLbRCCZJPNZhdkMEUEXVcLkZKq4+3D5HlWwu7llYqHmwIebOnqYqnnZsVqjGzrEuHMGzGSP65UtvkYWYOc3A7XW64xG1Yn65EP7c0ZWL9iYd8NbKPtB+3anTOI14uhyFsCKuWts6FTaF3hQID3ssD84MKPxDlt5MIYrV/wJwNx2zlmm8fA2DGl57SrXrCy+9ISO4jZJ4Yr5zMMvlbrxSqArnzpqhd8Cshrpq3eqVuiB/1/o1KngHsC40B+o7PkZ2gBPoT3Ft0DXfJP7dGwGwZrLxZL9Ohmgai67WOH/zTOETkzcR/9oXyQPjGa4p4UFoOsPUACKfD5sDP22L0CDqbyG0Rg2kcdUHL2vG6E2LZokXOqw+btIBjpVflC1T5lVI1cxy6WzukuZLbTJ3HvTV3UPSW1ohU8qqpbyoTHLKamTauvtlNkaaRSW4NAWqDqtKyDcQH7O9YfiIG48uosLqxS+8iKgRTGHefM4+TNfHvLlDh6NEXrdKXz2VVuukFYVK6qpuLx6EICG6KYRmYH2Ex4/zbP5vf/d5Vaew406C6oZnNxmOWBuwal2dIqQsMOsB6cesi3p4b7dyrHtMxyh2iFuU0XB20yDjj+laCTvcNeuveSNJEv/wo6olwiMSZvHOFZhD0L3zdNsrI63YEYd7SoxIhIyZM4zM9mfCUTAZ3KsCwWHweSBmse764eIJwWZhp5rTwRAEJhlcHkbV9mSBgWGHHabH3N2hFUZRODOiWowXc9VjbcdRPRlqIl6pyw9EB6BmJE1owfEmcw870YF/WLl4g7rqk1F/3lqYI5Ox9lCPo+SPnTglVdUVKgS4HsGdWrzfvR74v3P9Wp0N9Q/0YYaATJEPvyxiGy+DIODGD8Jn9mT6WhbYczFjox8F/dRpk+WXfv5nsJB9VDa+8SZmnd+Xxx74iNx/L09/Ht/+GOlpkbF1eBAqUAwaKLjyoPpkVahqngnGX4ZBhD2MzDJgQIBZTWPDFVyGBkfIg4UgnnqxI68Y61BcS6mcVBpSMFUW6JL4x1okYLE8eZhF8LplrwsvFOOAgnmuXLVUNm7eDvXkBVUNTsatn5N59YDFjtIk4VuglVHteF2r/1k9EE+rZPXSaliumjST/uhl8WgzCHjTognxYiPwcdNcKXwVDMRNhKxgh1tRyhcpHTSHNweifMLZVtjppDMPxgXxMxYfz08t5rQAe1sW9rYkgWkl03s+IQ86JwYjD2WC2VI9s1JqsIax7I75EwEa2Gu+3zN8LRVFgdWfo74VYAivbt4mvz7vM+EjRKjXoP99fdMOvVv8sYfvRXxO5ZjOmAiZ6nRcVEW1x0rcNkjsUB1DBsYtvk99/wVV0zz+yEd0ltGNtZI3dx8IjJl5gIHwgxL2XTyVGKXzutdHNtyrTJkdTY81xyzlPNYvOJWkbt7rT9UBb0MLHpaJNpG+1J95ML75hPID/1aPAB9ZUA8+qapClmIWtXrZEk0whJkPaxtv9bRcmOMoenNHVzfWp/qUCfFecy62L12yAGkT8K1UKky5NsDtxVxvIIDLuEe9oqQM3/mQ+aKUSJYHlRLvWp+LUffHH3tA06EKYHBDukjNrLmxgGknY52IybqxftI72AfhjFmO8j7CZ639rVmrm/WuwRrWOej0j0O99ej9dyl8zlYW3zJfNm/bq7OP2bj6k+tZ1bjXZBq209515xqktG22w2hgvc0NOfK7IN4HT3Uin27M4siMOTPljJZ3uzz+6Aa9PY4qr69982lZd9sKxEy0P/BvbpYZ3y9h7aYY6e+BAJuHu1f48G57HstD4Wc1Y2nwwLFy+RL54cuvy3333K7tqOVE/IO4RZI7yx68/069b6UVd7MMQzBLIWAj3SVcsVxWWoarE7iVewy7xnp00wBnYtRMNIO+JkO4cgDCNbtFCxfI7j2HMZAZlnX4Pkvb2QqTRDDy0pKxdKGssY+Vmoni/qcRmUSTWdo4Bw0NOZqvgYzrH6WnJZEHnROLxwgp/LfCPzEU/RRVGDgpG1HkgmloBIR4LEVoQHWmoXH5Mm8yHiQLceL0IRr8FU5wGonQEXwVvr6QFJE/IPA/9uhHdAfUd773gi4q8srZVzZt10Vgqp7YoVkDqlC8/hQQK1cs0l0tVKmws7388hZcaPSSTu3ZCbvBYNsweuvACPKNrTtV10zJTibIdZtOhF9swO4mjMzXQrd8HOovjoh5SVMdRnn/+JUnsW30hN5zTMHCHVpUY13GyHkfFi254O68WlEe8M8dPfwQrvnKFezaoZDBbIIcQ1Ef2t9nPWjMKVhc5aL64SN1uphL9cgLuGHwn7/2VGjJie1/Cgv+vH2RTHbr9j1az1VLl0SzFib09uf6DmcNXCRuxE6di1CHvY6R7H33YK1AiQllA3Y5s+POKe60462NrVgn4q6qv/7/voq1hHMaZz2u7uUW6gvAwyUIrBexaP0mtqVyoY8Xaw1C0HDdgkLF4Sfpr7q6GovY/Zhp9aoaj7Mnhi9fCuaILbMLwLB5ayKFOb/zOAE1HtWOV1o7sPtuu3zla9/BJo9+pKFQG8bM4oicZ1mwEE+GzcXx6VAN7tl3WP7lyadVDdaJi7woZLjjjrNcPhBF2h5ULfLWQ26lJt758CbHH0CldBl44q6rTVt2yre+8wPguF2bMNn/1t26Qq9VZVvVYf2H5SA+dmKgQiHMb0mWQag3trRgN9oJ5NGtKkBehXwHr04N+D+PnXAHsEOPO9x27j0kl7CWsnQRtspDY8BvZrh+d+DIUd0Vxgu+9In6rzmBRvyzLe25Fv610gj+IPV/ltp+EwyrSOT9k8n/kvVXPsH6RowF/fKPv/jFPyMmOAXOxsjRptv04WNUQBR6GuUzGmYvcwff8YEhnk0vQ6DSEOzq5EhBc7d3EpCmZaQQIyQPRsg5ZGOZuSMKc8u7hU9cLMFl9MexQMotjoePndCR40fuvQPbROcDJ1m6ZkEVAJkbFzWpAqKemAujm7CIy/u9ufB75+1rdMGU0/qTZ+rRkffJftwjXotdNEVYO1iIhdFyLIhT192AXTVHsBd/KpgUbxPkVtdNW9+UfVgHqsMi6fJlt8hta1boLheudZDpkjEcB0NbvnyRqtTWYQGdZeHj9edWUc6ouCZzGTBmoMxcuxjB2sEt2IKpo1PMLFqwHZkj9unYYlqDkTwZ1bade3U31RDUOI9jMZVCkI+1R5bOhrjdNR9Mj7umNm3fpQKKC68zsLDPr1M5C+FNldOm8INEzmyKsA22DLr8c5h97dedV0sWzhdehcv1nVYwrJNYUF+/bo3uDuKuHqp7dmB3G7ei3oqZ3epVyyBccqC+mQKB1anCmN+tlEBFePcdtyq8YtgHsVaz5U1cq4sy6yYILXhMf8RNV+dVqCJLdPG+GAvfLCRVQqdQhrvvWKMbDSjIJuFbXaRc1QAAQABJREFUDK4JcW1pD4QEZ04PbbhLdzKRJihAV6Nsr0Go8AO9QqyDkPFz+zPXPJqx8L9t5x7cKnlc1ZtPPP6g7gLrwgySW3Nvwe60Ei68428f4rRiAX8+1lu4a41M/DV8f3IIu+z6UIa7MBOZiTUm7Z/WGGwWbfsVUO8Sh1vQdvuBt3YI9NtxG+Ntt67Wjy5Zt8qKUsXnLgg1DkjWIZx5YpKiAk7Vh8h809YduAWySbghYQFolYMQ1pV4I61ylr4IC+vXepz+NOxD1P+Nun98/OeDBJ8bmahBIU2y3fXHa2g5KuBUmwum0U2CSSrQ0SkC0fBGCMnAt7abaGAcQiHo6zxxxIkRfszwuWbB3WBchCzAwiIXst/uoaTmIjivzuX2Z16L6/Xn19Nd3d26eGtMCrkl6k84VHNwF5cKAORFFQW/OSgsLsDRF1QpxA/j92FtIhezFm7HZMP6E2cb45+L7iwfZyJR3DiiJ41Mqlq4DZgf0RVDJ65rPFGoWTgreOm1zVq2B8H8+XUzj8LgvehWmhj+uKQQyKNQj/RJHnbgFWAEzuJzTYmMefeeA/K7X/gcRv2YCaCM1PtzVxe/kOfGgkRVEcwdX4NK5FwAJu7iaqE90AFYduJ1whNHnBCk+hwCQhynf5IkdyexUxVDOMRHm8TJWQfSDQcXVvyY/rm1dQjrD1S3aRtcBz7XSbStWNcAn+tg3Dpdch24cQmMrIZBgwODuMUTOMm7Rt2Jfwr8ItBWPlSEfFh2Dn64u++TH3sY8IZULZeHwY1TF8t/GWuCz76wUT71xGO6/pKETXtcreu3v6aJI47PApkgcBz+J0a6tk+cbQrf+c81MRUjamIw8H8V/ZkDG3QgveWU6vlcptFJFykzoyfSzXzwcn9aQ9ZvBUspJsTzpEzpaSOSQibeGROBllIJhtYfP3xufbWjJkKlYLxd/VnbQqhLMFiOHq8/stMPz5hJlI8HIjaZXj4R536wkzlVYqHcnyhdiM+F5uhhYHiuhX/q8jXz68DXpAn8c+spGWTyScI3f6qXTC2Wm4W7OKDSy3zeov1RX37Al3yoYuIsa+H8uSY4GAh8UL+fh9nBRPgMxsyZCPf6w0zWvwAM2J6QGgZ3UlHgaCKiPKTVabri3xqBbwsiFCoqtThoK/u+xvIN75AHY3Kc0cctzEhDb80nSAHii9/7GGYQisDrwSczT8Jnm1Cgx+VKlCABnxka07DNF1rTAJ8Z+qyAs2YKpCGuf+Dh2h7vo6cf4VAdy1nIYFjzYv33YrbCDyW5W60cm0f4VT3LQ8Hu6z9J/DPMHhYQrgi+OUNgiIJATYCXZ0JriBRyyEgSORgYHk/KlJ7WWhKuFP4N81/FHV7EIu2kKlyVDcORTYrwJ2A9s5GCC4YGZwZ6SgRagAe7GUVwiaGFSYQmrE4wSa9ko6fwgc1M5ETo/XHgnwvoixbMVdXdzYDPQwUXQw2yGPr1+AkVhnGz2p8zwANYk9DdRRn4RCcBHXOTlnYcLQTZMGYzLljVjEO9nNanTFxwO4ILGssJGZL+Kb81fXAz8QcIPhfiW7Bex23kVCnaDDWz/ttxRTSRswSbCnZghsiHQmPxLXOwLoT1LLiJHTcZrk/a/w0xQA6pxBwwEtYPGv9j0SgwIrJl2bFQBhK2XRscEVdxdwpb/C0eq2OyppmRJ4aM94ndkc0tbmZmmeGyKNePODFkvE/sjmxucTMDYqbDolw/4sSQ8T6xO7K5xc1MkBkui3L9iBNDxvvE7sjmFjczIGY6LMr1I04MGe8TuyObW9zMBJnhsijXjzgxZLxP7O7Cbrcz+JaGKjntGc7pEYUCilshtMNo14mLoZ0eEbKwM467ypJdRkf6OoBCfILSV4ihoGP4PBSRwkajENCHHD5VglxLq8GX/PET19f8Yndkc4ubceIJNoty/YgTQ8b7xO7I5hY3J0CNPSzK9SNODBnvE7sjm1vcjMFNsFmU60ecGDLeJ3ZHNre4OQ4q1co89ZlaGF5/wRl1Ftc8SPwcafB68aoqfmxGQmcufILdRwuJzBNWxHOXm5p4wisKVUvkSsRzP5p8UviK2xT/ESk4p3ZKMTpxl5vmO/4dhaolciWiuR9NPin9pfQHWvgp739Xr2LNA2rMLKikuWzGGbWuKEZTJ/YT75lqqof6EXf6uGm+wdM7HJ1xBJ3eawxOeOzR0NAWGlcDPJRxPD3N2J7CN/xFKFHsON5oxrgKMU29oo4U/44pxRIcRk9waYCHEllJPMb2lP4CVTlKFFOON5oe4CZQS7WcPin9OSYUO3B8eOmPhec/hQdqw4+7go8a3uBm2jsmiYm+Pml3WnEz3sljiyxRSmQW5QeLp9dwx7L16mSSyB5bLBdP73DdTOEHLKN9I3wTeXBEblgcf4rXFP+BvCJEqDvCVwg1w3wdf053bqb0F7CW0l/c30g4QEtET7A4/ShNRWQXWdQ7iq8uf5mvp3e6c/Om019GIUxTFVcEiiyTiCx4HNOqESrjJfPyJ2LqIibdcVK4kC64NQe8Qk5RDsnoKXyihRiKsWL4ClhL8R/RjVscU053blo48JbSn6JCKQivQEmOPkePxVFcMYZj1eOHVCn9RXhzi2PK6c5NCwfefkLoT5fxtP1RIfxz3SN6svC1r7nxjijM5ZqFxF8YIorTE3OI4kfZBQvTWaDmgJflND4e3QlYUX4JP8ZItEwK33CoqIrwZX7xO8V/Sn9p/2N/SPmPIeHd8F/qLkhFxn+NJ3N/R8TNufMj4kGAkCA5jZaICisyCHG8UaJIEyyeb5S75R07QwqPB2cKP8W/UoVSV0RRsSulv7T/GY9K+Y/xy6iTTLA4X40ZrtpiZ0jh8Sw/C7YelzmEB94xcjfh4UID1Bh3TpcpvtiVgKRWxvQsx5c2ETcqFi2WxmyIkwDmKRJeITiFb7hxDAF7ak3xn9Jf2v+S/IJ8xZ5EXwk+Fs/6DL2UTSYSe4qEV8p/FHfOf7GH3JEEecHlcggP+jgRwu4RIosLlARag9VTKQzEj5IS7bFD83c3Zzf2uGkR3eXx4gxS+IabCEOR0E3xn8AJCCcmOfjHjpT+iIyAj7T/Oc24aYhxl+MpQhh4mYVFMX4q+59iAShQbGHxg38QHo6UQF3BGVza8WJ74PvB0AWUyMuR7ACiAIBBpgGwfhCFoDjPFL5hKsW/4iGlP0VD3D+SQtEoxd9p/3NM0Ez5TwYndQcwczP4rw9Uk4vkqray0Qg/+YhJlqeg2uOmhenbo2kQHBkr17E4UhGBYM/BzOTbIFhyTiQ9Y6RJ4af4Vww49Rht6NvJRIPgSOkvdCQzHGNp/yNtpPzH6cHM5DuQjfant+a/dshO+KyDvBn/KjxsNkDZYhlblvE76at2nbYgPACN9uZqYEIEBCAhYigpDU1obrx9A1UKP4npCD0ZrZLinwQTaCylPyIj2YHgTvtfxF1S/qPkkcFvFTkRhpTJ3Aj/ZQr+bK0I9wnCEamtVO4glyhb0GRkV0smYzMmFnIMMRktQwRF8+o4X5tQZOaFZJoyfsOWwk/xT4Lgk9IfkJDZZ9L+F1CitKEvJZOU/ySG4DeR/2quIDqnQgocfGFuIxUuf/glcuyvfHjtpFneQpA4FSMqrZ75+A5v9XDNWcg3w0DKkIcBTeGn+A8EYqRhZKFeEZUFgotpJwoZFy+lP6Iv7X9GH4GuMoyYhlL+YxhI8h89rxP4okhQKoKJhY4gqXjJdiSpAvqSM5EIo26JTW0DbRW1WUDUi82pMw6bdsAjBAZ4lhRpx6WhPiuR4zXzpWcK31GawNY4XKb4J6E4UoKZ0h+7j3U7cgVHj/oyIO1/iR5lWBmPI/j+NPEfzjicUKC2CuhJLqMnMKZx4b4GzhxtibBrEBth4UnAVJA230nkaqWyyCl8w4PjLcV/gsYi1MBihBJTUUp/ia6TRFTa/4gNJxQgKeU/pBRHCK0Je4KI1BduWxwH3mC3XsYvPcKju5sQoOk8n4TayuNlmNFIzruxT4tDLM0MdjX5ihfzON/x4ChPeKhfCt9QkuLf8OD0EBFKsKT0F2HE+lLa/zJIxRmMmnyl/MdR8k75r6bzu2aASXJvEx7ohGOcwgPzjnyNHEkjB6n4jwg2iqyZ0dtThyjuVJOvoCIL/pGWzLOHfwgKQiTDZZl6XLo8OLImPJLh6s1XCj9CBbHhuHQTgRqOMPVK259UhMcRlGmNkAVvw5tjj2nwuFNNvlL6i1BBbDha3USghiMspT8iKAMb8MDjuKLdgyNrwiMZrt58vTf6G6O0CPA5blPhoYIjWSjEyCwGXB6eGRD8PTDOPE4Q2xKxLDvPy01WWJ8UfiZK4HLkZQak+Fe8OHJAPJE1skResU+I5rh0M1AfQzO94PLEmQHB3wNT+BGeYktkS2DJ/ByXbqb4Dxj44NGfzi0oMexf6R7CA02Kf28/a2B3WV3UD14WlvCD1TQHifiR1S0xIpKKKg9lrq6dYc4pfGIhxk6EE3il+Cc27HFcpPRHfCToJbK6Je1/jomU/3ivSVLMjfFfzjpc6cdc+MvOysIBV8CuB9hUMgbCEEU+vKwRLCxuEBLvWz0ek3ESzYdsPCebnQWXGma3XFP4Kf5BCSCJlP7YI0I/sc4RcBIc1zTS/hejJeU/EWeFxSnpRvivfsahIzXjx5QZ2Rz1eyaKZKW1BJIT5JmMN3G2YKGah1vVdLFkTRgxAFjM7k0bXGqk8B2FSSyZn+Epxb/TjdNvjLFA0CEgpb8EZmIBDDIKPS4gMrjUSPtfjLMYSz/1/Y+LHJA0xMPoqO62MpSwi8UTXMRJcieSF3AYo5Hu8ehNhHqYmmGRhnl4EtM1JDwY5IGMmMJP8Z9JDyn9pf0vwWFS/uM8lrzSOKa+zRr6zs3mv/wW0LslpiI8DVEfns7ujaNeYaU/vsQ+TscECZGg6T1PdTAny8SceGc4AyAVViFhMj+La5FS+AFBjsOA0SS+6BXHoivFfybBpfRnfYq0gSftf4qGlP84n8jk59fivxzvj+l2K0Wd8n+VGLxaUHdcCTfyRrQFG9AbhIjaNTTxSnCsQI+ahjFscoEIIU4czkDzVL/MACZ12mbEFH6Kf6UJpYVgi4yU/iJUxN3IkJL2P6IGuAg0EuOH3uaZ8h/gIhMxRFrCK8F/gTMeoJsctNp0YxR3lys+qdSiJWCc2aiVL9N1eQg8YgFBhz4Wj1YrE9600DupBosYImMyyHONIltACt9wpwhM8a9kFChD6UaJzGlHffBSz/gdkVQiXkp/CSym/S/lP943os4S6ANuDeLLlFQ4T9e7GH0oS3zmEdY9dI4Sp/fYzJo/f8xu7/bOLtm6Y7+cOVcvVI0ZUJFtb+6V7bv2IWGckkXRMoWMTJqZD2UbyzQyPCpXe3plVDOLIcW5eFnMx/IMoQkAA4OD8sa2ndLYfCUSUolgLcG14EcF1CwtX74DhJCOhvlcD34U8R3WP4WvmAvoTfHvlJbSX6ALGDFVGD9R3sHgiR0ckWPMTQxmGH35hv1d8L+f9P5PDEU/RRUWzHWhmr6QI3x0fOuxkq1guA0o1qj6cpQXFxVKFwTIm7v2S2t7m0K6cKlBXty4WWomTUK6kEGAoSDdVx3m4/CbWlrkq//6Xens6jJgbwNfi+wg1GHJhoaG5eDB43KlowNEYREIw6CFUqnDfBy+RWD8TMAOwnL3UMsvWsNKwNd4SPRO65/CJ+ZS/DuFjSNDJ7/gndKfdjnvnGn/M07vVHIT+I/PzrjEYc+Y5DpxaqAi3wMZxez09jTJ0DhGlhTk58vSxQvluZdfl9Nn6qW8vFxeeXWLzJ89S+YvmC1Dg8Oyd/8RaWxskenTp8mK5QuFAmdwcECOHD0l5+ovSUVpqdy1fq3k5eXJG1v3yIWLjRBGB2XNqqUydXK1nLtwSY4ePy05OdmydtVymTK5SgaHhuSNLTtlwdxZcuLUWVm0cJ5Mra2RI8dPSXNLq8ydNUN6BvplbMTY92DfgGx9c590dHfJjOlTZPWKxRB2ndLU3Kp5VFSUSUdHl+w7eFTuumONFBYWagd9u/oTFwFdak2+OJCx2Q18HceKSJ3zaULFcRLRmsGN4z8RXa3JVwo/xX9Kf4Fzpf0PrEEZkpo6WIb7RviP8kAMwClAiE1862GWsKsryXMie7RtFBAU91FIpmXunBnKvPcfOSavvbFdLjU2yeOPbQCQbHnqe8/JG9t3SW5+ruzYs1eee/F16R8YlFdf2y6btu6U0uJiqTt9Vr78je8qjFwtmUhuti3L7D90XJ5+9lVVZTVfaZN//MqTcqW9Qwb6B+UHz2+U7zzzkqYbGRmVjVt2yMZN2yGYhmTzm7ulpRkzIYQOj47JX/3dl+XoyZNSUlIEIYJyvPSG9PX2y759R+TCpctaoYNHT8iBQ8cgMMNszNdk3qb+mdgwF/HlIkBxR4d5hOjmuBn4DxlmGCl8R3dilpniP0EjKf0RGWn/IxISZJGwkv+TjyR36jJyrnoyFbGXTEyGqW6GhQBaQ6ZM5/YEHFm3doWcPHVOXt64RR5/eINUT6qU1rZ2OXS0Tn7785+TmqoKOTlzKmYhR+XChcvSebVHpk3DDGDlUrnj9tUyDDVTfl6urF+3CsLkjKxdsxyzmjw5dfqc3IIZzH333CE5EChf/pfvymHkeevKZZKL+J/8+MOy+JZ5cu78JWluvCKPbLhH1t26ErOXS/L1bz2LskJHh3r88i/8DGZFJYoIiqXTFy4KZxslpUXS0NQii+bPlZMnz8oyzKJyck14vJP6Ky6InPA46oitGF8BezBsVoDIcaClfJf418Qp/IB9oDXCa4r/CBXKCuBK6S/tfyADpYuYOK7JfzwOexHtFCe53H7lA+uwU9cSh14X2FzojMEFQ4MzAzVOZUW5LFsyX2cIK1ctBgPOEc4U+gYG5FnMEJhuaGhEiksKhQP7W1cvkY1v7JBvPPl9XRtZs3qpVFdVolHB2hGZIHr7B6Srp0dOYGZSD1UWVWw9vX0yjJmFFgHxKsrLFP7g0CAKNyblFaVKGNVYb8kvyNN4IyMjchJC6EJ9o1zt65F2qKsmT54kxcVFMnPGNKmvb5DjJ89IG9ZuHnn4I5Kbk2v5h9prbyPq3qL+GjUMYxw9bsbZIA+2gBqJ0ITVuV7SK4UfsAHjevSX4p90ZXhy2nEzpb+AAR+xpf0PLChBHQnreP7DIAoMDqd1XAvc5dqHH+HLQQ1BKBlbeBJW+JjLcI/stAd7zNjMLyiUstJiyc3FkgqeirISrG8UyccevU+qqiaB8ffK4MCQ1NRUSV/foHzmk49LPwTEm3v2yze+9Yz87//rf7RCQs00PDwiRQUFqtZatXwJ1kRulWzMPK5caZUarHlQJcaK+ZOP9RJWsav7Kj6hH8F6RgdgDWhwQ0OjPP2Dl+Xf/+ZnZdrUWtl74DBmN/UaNhvC4/S587Jr9yGZPqVWJmE2wufd1J/Ll0znaTMaSDONW8njaiWYIA5izCgPdQTX2+Hf80zhO9bGIzV2O64ivMdBmthx6DnRTPFPugSirtP/HaeOu5T+xxNV7HZcfVjoj1t1Oahnm+byxc6gfIlbbMOoxbgYuwoDUVnrMWo1mhlPEo4QoiNkY98cytQpk2Xh/Dmya88RmTd/llxpuaL5rbutCGsLJ+Rqb4/MxCJ6bk6OTJ1aozALi/JVHXUE6w8rly+SObNnyPG603IMC+G5mM3UYYZw/4a7paqiItAw4YtUVpZLbc0kOXLspAooCo8erGnwycnNk7LyUum+2is9p8/Leai4tBYo8NSpkyGkCqXuxBH5+OMPSWFBPlLEdXpn9ScGkk/sthzhVktEOoZmJrkp+I/hWSlidwqfqE7xn9Kf9TUb5tFuPSXtfwmepyghYuCHf9p4aSA1RsRbzhf/+E/+jAgboydCi7ADyh6NGtlddkRIZkZGgbA5QEbnNxojUlBcCIEwRfKxXpGNxe9p02ulBbufuKspF7ulFi9ZqLudCvLypbWjXf0p0e6/7w6orSZJHhg9hUQ31kRqqqtkNoQHS3S5sVk6O7tl7pxZWOOYq+sfQ/iWY9Et86UADL+wMF8qsdOrG2ouwpo+rRbCpErmzpsp02prsZ6Sh3WQBhkcHoaqaqpMqamR2ViDycdusSaUr6OrG7usbpOqSRVaF9ZIawrghG8vWtRX3+Prr4F4Ub3GOjHcxYTmwbbQ/PBS1GXiz9IzpsZW853g39Kn8FP8p/SX9j/ykPfOfwawFk21fxZ4uW5h4rJCe0fX2Agzh4oIH30Y01SelWRozo6ubXpM14W5GcUOEcbwJfsgCkGhkINZhj/D8B/GllsKDC6GG8+kQBMUeFSFDSUbsxlCPEo95mGEEfgvwhwuzTGorJAU8VhVVMj5MOJRRZbHMgS1Wj+ET0NDM3Z97YKKrVQevv8uKYWqLSMRXNd7QvUy4KvM8AQewd3jzIzgyBFZxsWe6PSYyfqn8BN4cgQlvJLWjODIEVmSUa9p95gp/tFj0M8cDxGyHEGRR6YlIzhyRJbMyNdweUyH62YU1SNEHpmWjODIEVkyI1/D5TEdrptRVI8QeWRaMoIjR2TJjHwNl8d0uG5GUT1C5JFpyQiOHJFFI1/t6ZN+fFbBHag5aGTyXsqLmK9CqnCEG7NjTadM2/wYxBSZj/NlZ1huWizE9wgQDPweJDshOBiH23ELsa7B7zeS8FlACgn7MIVjd5F8MPw87K5ywcH0nr3DpUkYeXkUMHEELTleBYWAFQQH0w9iy/DlhibddbUa35QUYQE9ztVrHur9Hurv8ENOBK2Pl5+OZP0tNIVv+Erxr/SQ0p93i8j0/pPs/1EguVeIoBSEV6CkKIqnp0fa/xQLeMVYMXyB/9Ki9Icw/nPmwUWQUcw8wKZlErbW6sOImj6yZHrDxXzYYBojM5rGjV9vGRhHs5zMHSWJLOqfdN0s+MNQYXV192DWI1KKDxV1VhQBiizvG/wYAQlYkTWypPCBgSQ2blb7p/h3DCSwG1kjS0p/P8X014OZB3fMYg2CW3R1KYL7q4KQoDAw1ZD7kWyiQLUnXdSnJjqzCpoQaYLh+VqODFZb7AwpPB6cIe8kREaKwdw8+NwVxjWOCiy+R7OiHyH8UHmtXYSSFL7RSKLF36/2T/HvGPjx9D+Hzt6d0n/Axges/5veJ+a/XE804eFCA9IgZs4ekYstfKJmDVbG9Cw1QuKViBt8LV9LQy8lkwQwT5HwCmVJ4af4J8U4hbjVaClJL4xlTyJu8LF4loZeKf0BRwnkOcYSXmn/U9pJ+Y/RRvicgziBvOCyOYQHg1wIwO5UFFlcoCTIKlg9leIY8aOkJLvYofm7m7Mbe9y0iO7yeHEGKXzDTYShqNOn+E/gBIQTkxz8Y0dKf0RGwEfa/5xm3DTEuMvxFCEMvMzCohg/lf1PsQAUKLa4Oxd/EB6OFHrDHpyB1rTjxXZj+/7WBRR3IGEyp8ihOVi+CiEkivPMSJXCT/GvFBXTR1IoRMSmlpT+kvhI+18GJ3EHUKSDLLhT/gP2+i75rw9UuVThj6qtbDTCL7XjLsuPQexx08L07dE0CA6uXPIJhqdQD/i528zkOyTTdFQkhAzgncLPxJojVzHkaNIocKT4D4RkhmMupT/SRtr/nB7MTL5T/kMMGPt4a/6bFc6uUllB2YB/FR4mjShbDLGG0vid9FU7pJfyL33Bx8WRBiZEQACiFOzZxQndJ5E8CSkKzihVCh94SfGf0h+7R9r/2BlS/vMj4L8kNf5srRD7c+GI1FYqd9AOSo+IxDaJ7GpRts0QfdTFl4ZZTL4zRFCkV1CQms4mNJl5aUCAZjnBB1Eiu1oy06iLLw2zmHyn8BNDgBT/RlpG8mpP6Y9oyOxLhqS4D6kbUcwHLrVkplEXXxoWp037309m/9Naob2dCiiv8Pm1zRS4/JGFbz08kAQU3eMBz+sSkiawCLSqk4nHEZzxMc8/5JZhxHkwOZ8UfkCQocaQMg6vhvAYdyn+DU0p/WkPCshgX6I17X/WPzIYT+BtcR9ypKX8J+Y/fuwhZxxKRTDDHeakKwT79CfCXjxjcK9YOkQ+iX4agDEo4mIWT0d8NuyLA8PIWKOyVOPSsDyJHC2j8XHgq3EsE4vD97h4KXwiypESzBT/Si9GOin9je8zaf9L+c94/otDSCLmCrVVCDZf7UzuFUW7Rr9KRnSWRI49HpjFC7zcIyKSzXfcA7GSgiuRicZI4U/o1yn+iQEjlJiKUvpLdB0jkfBWHDmiECntf8SUI4TWhD2BRPWFOxGawKtFjMN+cunPFsdBN4oL1ptfeoRHdzchRNHh2GBMPu42V/yORrLejX1aHKKE5JYpHSF/2KhD8+AoQ3ion8NL4RtqHB8RooIlxX+EEaOllP4ySMU7mJp8pf3PUZLyn3fGfxVv/E4wEBhTm/CAzxhVGAhw4tPIkTR2lCv9RR02igwfS+epQxR3qslXWEwK/kFrEiSGZeJJUvjERwY2DKmJpkjxbyjh2zDl+Ar+7lSTr5T+IlQQG05LbiJQwxGW9j8iKAMb8MDjuKLdgyNrwiMZrt58fbjpb4zSItSfQkSFhwoOoxZWGc+4ERyx5EhTRFisEFXjRz4eL0oQJ42CPIXn5WYik0wvuDxxZkDw90DPmBnFfm5zMwr1vNxkgD5p/TNRApcjLzMgxb/ixZED4omskSXyin1CNMelm4H6GJrpBZcnzgwI/h6Ywo/wFFsiWwJL5ue4dDPFf8DARPrTuQUlhv0r3UF4AKX4N/z5tDYTm4p0eE1APmlVoybiR1a3xAVJTpQ8lLm6doolNxhxaOQHrxQ+sWGP4yLFP/GRoJfI6paU/hwTaf/zXpOkmJT/3Aj/5azDpQOxyF82L/fgWrkH2FQ2RjJDlPjgZURoYTFBsvO+1eMxGSdBvsjGc7LZYXCpYXbLNYWf4h+UAJJI6Y89IvQT6xwBJ8FxTSPtfzFaUv4TcVZYnJJuhP9mcTOujlSNH1NmZFPqeCaKZKW1BJIT5JmMN1FaWajm4VY1XSxZE0YMABaze9MGlxopfEdhEkvmZ3hK8e904/QbYywQdAhI6S+BmVgAg4xCjwuIDC410v4X4yzG0k99/+MiByQN8TA6qrutDCXsYjHCECfJnUhewGGMRrrj2OafCPUwNcMiEfPwJKZrSXgwyAMZMYWf4j+THlL6S/tfgsOk/Md5LHmlcUx9mzX0nZvNf/ktoHdLTEV4GqI+PJ3d2bx6hZ0GvPTDn9jGAmc0pWcToiLMMvGkmc6QVCdAIdNkfpbUIqXwY6zHthT/SXohkSVxo93JiCilv4CBDHSk/U+xkvIf59OZ/MRoJZP/crw/ptutjKDY/ygxsOiNqYhKKUgWPJaMNqA3CBG10yv5JHpsMg2j2OQCEUKcOJyB5ql+mQGae+yVwk/x79SgXV3pI3ql9BehwrHkHS7tf0RNyn9uGv8Fz+YBuslBmwoPKLCCFirHEO4QVbKERoCdfTXRX2MBwSj6MNTIOHrTogkTKSOBFFJFs5sosgWk8APCDa+KxoAZGhGDiPwsHp0p/gMWIpJK6S8ik7T/RaigJdZuRMQSwuFWsrF+xXeCin7K+p8pqXCerjMXySUG+DcKHRb17CpbHEPEJX8xK6IjejQohFmSIJeS6Rk7kQedE4MZgb4UUMgjGSGR1uAxB3vMbW9LksJXbCTxR1Spp+GJzonBDKNviv+U/tL+l/Ifcgk8ZAuBd7hVTWUVUFvpQrVG4FI6uw5CPKYylMBqMg1mrY95Mx2ShThx+jhSckHcWBTDgq/C11cKP8V/Sn9p/wtMiwwlk/E4iwmcJYSm/Of95r8+O+MShz1jmHk4+qk60pbxQEYxO709TTI0jhF8xwcyAh6qV8KcIIahcemruRvokREZG2yXkcEOmH046LcfU0pbh8nOyZOsvBLJziuT7IIqycotQM6e682Br8LPK6olt3x/VPVP4bNJQ1um+Ff6JhpS+ovJIkkdxI25g+/4QEbAc6P8J+1/QNZb9D8NonYKFqI61wxIbuPhxPWER7eNMiXiWENMiHJdjzhbzjIAbUIDw2NkUIavXpKhrnoZG+7FJuJ+/IYhOEZQLru1SnJykRqyLjdfsnMLJae4VnLL5kh2fvl1YTPghuAj3o+1/in8FP8xoZJsM573vf8BWkr/REIG2iNHin/TEOk4nsvi+oCXt3V06XL1KBbN+dVgVWWFhdFXkXltjL4FrRvHDiCu3SAhNWAO9TXKcPtJGenvkPaOXikSzDj2NkvbyfPS1tUtxTOrZMbdS6VoZqUKAubHEo1l50KIFEtexXzJrVwEoRTV6sbhoxjXFYY/ivqn8FP8B3r27hKZKf29//wn7X833P96evqkb2BAsrJzOONAOgzluf1KpQep1jRERr9hihDYfKDp4IKhwZmBIQ6MMIzxYDejCODYYzIsQx2nZLDrrIwODUh3T7t0tmXJyBvnpH7TTrnS3i7dQ/0yhJjde8/Lwl++R0pXzsAsRaT3wEkZLS2Swum1MjbUg1lLgxROvRNqrWIDcQPwVQJpx02ULmH1KVLSy6QSMffe65/CJ53wP4HhhDXFP5CDJ4mSyJXS33vmP++m/42MDMuZsxfl1Onzsn79GqmqwEDbmknbKnqB/1xuaJZtO/fLhrvXSWlZqRw8fFyOnThjLcoRK5aYb1+zQpYtWwA/rjeLkEHv2ndIzp2/CFeWlJQUyopli2ThvDmSl5crP3hho0yfMkVuXbM8o/4XLl6Wk6fOydLFC2T6tClIalTjtOOmAuHLR8zvoP8xD84/dGUcDvL/XPvwA1KDobZmnoGQTNyYy2CHHFiYcY+qp+DnaTMYBPzHRgdksOOsDPZflbGKdZBmeZJ7/oQMP/NVadp+UjqvtkhhdokUYHZRUVorI6c6pOv1Ohk92yAjDWdkoLFNhs91Ss7USpny+z8rY1OGpO/i61I48z5dE3k7+I5cFtvjav1ZYOIBZktLm1y9elXmzZvNaPr09vZLc0urVFVVSnlZiWJwaHBILjU2SwUIJC8/V5qarsjMWTOkAI09vv5btu+S/v5BuXv9WikuNkF3PfgO0/Mwt7neK/5bIZjbO7owaDBVYnFhgcwA0WXZIWfSjxFGC+pZWVkuZahX/Nwc+MNQSR4+UidNzS1y5/p1wB1wGfAemQHo+1H/G2l/r3MK3zFB8+a0/4cV/x1dPfL951+VIvSXVasWi0BLM4aru5WpZpsAIJZGwE6f+v4L0tvfD0a/TPnFAvCRmupKwyH63dPPvSJDw1TN42sJohX0PzQyJO1tHTJlcrUsumWetLa2y8uvbpWxB8ZkyaL5chTCZ8++w7IGeSo0JBweGpbjdfDff1hmzJgi02UKsrLFCKfd8fz3veCfW3X57RnzBLugELA66cxDpRbc9NdfsNMZrFYoK1LwhRFH8ELHYbHP6OiQDHdfhuCAmqx0ISQq1i+QNuelo1J2KUv6BnvgypPqwkIpKMiRwvJiGcAspetoi8gAdhaPoKkaO6WoBGFt3dL31DMy2tkMtVeL9F/aillMdyDxGLoTPX2slCiPWojm8Lgl1H/jpq3ya7/9R3KlrV1TDQ4MySuvb5XP/96fyDPPvwI/q/+uvYfkD//kf5MjJ+rQgEfk87//x2C8VzzXKPNhEMrmbbtBNC9L99Uehf/1bz0tO3fvtzjj4FsBY5yGgqu3RX13+GeO333mBfnC731RfusPvii//T/9J/mVf/+H8nO/9rty8OgJVGtMzpy7IP/l//hLobCzB6kSRXmv8Pv6+mXXngPy0sZN0tjY9COvv9KD1uf67f9+4j+FDwr6kOF/EIPE/QePYrZRLlOn1KD3W/975bWt8q3vPidt7R1Kx9zgs+3N3VJeUiKzpk7Veubk5EBwTJIFmEHMhxAZwcag6opKWTB/li4VaEJ2KuAkLzdHaiE8FsybJXesWyXLliyUBvQRDjq59pKLjUPHTpxCZIPfhEHexcuNUgx+aRqkBE1rxnxZj6XNuvG7wz9z4eGIFHasP7gxLMow6cOsGYWPm2b3mU7S24rPeNdOx5GtfSFtI1wufo/2gMm3N8po8TwVGgKmygXzscI8KaiqkNyKahlrbpR+bCKuzqmSsb5eGc4akZGeHOk8cUWG+3okfwgfrBQVyeBAr+QNDMvgvoNSsGGDCpChpv1SMO0OkZwCHVlnwPdaobhWH5Rdiz6x/LdiSpmXly979h6Uxx7eIN29vXKs7rT09fdK/cUGzEr6pLS0UE6cOqNTylvmzZO60+e0viOoU1tHp9AsLi6SkiIIyNxc+c1f/QzKlCU1mLm0dXbJN779fXngnjsxqpgnpSVlMjgEwYqpcTbWb/r7+7S0ZaXFkp+fH800OSvoQVmYTyFwVlxUrO3HKW8WRj/FRQUB5yIdmF3kghhLkQdJii2lrYXqLl58i3z+V39e5syYBgHZJv/nX/69/Lf/50vylS/93yGWxwaKEL+3DzpPMH0irBi4Z73Y/gwbHBzUKfcIRmFFWqYiyUaHYfv39w9IL8o7gpFJUX4hylIqpcUl8ulPfUwGBvqltqZGBgb7YR+RfMzWelHv4eExKSkuxK8I8Ax+/yDyQR0JvwSztgF05nzM9ArRaWI6ZGyW254J9AdvDUWZ3679k/nQbvE9A8s/hosMI7gpfMMO221c/3csfQjxf/Fyk5w5c0Ee3LBe9h86HvrTmKxauQQziCEpK8XsGQ81Fjt2HZBf+eyn5OWNW9SPNOv9b2hwWHbvOyIrV2IdF30XASCdmH5IZ5y5jGCQPALLMPImjbuU2XDfOginvbJ00UIkHFVNyDD4xqxZ05EPae/9oz+tDMuKQuqaB2GNssSsBesQ1SOyWBp9j39ZQR0xZCQsv5vR0RrIX/2HrkJddVKGRwtkuL9TroIXFeQXS/YIpl9gJAPtbTIpq1DqseOqoG9U8nOHMNnAx4v5Is3DrdK075zU5A7I5PIcMOaBUNxcGQVjEzTKWM6YDPXUg2vWQBAtBswwlQzwo9KjjFZy+LC8eEXuUO35c2fJ5Jpq4cyCwqO3pxcSvkFmzZwhV660yeXGRlmAOKfOYj1mwXwpArNjvYcxqth38JgcPX4SqqFOWQI95McfeVCmTq2RTVt2Ym2nRz79Mx+Vr//Ld6Svt08OHDkm33jyWfnMpx6XQ4dPyOGjdTJ5chWmoqcgqAZBrHfJA/fdiVlYgXR0dsuLr26SI4jDDQ7z5syUBzbcI1On1ciz0IeSMJ/4+ENSWV4OwhuWv/n7r8rypQvl00981OjKEYDKFkKocHPEZIxyqmuq5DYIy1ff2IJNbtjhFhEC25L62ybZ+MZ2OXkG61Mg6vkYFT3x+CPAzyQI0R55dfM2OXDgKITfiEybUoUy3yuLMe3uxDT/+Zdfk5N1Z9HmwzKldrI8/ugG4HC67N8P3W79JeTzMATwWdkL90wIsuMnTuvMbeWKxfKZf/MJqAdLpROC9rXNO2Q34uTn5cmaVcsUB3ffsVbuvfsOCOYcbT+nOzfH059Xn5Gj9oblWu1P30SsOH6UCS2Wi6d3uG6m8AOW30X/+yDhvx+Dps3bdsl999xuDB8tz37B9p9SWxNRSl/foDz/6mZ56IF7pKyEg7qJ/OfU6bM6oJs3axpmERbu9EOKGsRguBG85XhdvnR190gj1OD33HmbFObnAVwW1jVukZ17DmE20qwwmppbZSb6EzmY7obSsmlURL/J+A/ZsZxsH4zvvQvAQiWWRsjwVeRYYzINwzIfz9PL6qbFQnxGwLbbQWzHHem+IAO99bK/bqs8veVJqTt3WIb6u6WzakTaB3qkr7BIajAK7x4dkQ6ooPrABKtKZklJQbl0DEIS4yhgfOQBIQHBQncnvgWBoBnF6DYbM5TRwV4Z7T4PszsUMsBnEeiDl5ohlIaXn3avfw62Bq+7dbXsP3xUR7ltWCegAHngnvWa4DIarwHqqWbo7VdhUaugAFuI8ZX+yPAo9JIHdXo6HQv6L2/cLK9v3a7M/tT5C3Li5FnkNwihApUdZiM1VVVgtPMlG7sYLjc3ySubt0r95cuydMliLec/ff3buqbCUj/19A/l6WdfUH3oKjDQoydPybe/9wPp6UadQTlb39wJPWmbCorTZy/IK5s2y2RMl72Ccf2xCQF1OY7p754DR1Q9dejocXn4gXuxg41KRMTURsySLqz7fOt7z4FxH5DlS26RNRgxvbZpu/zzv3wbdRrBbOyUfP1fv6cC7x4sImL3nhw4fAyzjX55+fXN0P3+UJYvXyQbIACbrrTK5i27VMDWNzTKCczkGK+pqUW27dgDoXtEFkG3Ow/C6V+/80PZtHUXBNKgbN25T77z7HNSPalSli1aIIeOnJDXt72peGG9vf2c7txke2prhwhx/S3E355eY6uDMWNfTaetAe93S/9MqgCCSXt4YkgIS+EDKx8s/G/fc1DVUpwZX7zUgEHRVWnFbH0AWoBuMHgObkbQF46gD3HmUYFZyLn6y+hjV6UFNN/DwS2eXggh9v+5GPSVlZepH19R+4NwBzHTuITB2gksgLe3d8k9d90mcxA/G7xZ1VbQLnCgtwMakVaoyjhAXTAX67LIJFtnMKHrRrkDlwHAe6U/Zq/blpkh/rnryrsFArwjwjdqP5eLjEnijkfpPsLSqFF8jZZ4GYQxfsvReQowR8DsmmXn0Z3y5oWzUoGZRwlG6yfaDsuF4Q65Akn6UDFUGd2tmK4VyRAW08tLJklba49UltRA9TEgHfmYlaDhsjAr6bs6LL2D+TINu68gQhTucF+L5Fy9LPkQOIY5K5zWAC+rSaKIkTVRVyS5ByPbp3/wvJzFGkAdGrMEesw7MQq4DGZ3GXpGCgqqmhZjCpmfm6cdnwKBo+k71q2WehBQU1Or6iypMyVT0x8WyR596D75f//+n6H3nC0PbbhbVUJsmOlTauUTjz0kyzDCmDt7uvy3v/4SBNQVmYpZ0FPff1E23HuHrFu7EjxsVHow6t+BNZPTKN/aFcuwJrMF6xX1SDcTM4VtMgUqoVvXrELtxtc/W1o7OuS1rW+qCqkZQpAL6EshxMYwo1EMKSrHsLPknNSByd++dpUsX7ZYR/kNqP/TP3xRPv+5X0AZeiULKqqpk2uhCpsPwbYAs8l8tB1GTpgpFRYWY3RWjVnFdJmHmVoe4iqigAsySuLDniz57M9+AjreReiIEITb90K3e1LWr1sp+7AYuHDOXPn1z31GF/Gpe2ZHBQr00dpZFUNeSYMAxtc/GZ60Z7a/EUrCjzm9S/onTrWqrPP/z957QOl1XGeCt7v/zjl3oxtooJFzIEASTGASgyhaIi1bkiVZntXKOvb67Kw9e3bsPXtmvWe8s2nOrL1jr49mbcmWZStTjGICmAAQBIicY6MbuXPOab/v3qr33t9ogAAJCSD5qvt/r16lW/fWrVtVt1IUZJI9AivAJ+IWw78p9O9B4zCjqhLzmqcwGmDD0aWrqWqqq6HCZiMxIGvQmaNWoba2GuGwihRyobOjB41Ni8yCSokq2NNNZ5XfZ6EucPXUVEP5mweV7IK5s7WB8PznOYacMIlGZOni+fKDHz8nGZj/KMaiFi7gaTiNPXLTMhYdPzr/k3uZCvmfp1zx2zBwQKlHD3gWbhGQAZ5h/pAAEoqGDwJdZoFaaqgD6qU2SaFePG1MSrl7HKsJdu3dLvu375bx0TOyZ+CSNKFVH0sdlcyxIVmfgzmPvmG51IIRC0Yl+dD9jaUPSQ9a8oz+MaSFiad09JRHkVeMoaxVhB1qL06gT47NRgNDvbnPZ5Bby3f46XLsw2kU7TFTR7995z6dlKKaaAEmvWqqK4Q95wvNLVKM3nA5Co8rlUg/0qQa/jQZGI3k5aJRw/LiMT58rxVNuIJ2wk8D48H4uei1FBRghRMIzSV+6VDTUL/f3tmNHk+39oBeef1txMfoAb2eQkzgsUdQj0ZoFlRquzFpv2blMh1NbLjnTjR4bt4A6YfYYT6ppFgevf9emTGjEuqxYR0h/cMPntG5EMLmj8zI3g9HBycbmzDvYxP9HE7XzKjCqqwhNBb1snblUtmyY6fsPnBIKkpLdJjNSb971q9VlReXGKZnZEpVRYncdfttqirTjkcE/3ysuMrFXAhrVwINTEFhvgxjJckwFip09fRKHSogKwpNbXUV5lww18E8WlY1v+o57cNjHoS2eOGni+XDWaLmTWKEJvy6Pv63tEKAags/HYAYfkCSoGxDipNI4devj/4PQXU8io4iuY0duZ2QYfNQ34rAo339hRD42di7nJDbb1uJ+T/M4SKTnCPsRudp4fzZkA8l2sA0NZ2DWrdCSkqxSou4BMgSM6Zu5a9ITou/qYoKIR9mQMacbDgtT3mVNDVgTG9a4/kqBDgdfGY8CDEFPvNGY0+AQgW2xkMbDURDbfSeYUA/2RMka5lkzVV0ozEYiyYS1n1PYCQA3Qr+xzGBnCl1pWWSP5YiBw8clOZLw1JWnC4t6MUOY5J52+AFWVFcIO1lIzKePipnmpuxmXBEygZTZFZ5imRgQnkYusFOTKImMlKlOhNoUDgHuccYZLgTqqs+9JRNeFouLc8Mp2RSHDSDQY6j2BSg4aCqZtv7ezCHMIp5iSckC4wyEz2H4yffxfDykqxft1ongZmKxiUNg0TMwuPujbKEasWgtjCgwmcCjGHXPfLNVK2hyc7OkDSotii0716H5c0IyKV9nAOYXTdLsjAnchsajWdfeh0TcvvkEkYTjz54HxNQYznh0+DnYRK/vn621M+uVX9OgL8KfW1DQ5MuFaQj4XNSOg29pAXz5oAW3IyJoTV6VY88eK8KczZuX/7ib0BPCzVeS4ts3rpTWtratIGYN3eOfO3Ln8eS3A782jFvsVWazpyX//6//RbwBF4B/qQZlywalTRDhI8f5zM439OHXt0glj5mowPRjcZkFPMrxAVt9jRmKv9ZWvY0v2spf0v6RvB/DN9oyefHj/7s0Cm/4JmRiW0F6NxUV+GEi0QqRvk1If9hxA3lhOKYl5+DTtRahCuTBOpPGuYSF0LlyuXvrLNKh4D/jSrZ0LQsh4qXjRHNVP6jhiIzJ1NXXN27fp00t7ZiRF+hdYHqXO10aswbz/+cnNeiY/quk4z2ioB8u6JWesPQncZXaEPFOekrEgvfJuTUg2j76C7keH+zUoM9zlQIivkg+oLaKumFHnBwdELOtg7I0OC4zENve/2scrl3zUypWlopZWtqpGAFevIzMqUXk+UdvSPS2jciDRAkxTzfChO4u1vPYpVOL9DD2VgY+rFVnBjq0WW7lh8Adflh7z7Io8sbX97Vh/MR2FM+xslr5HPpYghPhOXELlcYceQxH0LVevfE3yPt8TcXHRERcTAL13VbHrBaCg3CufMX8LuEmNazYRKWSpgWGbeooFBWY2jMDUTsudTVzYCQ7sA8wWG3MmtSblu9DKq0cfnRz14Urv6ibtVMkKjCZrkNYLK+AaMJqob2YN7j5Y1vQlCn6uonhWwtF3r8tXArllaMEjm5Tv3rCUz6vY05B+423freLp2LKcFKufW3r5FKLGPkxP4wJvt/9twv5aXX3kIvbaY8cM8dGO2UgOFxdhk6Z2oUBqEhR1oAYT5dy4k9IPmyFIsOjhw9Jc+/tFG2Yf7jpdfeAO7tjAV8XFr4CqwspfBD0/ff11v+N4r/Y/hWTh93+udipeHcuXWSgxH91eRfOvaocdTBBR9kRu6l4l6PkiLu9aBRhsfbGJVfmWiY5kDlzHrm3aP8t2b1Uuwfy0C9EzRK5bJy+RLhMmCqiOug4i7yp4P8CvhfWwFfrVBv+YcuO7NNBFxtczjxy6wM5hsQOEaM1n0XPkTSUoo0qhp/chTCHLrs1FQK+Eld2kYhOIxRxEQKdpvDraIyT1ZgfqMIOzdHswsku7xSyiE8irCaqKTsjKScOy+9l7CeOjdFurEC682WPslDobT1YmRyYJcsrZktdZU1Ck+guprEiiwazT/yqTi5TIf4eQSci/v0/nesWyF/+Z1x6DyroHYp0/Rqa6qw0qhEyouLMXys0olvetjlKEZYRzylHGeSSA/inZqKRkKJL/LUZx/BxPAL8pd/+135o9//OlJAoAh8+2B6SBtM8ke//7vyt9/9Z/n3/8dfodeD41kQ+MH775ZCrK5i2OqKCkzE18srm96WP/6Db+qqDnhMg/+kNKHB+s73/kV7QcxXBlZzfPPrv42KMUtOYUkinDRNTvo/8dhDmPt5Tf7i//rPmqXhoVH5MuYnMpAnqqfOnrskf/F//rWmMYHR5aOf2aDMXddRo6u0OIGeQEMzNDyCYfZDUlCUizy5fkuA8BT6O/jZGKXed+8dmLjvl3fe3aFLhBdBVcZKqas9mE01IY9qSo6O9Poo5c/YN4L/tfyRF78s3mFLF2YRZgr+cDGfGH5M/5C3lVXc43rk70flP5YBTVSup2CilPvuVLDhVg9d0aKhQu52bG0O+oz4KdPrNxJPcmcqcGBPH/+9B78LO7ucGBlAxXQCusPn9x+T7YfPSsO+i5LaOywPLCmV29BgVM2cK3lllVjCOyTlNbOgd++UxuPHpAW99DaoYwZyRyS1JEXe3NEG3XhC5i8ukFmzsLEG52DdOWeFFOeUK5LZszZIRtlKXwsVrekeFJRG3AibOlw4eduEJaX5GEqWl9uyPBKso7sTIyUsG0YjwgliJsB9CM1Q2XBymJt9uDGwE3MV3H9RUlyo8xVcu12KFVAc+vZjoo0rK0YxWuARBAPYQ8IeOzcUJbDai6MbpldcXIKhLPatoN2hOqoFKqAh7I0ox/wChTcn2RwC8nff/zGW7W6Sv/+b/x0rubDSytE/ijfnT3p6bIc53Yk/VUPFUBWyZ0W43GHO+ZQ8DNk559KJ1SUXMPnPpciVmLzn0mPiTRwZliupuFS4FLtouSQ3B2oxrlFvxUiDK9O4f4VDfS5/zkKD39PTq3tASjFfNDAwLH1YLVdeVoTGDLSEOY8FCUy/DPQdRrq93V3AGfwDXiKN/uI//j/y6EMb5Dd/41HQ2pYxXo3/NNErPK5W/oxirBB5Ot6w5PCh31fn/yuAVucYvmffy+sfCRShvNlj+ms9MJ769fAfV5oOovOHXixGHGjMsO5F5zzsfKtIwVmugieqRWDUrj1nJOArjQ+g70hPKRBcpkrSCNwBg3mPAQiAntFJKYFw6qS6pCBTKsZT5btvH5F1t+XLvQtSpCQ7FQOIHknBGVez5y+Q+iVL5cThg7reP7UiRWYuLpRdB7plFhTfZVUZUFqNysGmBrl7cbGkUT0EUNZgRrhNrZFvBnH5n659T4Pgr6+biVCMY8mRcFTBJLf8okPZObm1CGkJsgEIh6DII4R9yP0YQGEtOOcS2POnvj8zE2fl4F8NwHHCnfMr3oGT8tWV5RgBlXL6SNI4fnV5b8US3YNcwvrOu1ihtEr3eoQNRwRfWEvRSJSiMbuS4abEmhnVQdqZGJVUQfBXYGRDBLhsUHFEWhwBVeNokypM4PGoBu/HbKUnMnRCng0Nx2X08/gXoWHyuBYWpqOhih6DIliUgN25CM75lTfe3iq/wBLlRx9+QOZDZfDW5m3S1t4lC+qx0RTwIwWo+Qs4OeC/ZPynFtzVyh8JehLTavbr5v8YfkBFJUWEHqSp4+Hp6l9Ac1pgNGhMf61/1y5/I/T+kPRnNP640or1h+r3QG1FcTAJYaRpu1IK7GpxJUw/GCtEWNTPQvJJnyCkYaduk2ggUjG3wZ48tkPIEgjBinysmEFPdgd0ds1nWrDbuUqWQz+eXValE9Q96HUnJkZUjXJxFBOnWFlViWmOauyY3vT2OWnOm8RxJqkynsq7PUSGxoeltAjnT+H4k4qCmejx+5wQO8uzyRPvrtHcI8TB4+bjWOTkOD7MNeN/FYb9SPUAAEAASURBVPhsOBwhg3ySiFeCz/BpvsZpoEnZieM+vvfDZ4TLALlznEI9TOHG4I921GNxWflrqWuj4nhDgxoG3MNCG8310p+Ti+uwNJnLnv8Be0u6MWqqwZzTH37r61gNN59NElPFz3C8Iv9piOuHr+WsyasNqZjRLz7UL4Yf0/+TzX9av8HvvhZQ/KR0dlNthYYDAj0Vb058BsaPp30doYfVkyBIYJnqnvQ9KX0nnsFS3Uu6956by/ibRMPBSe7dG/dK16VOqYR6JisvHw3CqPS0XULDghELctk7jPwVV8u5th45jz0NRekTcuBCpxzEjvIB6N//5F+vlJMnO6QqF73gygxZVbdAFlStkLw5D0sGdpqr0fz4TLl38uty3G4Y/shBDB/cFtPfql8y43mqXFa3Yv4DuUxcXZFGXgAFAZzDtN/e0b2TX3H99+QJaAoHR/9eqOS5KZKrIqlBSIU7hhpupMDWwzcrPjICML0kMzUMPDWMukdCTwmXmoUVBIClIVgpVKeEM6ug6hiD/j8V37nFZZJXPRcNC/aCQPdePnOWqiXyc6D7Th+TJeUJWb+wAjs4s6Qf667TMJKZUZ0nW7eflxE0RrVVJbqSp6dzWNIysLwO9314wx6vdnvVwWVOhZlDWyuqD+3eNxD/GH5M/5j/vFCI65+JIZOXSo2PifyxtsTKzy95wbDDFywruROeeBlil7crFiKCvDpM09g49/R8rIemsEYj4Y8xZtvF9DOKcNAd1FmtFy/KuSN7pOPCeekc4AwGlqXh1kDuZSyrqMaE6wydQE3FuuksqDNyMdHciWW7u/fgnKyeVKnJLZfVdfNlZlmFpGSVSFpWOIpSPDyKzIYi6R2QCaOK5vbG4+/o58HF8GP6x/zHSmf1jc+4/oW0MLGq30ohfEcoFYZzgir0u5L8/ejyx2usrY1jBv0Oc1rZNYaPOvvcaEh8+O9IttXKOM7PkgumKi2kOWpjlJaD+yJwB/nEaLcJDviNozHhlvzy4hy5iAmY861YmQS3Iow0ikpKca/HIFbhjKLpwMm5w4M4hTdN+rC7ub27T9bOLJZFmHG9UJ4pB062SQ1WHS3GJG8WdjKnZmRLWjZWXCXcJKzmgw9mxUZafPrsWWbVUzuHAR/fQPxNZRPDj+kf8x9FRlz/Pl7yR6UnFyBhsRANc6+rrVSdhFlsFqhvJ1SwhlJUg2usqMT1gQPfiAMD+0+87crYRTjAcIe668Y5zGlMQEBzd3QaJs2LC4qlG2eIFc6fL8U4l2lsoA8re49JR8s5OdvUpLvIL7VglIHjeOfOKJYH754jPdho90ZRk/zW7Yskk0s2YRJoODJ0wlzbS5cPy4w+zWrynHaPE+zOy5xuIP4+ZU3fAVGtGe0xfCMPaOFIE9MfbGELKWAJGCTZGhCLYRks6hD9VM9ICEfkmP8cyeL6Z6wDvnCsMU39AxdCnHqe4bhBGw8en4GZ64jx/UPvhJARAntXfau794RLYA0s5sT1wUX1Msr7ygeaudvD/th45OFE2vRUvYmvHMtCSypnSSk2/PVjL0VPPybW+0ZloA+n2uKuh2YcTFZakiWVswqkvLpIZmBLfwlWbdXk4wwpjGJSU7Mlo7he0nEDoTc+J/5Nd7V7Svm3jwBfNqPcha3HY3Afh4vM1yjWO7PR40m62tx6igYJJ1l81ODN0zU1XT2mAGGvAJ+pmPnw9Oe+Eh7roXdjoDH0oK6EP/d4cEUcjwEJzYeHzzQc6YJ34OYz498BwF8B/0Xycb3wLza36YGdJVhqXYNNk1HDDZPjuOCMdy6kcjmaRxYWDly5R4abY3n7HFUzHtUr0d/SDvHnyQa8k8X2ssDXJ+AzoQkFQJPg+8D0ncDilE7s/OdEJ/ccXSt8AwOgHsQ08Edx8jH3KvGImyBcaAlsPgmmeSPhBxItSDjJEsMHOVhsH4X+FHGqnWID4shr3E4POiB5AvBfasVD3RDA/MzV23UiOMrRllAkDVYEGujIsrEJrGwZNphA6LJm8YdmhBvqCoqzIKx7ZKgHRx6f2Ct9l87JZD+OVe/DrYG8KAqHgfUMjUkmGppV62bJwpUzca4V7nHAju0ZPDAPaRFSRiGW+pYvxVDHNpsx1z5LUY2gd6O/ZkPzyC8a8+X9G8dPNJobnOjHW8AOHDmBeziO4UwZ3CGiQcPUAmCB5XL47+EgyFM4Q8rMleHT/xx2b/P6Szbwljcfy70/AH5Xd7dsfPNdbPzDqb6RFBhtDBX+FO4joYCjYUNzGEdG83DFqFG4iPBh4DOWZhEJevgTgNOGTYUtOL6a/leiv8/DGMK3tLfrESnezeflw9Cfafg8fRD8jo5ueQ7Hopw6ew7l0OPBB7Q4cOQ4bpZ8S4/GVs8g4RScODwoW7Arfvv7e3VDpMf/euDvwHHgDY04GBR7ozzOjO/tV8OfvDuEjgOzpPdj79qrx9mT4EE2r4H+CgsRPMwo/DE0jKcaz8mW93bSOUJYDyGE9WHwZ5JXg381/BmXsX1OYvhhCXqakD4fVP8Yi6MOL4H0G27oiGDplTKGJaydaCsuUh7GER/eBtCFM8+gYNznNK8wm7zVKVE8Dxc1LUGGcaGTY2LubE/DyKO7pwuXFHESfUjamw7I+cPvStu5QzLQ26a7m09jOW8+DlCsqSlELweXIOrkOw7I47JfZCsdR7nn1d4lCUyWhyYCHylb7uELi8fEtFPuS19mPwHB2tzWajjCiSkRZjMPAcTVkLpnJQR0Bdvl8E/jfKo27Lx2EN1cofvSl9mZ4LZdu7Hb+gIku68EPpaBi6Y+XQZ4Yu6xUw1oGBgvGX/eSrjprW3YKW83BBK3lkutchY7+UNzA8vfwR/Fxr8jRxtwdPUJzdOV6G95mNQd74cPnZATEIZhqZnvB+HvudaHDigLi6fk1eA3nj2r9zWsv22VzJ7JQ/B8LEvxEs4327PvoBw7hguv0LHwhvzYil35m9/dhbsdzmnPfCr9fUofBJ93yfBUA8PVxzJIV8P/xdfeRKOGDhhMJkY+C+fNldk4Fl9pgmR8SleDz1AKA4Gng0+e4eVoDWhApjfRHCbz342AH009hj8dBaIU+vD05948O7DV+IFtRoJM7gtRQSssA2JgQ+AM5wfejGdMZ/GjMTRBRtMIbK98LMy3ZORJZtVqLKnFdaPN+yD32fJxBRaO3mjrlRIcy12Goy0mec46zqfiKbtnOvql6WKntGKL/O3FOEsKmwV5VWlaAinzAiaMPrIxqimc+xnJLHKVg8hMA9+wscyHmDGw+9KXIzLjW9eGATQ5Ik3nCV5KhThncTlMT+8A5m3ScHtgAw4qS9WTeOt42iYCEnveM3zk6Ek9jmThAqjucFQHaccUSEfe1McbBHn2Uw2OSF+MEzJZ2ffjTCgKpd7uAahNOuS++3ARFUwH7hPYu/+oXkfLc7Z4LDqPL2GKetfyviNynsfF48KZWhw+SRgu9w5L7LsBLXfuOSgNaMjeeOc9PR2UJ3py0zpPLD6A/DRCIBTi2OmluOyqFIeuaTJI6TBGXidPnVE1I6/Q5am+dhGNEs9AwcrjW3hT4vmLrXpS6OpVS7HzPU+ONzTiwqjDqvrLgdpxEW4dJJwzuN6XF1T19+N6WiyAWLsGo1QQ6sRJhj+KwWRC0nGC8kLsym9B48sTmnkRTipoPj6GVXf7jupdCNy93o1LrI4cPmnHuyDvK3FdaAHOSSPdNYOwePrzPpNDwIm9c0//LBz5rpdl7cHBkyiXwyi/BTigMTjiHsSwtHB0Po5S3XvwkKxetQSja8wowo8743mI5Sjy5UqagHUEchiN5nmMKLk7fhnuZiCvjGHpOY9k6cBIcRy83Y4GY9XSRUgL/OYIz9fR4w16DM7qlTgEE41V45mzev0xN40unD8XtzRWo07hPpT3d+nGSt6AV19fJ8uXzEdnB40bTnjh3qqj4FWqXdswsmIDyGNi7ly3ym0uxagJKlvelc0b6ypwLE8RzhKbgFpuzqwZOkd5Wf23XqfiyDtejpw8Ledxflo+7tlZtWIZVGU8fw3gMVrnjZSnG86hw5iGsq/XmyVZb1iXeqGW5skEpBFPOliJGyVn4AQDmj50ck6cbABel1RNuHrFIj3KhwVxrfLHONQKz+yaNB7uS1/R1MJQpL+XZJfhr7XDhbWArh4kyz8L8TGFT5UVaE30JiH/TG3FD/2DxRl/N4b/Jm1DMsI1wizmHvH1fvr25EYcQkUqaRmlklt7j+RUroGeGJPcKAmqTHiR0tv7GmXr7oPSeO6cnL7QKntOt8j+hks4/HBACiA48jGxzoQmcK0puuOaZmZelZQs+5JklcwHcqi8V4XP6D6vmiE4MJnQzm/ir6F8ULzV6oNxgQHgnD/fLO9sfk82vfmeCkAy1c+ff0XVXcwHL6d/deNmvS0vH0LmPagwmi/hbhMGBEyeqvuDHz2L28YGcMBhnt7Ct3XHThnD3APvPudxzpk4HDAHu+oJnw3HD3/6AoRLh1bMfTgRd/PW7ajsQ6pbf+HlN3B8y34V9oOYI3pt0xaNl5R34E/9vB3znqJ3jmRi4QEN991cwFHzvA42D8enHDlxSq/P7ent1XTeQkPz+ptbcfxzLo6IT5FfvvIWrs89ipgKQdNQ+gO9F17epKfhzsBJuyMQwD/6yfO412AQCxsyVTDwuHeegUXhz/vhf/7Cqzi/akQqsV/n0JFj8tIrb+q5YDwehUdhZzE85hZ4ZEwDFlCcQiPEzaaEPDwyjhscD0Cv3yPdvT0oE6gcG05DaBXhGPhzsnHTVr32VzMYKX/eDPf8S5v0hGLq7Hfs3q+XZPEsHy7k4Iml3K3Pe+AzMCoOjOMxwl6EDkFrW6eeU6b+8GND1IANrfNwhArnGRhudHhUXgEv7Np1CPTL107Q91H25CF2KDgiffX1zTi1uEGvGOVhlQFZkcAB3J39wi836XlqY5hn4e2PvCebx9Sw8eG9KScgtHlCc35OnnYEcnDuGfloFKrJ0w1n0UBf0L1QB9EYPo/yae/oFF49sBWq1Jdff0ezz7so3gZP74TKjEfo8P7u1wBn/wGe4GyHjfo6Rrz486fl9uIAy9fe3CwHcaVyAY4l51H838dNk7xymVccv797n7y+cSs6Rxk6ouQ1AGy4OV9JOOStbTt3a6PQCV7/6XMv6+2UnIvbgasR9kClyns0WMYv/HKjNjaEHxKKVldJ9T1V/sA/Uv6MSTNd/Tcf9wQQg+O/HQx8fmrgs4fv0Yb8g+7HsOcxD9ammL9f6eHPXSLJXFBaETaJlEl+Sk4NHIZJ+kQdTM0qlrzZD0HFVC49TW9hCe+EVJcXysDwhGw52ITrGBvZNLCLjwYjXWaX5qtaYC8OURwaGMXR4MVSUY0TeOetl7IlT+qIxuf5A+G7bOmIyCEVxcfyCmogHPekeONtjO7Dc96ABw1+46tP4xbAcs0jBd3bW7bLnNk1EASNeqHTo5+5T08SXoSrI7/T9ENUNrJrChqMQnnysw+hxzxHs00BxlvButEDm88eOYTMAvSuV6GXxay8j/uLeeDhFz73GRWivN9jJxpbHuvOO5HPovf+W7/5uFTivhT2zF/HfMdBVk4iwYzT4M1NmAvQU83KfBe98sV6yCJ7prxJkILtc489gJEFFi/gxIEDB7DiDTcNjqCMduBO99/54pN6yCEFN+9Lf2/nHlmCu9LZ+JtJ0ZFNIw6UfAoHF86eWau93jNnzmMEkiWZuINgBvJNeEsWzUNDhrugy8rl8zi9l5fcsMHkLW3fx3Ern310g44GeMFWZmaW3gnPXjaPnh/DnR7aBgMo6UkBSSHUhQvFeFHW6hWLcZ3vfNyRsFAo1FguahwdBjAyOnzkpOL7hSce1kUMc+fUynO/fAPHwM/HYZs1Uge69qEseBy2dkwshaD8yRP5OJ+Nt0nu3nsYjUUd8sBOBfgUasE1K5ZiZIBrkREuFY0PRxold63TcqWQP3uuWQ4fPyn3la5TYcrj7z8HOuSgw8BGVc8LA5B9bDjQUH/jd76go4s2HJHPBn7dmpWyeuVi5Y13wHNHMDKpwWiTuP/02V/qHfZ1M2v0lrsRNFCpY6h8EKqcr5uFcrn7jjXaQHDk8aNnXsItmA8qPzPPtM/C/dg8/PIXuCeGB1iSzjSe/+3LZAPdqVrkzXr34b5vHhNOVd5Lr76NK5ZxGyZGMJvf3SlPPPKAliPVvpsxr8jRVC1G3JzU5z0tvEmzEJ2TZRjx/tMPn5Um1IeZs6qhHsN5Zhh1rscNn8wTR0U80JOG+fDsrTZ1CF2SPp3zB9V/TRf4erkSheHxZxiaqN8nEb7KQkx8eIoSfx6QCCFJQYmedMAYRhCSxBNO7UFU5x+hmE/Uk5HAtDEyS3JMwgHMVPRAc2rXSWb5fKnuwDzF7s1gZBzHjgZkAr0pruAgg80ozcV1talyGsex97Tjjt+0PskvXSHL1n1bymcvQGZC6NcDX2NFozoWCJwijOPxjzING2KamVAdlWDSniuoeCfGEgiSXVAJkbl7uvtxZEppcAteJdQxPJWWPX/CYe+sGhVnP3raLbje9SSOQ+dpslRJsMeq4ZAme9uQJJjgPgthlYNrWjFBCdqyl8h7kvsgHAeo7gEs3v1BlQCWE+id34eOHie5Q+PwYpp053Hveg4YWifeD1CKo+az0VslzlT1pCKtcQgejpISGNlRaJ1Er5/wuzEi6YOaohu69TIIPsZhefC+A+L6zC9ekdvWLFXV2tz62cDHJurtkETgBQFJU1wCODhuhiMQnsR7uumM0oBzNSkIQ2oxjtJBY6DxdfTnp6HH5yROIIB6CnE2vvUu7nTvRsM2F41SOeK6ReqO/3jcQicmwdlIsCfMuHWzanVlGq/apQqL9OCkYAiX0JwhqjQAuw4qNt7E+MRjGxAnXRdU8G56rlrjCJV0Zlr1uA+F6hmqhFoxV9CE0UkVRmZcEMFVVYW4joDla8bq34Fjx3D3dYP8/je+IrzNkoYr6M6cvainHve9azc8km6dmDccwQgnH6MJ4sO7c0g3K3/HvcQffhU4sZhqOMItKy/RC7eoAWhHOlzEMqeuBnGx0ksb80qMInATqKM084AkAqP0x3cbR8S5eXqvC8uWNH/6yc9oOHaKqLZaDPUf6wquSNKGsBmjth6oGZkgT4rORQeDtOLINB/qssHRYR0FM69bcD0xOwZLl8zTDkY6wtAofLUxU9bx+yD5o3HCiIhncUOnX638+1jBV5kBelBZ5Yw2Huzdg3dh6KEWvIkafkpPI2rUB56UHSwmF1ZdArsShvFp0Yh4eAnm34wCk5pRKOue/KaMP/o1aT99SKp3bpPe5rPShZvpxqF6qags1H0i1algynlLZen6e6SwrBoRo/llSmFergd+OLoKMou0IDAgBCbQE/LpMvUx9Oa57kWFHzVkIByFb4ioCTmmRN2zGhLKCSx+8zh2C48e5aGj8sxzr0k9JjKp2+XNY5zkVrrhYeVCyDy0chJXs45I2lAK5lm4AguuEPj1uGSmAneNnMYEP+/NYCTCZ4AUVFIVspERVFAODEOjwoQWR0/eOaLGiQrNRApUK+PC3mtPf58eGa/wEW7tqmWuBxjSnw3flzFC2Qf1BRubre/t1uPYv/rl38A95qjwjOwM6b8DV/1uens7eqDlKng4z8IlsgStS8kVf9gRx2JimQWvHlYXusOGsmGOi4ry5YlHN6jK7DBgv711B+ah5spnH3tQ1WQef6ULYCcCfmTKWO4NEnIEo1QkQAdVrQF85ot5Mddq3HFdhx7/tvf26PXFXHTw2EP3qCrG0583IP7ixdelAycCs5HiKIOjBI4ulMRIzWB5LPENK+/MnlVTK29iZMGGLgtzFSyyIfBCP25YtNEArjDGvFd11Txt+JmSlh5xY3Ja/uAgfFqHkO72rfzPMA7+RAroiAaHJ6ca6syfYUqqeBPFn26kP4dYqWnW6dH0AIb1gNlgB4QdEa07LpEUhNVImj/YQQh2ZM04+IDJpdAP3HcnGvQqOXT0BEalz+m82JeffhwjR5tPcZnVqEzVw7csI9++nP1bwzDfwE/dGMvjRzt+/NTC8SWtrhozxN+gfbLh26G5LH/WbRqorchiqIg68iD6+JpCP08uTyKNiYd929OiKLsm05+BNUgYO5q8edMPvV7sDi9fuEYqFqyhswdg9is+bxx8Aoziz95qw5mz2OU+KHnZ6A1CCrRDXdAF1VNtDXqr2KcBUkor9LrsObG3TXVKY+MFVOQcKUVvLgvqB06CDqBBYC+0ByqQZqzCqZ+cpRjtO3Bcr4998nMPaiXbDrXUKUwQq56DIVB/RqDPV/UFKvQsnCibjaH6Iw/fpzpz3i9OPXQueqtd0Pcfgi67r2dAcjERzXvTm5rOWpsQqTCe/soEHOGNYMmxAmTzBIBcDMBAJC2tjkd4PzlxvvdO3kNeDr9JHVlRKPDaTR+FFqoV2ru6ZAUm4dkrZ2/x//27f8Zc0GmoquZrXKqtOMdCNdS+w0egjlgpd+N6zXT0WE9AbcJMWAUFXzEfaLyoVuP9KNz30I5y4B0fCbV34o71Ic0D916w971i+UK5Y91KHc088/xrsgF3hnCOxePPm9tyMQ9FvfwIJrbT0Vlo6+jBEtshKSnEsf7snJAG9nBPfpuhF+lFrifl1uPa0Z8/9wr4ZUjmQCXEu0g450WSEgEuu2a+vvjU49rjHoOa7TBuSNT4rtIp/Yk0DV/43QOaLMVo9nv/8nPMYb0jjz+8AeWA2+PAC8uXLtGGkeK2G+XPPGdDvUckKfu5B0MbX1/+cGdY5teISujIv4PP2yFLi4qRzzHMFZ1VYc3J/0toyIdx7bPLGVKw7IX4wwFx8zFv13q6G/e/dEsWOgJULR47CVUaLlPjNQYTmJs5A1UgJ/ZZlq2tXdqZyM7lSNfoGfCf5hFuoAfT4Whr7pyZsgqLH9rRAP+X7/8I80y40ye/QPmEOdL8+QL2mdW3/yAMM97FYtE1uf5rYpG4PryLbrDc09L85MIn7sFPSQW1lTERfMhpICvJp0ylFDKSaDSNYISPEtGcVeSGntEATAeByJyOtAZDs0LocNXwFulWgr/+9lXyj5jse23jFr2siWvtj2N/Bpc3z6vnCiO0xui1DI8OyfvoOXO1Cye+92Il0RqsLOIEOe843oah9rYdu1GBKrFs87xOhjMuCVMJNdM5zFMcg654BGqUE5igHsHQ3lrwSZ3f4MQrL3xavmyBrFy5RDZufAcrpfZDFVYopzEZ3Ise7T3r1+q9Izsxabx1+07VrfcjPequKS28cGBxKI3xzIA6gpOPe/YfksWjOBMMahquXtOi0eJg6bKE8ASetTUYGSHMW5iMXr4MczCo/AewhDYHx8lQT2+NkQJQvfeLmLxfMHe24t0O9RAbvVJMYHO1XEF+Lk5CboS++5TSqKq8Aiuo2uXk6QZmVidGCZs/Tlhzk+MZ9OaPAZ85EDwUPnsPHJHtO/fq3STHkZbRVPQO9S3bdmnPlKvNzjSdhyAv0oYPCQb4c16BwuhdTBa/v+ugqh6Pgv5c6VVVRdUiQ5N57UVC0KqkoRcMOZgNL90WYo6Kqppdew/I733lKfXXh6M/FxlQBdSIBp0qsw50RM5jyTdXzFkLg7Q9/TWiAeaEeB7o9aWnnxBOsJeXlkJtgzmZmTP0CmFuUqR6aR9W2dWgjO7EnAA3JdZgJLsfixnQ15eSiqIg316NRj7gn3kosqDhpF5WVg+66EotjIj7MPl/CVqAYm4u9I2Qwy6KP9sf8jvvqSdPdfXNREerB/TdI1/90pNSjsZjyeIF8g5Ggqwfw1g9xf1OhFWMBkvkDLIyPf+xY8S9JGnovCxE3WvDaIwXl3Ehg9Ef+feFEy0g5hPuH0f5YwgRgZDxPIp0pbHvX738Zf1XeEH5o9P3b//0T/+cjpzk47WepuumCw1LwYkaVyBTy8W+r+CpabDgmIoLo3lQB03bCzIlgj5cOI1L+82DzyWYtZgw5DWrpxpOowK16Z3ad6xbrfMcHOpyghoyVIXwUeilL0FXvmhePXq8q1SQFEJnm4YebmPjWawgwz0jqEBVFZVayXk5VCkmpC9ib8VJVCL2znkzIYfmVINwpFKAZacXL2Gfy6VLumyRd3qzjDjJeAbX8rJQeZcxRyTU2/Oq3LPo2XHupAsT+bevWaHzH5yQV/19hP5cKpqH0dIp5I2qsrmz6/SWPqY/E+mR9qNQOXD+hXp56p8JpxlLW4kr53T83eW2g10LTR8UXuzln4SwbwSN2nFZFQXGEixDToPairhxZRRX+1SUlWljcPFii+aFNFyMCWsuJV20cJ6uzMoGbp1d3dKFifsKXIY1A/ThSPA0GgZehLUcai4KEu7F4E2MFOJsWDlJP4L83wWBWgnaWANj/MdOQD6EMm8v5MIGCr0sCKS77lijvWSW7xBGCkyL90/TRLmT3zyFgGXC+R02DLw2l3jfiY4H56u4SogjpVk4d43XK1PAnsCqJ84fcZ8TlymzsaLakTck5gA+51rMQD2J+ST6l0FwczlzEWCxwZmPRpl04FzX8ZNNchHLvYk377HnfAfrOPmrAWXLkTMn8rkZtAjzQeVYTKE3N2JkXIbGnPnk/CLPjePiiXQI6KrKChs9QvgXYT4vG2XBcJyzYdmFBp0nrKRjR2QOGhqu0OPqrXNYsacLP7CrfT3oSfqR/2YAT17kdRyrwrjQpB4LFAiTPMel3Vyey0l60pySsV9v6yzVjg354SzqEMucKsC1a5Zrw6N8zQxNLRyXyY+r/DGEbp78i8LnXBU1BZTjrBf64zW07D1wYhJaET26IGQMT32UIrkRLyuIy0Jc0QFRXJkSStCEXB4+DDiN382Fz+E1V+bQZIHJuUTVmy3cBAYh/tTnHkHlIq4p0M/aChCG8WhxyA8S62nArIRRQ50wjyzhHgaqI6YarkLhwgGqajz9ucqLgonLOe3ipzAWOwIUanpmGOY8LLdXpj9VbYiCVU6ci5nG0HNK+Ss9ILz1SIppongnzpMMg3ZZWDGXhvyHlEOHBTjx+H2uEiPl8KVLXCkkeAlUYBx80okCl+HJvDTccEh6BgIkiGR+w2B6HpaZSLASXpn/uD+GlYMNiQquSDpKnCn4R72vZvflT07w8LkKixPTbGQ8HgGjTJfYNPT3wXTki7wzSCb4x4++vD935zNMOhZdePjeL+kdZlTVoLzHnqOdGtwgSXXRq1jynQXBvgF7jbi67IMM8SOeXLGXoavwQvxZ5uRd8hSXYSsNIvAvSzuCP/lpFHHTUU4cwX6QCZMN4U8bJwx4uXcEvq9/lwea3iVM9uMNn6pYXaaNusc5Qna8oLYiW6MisksUrdlKMBKEfs6DVkejkCjOIfqipzM+KmP6uIFIRbigMEJPi3kLwWfP0W8O83h5/ClwOQ9A0ZSNeQY10+CfCQEWGhfb4c8lmew1J5kI/pyQt0n5kP5crZKTcPCSIlIBgr0bUHMlmyvTn2ldZiLwpyt/9rCnFlmQRgT/dOQ9fSpuTlJS0KX41b2IzDVVgWCaBj7p5JtdR0HtJQdwvcXBZ2PLXrQ3YX5dbLw8/+meCgnDWoPBmIjlmZhWlxhT4N6FYQpBbxxc/2lxDRb5I/Q2N+59MfhMFW7upfGj+MMh9GI52gyVz4uHh7UlUwxCsF4jxnTwCXI6+JxH4wbJFozouEGQjQfn+dbgRkcKkHHMZ2GwrXlKAkhQSYabVjGpfxX4XC1onHl9+HM/EPFnw8Pl7EEjTPiRfPiiMxr4zDEAYuPly18T8958R+nvEyE5XRiXQjRGaP8Ewle8FX9fWrrQBEztkSVHeOMIlkwk94WXeid7+pjwNA/v7d9BAF9impmIb8TqK2zUybgCkeB4q8CnOoD3inO4HZhPEf5BbQqQh+VTgD978ycwz9LABQlTDOcUOMlL3mVjFwpaE+H+gDkTUAjF+kATsYKIOv+gi5DMVwOw+SRsjeLrQeBvlo8Kn+lzMyfnGVoxL0ND9Ss3GLZgccGvGr7D4prw5yj10Yfuxcgy0gH6FPDfr1v+kZfZ/SE/s70gfBxP4tibvuqDt+Nl2KLW4Mtk/xU4F6H88NgnY9XIfzEZArNvH5YVR538G580kVjB160En3pm/qLG4+Tz/knGP4q3t3868BddZssNlaxUUaMs7AtfvTxTX/621Upwp1dyS+Oqw9RRgwVVnkINtiW0jBwahfIpgc+9IlPVwJ8O/kMpawsSlru3/Srx1wXs5DswbArnPCYgzHnGFCfMS0q4Zpqc5xnS2U1ie87VfCqT+hxreB/Pc27gGViCOGoJvgL/EAD9aGL4SpOY/gErKEuAM5K5x3/5tzLPZY/AVy3BVyScd+ObJua/mP/AC5/y+sc7lIa4VBubhLlNjapx3fkR9IxV5nvBz3doJ+3U+Lf6+grmKxxDhAE4vDUT9s3U15WFhtUgPlw0PkP6tJDD0OrSpK+Px/flAWL4IX28TamED6MnvtTD+8b0T+ajkKdi/nPVzpNEa5znG769h3+DteL674j2SZJ/KGv9Z+OBsp7QmmGOgTwOLUqAkCUcPSKuHCbReF7x72ASC+knxcdH8A2Lj2+J6JOpeYu+g/DTuPr4Hq5/x/Ad1WL6h/xG/gFZAn6CxfOPslbAdoFFnYPw+uUf5urje77z75j/HNVi/gv5jawDsgT8BIvnH+WqgO0CizoH4fXLP8zVx/d85983nP+SMmGaqhARrCrSdkQFdxjS0HDI+Jz5/OPtQ3oVnH9bEMRzATQFPFxKQQo+Ph1i+EoFPEKqGL0c1WL6k0BJxlPK851/WyDQLeY/JYVyEB6OkwIaevrRIa5/SgU8QqoYvRzVPsX1T6eqFX/QBv+RHQv4xrp9IxmeAYf5ds18ojtMPR01aBCexI8axjNPTQEPSykaxtsjsIL0Im5MKSIZYvhGt5j+ZAzPQ1PfMf954sT1D7wRy58PJX9titzLX5PJXN8RSHO/vNC7RUS+OkWCwooEUBAM45kyCHSZxc9OhDVcbeGni+HDWaLmrakHKYZfMfyY/jH/sY7E9c8TIRATUyxeroQCR23hpwvvw1l65h1KHAYKvz5d8seaixB/zmdZ44GxqhIKlAmJ4+1+sidCaR+YDYgje/IrEtZ5WDg+zU8hRiL7GBEnl3YM32jjKeRJaLSM0issg0jYmP5KAaOT0YwOMf+BRyLM4zkm4hTXP+WcWP4Yb2C3kmcStBecLufZ2JHKBTs/lYO8xU92R9jKWdl0hK4ksv+Gq4/uCkCVqXQmYI3kY1pA/xXG8wlE0tS0fP4IwvvR41cAH2o8mcD+WBw8ZwgRTmh8Ds0F8IFEijtgMsSDvghJTygJmaTh7yxOh8iNXRpHE0EU/TaqBLQxQMEzhu9YVSlyNfozAHaPp+eC/3ALgRLUU9Wo6L/CcvPU9TwWhAiA/sr5T2tXDN8oH9M/qPiOFL9O/lMuBFzWCsomvtF4MCe08oeBSJAxb40KZQSJGJ1AceEZ2luZklVQC6xIwtPc9Wl29U6K5YFG/G8S/EmcbDvSirPF2yBwcBQCs81cMbtqhxVvynrv6L2iOaYbmglQ1p39qYRHI4KI2vtldDVMVBNzX6Sa7RrjPI+/fD6GD/JcN/1BydQM7GXCIYCZPMEW92EE1PY0dy7uM/SPlqYWTfD4RPN/QJ8Y/2QhHRS/yQTPPqiY3qq84z8Q/GMp/6aUP3GgiU6Sq9qKgszEG9E2Y8KKdk8F89OnD6Ze+EiauQ5jaC2Ht0/B3tGnwbLoFKU+YcQxqXzT4Mtop6SM4C6GiSHFj8f2MeeaV+YN/5ZF4s/mwfnhbUKfuAAj4s+w3pWR6BbB1fBn88I4Fp6CKQij9hg+KPch6Q/KTgxL6miLTI60GY31aY9bkf9uNv/H8MltNP5tdVOfZnVe+DAG0nodjaEO8PYp2Dv6VAAu+q0l/6aWvx6Vj+xqW+HknzYeqjKB4PJIGkrhM+qudu09MyWGgYsfZqinF4H0px/DeGp7a+QbTmF0DcwISSbqqvZfA/wUNB7++DnCZI75M/g8qRR2dYALm2N66Iv4a18jxN8xlzY2jKcpIby+EVbj2kEV6oqAdLIS8fYY/kenP1LQxoMpheZW5L8wd8Za/pt8QcZTDPRBplNXF/CTUf88vopu5CPG/+aUP1nNag2euHOGIi3QU2m7Bya0AMygD+xjOQbFJ40VIiwawWLx6cQmgyCQTy1MVwWoxbYwwTNMQ51uMvzJFLuBjaKbd7urCGeecJ/yaFezjHVewPuCjPV04Ia7MUWVGHB8YLQE+g5/1m3fcPDtGwWr9LpPU2GYH2kLAcD5EQqJoQGZ6OvW9CdGB2Xg5HaZGBnyUU0nxvwB+I2AP4Gb58a7W4AHjmlHolPxR/ateGgxrRoA3zj4xCGK//XC562GE/1dMo5ympb+wlNwPRaKinsQstFQLVpOanOOyXH0iw+NFsY1irl4rvwNI3P7uPA/SWRYeRxj/F2p6uvTVv5e/nkuoEzD7CEEFLiE/V5eXe09SSEKTZVScCQjqZ9aIqHUagF8B0ipOyWc1iMnjILUXKL2ujyNmwofmUrBkaZa2V2jShyGLpyQtq0/k8lhHCWNTZUTuAsjvahUSu/9smRV1IFODinQchJHjhNXnd9gQrzqV6nIMDCkNw4U48mp6s5vI4OSiPj3ntgGDdpFKbrrt2WkpUla3/ipVH2hQjIr5igkKxSIW6TPAZAfLTHt64U/iaO2+45ukZ4DW6X0ni9I9sxll+FPlvCZVCwAk7m/EfCVHlPwn0r/D4I/3HVJeva/Ibn1t0l23XLkbSr9mV9FYsrLAEd5+KbyH6n6aa5/Mf63VPlDnLCp0Jpjc7A60WHizJYBqThAMGec0PSf+lZhkeSiCZoQi8SfEk6FgD4Y13lqi+K+tKIkp0shFUnRPKekS0cNo+6R0FPCXT98JODh+7TwnsSVs6m4I7r0nt+UGU//DzLjqT+WtPxCad34d5iQxaosF9aEkMsP4ynlzdNRHGEp2JLxd9Edrri7eahPxgZwLDZamMzKepnxxT+RjNKZ6u/DaoPFtFT6BlE9ZRTAtcCfRP77jmyR8Z5L0tewF/Ec/T0gvA0vB8NegEskPjp80s6D0qQ/BPxJrIwb68UihzFebjE9/QMoLBMYhRkUhDrZw8OPOCVn0Dw0FUskDJmECMsfXh8r/kd+Y/w9B12xXOnxaSp/q//G3MFSXddtNSKRGo759YVvi2Te4dMCuqAaKRI1DKY+/oE3AnmVSBAoCiCSyM2Dz0w4MqDZtV498g1nXsyUllOIRqNI0pDv0nVfkLPf/59lvK9L0grLMcfeJ917XpbhC8clUVgh+csekKzqeZpe1/vPYtQwT/qbdsvoxdOSUVUvxXc+LalZuJ0NaY92t0rPwTdluPmEZNUukYnBPh2hEP74GC7l2fmSlN7/VQjIdulv2C1pWTky2HgQqqwBKVj+oGSht52asNVEQ80npWvHC4woOfUr0ejl4pcjOXWroRbj2TThJD0RHOvrkOG2NuTnN6T/xE7A6JBEfonCH2rcLWPD/cggRicYDaWkZUrhbY9hdLJUUjD6GjizX8a6WrAcNlMGTuyQtNwi+D8uGSW1wDtVeg9sUvxHuy8Cx04pXPuYZJXMkv5TO6Tv2Hb1y1+2QXJmr8FoLE3at/xAcuZg9FC7WOGPdzfLQNNeNKBzJbNqro4Au/e/LuNoKDKKa6Rk/W8CZrGOgJiYlh6Zhxb8AvZybrc+/xELx3/R/JuzexK5oCuidnNJCqQfWo/0gU8EivFPUjBGGMToE8s/4yFlGfCLTY6Db2jXTld4MRs6jghGpmKcgMn0K/y29MJn0JNy8RDbR9VALrolyg/to6oXWd57BwnCQd18Iswpjf+2r/D5q4QP0Ko2IHD8a0740Ly43Ac0g/oKXpNcdYX5iOZX/kYGzxyV3Hm3Yz5kQtrf+hd8H2SC0nfykLS89ve41zxPcpdvkP6TuzFq+Xul/2hns7Rt/jEE40nJnbtWxjsuqv/k2LDCn8C1nr2H30evelT1+t27XpXeQ5shUOdIal6xtLz+XRm91MCcyNDF43L+B/+rpBeUQSCvlIFTu6V9849kuPWc0o/lzaP4DTPOWaQgrXcks6ZOcmYtkTTeKX0WeXb4D0Fl1vnuL6T36GbJW7BeMstr5OIz/xnCfxcGrbhytPWCtL3zcxk8d0Ry5q7GnMOIXHr2r6Byw4o1gBlE49K++ScYRfVJ3rx1ksgqkI5dv5TOnS9rY5BdPV9aX/2+dGsjgzEU4vfufkXzSroNXjyJxuMwORcN1UGE/S7uZs+VghUPo9HrlrM//d9wpe24MnnAFigOLS5FEw+kE7LULc5/xDzMrNFh6jNA1EqRT8XXhyPeNPpWIpgVTrd8/dN8OwSSkKKHMzH+nhKuXH915a8lQSHnyoK1ByMPGBTCpOrjAz/NTHAqo31p0KjVJ0QPS3NKKftPfUdCOHeVXbQzZ3zj57xuCfjWXUXmmFEyKjNHK9Q7o5iUTaN6BPbuva9JVlmFpOeXysDZQzLaclFqvvRn6OXnoZe/XNq2PSdD505K1oxFmkTBsnuk+LbPiaThvuzsAml95Qe403oYgr1JJtC7L93wFcnAnIYsH5PR5/8KDRNLDcamUNTK7CQKiiE8H5K8het10v5SRzuE+BkdzXRu/YkUrr5HyjZ8XWmZBZVX61v/ZPR1qGiy7JIjsQnsZek7vkNK70YPPq9IEhgxDFw4JblIO0XvoAbYtISUPfgtqM2q8QFCpKZLN4S/jj7gklUxW4rXfk4yymZJwbIH5cKz/wlpvidFt38eWU/FSGqhVD7ybYRMkWE0bqPNp6Xotickf9E9SGsSI7kS6dj6cynESC1vyX3S/Oxf62goFfdVj7SehT9ubCyqxTzTsFR87vclkVeGIkrFSK5eznz3f4K6DeXB1PEAVu5hbxWWwFOXHKqnhdOAGsmHY0TFDmm7gJZqxMOsBsTsFtKHn+KvzpEQLtitzv8x/r48PYOgXCPWT1f5A3XIH8+zKn/I5qoPV/kUEovVLDSwe6JFnTUyHj7F4DvJEkT1SQS+Pi3/pocatqBRR9h95Kgzw6q79/TfgQctQdRIKHPzafm3hrYYETmNBJAbRNZ2HWHH0JvufO8XUBnlyTjuoU7D/eQl938NAjANo4ZjKuR7D74B2WxYjPd3yERuoYyP2CXTicJKmeC95EiLAlD1MhixjEHtlcgskPTiKmsnUhOSVVmH3vsFIzFLzP6RGaidMrOhPiuCEzIHwS6ZmZh34WqiSai9zkjhmscVT473UnOQbhlVSGYmfDr8BHJD6NWPdnQAlzysZj0PwZmQ0fbzMtJ+TifnmVAWRjhpuKcdUTXdLEyo9+zdBlUW9sLApGGUkygoVztVT5lVs5HmeYxMuHIrBY0rVGAaG1EGetAopUHlVKnwSV+mN973TzI+2AOVVi0aqTIZaNiDdOpVPZUzFyot0DoV8xrjAwMYGWF+pr8bvw6ki9EKGhXSBUnpt3+aC6kU8hXDBG0DEUoyYThzRgCNgK+pYdXde8I/sAaWwCl0ccF8Wv4d5CGGf7Prfww/ypQm/1Q7xQaEfApmhsTBE/8W1FezaMSQ0S9jfqaBoEmEDqJ6S1gRVMg5SN6XqetqJOdgMEJfl0+t6L9O+CEs9lXxBaL5y20ShWXaI8/E6qqURKakF0LYp+P4C1ICQpMCLCUrHwdiEOMJyZuzXDLKZ0tCwyApSC1bSWPYBdoJoD1OJ67y0tTwGIfgxQdbfXPlmz/SCD9IXV1V5TYqBgIRo5pJNEgWEvmgvzYsGgvOHgLpL2gEXseqsXJpf/+XmjcuP2ajMHKxQfNO/Cd4TAsCB/ARZjKNOMKThjA0XbzwmYK8Y2t30IMPls7ST/PP4G7PDNFBIzPBawFgxaXUUN2tgbptH+xoFBGO80M0vcfek+5DWyW7qk4SGAVlzVwkPYd2qR8ZhUkZ1xn9PSzqaslrNPakzdw83TTfEV8LgfCIYH50Ce2fVP43LO2peMf4f6rL38sf1iWtn2CNBIf91NiPo9JzZzR7gO7h+MeqIWNYBdMAQfUKK6ELftkrGsIAqwuS8RUvKd1bBr7lj6MCEgxaPUcAiMr0bKipatEjnq/YEh9mmyYTuvuUo+9BXbUS6pta9KL7ZLilQUcImOgIwhF5RRXIcwTCUUsCaq/JoT0YNZzCRPESGR3slsGW05gAx4pqwNeWH7E0uBIRbojKhshcmQO6TELwrpKeI1slHQ0cRyhD50/ofEd66SwGUuRIfzZk45h87zt9UKqf+teYy5jLBDHnMCTd+zYBfqPkDPWSDFDHYSSCUVAORlGTYyOY79gpmaWVoEemJkm/YajNsmbMx2igSwYx/5Jbv1obEC1sjzNCJzi5jSstRxkeDSvJy/mTjAKozLLztRHOmrUUeXhTBAsD0gsq9Ufchi+dlpzqOim6Eyo2jP4GdW5Gs4CH4c8vHVEbkxm+ILjSXD3VCaHxxyjOJ+Z/kMKIQKLAfFrrvzJFjL8r/2T5Y3UmwY4iK5RVOv+KCHmtjBrAVy/9YDyrdL7aBdXSO7i3CTZfFPa2yN7NUndf+rpF4CthwlxSDhFpOk9Q76OGYws2ANaDzULjwV/n9l+gJz8Taq0eGYMgLVx2P9QwNUpNXeniogf0p+6+fCZ6+dWYQ3kDcyfHsSwYGwQxSU6dPw1b/+nhsxHQzDIU/lN0JVT7Wz+WrveflxTMvUxiNVYKVmERbHSlDeH3Yl4ikV+s+zpSExhBIT5HW1lY1dR7eDPUWOcsHlRtvUc2y+D5k2gc+jEP0YiVWZ9HcDIT6DDUj1Va22Ww6YiM9rZg0JGJFVOrkGdk3OXPw88oqZZszAH1I+xId7tmmyvMitY+gnYU51Ahn4mcYslEAzzUel4Kl26AXowEwJLlGcjX8V3StesVrPpKl/EhbKKcgj/ppInAXUe2WmrIBlJQYMyz2v3DfenrFuE/zVqYS5awz/Wnov7F+GuJKxnwuOnlz2rs5N8k5F/an/7pn/05MzUBbiSb5mCVDU2wQUm/6KD//osBAkY29g6ZPOi5aIX27I6ohj3ePjHvQK8wPQK52fBlpBn4Qe3i0KIsYi5TMA+RgG4/HQ1BAj36EDsLSH82ApPjEKYQ2Fwem4fVR9k1CyAUocjC0trMMqhbcvI1baq5Epi3yKiq0150us4ZYCSIy+YzsMw3d94azDXU6zwINyWmYe4ia8Y8SNaEpGOFFfd8pGZkk2J4ZwL2LJ3wTofgTS+rBsxM9PILMUKowcbGASxnRfyqhSpbfYFMYud6Vt0ShJlp+LJsUTRcBpwGGOnIx0jHOWqg0DAuQIMGdRjmKwqXrMfKrOVIhqu7GnTSPmfOCjQivTqyyF92l46+UjDC4OgkExPpCajGsMwLo6l00LEUec7SRocjr9w5KyV3/jqdCyH8VMzjJLD0OQv0yoFqKoUNGwzpT/vkcJ+OUDi6yQDe2RjxkBYJ4JiJEVYq8k+EWDL6I7uxAqTXmEPAkLce/91s/o/hg1ms0oNpYMBAVsPt85Mu/6aW/yiW6I9hladqqkgXyojOzh40IhDd6Oqxv1VSDJWE0UqpRD2/X3URdXckDF6X+U1xmPJpaeNJIZFcKl6kWdI3C770Y5nq5CDoAjUVW1vQy/dgyUSabXVz+cTL+sWwMACW6E5yjgG9bs6LWOOYjKx+OSefJlOewNJX7s2wVU5QK34I+INNh2Tg9C4pWP24rujqb9wrfQfewCqme211E7J4JfgocSsS4ufw79jxC0zct2Bz5JfQEKCDgZaEIyKwh6qwOne/hgn2i1L+0Nfhx/hsMBLqT4JcEX/O74BOymNoXAl4OviX0R+AbSMgVHrMx1T6k59RIMxfMnyUR/5aOibhrw7uoXTx9k8p/5MfaW5W/Yvh31r07xsYlMHBEXToULMhj1hfUfPAICqcoHyxmkYnZ8KGg1XNiRTv6WqffUbjaGWFgw7+3Sgj9Ed4wmEGGDXZQx1Cp5sHfzIVvXnsUtZhGjNEIRLkjuIFwiuyZMnyzCekFnCehHDlRjr2sgOVCvROKkaJPwWskcEaJsQ0SYfCwehlkhPvJt7U/3rhc7PiaE+rND//N4qDpKdilLAUPfhlBucq8F0uNZzHnxsPubNeRxEYLbAxYIfDlx9HVWloVFKgWkrhZL3mHk/QgkewqJkOf074kE40yn8YlRiVkuBfhj+ipSQwsjDCu1eE/uo+Dfw0xPkY8J8jiJWdEQc4OmTNE3jAkoQ/PczRqp3hzzBJMWP8QRBHzWTCKEFDp5snf1iSLEvtVHl7cin6olbfaJ5Z2je8/MEzlGOsnd6kdHb3YB8bBR5BpmDkAXWKGpcd5UXHkMk+nk3h6rNu4Vyw8EVnBeDDhV7qoxnzfhoYzjcX/iQugcJSH0xU44BECj82CC7b2hjwG1lMRd5JUhoLYe6KLtzUj5VVHRCO/0xO47B7DDteOrpgIj6ieqBEmP6HgY8e/Th2jI/jYEWeWZWSkaHqq9TsXKTJnDLP1w6fcxyTuOMkjZPZnHuI4g98CIeruRLYWc5DHT0aNw1/5IkYJsNHg5w9F41OEQkdmGjvWjOuPowNw6Jzw2NaaZyPebmn+Whgs0afGhEPCKzpTAwfpRTQZgqVlaT6UEqTfp6KoWuyy2U01iTxCGAkh4jp/8H07+sflkGoq6k6T7Djyb/Orl5oJrgNbQKCMEWKobbSuhItpWRaT/ul5QMfLcakj8uDX+ZNh0gFvVXgT473YYnROQhF3CboGgDNKtgYyizLM2hGnDnBTGP484lvJ/TV0bw1jFmZghPiTDtoIJCewvKJ2duvtGJcxorhXw/9UR6pOP4lvRoqLqpltZTcEwRVonrKOlaEcxiAH1c3jE1j5W/2K8VPCsugMXxHdHJ2TP9bRf5F+be/fyhsPNgIQyecoBjSQLqUh9WK31a5jKvJ3fjWUg1edFRjzowXhqE1ySBQdIWPYxEEIXTE1PAW6VaCn5KAwEksNFQc/o5YAYp0Jh5sCDyNLELkeRX8mZ7HnAmEtLF0LZVo2gzNcGZi+KTDtdA/SmlfmLc2/xlDEb+w/H3O6Upj35/M+hfjb7X7Vih/js6U3yJtg20SJBPSU/29WGJQs9PZx4n6hiGc61RPBoBB5xwpOU8PQz/pqqnbMwpIY1qcqLNLRX35sG/nOtXThbrx8ENANxY+UvOE1rxb6pfjH8N3RXsd5e+ZgW/S2d4fT/5zuBgmwdMRI/R0thvP/yEI40THj+4V+pothk92c8RhZaZdPz9e8k9FE9oJXZoPLJz2CriohLLCnvoM1CgIo7hPDXCV7zBZHeMY0ZKYzD5i+CBiEl1Cosb0d1wX819c/8JqcU22WP54sfLR5C/pyLlZVxPxhalzdfQtYVR46TDFBfW9Yfj7IGEi05ShJaqQfHjGDO0uNl5BOqGnJRjDZ3EZLWL6OzrE/OerSVBvjDLJT3q6nw8f179Y/oS84LgHL2cLK5bnpCnyV+PiQSrSzqYIi3wclzESWpbAqMCyQX3g5kEhiiYWQA5DqI1pIgCHqzSXBfMe8E+CEA0YwwflkqgTUtLIOw1hSW2YmP4x/8X1L5Y/N1D+UjRrg8G3kz9YaerW7dKXVr4jxsF3LvZlst+lEAnrrX4618edKgJNR2ahfViFywgxfE9GfXsammNMf9Ih5j+lgjaQxhfJT1+nPO/E9W+qUAm/Pa1i+QMeugb5i2Nag/qHOQ/XCDAiRx46EiEzksCeyHhHrMaUU1kyDOCZlqmYCV0sFL7VEhRdWBFi+I5mJFBI06g1pj9JFPOf5w5jGP8VqVPmobTyVgsV179Y/pAjIrziRfRV5C+DcMsAlUJUXun511YN1YXeTBVGg5quwFSlAABAAElEQVQVdq9pCrw1RMiwyfEsml/exUz6kJo6Piw9fKmH92W8GL5RL6Z/lBdi/jOuCKqH1hRfb/iO1hsLG9e/kD7eplTCRyx/yCOghhLGU8e5KftcSf6QePy3kyBwKCID0sUnxtjRBEPW1HSDB+NZQvp2UXSuBQ7BrlGkayEZCgYfwTcskfYvAjaGb8SyZ0CvqKOjoqefp7t/x/R3VIv5L6xv5B+QJeAnWDz/KGsF1S6wqHMQXr/8w1x9fM93/h3zn6PaJ4X/kpgAE+ZkkcANcx5sP0yCB66uGXHM5DnD808kfrAoKIxqablvTQEPl1KQQjR4DJ9kIYVCqhi9HNVi+gd84y2eUjH/GUU8HewLfBPXPyWF1iA8XE3y7OPJY2GUVgzhucqHd7E+xfVPNVqKP2iDf55CFJgULOS1bzwDCvt+hflwg4g3no4aNAjvff2b4c1TY+IRpuDD+HcEVpBexI0pxfA9sXTVAz9i+nsiBKSJWGL+i+tfLH9YIT6K/KXuiFQ0+Wsy2ZZaOWnOI8cDmQ23CMmDyuiCMhmdOGEYn6kg0GUWn26QuqUdfroYPpwlGsMnWUKKJ3/F9Gc/Iua/uP7F8ucyMUFRETFeroYCV23hpwvrw+HT1S0vf5K78Kh3GDlY4+EbDdTGqKgyu5/sjkBSK319kpF8qjUS1nlZWhaHTppNc0yKEXFyeYnhGzUjNI3prxwU819c/6LyQgVJkjQJXSwcn1aPYvkDOkSI56VLxGmK/I1sL0d7welyznIoQS0S7D6VwOIblEiyzprMul7Is8AQIEiH32G6HN2Y8W8L6L/CeD6BGL7RJqBQUOgx/SM0AeN4jon5D3QJiRHXPxLD0SOWP77O+LcRxn95OgUEgyynnz5h0dCY/OAfDkakF534g52fMO5LbRRSzln9/EMnUAKPMIzGDdyZFvzwbe6Wcpi+D8gb9CalH/dG9A8OyAiuYZ3EPSOTk+MyhgYHF7BKZmaG5ORkS15OrqSn40rXMBFk6aPDv9n4x/DBC44dwqIlm4Zl63mP77j8le0dSUIaKe18tYLvtda/mP9i/rtS/SMP0USmnNl4gLl0NMAtH+H5JHp/hIb3XGjVWZ++ZqsXPvQbH87dx1AHDnGcg72iT0IXNBRj0tzaLE1nG2X33r1y+PgRaW0+jztz+9GgjEjvAPRrqVlSUTFD5s+dJ7etWCULFsyVWTW1kpeLY9M/InxO/HNZYVRM/Trxj+HH9I/5L65/t7L8SXFtg7UVkOHQWeEyKNxhDrHJXj8nQHiHuRrXENgHn1EHh2bUKQgYIUHgH1hcMvbNS6guXboou/btldff3CTbtr8nAxh18JL1jESqFBRkSW427sLGvbl9/SNyqW1QBgZGJD2RJiuXL5OnHn9UHtpwn1RV12kcy8K1ww+yPJ0lkmWfLsjlQt4Y/KcDG7jF8ENyK1GiBInpr6OJKEkijKN+/A78A0tS/QuiTGeJRDHvqENM/08b/fv6B3AZFO4wx02CEMeom7gMymooSQGGSEkL+Q0BAnZRixecxkr6xYf6WUg+mV4QMtAr6PSUunOQwxAjI6Ny8MhBefbFF2TT229Ke3ubqaeweDhVxrVlGxodl8z0NCnMgcoK92MPDI3L6Mi45GYmpL/jvGx6+UdSON4ia9c/JBW4nzs1nXdhXxt8zWrSI8TB42YuCKSWACuN5cN8WPyTQOtHDJ9lF9AcBA7sMf1Bmpj/onXmZtS/sXF0di82Q0vSLhmZ6VJTVSnFRbh5VZcdGe96+dPT1yetLW0yt342sp0iYxPj0tzcJpfwS6SlSd2sGikszItIq0kZHZuQC0i/p7tH99ulpSekqrQMMArQgU6VEw2Nkg+VfVVVGeJpslpJenp7paOzW0pKiyU/D9dM04/mKvLXAkSfV5c/KlWRsE+b7JggAKpNOO5IxejDexpseDAU/i1puKolEkqtFiCJv6eEMzysTzSEu3Df3b5dvvv978veQ/tkcGhY051A4UyiWcvNzZZl8+bJ3LpZkleQB0KOSWd3O0ZHpzEnclGyMhJSXZgjdaW50t/eJKf2bJSR3j6ZsWitpGflGEWuAj/AxiFlr8tx6EaBjPF+d5gUNGo5WVmSjV9SRf4Q+F8rfL3H4wPozz7gQP8gaCNKt1S3c2cUqkAyMOeJMnF/+fkLzTI+MSZzQFPP7L5Qr4T/tcA3hrmcdlP5JFr+NxL/GL5yp5L0WutfTP+kiu+qweU8HOX/cVSwpjPnZPeeQxD6+TKMOdmWlnZZvWKJlJQUycQ4JKh2yUWOHmuQA4eOSTdkEhsPLms903hRDh87JolEuoyMjkBFfx5ak7u0zvr6NzgwqPF6e/ulrKwYHeVROXG8UW5fu0KqKsvlzbffQ13OlG989SmVSXwwX8dONsq+A0flwfvulAI0Hmo0URVO+vlR6x+lINNgsnoZFCwJNnE66uBNH0ncx9CRnqBmgW7eEr7DfKrNPKaE0xEHHqPjo7Jrzx75zvf+TvYe2I95DdydTv0ZwqcnErJqbr3cu2qpLJg1S6qrayQ9v0hG4dkNQbhq8QXZvmef7Ea8blzInjKZK6No0Vu7W6R3z+vSM9gtC257GATOviyfHn4gbJhLo6g52cRDiBRs//jDZ+RiS6uRBajl5+fJ2pXLZP2da9HCu0YK4a4HfzLUKfQg5s+djfRY0G6kNA38a6H/6NiYbHz7XajzBuXRh+6F2rFI2EP66bMvSUPjGfnd3/lNyUNeX3ztDRx8OSm/97UvYp7I5f0D8L8W+CTY9eB/PfSP4d/4+hfTnxzrhNN18D8bgL6BAYwYZsiyJQulraNDdu46KJcwumAH963N70l9Xa3Uz6mT8xcvSQY6uF093QQGjcmQNJ49J/m5+XLbmqUyBPXP9vf34j2kjYfmBulTjT8xPi4za6tl5bLF6v/G5u3SiEarFA1Ud3cv6nmLXGxulWo0JjQ9Pb1y6vQZ6erqluFRdMK9uYL8/ajlb02EJQ61Fas+DHuszmrSwJwNMZB7SmbMV8WGLwo4TcPsFlDDsJd8uqlRvveDf5TDJw5rePaU2WLnZmfJI2tWyD1LFsvM0kKBZkrSh7vQS57AaCJf8krKpKq8UmbXzpHFGJVsf+9NGcZKrNbBQWkZHJJxqLNOtXZJ/0RCbl//CBqkNAfZXpp9jwOyHb1TXUNEETS0ZMfufZKVlSlPPvoQGrlROX66UX70ixd1NPL4Z+4HTa4PfxLh3IWL8t1/+qn80R/8rizKnxvmcRr49NQsA0zUO4w0iZ7HuJw81ShdGOref/ftYMBJefHljfKjZ16UL37hcTBdsaShdV6/bjVGJxMYiaRrOV8L/tcCnzn0ZKXdkS7MorNpGB8QgWL4NgoPCBUt4AgRP6j8Y/r/evgvgTo0d85MqJzS0TlNl3F0eln30tMTkqD+Hyr/DKwApVm1YjGEep+caGzS7+6uXgj2EawSzZFdew9pJ3nJkvnogOapvz5c+acgnezMTHQsc/RXhs7gYP8QGhV27kUWL5wnO3buk88/8TCiTUpzW7uquTgyocI/wjph2rApH+lDo113/XOaOdVSparc0zkPg6GriyB4FHgABF9Eyn8nZYeZCP0s01MqhMdE35NoibvQI35G9uzfp71grL5lIhBuKfLEbStkw4I5UopJ8vTRQUkZw7zH6JDIGFrTEay6GsFEekaelBfmyt3r7pDExICcOLFTLrT1SWffqIyOjkp6WocMTm6U0ooamT9/BZO2vDv4Bs2YjU/vTXc1cFCUHL4cttZUVclnH3tAlw2fOXdR/uGff4YR0yG5+441UpCfj6HoCS3MXiwxXjBvtjx8/90YmiagZuuR91HIbHyoj8xEa1iLHsUbGHoePX5KfvHcq7Jm9XJ59MF7oesck+PHT8u2HbtVN8pex6rli6Eiy4Se84zs3X9YVixfJK9v2iwzairl6c896vKLjBIJGL7YcLyNHtA//+w5YePGcLlY2jwwMATVVr+Mo2fDRvX93Qd0YQJ1qkeOHNfIjzx0n9TNrFH8uUx6P4bde/YckPzCQlkwl72pZlmzYqnU1FaBco5A11n+ls9rp79y6g3kvxg+izqmP7n3Wup/Mv+l6BYB1uXnf7lJzp+7IEsWLZAZVRU6H3HH7au0UcHtetphGxiE3KKuB2YIavmmpnPYZpAls+tmSmt7J0Yi5+XJJx7CCMUaHA2ISswGiSOVbowougCr8cx5yIJF2kgxPcL58c9ekoEHIA/RWDQ3t0ONViS5edkoW3+8lKZmQoHIUjiowP/w5a9ihvi4PjmlJ/r3MBACkykG2IkFg+dawzAXDIufD+TfgVPEAW7RcGw5jxw9Ki+8/KKMsEGA0VMZIcyWzJght82dhYnxbEkbQcORgitHINg4D5MyggZkcgy4s2FD7tEDyMrOk1Wr10tX23Fpam2Tts5+GRwc1Xauq/egFJVukpoZ9ZKT61p2zZblLWL1WqsQJ3haKHOibo8jowzkhT7FGDqWYIKsq6dHh5679m6TH/zkWako46RWofzdP/xYdkLg/tm/+UMdTr702ptoOLqkqKBA7rtrnQxipRjVSxye9kJ91Q/d5jiGqe9t3yt/+71/krraWp2j2L5zjzz5+MPy2UfuVxXXT59/UV7Z+BYmyirArJVKO334zIIytLKR4Yhj3eoV8rXf/jzUVab/HMTw+P1d+6Him5B71t8uu/cfkC3v7pDS4hIpxSTbgcPHZePmd+W//OV/kByMALds2ynf+YcfSk11pfaOtmzfgcpyScr/zR/IDLilON1uQCylDnMUZIgf4ac6m1/E+oH0D05ljTLdh+Q/n5kYflgubuB8Rf6P6W88GxJIpBCq6888cJc0ofE4ePC4Cveli+drJ0153j2Mzyw+JVcW5iqWLFooyzHiYGfxX378vFw41ywL5s9GrUE4BsWvH6uajhw7qZ23LMxXzkfHbcH8Ou2Q8t6+QoxW5syuRQf2GOYva6QZavW59bOkta3D0rksE5buR+d/UIHTC67+sd+ojQdVCL6VNNi+f+JzgpC+0sKaZNTde8InsAYWdRqBPu7wgc1oDsZUJ89GjJqyNAjopXVVGHEUShqGaxM9LWg4sDwXvXeEsOQgYGWoHzmHW3q2pExkSmEBVhYUV0rP6YvoVQ9hLmVShqC6utjSK2Mbt8j8havl/nvvRxphlsIcOTePi39raIth/TPvgMYVjd+ZMxdk38GjEM7LoQIax/LiLTJvzmz5r77+RSnG8JLDyX/3H/5vHX1UVZRJb1+/LJxfL3/4X3/dVkEAYW585AjjqS88JquWLtFeyY+ffRG9+mXy33zr68pDP8F8xfb394DRFoJW4xiW9skf/quvy50Y7aRh1UWSQSmyF9DQeFb2Hzyijd1Xfuvzbj7FQhLmECbfxjBhTsNR2hga499DvhcvmCd7gdOf/Nn/oo3PMlSEF199QxYj33/8R99SNdePfvaCnMTIaGIMFJxKKyVqhLKBNbAELBG6XD/9g0Ri+Fao/qlEjVA2sAaWgHShS0x/pYXnJf/2NAXFLq//k9IBbUI+evjsKBYW5MvFiy0Q3h2QAcOy7f19mO+olZkzqnVxDeuk6XFE1VklpUXYepCrnUMuYsnCoiB26tRE4HPC+4H77tBRPnvDrO9pWJ3FQtSLmCBD7oCW5ucvvK6LdyCG0Oms0saDODGc1dHAEjiFLtdf/mwiVDvFBsTBgRWu9KADDAGEX/phbghgfhE3WNkCJYX3CUVSpNMYVFH5mf2ybulMKYHqKZ0tBwRYArkqg/onByuCxnq7pLe7U4apYhkelEmqrTDBPjY8gPgDMgn1laARmhg2NdZISpGcbR2Q4bEUFMQ4NhNiQ+HgiBw8dFS279qlqxWYa58lFqg33o3+yEZgovgzzDvvvi9Pf+0P5Qtf+7b8yf/479FIFMojn9mA5Xod+LXJbauXSVl5GYasGejVr1U1FVdaMJ3c7GypranSvTOqGwUjUKXFAV0GVl3QbQBzNoegOuro6JIf/PhZ+f5PntPVE5wU68XQlUychn0tt922XBmPiwpofJZJ/0noXBsasYwPE3e96Lk8+8KraCDAVWqAPwHC2ByNlVYtRhClxcXaOMyvr1MasbEbQCPTgqWIy5culiKsKuHqskXQs5aVl5BSmg4f3nat5c8410t/xqFRWMTTPkM3+ilqhp96BFZv+fDl78HF8EEJkPPTTP8RyKFXNr4jb299H3VrTNqhUeA8Y3ZOpmpDOJfZ1Yklto5K2jnWWjWpo3vOhzSdOQsNyZBQ/d2C+q3zFKRrhLCT0KykQzZkoIGhSosNR8h/FrCiskxlxztbtsvChfXQBFAmuEQ82ytscvCN4X+OOjxuhMRfghvyUjHsGAcGFFQ2LKGXz4W5M7TJIPPzvv6NCFcwDDEpZ88cU3XNogW1kpGVwC7yZmk436Ejngk0FKNYKTU53CtpXC6MhoUTR9Tho8uvOkWOjMYhaMfTuqF2gxiCuisbq6qG0WggiraKk7BwYotHmpw4cUoaz52R+fWRSWnGQ240z0waFsXZO/BLA1go+s+FOu3pJx+TNHyUlZWisOZgiJqjvXSuwOCabVW/EUt8Z6RnqCqKKVv60ZHCFPiIw9UVdB2Ceo4NCTNYDlVSXW0NBHapXGhpUeEPrSLC0VjezK5QCBh41su//eNvY+/MCczL/FRXhNx/7x3EyCIyM/gxNo1OrmkisNHL+aRghMWJdQcMIaE8RMGnTJA2jGApaFRNB4+rGh+SgabgDy/mL4mvFD3D0ZK9EfznMxjDDygLi/FnTP9r4b9MCPQH71svL76ySf5y32FJQDuyZOF84UidE+hf+9LnPZPpm3IhD5Pe5HCqgldjvvCNzdvkr/+/H4Dwk7Lhrjt0BZXWAK0irGepkqONhnUQLcGQ/wugMmNe2fG8E8t392J57mLMEw9ijiQ7E3PFrmOZlBHAD82H53+VP67++zqbAB7J4kBhRYBEgBvjWWYYz4hu8aMxNEEG0whcgibY17FVjh49rrrBosJsmVVdKBdau6W/D6MFLMPtbmuTdA8b2pWRoRFJwShiGJH78T0k6XhPQF/YLAWllZJXOROrEPpkFgT6AahsMtMmJQ/L40YgCYdHU+R880UMKy+pUHXkVxq63Gvmze5J6758HuiMfNdUVsrjD29Qu1U2C19SUqLD12MnT8lyTHAXYzR14tQZzGX0YlXGbPKEUwWaWPawuDiA6fRj2R/XcXNeZiYaikVQH30V8xRkgIvN2DCJRqUSIxoNTDrC8MWCUzs+QvqnYCJuhubn6ScflWOYkP/Lv/17HN9SrfpQlpW2iowDq650gsVSsnT9VyYm6asqKjAaOiH3rl+HkVKaHEF6nd1o3NkOOqDXU/4flv6WP5/Lq+HP3Bt1SJvA6vCO4Xuu8aVMRgjdlGaeG5TcUWrG9Ff6gF7cnPfNb/yWDFM2oXOblWWT3cZ5yfxXjfnJb3/jK8qM5L/KylL50tOf1bnSdDQ8HF0kmxSotfLk4QfvVucwtZD+3/7mV3wpQeOxQtZidSoN6+z9990OmwvrI+ub8icsawsBjw9T/qj/dowOqhg6k2jiCIFPA6IfeAQbZAKHIGvmYl10tVuGQiRd952JMCVCkje37JKOdgj+QpxRVZQn6RlpUpSfBXUUlpuhAdl28rz0j2At9TAm07EsNhdLSjmKONM1ICdbujDVkSNZmBPpgv5/xZwarDpYK/NyU6VwXo0cON2IjTeTkg8iFmZnSu/IiAwN9ONIkx6FH+TMZcd1ueDnHQz/kMSGv8bzkfH2ViI9o7pM7ly3CvMeW5URKiDoX930jqxYugibepZLZ2dvgH8QD+A46V5aWCyvvP42dtmPyF3YM/LYg/fJpi3vYpiaAV1qHlRue0GbAvndrzyNNFzsKfA9benLqu5PC6Uq7Fv/6sty+s/Pyl/97Xfl3/3pf6dJaDhFFzYUPK2Gv71Y+jRk4IcwIfjz516W7/z9P0tRSaE0Np7DIgcuWsCIRNNAQF+2tDJilDrez73NH0F83KAV9g7T0z/A3SUfpKPfYdwYviMQXzQx/UmEgA4B33iW+Qj8R01NNkYSvr4oufm4Bv7XkQXiuqqGOD5DHxP+1/qP+RcSFEMRLmnSDyqvoiLF68mpignsERJFBS2cfTK0wiB1TdcXW4ocbTgLnh6VPqyK6u8flbKSPGxWy5LMsTQ5drZNTjd3ovHASbrQT3Hym8O3GvTme4ZGpQ26f2rwU7kGGrrD9Y+skw1rV8lA02E5gfmPdJyDNYBwI9BFci6FW/k5AmDv3psp2VFnbZEd/lF8LGyK3IMVUhUY2XjjgupnAnrGz2I5LHd87tl/SE5iQ95iHNb4G1glVYjVVSPDY3IHGpc5s2Y6WKAKyDGrdob81lOf1Qbi5Omzcv896+Vzjz+IxjQdKyyOYD/JmNRi9dkjD9yDnk651LRUYCfqegyTg6LS9Hx+qRNdsmg+cMXQFXMsNNWVFfIH3/waNg9ulouXWrAq4/9v772D/D6yO7HGzGCQ0yCDRCJIAiDBAHIZlqJWu9xd7Wrj3cm6O5XuXFelP1z+y67y2a6yVfYfV3d2WVdllVwny7qzT6c7aU9xc+Jyl9zlMpNgQiIiiUSkQQYmD/z5fF6/7v7+ZgaYAQNSf2d+306v3+t+/fp1/HYvD3ffvVaL9Rw8rEU6F6Kxm47pN5YTj1r40ueeAN0lWrv51K88ooZ6FxrlGWi0lzy4QLs62NtS2ertZQsHnpI3I8t/hDjEOMhFjOj5Sbhio/nhyF+lLzZ7kUXzcvKvsvhQ6n/l//XOf7a3FzH1kEUINZYHIw4xAPPcbRAUfqGcn1IllPYIMYpXFJOoTAAAqphFD3fhIzUuKvPAQ359eeuS2VhwCeHk+2fCUuw82LS/Oxw7cwFTXIBHOmZjXeSfPnRnOIaByHfffCecx17pduy2ugU99//1d38r3H3/xnB23+7wVy89H57atA1TX72am+c2WPYOLqIR+Z//u/8h/M5vYejoOfaMAX+jV+v+LSrQ82LBo2Q2enERjEpfH/1EbWhBeKdeTiICv4tY5B9AfmwBnSHsyfTyY0esOUxHI8AGcLz0C8wpzuXoj5V/NsCbN78T9r//frgf03EcDf3kmV+Gp372bPjn/81/pZFVohfzn9yyJMrWGRkj/2PRbxZWSaC0R4qjeDnPUioq/SZLyboPWf5jaTQKpfKfbAcXbhD548GI/DKe34lBtaL6ctqKihUNh3QeRh9W+SgHDMBPUpBEgQEKoWl8sTC6I7BsjC1IWjBs4LlQPFtpEoh3cs4PPeZ5MyaHC1D682ZNC3cNLwwv9R7CesVg6ETq7ls2P/waPpQbnoqdWWhstuw9FGZhSurh9beFpTNRLOe6wyCGgEex42EIIxUmahJWrvFJCDYDD4ep7VNsXpH0mUS+0hSQpY6+fHLvNgHDl3b8lD29DE0MgZHyz2GsPQZHu1HAmxZ6t9CfgoV1f5y+jRwEHIPGR9+pxcQq7uXoO22aTt/yexFHv5wJP8dOjldee1tbqU+fO4vvVB7Bdx9LjB0x8rjLf5T8j0m/weWrkP9KPxYNJajy3wTe6rXXTKtbqDew2GxN8jGelW8G3RDyb59N8AR2bqDhE8+2Qm+fHwkik2koy1DCCM6A7c0Ae0pfY2ycfGjlMtqkBQsW4sTIA9Df/Ly/Hee8TMai+dywdOGs0I4vxNcunhfuWNSF7bZ94SS2wD6KLWg8P6pzxuzwxJ2rwio0INi7G26f2xkudh8KvVjIfff4aayLcIdVuxoQHhfMUQ0/LuSHedPTGU5Mb059a/Is1fSlKMBVAihamVPLe8ZoYRZljPwXOBivRG94CHBt0J+MkcYjGzeiQZ+How+OaefVHHxlvm7N6nxcPxONp+TKjZL/m738a/5v7vo/VvmzrqefVBVGHlr4ke6yUYdaUu+hl2rOdFtUcdIdehUqz/Wfa5UExG1eyzH3f2D/Pp0+ye8NZs+agu2oC3AK5Kywe+t7oR0L4/d1TQnH2gbCqeFZOlTs+8+9FrowpTUV8/23LZkTjuDwr81YO1kxf1pYgJ1XJ3vwJbrtIaPKxxfcg6F9Ms5vQgOyYH6XPtv3RJZnKeXeAnOPmNKCesGFHH3I+SfK64n+dPD8/vvWg3XrYhmCNx+g/K+3/N/s5V/zb7rAhJ5VoMo/Zyf48NQNe9hFl1bAm4EK90CC0G6qVtbowxB/DDrGKaM6AEyuPzy88RP6qnkQ01JhmPuZp2Br6Two+QVhDhalD53uCVvfPRze3HcM33LwW42LYRpGFJOxM4jHi287eCy8i4MPB3DAWPfZnrBr3/tqPDD/pWmt6VM79X3IAM7EOo8tvvPmLQiLMdrhY8PLmDjmkR562OREptD9UeUf5EhJT6Vf+V/lz+qCakWtf2SGuHAN6x+2GfpBL1uJ8SNBKTX0v+njOjUWrRtp2y5gTBF7yOVNouUc2acffzz84Z/8EVYj+GEdRh5Yv5gxhaOKaTrfZe+W/WHgDM6xn9EZth4+Fdqnd4R/+MVP45bA5eHoyZPhxz9/Ppw+dT7cv2xWOHoWX2kexs1WszvDp3/jd8Itdx7FVNexcPz4kXAUUy1nzp3GDqS7w/JbblVGLVvlKKNMt4V+lPmv9Mnvyv88yq3ylzlQ6x95ca3rH+px7tT1gxHZWGDaitUaBcjUWznCh57uZlgMoNVCC6UcPUqDSOPjUZctWRYef+Sx8PyL/C6iDSdUTgud7VOBejLWNvB9xhJ87LfvcHhw0fSwFOfA/KdXdoY//saPdbjfHGyLnYUF9o23Lg7LZk3C0evnwxacYTV8rjN8ac7CsGbekjC8mrcMDmj9Yxoapgfuvg1Ha9jWVUtK6vvDyQQiJzBSY+gZi+n+sPNPeplEpV/5X+Wv1r/rR/9Id+FFLUY7u4I4ngSGK3tMEaUnav2o5qJ3VnoKbgamqN6MejBNflPwT//Rb4ctm98IXTjLqmtuF6absFjehrNhoMFX4Ya7Hz/zVug8cjZsvKUj/LNPPhA6kbAFuMeD31RcxEm7w0O4r+PcqXAIF0EdwbbemR2DOrqYZ+zzaA8eVkjY2+csxt0fc1PD4OlICfQWQ8woQgurNZj8Oj7vLiDLyD4egyIO8lWwLOGP3QhH56aH8+tMThiShzZtFpGUgB8i/5t5QCoukX8KBZ/Rvu3x/BNkouXfYNMl6Cd+foj5L9mqzE2QPrex88gW3T2DqdSx8m/H6UBeuHyIAna6boo2X+Ogr1EKQfHLvIsuGJfmP8b3oEFo7CcBubLjMj76RqBJ/6I+EgMu4mOiYnJgaz6Xkf/x5H80+ongZfNvCfPkuZkSOQ7+V/omdc47mtQNWhmHg+WP40nojF8OKwTOLK2lNQUY7yMG+LY+LviOhmLMj9nuXr8u/Bdf+1o4sv8tHC08Gwf+daBBQCjOolq2dGk4gWQc3n8qLJs5NSzp6kWDsgYH903Vl+YDQ32hF1tGt53pDfvP9IQL+BJ9EUYvp3CI3ywc8IfTPHThytxZk8MdON1yOkYf/jQUND2jcNPqaYXF8u0mnO+9dzBMmzEDHwrOIyge7EpDw3EUxx/zzC1+aMdvNVofx1nmv2Tq/kMHcYPYDBxMiAYOOAXndN2MSDWaAu/suw/DOBH+8y6Bg4cOg5e32umcxOuVGw0jT9udig8UmQou6ncfw8GU+AaFx7ELVG9/TZy+4WhmikI4yPta4M2PHy+Vfw/jMdYSWMjMRPI/Gn3PP8Mux/8hpPNFnHC8/yCOulmzKnwCB2G20mfaePLxAXwbw7tT5kEeb1m2EGU8XXydqPzxaJojvKEOGxfmzJnNZMbn8vznbXM83mYY8smHx93w263ZuLVycrysaCL5N4pG/viJ02Hr9p3hwfs3KG2uYC00v52nHnei+TeBMHyOo3S18j9TNlulbzrFefdh8p/LDuo8wMRSNmowqfDHOS0pFhYCKzx/fGAWVkuUJcnCI4wcLLrWx3zmzukKX/nK3wsrV98e+nBKZd9QfxiAkPOWrW04Wv3YKVRA3HPx9LvHw5kLZ8OWndt17++WdzaHY4f36aKkPSd7w9m+gbAEx2gsxgeDkwdwwi6+H+nB4Ypk2YY7loc7Vi1tSUBOkWUDblmKtDpIkf/v/PCnOua8zD9vEHvt9begUN7EPcYDBZ3MIEeVA7MPoX7y0+fCli07Ybs0fYa/9NqbYT9O7NRohwiBwLCNj//HT5wMf/OdH+MASUurpRIYYOlDA/zMz1/ABgOcXgwvKsrXcdHVszhJWAAE0gOzsE6EvsW3GLQTzeDQYHgH9zxv37Er5gWeDlLw34nyes1t23fj7LD35PVB6YuY8nN5/vOo+x/iXpbVK27Fl/s8a8yTavzn6cVvvL01/PlffxvfxrwStuJMMN7k+Nd/84NwcP9hZhmPZ85zBPcl6POgu58/91LYvnOPRSew4OFsoR8BLABvngrwl7jT5WdYI+S3Oj948uc4rfnbuGdmsz5ANTSXpm84CVkQhfUkTpLduetdfczKPHlohqet4KkF4D2x/Fu0kfTlD2/DVul/3Pwn33UsPCzUtfwoAi0Jk0GfaKqUrIhkRZi19gZmfozh8G4yJMfLH5+xrwlyCFq1YnX4zBNfDVu3PBtO9ZzFUeyTQi8Wyl98610olbbQjwZs18mesPt0b3h89Vx87Ic1GkxLzcQ5+ltxxtWubpy8CypfvP/O8JnPfDL0dHaFo/04aBD471m7Mjy6cT2mDWw0MIK+pw7JtfwgQUr6aOlnPjwvZf4Z2aoI88/LW3g/Br+8PIVeH1pj7CKbjZu9ZmBEhVwj072YUuvmx4xQNOxJcvRiW96AAfntwZHzJ07gCBYo1Rn4toXHm3Rgx1k3jmnf9MZmbEHuBQ/wVf4yjAaAvw9fenajFzgw2K8TfufOmYkDDOMhbaDZjZvKzoEme538Yp3pZH75yED6+9FQHMKx0GwEV65YikMYFyFtM5WuQXx0iZMHwhlcVsUTQ3l/AY+IVly8TmLL9BmUGdk8F9+A8MrMklcihBe/uufNaz1ISxt2xS3E5VP8Yr27+3R4C0qW0yCLFy5ET30WesWdOIvsgo65HgSfuG7F7daUTcK/uXU7jkzphN9c0JyNk0T7NWLlbY6UK/KU/JrL4/6Bqx9lchK0OfKaiuNX5uI63inoeXv+y/LvRcfjBM4i4whiBnr7c3G3TAfW5VieO3bt1Uhi+XIcPIkj6g2B5ZB83fvevvDiy6+HB+/bEB76xH26OIxXkP4YX+Q/iftefvu3vqpRMPl9Gjy9gIaaJ67OR96YLsoS610Pdgh2Y2OIyQyO4aa/JgloYhs6ju450Y3dhhgV8gQCXS+sS7mYIyEhICBx+jM6Vf/sn/ym4Fj+b+D4nF+8+BoO7FwRFuGkZh4pfgppvNCDo33aJuP0ZpTv5CmSlSM4oHTR/Pk6EJP4eHpCD3hIueRNk1/+wowwF/KgB4k8gTzxYNN2yP9cXFfAtcxB8P40/Hj6NM+jY/oO4pic2bjIaBbqBS+GO4Oy5kYa3l8xut5RSRkd5MnKC87Cm/w3DzcJngG8/pG+9I+HArws/0p/NP5lPpKnrj/EKziovzRnwCNBJIDEkfAkCzzLIpEzvoyAFwwFnhXZTZ83J2X68+F9Fret2QBhbQu7dr0Vdhw8Fw7vPoRbAU+jocDJuW244wLC9+zeo6rst+EMLEY9drA7vHzgeNh3EkKPHv/s9qEwb/BUuOu25eG9wZmhp2NWePSBu3SfxqXoKxFAGJMji6dfYSnbtOQnwUcvF8fdew+Evfv365hkni/Fu85ZQT758EZ9VHcWCvhN3Pp1EFMa/JhxNs/rQsWyGfGAinc2PIuKfVbKmMeVYHpv3ZqwetVyXfDEaYj39vHjyqDGg5X5ZdwKeBhTE2yo+FHfnTiW+Y7VK9XAbN+xB6OlHdi2HFRxdYgbz6Qps4N4fb09YQ+uuO2FUnp7665wbmVveOC+uzgbF06jh/nqpregPM/h8MYB7FxbE+7S0dOd4b39hzDy2qxpJ6aJ028PPnA3tkXPT+Uu/kOQtmF0QeVLmeKxMQuhwD+Bi2yOoNE6euSo1pN24P514g4XLyhfp0GzHUqRW7rv2bAu3I67RgSPaRxOcfHk4rvX347pk11QQkPhYRx7Q5714ZBJXvH7K49tDAvQSO3cBdqAZQM1jNHiHXes0i1uHZy6Qbrxr+cMRrqv4wZG8pN+Nr16u04j3n/wkKar2EHYjDta7sYtcNOhHP3haPDtLTvCCoxK7gfv/EjsWTg6m8d381ZJNvQsd44idu95T3zjVaO8vvThh+5TGZ2D3Lz08hvI53Hd2TID15WePHUKZKzQePvkyxiBHjt+Cj5Ye0Hh3okptHvuvlPb011+yXdOHiBZKm/WP/Jm1YoV6iSwMWXDyzLZhVEcOz28ioG3Qz6Kho/0fvKTX+oyohUrlqk8dyHN5P+DOMGVZ8WxofzC5z4lGT+Aeyle3gRZ4MkRoMnpuvvvXQs+TA7Pv7AJ/LoT56rdikNK+8LffevH4V5cbvZruOjoPDoTb6BTxPtnOAXm6RdfmWUVTrLI28tLjvQyX4/v9d7N0fSPI0v4YPH4Cktkk8WjJKrZcpPRT0wjBzBt1WARupLWwjR8AWbAZphL9vhynN5AuGnBgI8AiolXB3qGK1ZtCHes+xTooTfagV1T998evvrAmnDbLctwsuu8cLJ3MHx/64Hwn9/YE/5i097wzc37wvbDZ3CVagiPr1+NS5aWoSL2h8nojd6PnVWfffw+XBFpFfty9Ftz4Olnepv5Rwj+DT7GomTSk5HwO4MDGLdv2w2l04YKuAHn9t+Fy5SOo7K+geNYhnEH+V4osT3q9X0CZ/BP7ZyqHj3vE+fDBuccGpj7NqwNjz58H25QbNe1sBdQ4W5DgzBn7qywAhXwLihM1uZ3oIQ470z3Q1A+7KG/jXP9j3WfQE/7RPjFcy+jdz4nPIbGax2+0j+EKS9vOZQDvGhOxXExt+P6Sl6Pec/6O5G+5YDjuWLDuuGM6zkPPQiegv5mTBmxV8+G66c4RZg3oT0C2hvxIeEZXMn74kuvK57znWYfFBOnXnhK8GOPboSiWxtO4oBLKtzFONp68eKFmga68/bV6q2eRk+Y04D3gA+PPfKA7jJ56ukXpBwX44DIxYsW4D75RbpPfToOa+RVwBzVcDGbRcHNEkeOHJGyPoXj4zdv26XR6qNI50ocV8+LrgbQ42XmxQfEYQPFxnYnpmLW3XmblPkMjKKex02PHHlRxlYsX4qR1Wyk606sUaHHrfJHZDxssDha4MVavKu+zP989P6/8NlfxahtFjoO+H4JtzzOwu1zD0NJr1u7JmzCnRA7QJu94x0oU14ItgE0Hnhgg75bOn36PNLJnOF6Ydz0SCXOTsVjaCw5engBVxUfOd6tcINS8blYipdM33lcrPbe/gOSxZlY9zh06AjS8g5GmbPCI0jL2jtWh9dwpz2vVWVHhA30m7hMjcLNe7h513YfRk3TcelRH0YgvD1vEI1xPzpJ33/yGcnfI5CTDWjIjmPU8hZkkWto59DgHcBaWz+mpPceOIDyOhtexQiIow6OVN7dd0hHFjEDnn7am/WPPl5esdQK/ltojl/y38MUOxIQhqL8HabSd05cmv/sIOizDZYY/nk2YapMPHLbGIk3OS2Ht8sWUu7cYDmywASa4HNCzMZ4FigMeNHkNMzKlStxVwaunj29Pgwd3hvuvnVOWIRK9/Sukzqu/PSZbjQiqPQQ3pnT54Xli+eGxaiMX1i7UIq267a7w4xlq0PnnAVpgN9K3aiNpD8Sjj5FXhmFbmRS6Y5vfvBIf06MQW/p4RfZD6NnNhfTVVQGnK558me/lN/7h7tR2bvCfTini8elL4USfPXNLeCbYZ2PaRhe2sQF5HPoBQ9BoXH6hlM9S5cuwiUvU8J8TBMsw0m5JPcmerq8AnM6lNUATu7lBTF7sbB/HDcb9mPai9NXD6F3TxhO5Zw/14ODDZ9VOkURL5pMSxcuneLdAosxl09lNwSFwKmEBZi2uA9Hy09CXgex3vDiq+hBQ3Ec7MF3NJgS23j/3Zqa4CaFhQu6MAW1Q3RmQTn5w+kT9pDPne+RstAJwcsWqaFoB20e/c4dTOQNH/bEZ2NqhNNRZ8/h1khOnZ0+hVGD5ZF3N3dCgc0HPaafP+e/iortAj3xiLcoh3PA0wce3QkFycViNnqMGMGw6aJXCm7lilvCvWi0WCQLwJM/+8Y3NRLhSGMu+DgN9zb43fEmSUanDx+vclqImzryeaMW5m+mkUqU9D+BERqPzVkZlum0401vb4PSXav1HC7G34ueOhMxDencjROXOS3DxvFNrKncgrvrO6CUe9AgqGxBd++7B3H3ykJAIVpMGI3TUNTf++HTaggGAdeD6al7QWchNn68ivPKzqNMKKs8Zn8mFvU5tfTOO7tx980KjBzW65oBLvx3nziB06nP6Tpknh5N/rr8H3kfH+3uOxh+5dEHNQ3WwfstMGLiVGgv0rgc56BxNNeL0663A/fDkMnXIPdsbE9hbXMAa5634JbN5tNS/1RQhR+APyz906TrroJWKujC7yamz/pMlqiSwEY3Doyih97qVCWeUVAUFAMNxEHhAgIIegkfQUYxHC5BWzxI42LssrqIXmj/osVhzuq7wpRV74Ypb+B+Dtzt0dOPeVEoME4lcAsu51rnYkpoHS6SWgxBn7FgWWiDUDdTOAp5QBjlVvqAbUR2uOgP2n5PhmPlycN8bD6VJobrmArgkep8yBMqYvb6OD01AJNrIOzRkWdcO+CZXSKMuMeg9J/BwiaVOY8/P4ueItPEaTFSYjHRw0woVIwAuJPsra3vwJfKHesDwDkFficOn1ZjwqlBPkoLRiG6NVA+xGgZli02fgrCSzSQ56nxa33CtKMxYiPAbainTvFa3BD2YDqoDdOOpN8PBboM5cepmPLhFZqf/fRjmLrahZ7tlnAeino1lPSncMGUcgfkPFnGHx4d/xLWX9pQ1rzakz1U0ocR5czSbW9gQHqo7JUPImFrTgcertHch1HRO7h3nffFc1SyHlNj96OBaMOol49w4857ltPyOUtEg/7cITUF+Wc52OgQuSSh+GTbRSjdTk3R8Pj/Icz3dcTqRFCOOi9ASXPaiKcls+Hi4aD+8FZKbhpgOs7iUrM7bl/FjMrNzgjXXhhG5X/27IXQPcV2OtGTjS6nxoiTMEpTTBgbEV55ymknnmL95uataDz6Me10j8qRo8fTGLXtQeOkWzcRbzqUPkdOxESFTrzcKNCDDRXyw73c/miqAjSOoREgX3bt3Zfos8HRDkKEr1x5C24L3aWrEfbgPph/8o+/jrWrE2oouZusC1OYszHl2Xya9c/yljlO2Oxi+Tfhm7hKl8MZRobIlp0R2OHgBKFKn2wwjpv+iWwi/1D/TMtAiUtVoTBy4XhBMYT+BadlJaSFZJRuK2Cjl+G1OJYkwIAen0lY5+jsWhymzFscbl+E61fXblSlYRgrH0/i5XbedvRu2tFTno6P/3jSrhUvoVqfidFnbI9hKTJ8syDcx9H7sjB7s+fHqSZtfcSiKheNubCsq1uJB2CsnEz3TPSWucWW24o5XcOe/BAqzjk2EJy2AjGuXzDOo5iOmIYK/M7OvWEfenR8LC1UorQBHuVEpbEQi62PYAqM898GNUnTEKewkM35eSpLfzgd5CVosJYPlXjkP/3pS5OUjK6ZBscw3LGC04M5Pcd72+1CHNJnGWFDQ0MRGI01mHZbjCkWjqQ4xfTUM88F3rDGeXDiHU70Q3ge03wcZXHaj4uuXHDdhJ4q6dqaHPMvcjLRpcCItBciZJ4cAXBhl6nm4Zh3rFmpGxHPQTFzyuf5F18Pa1atwDoUG3mT50loqLhOwfK0FGMjAcq3D9M1yquNL0GfdB3CrUaHW3Lffe8QppTu0GhKkCjbQ4ePhGd/+Wr4ddwMx+mgAaxdcccbG1XSP4MNFJQP8noaTlo4jR4+H7pJn3mhnfzuBF9WYvpsPW6bpAwxKbx2gJtICNN4wFM2vg9svBt8nKEb7P7yb3+A6aZj4glHL4swurr/3nVY0KbyBn/BWt3FDRcbuNuxsP4a1ms4PcYrkTnFJaKgy9EHUzkHZ9LR7+EH78FiOeoihJh/HIVxAwXTxtmFt7BWxM0HC9BY8B4Zrpl0zZ0b1q+7DQ1+Tr1zN/sYL0jjo9Y/zFGlb/wei/+mf8gpPBACNtxQfWSbqScL0Ft+ZjOF4kUpv0ihiCV4YrIHANkBLziiO/fkPZkWIBdek6dODwsxtbN0KebEMW2zEALMHTYL0VPrgskhuzUcjVSLRiZ5hfSZ+ITkYngIvbW3MN+8CQvEPF+LPatNb2wJx7u7wzLsfGqD0qTiP3rsmLb0Us1TUT7/0hth1fJboahmK/0HsMj87nucd74YXn9zO3ZWnQGkEepDj5w9xVtvwbw5lMSRo904WRiXWEWlyA8guzG33Q/FwwLjYjHnsLmjjOsSnJvnYuoJbMnltxwn0IBswXz/MKZ92EixsqppYEKZPav9sHExFaMHsOp9KDru9FLmARYhCY4nKlqYnN7hrjLOgy/EdBMXSHfsomLepEbU4lmcbuwM+sZff0eNwK2YruJ3I73IQz96+1R8VIqcj+ePvRgu4E+b1qnpoTngG3vM9kyyC76QX06hcPGYvJuL6cvd6NEeOnRM0zDPPPuipmEYZx8Wcn/wo19gpHQaR9QsxQL6HO14Y/rK/M+YMQX0FiIPezDFclQN++tvgC6YwmtDmUbmP3/uR+x4JKw023Q3NRe3eefJUfSsOcW6B5sovv/DZ9RQcHqIW3y5cYK99IFBfCd09AS2RG8L92FxmfznusPbWGc4cvQY5GwIcPsx1YW1Kjws5w1Y69gJPvO6Ua79cFfYT7CT6yQapPy4RNEHaVYF542Xi7FOtAJl9Co6ZLzaGNOfYAR3yy3ANBY7AT9Fo87vSvhwsXsNNinsfu89fB90RA09r05OmSYTIZvLb12CRmKW0sXpMN7XvWX7TtUXitpkyO3yW5eGV1FfVi5fhgamLdy2aiU2IBzV1OcqXFBmDxEm7C588DF/hhi7nekZ+EPXP0yIk02WSt9KH2/8iz0of/6hy8AgekWu0RldZiWYM9DC/C39FuFzIRsmVgp/FB9uUvBtwbILwAGjT3Tm8KtHfx16Sl/FLX8/wJWxf/fdJ6krNCXya489rAVWDeGRh5VoKLZt3xOeefZlbRGlkv08epzckrlh7R1obE5KkQ6gi7cGw/murtnAZYO+Rx9+IPzFX30n/Mvf/6O4tZFX0XLtxLjHj9K+86OnwytvbA6/99//15qbP46PFP8IV8Ry4qgDvezHHn4QOOeq5/65T38y/OCpX2jemusXXIt57e0zUlLiaSw02qehl/mJjffiu4Dvq7f5O//o6yYOwNvkP8tuEtI3Lfz9r30+fOd7T2mqjR9Islf6pS98Ro2KpdjKmcp9CZTmn/35t9TYc7vyXViYv2vdKs3/r4Yi+f6Pfhb+9C++Gb7yxSe0SP6dH/xMC8m8n4WLwy6bnVBwq9Eb/gG+t/izv/xW+OoXntAC/HYs5P/Jn/5njXw4EputI/gvqow4+vjG33xX6eaOq1999AFNBZXyR0XJnV7HMRX4//6Hv9Jol2sAv/7Er2p0Z/nhCMlz1jTJSirzr33pc1jjejb84b/5U4wFL9r6BnYRfeZTjyJtHUo7d5FR4fMbEPb0eQc1NxGwIeWuKX5g+Ef/7i/UkeDobEEX14JI+GJ47JOf0DrQH/zf/x49+yla6H8Ui9RL0HnIj9dRq9iKikDeG/PQJzaGv/7b72MUsF1Td2fOnsEtky+E7/34aa21caShbeCANxmfi0ZnidZY2ABkWSCAUeSW69/5za+Ev/3ek+HpZ1+SrC9eNB9y/7hGHITjhowXXtqEKbk1yCdGRJhaXbViCUapMzFK848fnbmRSnRmmlev/ltSKn3Wff74lHrdbhJESWkOGaLPOUs9ufSi8JiH3kWYVIXcQN7wJxZ4sKdrdA3vKG8qSiaqUUwFLrMW7yLMaACpIWihBcAPSJ984S6dU+jZs2Zx3YUXWbGS8fnlC69iK+3B8LUvfw6jA7tpiwqVazWWNuxgQs7OYbcPF8W5jZc9WlYm/ph39si5a2kqet6cKlMYmUaeAKAPvdGhgV7stcd3GMQK5drT36s59Rm4yncapgomoWcnduPFD9e4MDkXi9JTEUYWsCEZ7SF+7uzidAh7/iIAQKmiSJ/TRu06+t764KR/AovZnHnrwjcavB7Yp1PKsqbS5oIpp/G4sM9eLvPGR3zF5gBO403GNwbcnsudOZzeIo/4LYNEFvlScQMXRy2D0Lycyyc8pwo5EuGaGOfsfWqQNDyMO4a4kM/1CaetBBQvNlY83qYP25bJ/yn6/gLpTPnH9JHKOzaqSpAjgAP/XBPiyLQHI8k52J3FjQjKapQ/5pfycQYjLeaNU5T5eyTEx3Dg/AXKyCA6D5zO4pQo0+A0OS2H6wqwvsL77adOs1MBYqELjulQ0wGzlD/mg/yQDBCfZAobEzAaIl+mTZuBRo501M1TxrjmxPRTroBOZUFB4tbedgVY/rk1nQ0j4fgdB6eVEU0P6ahMKO/Rz6Z3kTvVD4fz5Gf6kajhwTtywbwtQRGjMu0ICFg8DGMmCq9RrEim8lrmv9IHoyLfyO4LmFHpgfxiHh4jDmgHfGynxoPKjcLL+tHF7Yh8GKPB9NIjsrn0UiSLmEQghSdLxFu4U7wWywiQ0uPaof/sS6+F/ZjG+fpXPo8Fb24VLkQwJTlZbrj8N2XkJit/1JlhjeSi7KKYqeS4Z5F1iUrJ+EMLfAiLBpejH+/JxZiCYzAh6eAuP/uQ1Hyi4ERwi69zq9SoJe/rjH6zEYm5MIPZrvqnYEnJkKhjSq8EGcPoTuHJEv0Kd4rXYmkB0Q5QdY4x5cxyQe85TVup3wGPFAcAyS5LoyStXOmlMIPkW4Ivk1bzp5/brCPQxGXgGYdC8fI4ZmnGcZirTX8e5n37sR7TEXl3s+X/avP/atGndHJbKr9/oZxzpIZ2QY/LphoAhsCDYd44mCTjLQ/GpKSzsUD9Q6OhhgfB9OXahVohGkBkOBFCO2NFxHRdb/RnYGF/CXZZ8hsSy23WE8zc9VD/LZGWUr5RMCoXs3oOcr6uV/2nXKFMKHN8NPg8efoMZiEguJA89mQ4H58edp0IhcfZkC0JyiwJIPqP6nbPaDaNgojjAEClL2Y45yr/wQ6X4CgmTQZFz8Sw0u2e0WwaE5I/Knl+mb4bX+kbfa9ZjhSmZJduPNIa0vR04Ad4GmgpVM3kZhz4+TNG/TMF5EDRTJ6Om7iIjG4aTN+1RX8BNlzce986zHbMtWzHpFuCmWbPg+VCrGmFceBW/1Hd7hnNplEQiUgr/ShD3E6OaV3sGuUaHaccOQWKaauzaDfwhzlOeqRpK+cfTBdBFZ4XVmF6kYzkfgYSTAaMAYVHUVA5VsZYQJbBsuewbGsFUsiI4MKj0k+CUvLOOeRmGeb2HJZtHuamQkYEFx6V/5X/auxcYsx0CXGzGdqEydpiJJTij0BSeFT5u6T8eePBdTo1IGgM2O8xTmsBKzYP0YsB8oF79IbDAHOYDc9GFl2M74CIxpm5BtZScAyt0FT6YAP44axr8tYYlcMq/wvRabBKPHJGAajKHznlDKG1sBdMlC/cRWjBVwPMYVX+CtYVfIr8c0YB6HqTP06lUgjUxkbdLT/5c1irTBkQ/QRJ0zNNe/kwTnyMaS3LgM5JmXwZyxiFc2geHFFU+mCIeOJsZUnxcbe58rvyP/HCOFXlryEqUXxMqOio9c9ZUvXPTC2oEAAAPEtJREFUxPSv+OaznpAkxrbGA0qIFwHZwp/VRwGn3oizXPJnAHwXkmrWwqMMlzdfWnZJ8UhSj5sAcQyVPtnV4EaTV3R5cLIWHmW4vPmq/E+sIDdc7txEoMIRVuWPDGpwAx54nFe0e3CyFh5luLz5qvKXWEFuOC/dRKDCEXYtyp/uDYxpZb9VjYcaDs8ACx1J90zISZeHNwOivwcqqkVJEXLUAioyJ4K24qz0K/+jaJhR5S9Vp9a6okpV1KxkTZYUNfvEOum43Ew8r/W/yRK4nHnNgJtG/9nYApm3f+UbjQe4gn/nifHIXSZN8oOXhRV+sNrMSQGfrG7JglgOlDyUWH12hpgrfXIhcyfxBF6V/+SGPc6LKn/kRyEvyeqWWv+cE1X/eK0pJWZ8+pejDp/0JBb+sMEKW6/AXQ+woVQmwhAxH15WCBaWC4TCe6nHIQlTFB/QOCYbHUeXDLMb1kq/8h+SAJGo8scaEeuJVY7Ik+gY1aj1L7Ol6p+kWWFxSRqP/tUBE+qpmT5mm6ETxh2JmCxZK5hciGcJN3K0YKHC4VaZ3ixZESYFAIvZvWijS0al7ywsuWR+xqfKf5cbrwSZY7FWxIAqfwVncgMMMYo1LjIyumTU+pd5lrl009c/LnKgpSEfhnHgG89SlvCwiuUBLmCondKCGSPpX7B6aYhijC3fjbAIk9hPUnSwBZOnezAVpJ4grwn6ffj+5cDF/nAa12y2Pkwvv4splXiGYb7I6bw9wbOry3TkTZhm/skUZznPBBJ+0ShLxqh8nPSZyRkYoS5p6wyzJ8V7wG+C8k+FQZa7yBr74c5lZ1KbZTeFXefyX/NflmlUWTdz+fNL8os81Ir1Ad8FSn/BjsmrpLpZLVxw+CWtP9nG+AVjAVCGCbsh8agW7lGiKZUYI5b4LKoBXS36uBUj7BjuCadw45lSglepwsv0MpON/LMFAN/yQXx2dISN+gAZlUqZ/8R/BJPljEt43iTHZoiJuFr0QTrgxpKwZ6g/nBoeYGpu+PK/2eW/5p9Sz7qYa3a23XzyL12k7VZii+q/WgyemaMdV1EFGtvEukIBlqrLEJQas4yjmPKgJnRiMY4CzVMgOSJCCn+Blwr446V/dLg/DKKldSWuxgDpKxsNNsT+MBsM44iAWl/Mlh3+aCzYnrjISSDpZ16AbfI/NeOxASKua4E+j/w7dnEA71io0YjZoIHHPJXmmH/6Kq+08IkV0vNvngqQNcOSb+6K/MrATmpEHGFSNJaFRXAsclX6mWdNxmR/Y1Tlf5U/SYL0j3RWFhjTU+jdqjOsPi5rW6xxrPKy8kXFmEOIMSkIOvQYHK1GAm9aFJGv+KQCMXdu3ROwA141+hcwLNNnMEo2XzZIk+K0zIV+3G44iEuULGf05HmqMGPDMIkMYsPARgbTUMyMecHfmGf8aeH/Ra1OAZzlcQn67AhYqRD2w6E/iFsI+9BwCt0o9M8hz95m3sjlT46KCYn/N5f81/zX8m/K/0j9Bx+qO1QMtR7sN0fFZhoxKhEqJrOaTU7TL/FtqjGGmsOAUsQcc2Qww4zgtUL/om4AQpqQNKaJKUw/ePfjLLBNB/aFl/btD70DA4Cxo7iVacYFjF0iBAvnnbzBhBP/ghfsCP4DmBEvQ5+pYXrYwKn8YGPTpecK6Q+jlduLe0Bexa2HY9En/kglmuayPMUQc1haPILnH+6RwYxHX75hZ6tkzkjM8PJtNoFW+mKDccR4GrkzksFgXObcyGCGGcMr/8GLKn8uDqn+UUL4kyqTqOBwRE2z0FfeBECIQ0qgTKi8MkcXI+gxt0Qujl7gneJnINGJTtIQSZiKL4f5XDv0mTL7sV310ZHdsRDCIVyG9MOtW8Ofv/ZKOHoON/Ux28pMtFh2LMdcZ0qBgIOddZl5HcF/H3UIfmz6ShvTpT9rNhIJWq6APi802nH0cHh6146YmUvRt6wRgqlo5h9eJf2YToEq6Hoof6bW8q90W0blI3d81fyTEbX8b3T5d/03nDohuoY2ij/ngWUta73Z6e1xylCKjbmjb2sgAfCwIbd+Mh30kYdMNRZwi0ZJiGARe+ndSsLc0bc1UDiulD6R4YeMkzWu8OlgerYfPRJm4za447gZbu+JE+HWOXNx21y7bpQ7cPJU6McOLc5UHTx1MszCJVF3LFgQ5kzF7Xjwe/Pg++EWXLr1HuIdx+1xC3F73Z2412BGR2e40D8QDuOaUMY9fu4cbqTrCHcvXoJ7vNvC1iOHw5EzZ8N03KR3O/AtmjkrnOy5EI4Bbhlul5uFa2X5nMQd6DuOHwsPr1ipRu8Q8O05flxpWzl3XliGXydudGFDeBZ3h2/H/d2nenvDwukzdCmYkETej5V/g/ES+ij4TwqGl/y++eSv5r+W/7Ul/6qD1H+wMGW4fJIGeg6qoRTYkU/atgsYawhGwozlk9FS6YKa8aMAN49rj741EvYhDHKBhHPtgvk/h6tG93Z3hzXzF4VFM+aEtw4dCg/euhLKG40HtP6rh/ahB380zJs2PXTiDutTCN8LZf6ZtWvDAlz5+b1tmxXGBoGNw2aE7zx6LHz93nul+H+2a2foRqM0F43ObV3zw/DCofCdbVvDNjQey3ANbg8amDcR5zfWrVPD9nPAP7RiVdh46y0syvDCvnfD1sOHw0PLV6Bh6w7f3vx2mIkGh1+DvnnoYHhs1eqw8ZZbQw+uEP27N99Ew9ET5k+fiTwdD0dxzaktUo+d/6LwLmu9fss/Z+3mlP+af+dALX/TBVq7xU5dezRtpabDGvlSs7O7rT42DPeH4nTdz9AxH48K0+Fpy/YYG0a0lYCG9hqgz/GQ0of8K+140bYf6wLncd/2Clxm89htq8K7aEi6z59VZji8O3HuQjh86kz45IrV4ctQ8J+Est557FjYhQaFU0PHzp0N3RhxfPbOteGL69aHT66+LWzFdBFHFv1YsD4CBb5oxszwhbXr0CisDAdOnw4/eWdb+HW4v7TurvC5O+4EnmFML+0MXdOnhSEsuO8+flSNCv1/uWt3WLtgEe4Hvxie3L4dI6Rp4cvr70Za7goLcc/06wf3Y8R0Lmzaty/sQuPyxO3rwhfXrw+/umZNON/fb3lFOsfKP3mRym00IWBg/OUyv/7KP+XyJpX/mv8o5bX8TSdE/Wf1X9+heU1HhdeOoKgNxDCqj/KJLhhSCs3ADBjn3NlL5zMCzAOUmCK0sFqDdTXpYyEaPGCS+OMOIzYlVM67MQU0FSOKW2bPQQPSFeZh2un1gwfUMAAsdGBKaHnXvHDXsiVh8aw5GhHMmz49HDh1OvQO4oNDbJN6YPnysHr+fITPDOsxZbUEuN45fES0pk6eHFZD+TN8DkYfmw+/HxbNng08t4bFM2djxLMwPHDLLeEAGrH+oaGwBlNYR2KDxCm0k73n0SCtDoP4e3Xfexj9tIedJ46HnWjkerC4//6Zc6G7pydsPnIkrF24EFNmCzB1NjPc3rUw3LMMoxc8vBJ1tPxLcMCQG7/8mcOrKX+VfuX/tSN/pgdtbYv9ekpnx0V9+MH5GLi4lE5TmgFm05pc1P3KlrfIgswvTU8laBeBEmkm4rCJbg4SwiJWwvjx0EdCmBbk1NjCpmMSeuxnsZ5wNLz83ruYrjoY2hF67MI5TPecCV/ZsEFpDpPawwysh3RgWoqMntLeHtgg9GGaiKMEfp05D6MBPuQ/4bTegXC2u/yyvMPLAjTP9PaFLkyBtUGhc6vwJEw/zYjTUL0DQ1oveXX/fk05vXPsaFi3eFmYM31q6EdDdQprIu+fOQUcvaI3hJHNLXNnhZmTub7SG5ZgrYT0mNc2NHrzsG7yLiBVvqPkn/St7UfgDV3+Yhf4UD7m+njkr9InByr/ry35k/5Bvad+wJpHVAYsJXav0+KDNEcsPtitxkjJmM6QeikKl/BEkpoD2P3JImBQcMtSwDrINUTfmgtmHYnF9lfm+yCmo3rxbcfvPvoYevwLwa5JoQdfXf/vT/4Ii9InsEYxD9NFQ+EYFrZ5xAh77+ztn0FPf2VXV5jcbltrOWoIq1aJY5yqOtF7IdyK0Yfxn3wjdfInhAUzp2NR+7DsLIch/LEx4BTZLDRSs6dNxZrFdC2Sv7B3d/gvH3oU5860hyE0UhzRPHHH2nDvkmUqjCGMnNhYdaCBm4sGqbvnfOAd9kQ+NDgcDp09LTijH0u0yD/pM00MsbKM4MlVlKkHxRh0WhxgkKWANaQx/3QQgE+034TyV/Nfy//akX9LCfUd+rColexUo44mNaAKnGpxrLhWgKy7etyEw+LR11SCwuHrj2/vYnipCugwfIBVgIcypsenme1Xhz67/3hAnPT70Wi8e/JYmNY+GTuZVmP6aH64bcH8cDemne5Ztjw8teMdNRZc19iDaaKnd+/ENNVAeH7vnvA+Riwru+ZjuqtTo5Hvbd8W9mEnVt/AYHgD34u8e7w73I9pKevNe96N/uOrbsOU18nww21bwgAaqv3YzfXUzl1hHehyUZ1QG5YtCy/s3RsG0WAxXSzgdrweWrky/HDL5nCmvwdhQ+G7mzeHP3n++XAEax4PrVyldY/Nhw4o3i4s6v9iz24USZO+51+8UOMuG6C83GjmsrJQsI2Nkp7rtfxznq6O/FX6Jj9W/2R3lsBR5S/Xr4+v/oGm/nkwIgpjWDXDPKUPVEBMWC6pbLPitLf5ev9RHVh4uWm7dgAJ/DZaiXEBk/ARHq7kTmSTRZFSeERhhvl6fKfr5genzzTktHJXUveFnrAWSnsOevukTtpk36dvvz38h5dfgRJmz75dayEvvLs3/MeXXw4zp0wNX7tng7bcMgYjfhGL3//bU0+FAUwtTe2cHH77gQeh9BdoMX7WlM4wBesUgsWbu7b+p89/Ifzx88+Fv37jDayptIXHV68JX7ub02RG/+4lS7HIviusmN+FuNhZBTKT2zvCP7jnvvAfX3k1/I/f/g7GIgFrJ7PCb218ICzBwvnSWbPC38MOr3/7wosAfzHMmjIlfP2ue/ANC0cflndYlE+aKkQyNz0fNf8NP8llWyKefD+68s9Us63SzxwwrlT+m/5yvePmB9c/WeqyLXPfa8XHxv9GIkD1xKkzyCsWgtFj5dz3vLmzqY5SxWRSzRX9nDNlHi5pz7hkw4vKtpGOIr5B5zgMavh9TPS34FDEXjQE/L7johpXHlAIzog+P8xnkcXE0WSekFAuYH9j02vhwmB/+N1HPhnOYXppCtY7pmONQfnA67/99t+Gf3j/xvDIilW2JRc7pjqh6KmciV/8x6jBsprpE0E3RgxTgYtrKqPRJ430EABIULRY3+gLfUjbnM6poR0NE4P440wl12LOoGFcgMV480eEUeh7/u+dPJvHMY/zYYqINZYjnNdD+XuaU7qjFMZCUX7G96r5d16KE7X8r0v5P3/+Qujr47FFk/Q9G2c2sOZhlZoVYRLmw62a451k3tu1qAAQ2WwAAQycSSmmgEatIrQhUzy8ZDZg3FHQusr0O7iuzXRLmTN9cFG5M/3w41SR1r7hVqqhobn3gMluw5oCp4wmYwQyD99PmIpGvJj3zrYOg8EIYhF6//6Q/6SjH/ARvqSP1j3MBzwbKQaNSj+GIdgSg5S2Ye2Do5+ZpM8sMTYsTCvdUzsmh6kzedQ6/YgZv1HoM//t+IkvfJMWQB2PopJu4yE+QVgwnPQZ/REnEeRICVX40SX69Ie90q/8d1ExETPBaLwpbVX+WKdU7/CS2eCRO4q6lvhpfl7ro1ISNurAhI09bMbRAwpmb5LKLiCNMPLLAY6hMB1vwm64szPCOhycEXdKXIJwtB8t/XlQ8DbsREKYUbEcNGOaua6R8w9PNhww2qHg71y0KNy1ZElMKOAQqGgEwMNttPw6nCeR6Im8I6QgIjkNeEh3AvQjqoiYxkj69JPinSB9pq4LYw4TmjL/IDOScJEGL1fLv6VKSStgaHU4WY0XLYgzmUo/y5/xixwc/XG+Vv47f8SJzI7o7XyCE4JmwVniCJRdN5f8UYuU+dcMyUlMW1GHcAspt512zcs9YUFT0SCisTWyjlyVNVkMNL3H8ieAh7lpkZquhEjwV4M+z8p9f6gvnMER5L3KfxwVMN9x55WOIkQNtmkt5oCPAGDAlPaHP72indzUJU9qSKiGLefOZboFTlR6FAN+V5c+J91mTuoIS9o7wzS/ECam3VOazbFL0/ObTc9lFKmMJNqcMwXOZE2Wllhj+RPMw9y0qE1Xia7Svxr1L5dA5f+1wH9OW/X24gNizJawnWhDJzndJEiFpYqVapFb4nBHKi0WqQFLzUWr4lomCQNfj64ocFB50humOtIJnwEmPCmeW64Ofc7pL22fEmZCUfbHEQOzolTFT/Q9hZYVCDkypmPYCcVAjkZkWAXgtBNbauWfQxhmWriNNwIWnxiGnxocwBQP8WGXrR7ZaRPzPlr63FkxE4Q7malYWLm8mQiv5DFBKXEWdr2Vv5UcM3p15K/SdwGq/LfqFitdrF5Wq5w35sr1EbDOPgbR8QH1ryhFtNRNRM9VWkMuJ6wxjZl2qRQQXjyawonwuZLFdCd/ukEabuGMkTJ+B4w+0ZnDrx59Ksx56G2X8+xF9mOGGj7iX067hblbZru53M/5LWTWqiqSci332Pk3hl49+jd6+Zsojs3/mn/Inldf1vEoipJtd8Dveq3/tfxZoCb/LEM+hYpiNxLB6uFyXp7Fbo/1oGl3KbAwvR1MQXB4zzz6ewwS5r+7zSzfRsuic2IsIiDV1Ov22Bamt4MpCI5KPzLSDOdY5T9lo8qfy4OZ5bvWP3Kg6h9y4dL616bNySvITxzFqPHgdlTWstx3ILL8uPDRR3bAM4a94OPNkQKLJiASiYCMEa2KbW68c/SSUgpOjQ99Kn0yofK/yh/kQEyo9a9QIGJK0i5V/0SFmThyxfqXGPhjE8OdPmxw0wS22h1ocQLogUwmuyxNxW5KHJAKM0i+G02QGiViy3hZnjFHtBRPxiHPSr/y36VDolHlz9lBM1Uj8SbXnVr/ii5w1T9RZD64/hVXIXReC9nhx3df1ovllwuTuLe/kFCdYx8l1cQTjtaKrAh4wZ/WFL8FzsrR8UdsDSPj8CRU+pFBxhpjSwtfjeGZd5X/UXpa+FTlj3yp9c/qR0PxxE5arkNRgqAaa/0TL8Aa7fUEO8gSSRFMfipt+kfbgJxt0SxHIh6UtJN7qN2IrUZkNoNa4DTisGFHDow9A4EyVS1xOBwtMBrBVhj4CsaQGAzfLXCVPhnlTIlm5b/kxUSnyl9rnan1r+qfVv3LEYcrV0xbxWBsI01PEcMqloMniGgxwBxzFGZHyIKmSNp4J8dM85aEr/Qj1yLfwY+CUynMGZXDKv8L0Sn4FPnnjAJQlT9yyhlCa2EvmChfuIvQgq8GmMOq/BWsK/h0/cufLY6j3kgWmEu7qkKZ1O4m+CnzLg3FsK3BCXeknqyrMR8WRwAhg10mX3GhFzaOdzw4QgtOfpW+saTy3/jg8pAEJVqq/CWOWF2q9a8hKq5gZPJV9Y+zZKL6V/Hid8oUOmpvNSicztCdFeC8M1/AqTfiJMV/xrXHgeEya+FBCHfK5CtOkUX/OGsSGxeD9yiVPvnR4AY88BRFkfgLb4N0eEG6ZzQZVvkvDkU2VfmLcuIyBb5E1piYVflrYRCcziuGOLOStfAow+XN1/Vd/3RvYMw/+21qPNRwlEwBh5psgMvDmwHR3wPBn2RNluSVfSKY43KTDNdT6TdZApczrxlQ+S++OHMgPMmaLMkr+1T5Ey9cltyMtY/caXrB5cxrBkR/D6z8T3zKlmQruGR+zks3r2H+s6Ol2SmkVcmF29Y8GBATbhl0l3nKD14WVvjBajMHBXyyuiULYjlR5aHE6rMzxFzpkwuZO4kn8Kr8JzfscV5U+SM/CnlJVrfU+uecqPrHa00pMePTv3ZiuMXnmz+c0ccju6XCKYXcuYvHgGijXcyHlxWCheUCMaix3w5JiKL4gMYx2eg4umSY3XBW+pX/kASIRJU/1ohYT6xyRJ5Ex6hGrX+ZLVX/JM0Ki0vSePQvTwC3Uz9MH7PNaGOv35GIyZK1gsmFeJZwI0cLFiocbpWZF6kYlhQALGZXjBRinpW+s7DkkvlFDmaAWH4jPGLBVv4XnKnyp+oGjtT6V/WPq16ZURvLGEP/cpEDLQ3r0zBOFrdpKzioYhqVrGwdiLxV2NJqo6u3SFywEZNg4iIR/Z2AzTUUHkafIP6kD3SSh9OJHpW+cyZWgsr/zJAqf+JFrX9gQ9U/STN8UP3LbwEdB4Yi8ZYiLn7wklF7FB53Wuja1dI/2osikY/jtGBgMiQRusUZCWkAFCOW+Cp9sK3y3+Sq6MSUMlbKCwHLMHUzTIiEI4W7gFf5E19q/XM91WhiouoyIan6z2oW+/sXtd3KqhTrn1oMHjmuHVexCsa6BSiIV1Rislu8/C5qbBmHADa4AECEyeEMNE/5NQOEO3tV+pX/Lg1SdZKP9Kryl1jhXPIKV+sfWVP1z4emf6GzeYBu2Wmz4QZuEbRZIE5qsUZ6rYRIysqXzXV5CDxyA0GHHoOj1YQZb1roXfQgvVdNOD65dU/AFsDIImh4hSaGKB7BU1rdLs9Kn+wgF8iOyn8KmTiiV+oQmVeVP+dNEpbIK7gVxFet/+SCc4oMSg00HXqMT7SSkzdW/bNJKpyn65nDZVDgAP+GMYfF1XS1Lc4hckBcSKwQS/xV+lqU2C6V8Qlc4KBzZDAB6FvpV/5DhkoBKWTH5I0SZI+57W1RqvyJGyX/yCp5Gp/oHBnMMPrW+lfr3+j1jxKSfhIVTFtpmVxyxVGHiU+CkkBFUWsaguXLvMlyxI0wOX4Eg3+5HG8iarEVRfT1QlT4CJmFO4VIyI2I2EMr/cr/Kn+1/kW1kPRHdFf984H1r4/OucRhj44nkfq2qaOsyRulUHp71AggPW/aHj6tgRGIw7vYJzRtb+M9RVBjAZtolIQUlwgjRMTdSsLcYwQKB3AjuNKPPCKPK/+jZFAqJHRV/siRWv/AhFhPJCG0V/1DsWCboR+mf63G8CPBqFbVa0ldF3EuvdK2WcTyiCnwMhYRFkwkauVRxLLCMvqFd2Gt9CPXK/+r/BX1YjzWWv+8Oaj6R1rkCvUv45Y7dcnVDnmytaX2Nj1uMskFRrkZFgNojRLLeG6PXhq9DAwOhsGBIdnV2wdezSPi7XHsLC3EhkceFRg9b780TBIBo8I345Mq+wJ+wGP2V6C9DFCQzFelbzwjW8QvMpmMj4bKiQ54Vf5HESrl3/mmoCp/tf5dX/qnrb0jTJncEXCYSHyiJkj1Pwq4B9Ms5R/6n3pD+gEv6RDoiw5uvyKcHnw1mJ7YYEQy0TsTVXAROIxbCPv6+0N//wDaGgYgpQDCogoUva1JiLprLG3sIhzpR7oFPsJKSJG4nCra28JwzJjSnQOLpBtONhuVfuV/lT+vQ6wsqGSsb7X+mYK8wfUPb4ftH+wLA4MDYfrUaaG9HWVvPfbYGBRKt7D6gMG9aFKfttOEg/q/wz78iF8OSqAQShmLT2GFj7mMdsQQ4Tji6BsYCJ1o4aZMmRLay8ulKLAl0sKdQtziZsQ7mmEgYwOODGn1ye5kc4uboxGOfgYyNuDIkFaf7E42t7hZ6Y/JAWPR2IwaGdLqk93J5hY3x6TOSkRpHhtwZEirT3Ynm1vcrPTH5ICxaGxGjQxp9cnuZHOLm2NSv77KnzM4A9DL53v6Qm9fX5g+bUpsF6IuhyTL5vl2M+a/Vf+zI4YDESX/UPGAJgR/aKXSvIUqBzHxgVlYDaFVHwu1BBLl1CmTWxoOQuQkGBq4ZfEeUQHi8yYToE8KZQIzNQup9DNHKv8pE1X+av2jHNz4+ocfGU/u7IRe7gx9fQM2a3OF8i8tgpEDRx3U9fryI/WiFKqXVTAS0QOIbI1+RGCq6CI+MuS0VVsbDjlp48DGHt/exUIyyKjG4TB8QKoAD2W8klC2X4q+IcmwkTyGV4630ndOiEtwVP5HWRNjnDtV/mr9K/VItl/P+od6ur2jHTp6SKryInT1ldd/Kg/+s/EAf4aFiT5wpHqULNLFzkZXzGaaLz4vlJOr8XxcZ6ejNYC3ER+O5IalaP+viL7Hd7puVvqRy5X/Wd4ooFX+Mj9q/bt59A9VPJX0lcp/VCesQlTUXE/OgoQ1D7UjakEypDUjsTFxzSwE9tJME8Db4pQThzX5QbzoFga8IqYEUoJfEf2Iyem6ad6VfuV/kgQJX5W/VPVkqfUv8+NG1j/aD/UB9K/Uu/Q/JAb/jWXtSWiVTJDwTjXM+/UWkr8wBEiEEQTX3A0kl0QSTQNUMF6jggm2oDUh+oic4FvIi1qlT65U/hsTqvy11hF31/pnsoF30icFT8Cm0fUfA5yHrSYxXiP6B0nx9YrWVJq7yGvKj/lx7oheln/z4/6qpM25ZTbFSfxj5vOTXUAQYTTi8J1aGbSwOd6E3ehkZ4R1ODgnQF9pygkr6LrV8WaCsmVnpS8OOJ/gqPwvq7wLkjXAcmX5r/Jn8pKYNMLicpUrXK1/YFJmR+SY8wnOj6L+eW8fhCfKf2suUlOh9WRrPLzRQGtQ6mCz+2JzkVNZGWoo9Z1GETwKVyJei0NOiU0FMY9eeMU4l6dPfM3HsWVfw1vpe9lU/kNGCmFziSm8qvyp+tT6Z7LhEgKmyGq6pJSXrG0K2OhpcBaHXh9//SNtUrVOz8Tpx885mHi0F1wu5yoHXbGiyMpgPM4Ab1AKNkVrjmU48rQVADy644ru9EFgomgBCXuK55bx0Lf0egxpheywvER3pe+cdtMY465cbs7Ayn/jTeJQanSy/Ff5Y4V3ian1D7KSmXGN6B8kCIMDftdnOtDl2RLqrpxuz4DVf709W1j84B8aD49GYBJgRSjzXgqFhfk7ro/DyUhoiyI9GY4WIapkcNPfvj4v8TtgjByd0aXY2Q5n8WT69HQlF3E7WoRU+mAG/m84/mPL4bnzF8LQkHImKaQk0DU4NBR6e/vC0OBwONZ9Mpw/f1573D92+UNienHqwiC+8GW6+vt7w8DQoOxMqwpGJkPxVPkXGyI3YB+P/jHGeZVXXHcIAxz4p//HXv7XCH0tMWDaqq2Nu61KnjqjLi1/3lEiHn80bWUtUbqRVmG828MeNw253pGOCToccY+uT6l5DBUXgt1tZvk2ChbPhlSRKPLXjGVFH98j6EePaHjMSh8Mwb/zo+S8+5Hf1yv/+bXrd3/4VNiz510Tm1j+dOzcszc899Kr4eix4+EHP346vPL622FoYBAhJRdiNMX7aOTvwoWe8PobW8K2HbtF+RfPvYL0vheG0bj5c73y31hJGYuMj0aWLYY5x938ePlf6RvfWTTkvHR9USaUwfHIH258ImiMD0z4V+NhrTHbFitYQRWv0ld2b7mYImGBLwMUWLRqbACiX0KnOHolL2/Nrph+RgCclX7i7g3O/zac9LZ95+7wvSefNlmKskaF/eLLr4fNW3eGSe1tYcH8eWHmzJnxPCeCJg4pXhYfITBcxbv0lb1V/jMC4U7Ywf+evt6w6Y23w7Z39gjjz597Keze+14Ywoe1/uToJSUPjVUoOidKv9Y/Mi6VSLQWboTeHPyPsoWsa70jyhON8eSfHONPcXFxIBucNG2lfhfwE0BPaZdnJJ6DickiABOnkAjWaILoqScn1wYUTVwGY7Aeg7iTXZZmHLn4UphB8l3pF03wTcD/Lz7xa+GZZ5/HtNQFiQLL/8jRo+HwkePhjttWhMUL5+O3ICxc2IVjc9q1nfzY8ZPhRz/5Rfjm954Mr72+JfRheouj5+0794Qdu/biVGiMUCBb7+zeG5597tUoY5NC96kz4eVX3wjn0Ti1yt8F0H/2hVfDX33rh+GHTz4TDh46AhzWkWHl9C4N5Z9ptMpjkm/vLMNyCy6GK4hx8iMXXwrLcav831zyP+7yj7ogy1+WJbNlGZK7Rf7EVfhJ7gBAmcYX5ibWXP7gCYweSATpHg14Gmp4ylJA0QpMHA7xc/UU0gJnaXf8EVvDMCIp/kTokypwMW6KX+mX3FDjTiYZfxqMj2WbeYiIesZd/leR//fde1fo7JyC3v1Wyxs6MgeguLneceftayCak8LTz74YduzYi7WRwXD06PHw+3/4/6CR2BNOdp8OP/rp0+FbP3gKJ0IPhZ0794ZfogE4efqM8v/t7/w4/Jt/92c4VK4Hp5IOhi1btoef/eIFHcMTWSSB6+3rD//ff/rb8LOfv6CGaO97+8O//fffQAPWrTSxbtg0bMl/lEGjGK5P/hvTc9pNvsCdWv/AhMSNq1//4heClqKG4I2r/nOcTB3OEYekGCYWOqLCj5+tp0pBCxuFhgf9Wj0MITHbKfcxvAWOLZ66fQqOgdaiGEqmqiXOuOkTp+IWqW3BVenfmPyfPm1qeOLTj4Unn/4FMxjOYmF8N9YUFmGksXz5UkpGOHXmdLjQ24PBxaTwV9/8fpg/ryv81t//Uvj6Vz8bHnv4wbADI46du/dodHIIDc+Jk6e0EL95244wefLksPWdnWqMOEU2b+5sHDI3VXjza1JYtXJZ+Me/+aXw1S9+Nnz5C58JPb294e2t2w0EspjusIFP6mJV+Rd/rOrW+v/R6j/wV0rwg8kfmgRJMN+YtooKt/zWvFUHj1KujOxxfcTBsUcR1UDiu6CpaHFAn2EsVeYukJhgjWxXSkDByGOUxi5SqPTBCGcU+Hsj8Z8K+y2MCo5jOuo4dlYdev9oWL/29jAFp4nqofwy7/j9/Jcv4VjqaWHTW1vCy6+8HfYfPBzOnD0XDrx/OKxZvRJrFH1YZD8RtmzfEW69ZWl44lOPhudf3KQRxZ5394cN69cZLkcMcyrofObxR7EIHsILmNb66TPPhfePHA2nz54VFCtFKX/qvanh8AJh2gp7lX/jG9lCm/Mv+brFGJU5V+t/ITrOJJku/2SojR4ImTl3OflDQyFw6+Nb3A5hpj9bJYTI23EKEg53O7CbjIN/xuGwBtc0NUE9fTL5Iqz1u/j2YAVYoBrHVI/GST9GFcbUq8uelsDYy6v0bzz+L1uyJNx5x23hGSxGL1m8MJw5fzZs2LAuljsEgYImWboYTkGhHz56DHcb9FpHDFO1K25dGpYsXBgWdM0LS5cuCgcOHtKaycYN68MDD9wbfu9f/Ovw+c/8Sug+cTLcc89aSpY9Uf5PnDgV/uX/+Ufh1KnTYf2dt2MEMz8sWrQwBN9QJdFXIpQUVhrWtyr/LaoFDBFLXd/U+g8GmY51kWuYUf7oZ7Lk2i1CuYDRjPJPgzjJYg+O0PIYi/+ElZKPh6ZTeq3xoCBjBZ0IU7nRnrV4DikpOjAQWdzkAfgcxZBamN4RLHW+HCf8Y5BlbNz0PZ7HNvIJmbwtrLBqDk8wlb4xEMwxLkXBuk74j5sA1PP/5nd/FB5+8L6wZuXKsGh+VxQCk0NVF3wgtXzZkvAZjCY+9+lfUSaHMV3L70QmT7Zacdeda8KmNzeHF155I/yr/+Wfh9tWrQjDEFQugq9ZszLMnoFdW/5EZr346uu6C+cP/tXvhVmzZ2nxfu/e/WBmBBBfaWcqIGzAJ5fLnZuCM+Ty8vhWG4qAmAAiaVgLD/q7U6Y5CmuVf+e7m2COcen6kv9c1J76hlAoUy7/Vv6W4YnpX/AE9czjsJHRaMTmYyNBGSbc2QeQpMenJX2qCzFQIA6XIuSoKQhoZHdcbooAXxOjnyk4YsPBNx+n62byc7puCtpCm15weeRmQPT3wIJYipCjFlAW6rjcrPQjByZe/g9hhPA+FsNf3vR2eOD+e8uCQKfLRtR8/4OvfCH8+V9+K2zZsSscPd4dfvTUL8K/+P3/K+zELis+69F47Hl3X5iO2zAXLuiS/n/4/vvC01gofwjmaPI/d/ZM3dJ2EFNV3SdOhxdfwTbhbdtAzUqcJm3mssLW+qWXu5tKAV8Tz38RNVqNmmEzr+wT0+J03SyQNL3g8sjNgOjvgUCQrMmSvLJPpS9eOC/d/Aj5T3oujyQzUfpsNDQ7hbQquXBj5IE3A2LCYYXdXeYpP3hZWOEHK1ugi/lm9Ywo4WBFMHzlQD1TQJaAxDtZV0Lf8StlCbFbKn3nz43M/5kzp4ff+OynsM5wDusSt0MUcvkvXbI4zMaIAJ98hC9/8Ylw9tz58K//4I+1dXfGjGnhq7/x61jvWCHxWbx0cbh7/Vosik8J06bawvjjn3w47D90KNy7IU9ZeV2g/D/4iY3h7W07w//xB38SJuPSnWXA8cSnHgvz5szGndH8zqQrzJ0zCym6GJYsWhRm45sTrhPaU+W/1v+PSf9p2JBrxkTkj6MONj7UJZR9PpNOnT6Li6UwdMdHSxTorrlz4OtVgyDRnryShYF6hoeGw7kLvWoAZqESX+pJsWFhxfMq1KSToIAq2pNXslyKzJhhKTYslf7Ny/9e3Ol89sKFwFEDd1Q15SxJSYs/xaoMozs/J7HmMYjjUBbMn4u6kCU7QxSxq/zV+vcx6r+BwaEAXY9ODOS9nVO0aAQmQP/8uR5sJunHR7cYcWCwMAkbrNq4gMLqkNSIZD63LskfECWcFl4Uj+sobDnzF7MRMEYoB0uODZgaCf9g9C1d9laS3Cqz0nd2ZC7D5ybn/9RpmJbCl+fWcGTOkC9kTuaZPOg5pvwb7EVs452Dqa55iB3jKKDKX+Zlrf8mGeAILFmyKF3RJePK5I9Y9DjDG/JnnkSvZQpYIsUYKbpkjEGfax7oFBHTMOZdNRhhbIq406Q7fSBGB59WYnEIZEGIy2bMHw+LI5gU4gQSrHsYfY9Oc2L0FSNHr/SNF5X/lKRcSVzcqvzFuuIMqfWvqf1uPP1DHWzqALZhqH09Eyx/zFClQQMGC+nDDJ7O7kpeKOOwm4uN/mRbo0qmZHh8hlpLlH0MZ8QUvbUsGJEWVTxGNaCJ0Pd0VvqV/1X+WBtq/XOdcLPrH84L2cYocCJ2rieif9nf4nHu/lBfq8Xg1YJCHMcepcjluVuR8rhmRsVPh8Xh2zytcwd7hMk4CWKe8msGEFVD5CdGn7ErfXFBfK38r/JHaSjrFBy1/mWe3Cz6R/mMA4QrKX/E4QG6ZSffsGGx3BojLqRQ+ZoClsjJypfNdXkIuZ8aCDqk8tm+WWmkNy2MFBMMG0AsVHa88ugiAccguMdNn1EsnbQZBbwTyiLllT5ZlJ7Kf5eNJCyRN3BX+QMvrF7x7Zwig5r1Xz54kYfFO7G0iFnrn3jkr4+l/uFjWJYeyyx3yC0F46Nvk1S8BiEWMbbqAhv/hvmRIOe06PJyZsFLFvQyq+fYgwgPO+cM7TNDOQzKojVwMKBET7djoO1K6GechmkUAqJCOD6VvvEhF4+VYOV/lb9a/yau/7JOuYb1jzfYUH7exZ9I/Sds+lGBAh8u/4NNWGw+S+MLh5Kajaq2aZj2wZve3myMbHQiGIDKBSmrogyLvqKvl5qPlMqIXVguQZ94lOQIk+NX+s67yn8XDm8iyZkqf+JKrX+QhRtc/yTlTL1v+nIi8u+jEy5x2KNraK1SKTBLUgSQSpYKj7x1I4ZnlhOSVdGJJAD6IzC2yQQyDwHQN9Kn+wPQj+hktL4q/cr/Kn+x0tf6d1PqHz9nTW1I2m01fv3LNkM/LD+YxsbxJIxOsRLSKF+tyjdtm0Usj1jCCCkOGBrCx4KD+BilfAhvaIteXoOOOT4I/ZJeq73Sr/yv8sdaUeufdBeF4SbTP1xu7sVp0e0dmF3i6elStq4pjRmX07/kHVY1Cv0/KXTIk9xk7JKppCg3w2IArZEm47mdXjyWob9vAEc/9ODI6yly6zMS4NVHhBJeGy7ZljHEBpI8KjB6ni+NYETAqHCEQpqkSns5b2f+CrRX9FCzWOlX/keZoQRRmqr8oYKw4kXDuo9wwKvWv6hCSv0Hr+tV/wxfHMJdNv2hD7p55sxpaDtQ2qZSi/JXBi3j/i7zzzj0p3zoj1Fxqi7nvwinhxrZn0iBQU5L1OiinNEzBnL1vgONx7Tpnbg0px8NyFl9gUgC3M7lip6YVIEpuFxiUQKBhG4+hZWwbVT8pJEe4sOqP+IpCszWnQMEtTwZrUq/8r/KH2uTakatf+CADvi7ifTPJIw4pqlDj2N4qLipPCkQMqISp3gUVlPw2YtBps9hwkE0HfbhB6oXQ8VQmEQcn8IKH3MZ7YiBvsDUhmmrzs7JUPiYvhqeAnRx+op4G6lqutkXpJpP9HNNFzULZ7AQMbJsigO6di9CDGPyhAr+qQuVY9BmD+FjXir9yn8TGpP/Kn9eNWr9g5a43vUP9WMbpqo6OjpCGw7ptM52q/5TRq3cc5BUZav+135c6l1wpkP9c0Lwp4rjsWnyYQDs3lrBylaH/g4pF/w4KuAZc5wLmxQmI5wQ5SNqmnbj/JmNkRExkiCkQRQeDGRDwDOs5Y0X9ojJS/AxnM1hQsTMGSbizE+lr94DWFb5D6lQB4PyA3sU1Sp/lJCCIbTX+ndd6x82GP4zLYkylcWbRtaFqCW9TniFcFkAPEHYGPEQdepXfOcBi0cQgoQlYqOBKgXvRrD56h1TokZlEo9d9GklNBBKNIgMa5RAXKBMRd/ODMGJealJ3DCsT98thRpWWu4AAD++gdZTJhsitxcTYpYjZgnw/BfuSr/y32Siyh/4oKpU699Np3+gC61DEHVo1I+sGVKvrv+laV3LuklP0/8WbJG5ZXfSyVNnsKQC5Q0l3gaN2zVvdqZQqGtFHONFmSQpnwtzM4E7QPJoWhrByZEsTeBRXA7pdN1MoA6QPJqWRnByJEsTeBSXQzpdNxOoAySPpqURnBzJ0gQexeWQTtfNBOoAyaNpaQQnR7I0gUdxOaTTdTOBOkDyaFoawcmRLE3gUVwO6XTdTKAOkDyalkZwciRLE3gUl0M6XTcTqAMkj6alEZwcydIEHsXlkE7XzQTqAMmjaWkEJ0eyNIFHcTmk03UzgTpA8mhaGsHJkSxN4FFcDul03UygDpA8mpZGcHIkSxN4FJdDOl03E6gDJI+mpRGcHMnSBB7F5ZBO180E6gDJo2lpBCdHsgj43Pme0Nvfhw5/G/r9aDjwQ58/thUEYadEDU7DV42TNVGAYcpaHm+jgE+Pm+YCfPRXTLxaMXh8wlf64gJemSvGr8i1yn8yqPE4p1zu3DQg8K3Kn1ghCcIrSlLiofOPHrX+iQt4Za4YvyLXbuL6pwGK8g/e4J+7ftPD40nMjXeSsMaAB8KVYzgfBZrgE7poIbwFKiZeGUMrbEEr4Sv8iKnST0yr/DdWVPljxUhi0WKp9c+ZU/UPROMK9S+nuChipn9NJ2OsYQhp8E6OJIMgYnaxnMF6sgsIIoz8coCDFqbjTdgNd3ZGWIeDM+JubWoymUq/8t9ktMqf1ZeiwrVYvV7lCidbdkZ4hzN8FpxrHIGyq9a/m6n+WXORy5+fS1jj4Y2GuJElygSFuy/4ZH+zMtRRCqB4FbDR13BZHHpJTM1TEB6j8IqCWulX/lNEXELcarJUyosESa8CNnoanMWhV5U/8KhgnnOs8Kr1L8qS8cY5BE9ZTZZKfgk8xsl2sxmcxaHP9Sd/+PTCWYD2AiseWuVAVqwRoJrWFk7l1yEJyKdgU7Q2mw5X8hHWoysuHNGdbxx0fBbgLodLEUDXwhJESkqlX/CEZSdeV/5LQDIzwBA4orvKn8uMm8YYdzmfEsNq/av6h/PjFBMIiaQFix/8w8jDxYYAF8PAYL9UkICiLdvlkV629c+druSdgPvTDRqRsH+8l3EW9BklOnN4qRQzToFmIEVsYHIHQip9MAP/ZFflvwlNFh0XlOgTnTm8yl/mBWtdfmr9z7xgBWtIkjsAcr3rnwHc9zQYj/rg5JQ/mray3hi+DMewo7ePjQeya9suYHdoEyG9XZoUBEdj5TbHkLpCsGMws3xbMiw6B3KOGHEq/VhGzj3jjd7OJgXBUfkfBckM51iVP8pGrX8uD2aW76p/yIFL6V+GDfQPhqHBATFLbQV1M/7VeFhvlO3jpDAwMBh6etCAuEJCFGO34ppdwxZSpR8RRQgZRRMQiURAQ6A4epmbGFL0aEkhZil9Za/0jfWV/5SeUoDgrvKXaletfxKPqn+SRERWFG7WoKhg89jJ9C7fg4ODOpF3GO0BY9laDQ4pgSNNW6nfDyRDGKL0XLgQegb6NRIRGtGKFOQRy4ReCtNLVmuCHMj8I0lDJTRNXAadccgNEI9tlmachEZAOW6lX4hAmldQkVf+gwM2oG3KUpU/ciDXIfGj1r+bWv/w5Ok+jDYuXOgNg/2cjYJA2L+JB+0nT+MLc7YqOErk4hC+NYeF27Am4aDDaVM6Qyd+He0dcGN9nU0UZQzGiKfVf1S3e0azaYzEzeYtNoses9Kv/K/yN6L2jVJ3WuREFchrUTSbxig4AFDrn5jtnLvR9c8w9D/vZeofGMAJ6b2YiRqS7md7YMe5w4xtQbzDHI0HWw82CjywEM8gGpJzF3pCG9ZAJk/GiYz4LF0HYrGRiYDs43IwwyhqT1zZo3vHg8Ddn709BaEE0khaVFgknDljAH4+flIYMdpQiV8ycr2GwexM+/0g1scu6BMPgUTf4jqqK6FvuQMGoizoW/5tjEMqCFL+bfQ2cfqKFwkgtvBl7DFLIKIvOmGW+S/pK+YV5J/0PYPMCx+nL0dL/kkfB+MjyDhkNot1Of6LUULqsS9f/soSiIxW/hPNP+mTx3ys5Iy+LjwDgdb8030p+bsUfaOBdy7UUeW/LH/G4eP8F29H4T/jeP0TTIxV8l9efCG+6g8AWf8ixxGg3Jk5Dvm7FP8NJ9KkwrIME7seT39OaAwYST8GFLmzci/r32jyT/rKD8uwqP9KSUG/1D/iu3PDCcQEZO6OpM8w0rLrHkyK6OP0Xf9EH/Ff6JHdkr7gr5C+lz9PuXW2Kj+R/7Tbg5SV+QejcExgDHX+e0qhtdV4DIV+TFcRiDJGlE5EduUfB+DSV0oYLQvmrDTi4AiEIw2edzWIFmgAF4kwiUwoWwSpa3KBDY5JDbADHhzyBoPKiCCMMuKBH4dF3ClsWQdEgiVeACS8CINTiY5BhpQAoIYANigePdEnUfekHU9yToC+4kT6OT/wUAIzfRHA61L0HYb5uVz+2VCTDXqugL7SnTKcKCd8o9EnH1UxxuD/R5X/ZlrhmiB9nrHjrBov/yk01gTGmIlXE6dPvvlzOfoiw/Qi0kTln/y3MiLBpvyPRd/TViRRzLpS+sbo8dFnnU0y7AmkOc78W14NXrjEvIhglPwzmPxPT4JPPmYZJ/0kVIC/HH0ndbnyVwJGoZ95BUzjkH/KLnOrAwqBz5+SPnGa1rNQc0b8MCR/8gQU9D3/eLUG6bfhDhCdX0UMQNqGg2zVi4JhDRNi69RVeLRzZCFvVCrEZ8ExeXLIQj/FpGdEADdtgGWi01eH9OYDT1mVObyAVFYEEcOwJJs+SCxwm7AQTl5wMwwO/AuKLz2RPtMT/Xh7CLFbmiPYBOgrb8ClFBb0pUydzBj06a38j4M+U0b06rUU+W+lz6y35h/oFZdvFWDM/0ToE5ZPK/9JnzRb8y+KMf9KbopNYAsYi76EjrREFC9YZG2hT9/W/BOwraX8U+QPIf/MVyl/rfSZ5tH4r+yPQt/ydVG9OgTbM4r8UU74tPKf8s/8XYr/V5J/0hIbGXkM/lOWWvNv4MwV0mVJU/qIj2lnty/HGV3+fTKDuBQ50id7WvOfcTGdDj46fYuNsMQzo8/OLaPaC+Yo/Gcwn/HSJ5wpYURSPjx2k/5Y+kf6SPHwGoP/RDzR/DOO7XyyZI1X/3gWmC92IEQbTGNDwvypLjLRsLNTxpJmwwKL0qiRJRgir1Onz1LnqyJdxMjjIhbMh/mDJ7zNzlLAfRoqHFgVYhJpdvKTwNkAoTwKYRAL1YqW2WTS4Y4BYlzRfaS3x4GVqYaHZUBampGLx3A7DQto9bMorCYj6Qt3QZ8Yxkvfk+LwNPmMRp/5Jxc9/9o6LUC8xkmfCpmsGO1xmgxj+RulnJex+D/e/KsSjZO+J7FM00ToMw8p7odU/h8VfU+rp7eUBfczk+9c/q3yH6sU0Y0pf+Mt/yZd5+UHp8/kJ2Ua06kE4+U06XZ708zyTxjP/1jyF3UYkIGjl6j/xMXHaZV29zPT6Fs9vDx9xuHP6aveeaWif8vjtOiteNH0KGPJn+u/8ZR/qtQttJ1mqX/kh8Kin/ESqaIAIXVKHzJkbEUDoSsv4E8Qe+n0XHZy2SNqJwAuk9IfvHixFK6hpToDwkhVSOGgvxbOYbbhrg02GERkw10miBEADeqTkCDOQxKJemskTrv8aAVsi58SHWmycBQDL5qMK1qy82WYBAUla9ib9D2m02cK3c/pM82epkvRT3n9kOkzX54m3W01Rv4vR98EoZl/4wqwj8Jrz39ZJh8k/+OhbxJipeByNBH6LKfMrQ+n/D9K+uS/ihP8Z90pUz9e/iMS/4Hn0vI/Xv67rH3Y9D2NxE/Fx/rfKn9j5d/TNF75Iy3REV/gGqP+T4S+0o8X2yQ9LfpnLP4r7ROgX8rEePTfeMtf6Ze0wXYJ/mseRsDIEWRS+eK0Eh/lP9Yr2vkHU5uiWJpxJsrSxDiEgClYOMG7/x/pFynOB9TRMAAAAABJRU5ErkJggg==;" parent="1" vertex="1">
                    <mxGeometry x="34.620000000000005" y="409" width="320.76" height="410" as="geometry"/>
                </mxCell>
                <mxCell id="3" value="&lt;p style=&quot;line-height: 1&quot;&gt;&lt;/p&gt;&lt;h1&gt;Notifications Schema&lt;/h1&gt;&lt;p&gt;_id:&lt;/p&gt;&lt;p&gt;sender_id: User (id)&lt;/p&gt;&lt;p&gt;recipient_id: User (id)&lt;/p&gt;&lt;p&gt;activity_type: &quot;timesheet submitted&quot; | &quot;role updated&quot; | &quot;user joined&quot;&lt;/p&gt;&lt;p&gt;payload: {&lt;/p&gt;&lt;p&gt;&lt;span style=&quot;white-space: pre&quot;&gt;&#9;&lt;/span&gt;...&lt;br&gt;&lt;/p&gt;&lt;p&gt;}&lt;/p&gt;&lt;p&gt;timestamp: Date&lt;/p&gt;&lt;p&gt;expiry: Date&lt;/p&gt;&lt;p&gt;status: &quot;read&quot; | &quot;unread&quot;&lt;/p&gt;&lt;p&gt;&lt;/p&gt;" style="text;html=1;strokeColor=none;fillColor=none;spacing=5;spacingTop=-20;whiteSpace=wrap;overflow=hidden;rounded=0;" parent="1" vertex="1">
                    <mxGeometry x="10" y="10" width="370" height="320" as="geometry"/>
                </mxCell>
                <mxCell id="4" value="" style="rounded=0;whiteSpace=wrap;html=1;" parent="1" vertex="1">
                    <mxGeometry x="490" y="330" width="370" height="500" as="geometry"/>
                </mxCell>
                <mxCell id="5" value="&lt;h4 style=&quot;font-size: 16px;&quot;&gt;Notifications&lt;/h4&gt;" style="text;html=1;strokeColor=none;fillColor=none;align=left;verticalAlign=middle;whiteSpace=wrap;rounded=0;fontSize=16;" parent="1" vertex="1">
                    <mxGeometry x="503" y="344" width="100" height="30" as="geometry"/>
                </mxCell>
                <mxCell id="6" value="&lt;u&gt;&lt;font color=&quot;#ff99cc&quot;&gt;Mark all as read&lt;/font&gt;&lt;/u&gt;" style="text;html=1;align=center;verticalAlign=middle;whiteSpace=wrap;rounded=0;strokeColor=none;" parent="1" vertex="1">
                    <mxGeometry x="749" y="344" width="100" height="30" as="geometry"/>
                </mxCell>
                <mxCell id="7" value="&lt;pre style=&quot;font-size: 13px;&quot;&gt;&lt;font color=&quot;#ffffff&quot; style=&quot;font-size: 13px;&quot;&gt;Today&lt;/font&gt;&lt;/pre&gt;" style="text;html=1;strokeColor=none;fillColor=none;align=left;verticalAlign=middle;whiteSpace=wrap;rounded=0;fontSize=13;fontColor=#FF00FF;" parent="1" vertex="1">
                    <mxGeometry x="503" y="379" width="60" height="30" as="geometry"/>
                </mxCell>
                <mxCell id="8" value="&lt;pre style=&quot;font-size: 13px&quot;&gt;&lt;font color=&quot;#ffffff&quot; style=&quot;font-size: 13px&quot;&gt;Yesterday&lt;/font&gt;&lt;/pre&gt;" style="text;html=1;strokeColor=none;fillColor=none;align=left;verticalAlign=middle;whiteSpace=wrap;rounded=0;fontSize=13;fontColor=#FF00FF;" parent="1" vertex="1">
                    <mxGeometry x="503" y="484" width="76" height="30" as="geometry"/>
                </mxCell>
                <mxCell id="9" value="" style="ellipse;whiteSpace=wrap;html=1;aspect=fixed;fontSize=13;fontColor=#FFFFFF;strokeColor=default;" parent="1" vertex="1">
                    <mxGeometry x="509" y="414" width="35" height="35" as="geometry"/>
                </mxCell>
                <mxCell id="10" value="&lt;b&gt;Sender Name&lt;/b&gt;" style="text;html=1;strokeColor=none;fillColor=none;align=left;verticalAlign=middle;whiteSpace=wrap;rounded=0;fontSize=13;fontColor=#FFFFFF;" parent="1" vertex="1">
                    <mxGeometry x="555" y="409" width="130" height="30" as="geometry"/>
                </mxCell>
                <mxCell id="15" value="You have successfully submitted your timesheet" style="text;html=1;strokeColor=none;fillColor=none;align=left;verticalAlign=middle;whiteSpace=wrap;rounded=0;fontSize=13;fontColor=#FFFFFF;" parent="1" vertex="1">
                    <mxGeometry x="555" y="439" width="234" height="30" as="geometry"/>
                </mxCell>
                <mxCell id="16" value="Just now" style="text;html=1;strokeColor=none;fillColor=none;align=right;verticalAlign=middle;whiteSpace=wrap;rounded=0;fontSize=11;fontColor=#FFFFFF;" parent="1" vertex="1">
                    <mxGeometry x="789" y="409" width="60" height="30" as="geometry"/>
                </mxCell>
                <mxCell id="20" style="edgeStyle=none;html=1;fontSize=11;fontColor=#FFFFFF;" parent="1" source="17" edge="1">
                    <mxGeometry relative="1" as="geometry">
                        <mxPoint x="869" y="439" as="targetPoint"/>
                    </mxGeometry>
                </mxCell>
                <mxCell id="17" value="User successfully submitted their timesheet" style="ellipse;shape=cloud;whiteSpace=wrap;html=1;fontSize=11;fontColor=#FFFFFF;strokeColor=default;" parent="1" vertex="1">
                    <mxGeometry x="959" y="394" width="120" height="90" as="geometry"/>
                </mxCell>
                <mxCell id="21" value="" style="ellipse;whiteSpace=wrap;html=1;aspect=fixed;fontSize=13;fontColor=#FFFFFF;strokeColor=default;" parent="1" vertex="1">
                    <mxGeometry x="509" y="519" width="35" height="35" as="geometry"/>
                </mxCell>
                <mxCell id="22" value="&lt;b&gt;Sender Name&lt;/b&gt;" style="text;html=1;strokeColor=none;fillColor=none;align=left;verticalAlign=middle;whiteSpace=wrap;rounded=0;fontSize=13;fontColor=#FFFFFF;" parent="1" vertex="1">
                    <mxGeometry x="555" y="514" width="130" height="30" as="geometry"/>
                </mxCell>
                <mxCell id="23" value="Sumitted their timesheet" style="text;html=1;strokeColor=none;fillColor=none;align=left;verticalAlign=middle;whiteSpace=wrap;rounded=0;fontSize=13;fontColor=#FFFFFF;" parent="1" vertex="1">
                    <mxGeometry x="555" y="540" width="234" height="30" as="geometry"/>
                </mxCell>
                <mxCell id="24" value="5 min ago" style="text;html=1;strokeColor=none;fillColor=none;align=right;verticalAlign=middle;whiteSpace=wrap;rounded=0;fontSize=11;fontColor=#FFFFFF;" parent="1" vertex="1">
                    <mxGeometry x="789" y="514" width="60" height="30" as="geometry"/>
                </mxCell>
                <mxCell id="27" value="" style="ellipse;whiteSpace=wrap;html=1;aspect=fixed;fontSize=13;fontColor=#FFFFFF;strokeColor=default;" parent="1" vertex="1">
                    <mxGeometry x="509" y="581" width="35" height="35" as="geometry"/>
                </mxCell>
                <mxCell id="28" value="&lt;b&gt;Sender Name&lt;/b&gt;" style="text;html=1;strokeColor=none;fillColor=none;align=left;verticalAlign=middle;whiteSpace=wrap;rounded=0;fontSize=13;fontColor=#FFFFFF;" parent="1" vertex="1">
                    <mxGeometry x="555" y="576" width="130" height="30" as="geometry"/>
                </mxCell>
                <mxCell id="29" value="Added you to the role &amp;lt;ROLE&amp;gt;" style="text;html=1;strokeColor=none;fillColor=none;align=left;verticalAlign=middle;whiteSpace=wrap;rounded=0;fontSize=13;fontColor=#FFFFFF;" parent="1" vertex="1">
                    <mxGeometry x="555" y="602" width="234" height="30" as="geometry"/>
                </mxCell>
                <mxCell id="30" value="4:47pm" style="text;html=1;strokeColor=none;fillColor=none;align=right;verticalAlign=middle;whiteSpace=wrap;rounded=0;fontSize=11;fontColor=#FFFFFF;" parent="1" vertex="1">
                    <mxGeometry x="789" y="576" width="60" height="30" as="geometry"/>
                </mxCell>
                <mxCell id="31" value="&lt;pre style=&quot;font-size: 13px&quot;&gt;&lt;font color=&quot;#ffffff&quot; style=&quot;font-size: 13px&quot;&gt;Last week&lt;/font&gt;&lt;/pre&gt;" style="text;html=1;strokeColor=none;fillColor=none;align=left;verticalAlign=middle;whiteSpace=wrap;rounded=0;fontSize=13;fontColor=#FF00FF;" parent="1" vertex="1">
                    <mxGeometry x="509" y="645" width="76" height="30" as="geometry"/>
                </mxCell>
                <mxCell id="34" style="edgeStyle=none;html=1;fontSize=11;fontColor=#FFFFFF;" parent="1" source="32" edge="1">
                    <mxGeometry relative="1" as="geometry">
                        <mxPoint x="869" y="536.5" as="targetPoint"/>
                    </mxGeometry>
                </mxCell>
                <mxCell id="32" value="User submitted timesheet (HR)" style="ellipse;shape=cloud;whiteSpace=wrap;html=1;fontSize=11;fontColor=#FFFFFF;strokeColor=default;" parent="1" vertex="1">
                    <mxGeometry x="959" y="505" width="120" height="63" as="geometry"/>
                </mxCell>
                <mxCell id="36" style="edgeStyle=none;html=1;fontSize=11;fontColor=#FFFFFF;" parent="1" source="35" edge="1">
                    <mxGeometry relative="1" as="geometry">
                        <mxPoint x="869" y="606.5" as="targetPoint"/>
                    </mxGeometry>
                </mxCell>
                <mxCell id="35" value="Role update" style="ellipse;shape=cloud;whiteSpace=wrap;html=1;fontSize=11;fontColor=#FFFFFF;strokeColor=default;" parent="1" vertex="1">
                    <mxGeometry x="959" y="575" width="120" height="63" as="geometry"/>
                </mxCell>
                <mxCell id="37" value="" style="ellipse;whiteSpace=wrap;html=1;aspect=fixed;fontSize=13;fontColor=#FFFFFF;strokeColor=default;" parent="1" vertex="1">
                    <mxGeometry x="509" y="679" width="35" height="35" as="geometry"/>
                </mxCell>
                <mxCell id="38" value="&lt;b&gt;Sender Name&lt;/b&gt;" style="text;html=1;strokeColor=none;fillColor=none;align=left;verticalAlign=middle;whiteSpace=wrap;rounded=0;fontSize=13;fontColor=#FFFFFF;" parent="1" vertex="1">
                    <mxGeometry x="555" y="674" width="130" height="30" as="geometry"/>
                </mxCell>
                <mxCell id="39" value="You have successfully added &amp;lt;USER&amp;gt; to the role &amp;lt;ROLE&amp;gt;" style="text;html=1;strokeColor=none;fillColor=none;align=left;verticalAlign=middle;whiteSpace=wrap;rounded=0;fontSize=13;fontColor=#FFFFFF;" parent="1" vertex="1">
                    <mxGeometry x="555" y="700" width="234" height="30" as="geometry"/>
                </mxCell>
                <mxCell id="40" value="Jun 23&lt;br&gt;3:37pm" style="text;html=1;strokeColor=none;fillColor=none;align=right;verticalAlign=middle;whiteSpace=wrap;rounded=0;fontSize=11;fontColor=#FFFFFF;" parent="1" vertex="1">
                    <mxGeometry x="789" y="674" width="60" height="30" as="geometry"/>
                </mxCell>
                <mxCell id="42" style="edgeStyle=none;html=1;fontSize=11;fontColor=#FFFFFF;" parent="1" source="41" edge="1">
                    <mxGeometry relative="1" as="geometry">
                        <mxPoint x="869" y="705.5000000000002" as="targetPoint"/>
                    </mxGeometry>
                </mxCell>
                <mxCell id="41" value="Role update" style="ellipse;shape=cloud;whiteSpace=wrap;html=1;fontSize=11;fontColor=#FFFFFF;strokeColor=default;" parent="1" vertex="1">
                    <mxGeometry x="959" y="674" width="120" height="63" as="geometry"/>
                </mxCell>
                <mxCell id="43" value="" style="ellipse;whiteSpace=wrap;html=1;aspect=fixed;fontSize=13;fontColor=#FFFFFF;strokeColor=default;" parent="1" vertex="1">
                    <mxGeometry x="509" y="745" width="35" height="35" as="geometry"/>
                </mxCell>
                <mxCell id="44" value="&lt;b&gt;Sender Name&lt;/b&gt;" style="text;html=1;strokeColor=none;fillColor=none;align=left;verticalAlign=middle;whiteSpace=wrap;rounded=0;fontSize=13;fontColor=#FFFFFF;" parent="1" vertex="1">
                    <mxGeometry x="555" y="740" width="130" height="30" as="geometry"/>
                </mxCell>
                <mxCell id="45" value="Has joined the organization. Manage their roles in the User Administration." style="text;html=1;strokeColor=none;fillColor=none;align=left;verticalAlign=middle;whiteSpace=wrap;rounded=0;fontSize=13;fontColor=#FFFFFF;" parent="1" vertex="1">
                    <mxGeometry x="555" y="766" width="234" height="30" as="geometry"/>
                </mxCell>
                <mxCell id="46" value="Jun 22&lt;br&gt;5:26pm" style="text;html=1;strokeColor=none;fillColor=none;align=right;verticalAlign=middle;whiteSpace=wrap;rounded=0;fontSize=11;fontColor=#FFFFFF;" parent="1" vertex="1">
                    <mxGeometry x="789" y="740" width="60" height="30" as="geometry"/>
                </mxCell>
                <mxCell id="48" style="edgeStyle=none;html=1;fontSize=11;fontColor=#FFFFFF;" parent="1" source="47" edge="1">
                    <mxGeometry relative="1" as="geometry">
                        <mxPoint x="870" y="781" as="targetPoint"/>
                    </mxGeometry>
                </mxCell>
                <mxCell id="47" value="User joined" style="ellipse;shape=cloud;whiteSpace=wrap;html=1;fontSize=11;fontColor=#FFFFFF;strokeColor=default;" parent="1" vertex="1">
                    <mxGeometry x="959" y="749.5" width="120" height="63" as="geometry"/>
                </mxCell>
                <mxCell id="54" style="edgeStyle=none;html=1;fontSize=11;fontColor=#FFFFFF;exitX=0;exitY=0.5;exitDx=0;exitDy=0;" parent="1" source="50" edge="1">
                    <mxGeometry relative="1" as="geometry">
                        <mxPoint x="90.76470588235293" y="200.3529411764706" as="targetPoint"/>
                        <Array as="points">
                            <mxPoint x="420" y="200"/>
                        </Array>
                    </mxGeometry>
                </mxCell>
                <mxCell id="50" value="&lt;u&gt;Timesheet Submitted Payload&lt;/u&gt;:&lt;br&gt;object_type: &quot;timesheet&quot;&lt;br&gt;object_id: (to provide a link to the object in the notification)" style="shape=process;whiteSpace=wrap;html=1;backgroundOutline=1;fontSize=11;fontColor=#FFFFFF;strokeColor=default;align=left;" parent="1" vertex="1">
                    <mxGeometry x="492.5" y="100" width="365" height="60" as="geometry"/>
                </mxCell>
                <mxCell id="55" style="edgeStyle=none;html=1;fontSize=11;fontColor=#FFFFFF;exitX=0;exitY=0.5;exitDx=0;exitDy=0;" parent="1" source="51" edge="1">
                    <mxGeometry relative="1" as="geometry">
                        <mxPoint x="90" y="200" as="targetPoint"/>
                        <Array as="points"/>
                    </mxGeometry>
                </mxCell>
                <mxCell id="51" value="&lt;u&gt;Role Updated (I updated someone's role)&lt;/u&gt;:&lt;br&gt;user_id: ID&lt;br&gt;role: string" style="shape=process;whiteSpace=wrap;html=1;backgroundOutline=1;fontSize=11;fontColor=#FFFFFF;strokeColor=default;align=left;" parent="1" vertex="1">
                    <mxGeometry x="492.5" y="170" width="365" height="60" as="geometry"/>
                </mxCell>
                <mxCell id="56" style="edgeStyle=none;html=1;fontSize=11;fontColor=#FFFFFF;exitX=0;exitY=0.5;exitDx=0;exitDy=0;" parent="1" source="53" edge="1">
                    <mxGeometry relative="1" as="geometry">
                        <mxPoint x="90" y="200" as="targetPoint"/>
                        <Array as="points">
                            <mxPoint x="420" y="200"/>
                        </Array>
                    </mxGeometry>
                </mxCell>
                <mxCell id="53" value="&lt;u&gt;Role Updated (I had my role updated)&lt;/u&gt;:&lt;br&gt;role: string" style="shape=process;whiteSpace=wrap;html=1;backgroundOutline=1;fontSize=11;fontColor=#FFFFFF;strokeColor=default;align=left;" parent="1" vertex="1">
                    <mxGeometry x="492.5" y="240" width="365" height="60" as="geometry"/>
                </mxCell>
            </root>
        </mxGraphModel>
    </diagram>
</mxfile>